<svg width="273" height="80" viewBox="0 0 273 80" fill="none" xmlns="http://www.w3.org/2000/svg">
<g clip-path="url(#clip0)">
<path d="M44.4335 22.6207H36.2206L24.3574 53.4232H31.793L33.7195 48.1824H44.9405L42.9126 42.4344H35.5108L40.3102 29.1802L48.8611 53.4232H56.2967L44.4335 22.6207ZM169.25 53.4232V22.6207H175.841V47.6414H188.853V53.4232H169.25ZM207.273 53.4232V22.6207H213.898V47.6414H226.91V53.4232H207.273ZM132.681 28.132C138.156 28.132 142.583 32.5613 142.583 38.0388C142.583 43.5163 138.156 47.9457 132.681 47.9457C127.205 47.9457 122.778 43.5163 122.778 38.0388C122.778 32.5613 127.239 28.132 132.681 28.132V28.132ZM132.681 22.1135C123.893 22.1135 116.762 29.2478 116.762 38.0388C116.762 46.8299 123.893 53.9642 132.681 53.9642C141.468 53.9642 148.6 46.8299 148.6 38.0388C148.6 29.2478 141.468 22.1135 132.681 22.1135V22.1135ZM257.261 28.132C262.736 28.132 267.164 32.5613 267.164 38.0388C267.164 43.5163 262.736 47.9457 257.261 47.9457C251.785 47.9457 247.358 43.5163 247.358 38.0388C247.358 32.5613 251.785 28.132 257.261 28.132ZM257.261 22.1135C248.473 22.1135 241.342 29.2478 241.342 38.0388C241.342 46.8299 248.473 53.9642 257.261 53.9642C266.048 53.9642 273.18 46.8299 273.18 38.0388C273.18 29.2478 266.048 22.1135 257.261 22.1135ZM89.8583 22.6207H75.4941V53.4232H82.0509V42.8063H89.8583C95.3336 42.8063 99.7612 38.1741 99.7612 32.6966C99.7612 27.2529 95.3336 22.6207 89.8583 22.6207V22.6207ZM89.8583 36.7878H82.0509V28.6392H89.8583C91.9876 28.6392 93.7451 30.5665 93.7451 32.6966C93.7451 34.8267 91.9876 36.7878 89.8583 36.7878V36.7878Z" fill="#111111"/>
<path d="M69.8497 62.7553C69.2751 62.7553 68.7682 63.0258 68.464 63.4653C68.464 63.4653 66.9769 65.1559 66.1995 65.9674C62.8197 69.3486 58.8991 71.9859 54.5391 73.8455C50.0102 75.7728 45.2108 76.7195 40.2425 76.7195C35.2741 76.7195 30.4748 75.739 25.9458 73.8455C21.5859 71.9859 17.6315 69.3486 14.2855 65.9674C10.9056 62.5862 8.26939 58.6641 6.41049 54.3023C4.48399 49.7716 3.53764 44.9703 3.53764 40C3.53764 35.0297 4.51779 30.2284 6.41049 25.6976C8.23559 21.3359 10.8718 17.3799 14.2517 14.0326C17.6315 10.6514 21.5521 8.0141 25.912 6.15446C30.441 4.22719 35.2403 3.28046 40.2087 3.28046C45.177 3.28046 49.9764 4.261 54.5053 6.15446C57.6824 7.50693 60.6228 9.26514 63.2929 11.4291C63.1577 11.8348 63.0563 12.3082 63.0563 12.7816C63.0563 15.0808 64.9152 16.9404 67.2134 16.9404C69.5117 16.9404 71.3706 15.0808 71.3706 12.7816C71.3706 10.4824 69.5117 8.62271 67.2134 8.62271C66.6389 8.62271 66.0981 8.72415 65.6249 8.96083C58.6963 3.28046 49.875 -0.134521 40.2087 -0.134521C18.0709 -0.134521 0.124023 17.8195 0.124023 40C0.124023 62.1805 18.0709 80.1345 40.2425 80.1345C52.6464 80.1345 63.6984 74.5217 71.0664 65.6631C71.3706 65.3588 71.5734 64.9192 71.5734 64.4797C71.5396 63.5329 70.7623 62.7553 69.8497 62.7553Z" fill="#111111"/>
</g>
<defs>
<clipPath id="clip0">
<rect width="272.593" height="80" fill="white"/>
</clipPath>
</defs>
</svg>
