<svg width="54" height="80" viewBox="0 0 54 80" fill="none" xmlns="http://www.w3.org/2000/svg">
<g clip-path="url(#clip0)">
<path d="M13.3167 79.9999C20.6645 79.9999 26.6279 74.0266 26.6279 66.6666V53.3333H13.3167C5.96883 53.3333 0.00537109 59.3066 0.00537109 66.6666C0.00537109 74.0266 5.96883 79.9999 13.3167 79.9999Z" fill="#111111"/>
<path d="M0.00537109 39.9998C0.00537109 32.6398 5.96883 26.6665 13.3167 26.6665H26.6279V53.3332H13.3167C5.96883 53.3332 0.00537109 47.3598 0.00537109 39.9998Z" fill="#111111"/>
<path d="M0.00524902 13.3333C0.00524902 5.97333 5.96871 0 13.3165 0H26.6278V26.6667H13.3165C5.96871 26.6667 0.00524902 20.6933 0.00524902 13.3333Z" fill="#111111"/>
<path d="M26.6279 0H39.9392C47.2871 0 53.2505 5.97333 53.2505 13.3333C53.2505 20.6933 47.2871 26.6667 39.9392 26.6667H26.6279V0Z" fill="#111111"/>
<path d="M53.2505 39.9998C53.2505 47.3598 47.2871 53.3332 39.9392 53.3332C32.5914 53.3332 26.6279 47.3598 26.6279 39.9998C26.6279 32.6398 32.5914 26.6665 39.9392 26.6665C47.2871 26.6665 53.2505 32.6398 53.2505 39.9998Z" fill="#111111"/>
</g>
<defs>
<clipPath id="clip0">
<rect width="53.2558" height="80" fill="white"/>
</clipPath>
</defs>
</svg>
