<svg width="80" height="80" viewBox="0 0 80 80" fill="none" xmlns="http://www.w3.org/2000/svg">
<path d="M40 0C17.9086 0 0 17.9086 0 40C0 62.0915 17.9087 80 40 80C62.0915 80 80 62.0914 80 40C80 17.9086 62.0915 0 40 0ZM8.59499 40.417L39.583 71.405C22.567 71.1832 8.81671 57.4329 8.59499 40.417ZM47.0301 70.6198L9.38021 32.9699C12.5728 19.0073 25.0695 8.58974 40 8.58974C50.4367 8.58974 59.6828 13.6813 65.3946 21.5145L61.0457 25.3518C56.4124 18.7074 48.7146 14.359 40 14.359C28.9046 14.359 19.4561 21.4066 15.8847 31.2693L48.7308 64.1153C56.7075 61.2268 62.8422 54.4933 64.8968 46.1539H51.2821V40.0001H65.641V39.9999H71.4103V40C71.4103 54.9305 60.9928 67.4272 47.0301 70.6198Z" fill="#111111"/>
</svg>
