<svg width="73" height="80" viewBox="0 0 73 80" fill="none" xmlns="http://www.w3.org/2000/svg">
<path d="M36.4457 79.9677C35.3748 79.9677 34.3113 79.6868 33.3724 79.1462L23.5898 73.3545C22.1287 72.5374 22.8417 72.2484 23.3236 72.0819C25.2717 71.3998 25.6671 71.2458 27.7465 70.0648C27.9651 69.9401 28.2512 69.9842 28.4749 70.1162L35.9902 74.5758C36.2616 74.7225 36.6467 74.7225 36.8983 74.5758L66.2012 57.6615C66.4726 57.5075 66.6487 57.1921 66.6487 56.8693V23.0554C66.6487 22.718 66.4726 22.4173 66.1954 22.2486L36.9042 5.34898C36.6328 5.18761 36.2734 5.18761 36.002 5.34898L6.71664 22.2486C6.43277 22.41 6.25234 22.7254 6.25234 23.0481V56.862C6.25234 57.1847 6.42837 57.4928 6.7071 57.6468L14.7315 62.2825C19.0884 64.461 21.751 61.8938 21.751 59.3119V25.9381C21.751 25.4613 22.1251 25.0945 22.6018 25.0945H26.3133C26.7754 25.0945 27.1568 25.4613 27.1568 25.9381V59.3265C27.1568 65.1358 23.9881 68.4732 18.4796 68.4732C16.7853 68.4732 15.4503 68.4732 11.7242 66.6394L4.03719 62.2092C2.13745 61.1089 0.963867 59.0552 0.963867 56.862V23.0481C0.963867 20.8476 2.13745 18.7939 4.03719 17.7083L33.3695 0.786669C35.2252 -0.262223 37.6897 -0.262223 39.5308 0.786669L68.8264 17.7156C70.7188 18.8085 71.8997 20.855 71.8997 23.0554V56.8693C71.8997 59.0625 70.7188 61.1089 68.8264 62.2092L39.5308 79.1308C38.5919 79.6736 37.5284 79.9523 36.4428 79.9523" fill="#111111"/>
<path d="M45.497 56.6676C32.6755 56.6676 29.9873 50.7821 29.9873 45.8457C29.9873 45.3763 30.3658 45.0022 30.836 45.0022H34.6208C35.0389 45.0022 35.3909 45.3066 35.4569 45.7196C36.0291 49.5762 37.7308 51.5215 45.4838 51.5215C51.6597 51.5215 54.2856 50.1264 54.2856 46.8513C54.2856 44.9663 53.5375 43.5653 43.9434 42.6264C35.919 41.8343 30.9607 40.0665 30.9607 33.6485C30.9607 27.7366 35.9484 24.2158 44.3028 24.2158C53.6842 24.2158 58.3345 27.4725 58.9213 34.47C58.9433 34.7121 58.8553 34.9468 58.6939 35.1228C58.5326 35.2915 58.3052 35.3942 58.0705 35.3942H54.2636C53.8676 35.3942 53.5228 35.1155 53.4421 34.7341C52.5253 30.6779 50.3101 29.3796 44.2882 29.3796C37.5474 29.3796 36.7626 31.7268 36.7626 33.4871C36.7626 35.6216 37.6868 36.2451 46.782 37.448C55.7893 38.6436 60.0656 40.3306 60.0656 46.6606C60.0656 53.042 54.7404 56.7021 45.4544 56.7021L45.497 56.6676Z" fill="#111111"/>
</svg>
