<svg width="480" height="71" viewBox="0 0 480 71" fill="none" xmlns="http://www.w3.org/2000/svg">
<path d="M4.79539e-07 70.7509C13.6679 59.7793 29.1018 51.1774 45.1062 44.0727C92.6985 22.9457 145.992 14.9431 197.658 21.1657C241.141 26.4027 282.888 41.3919 326.07 48.7214C377.079 57.3795 429.894 55.1504 480 42.2247C429.224 59.7591 373.668 59.3221 320.855 49.5923C275.723 41.2778 231.721 26.3626 186.012 22.3413C120.95 16.6177 54.1022 34.0148 0 70.7509H4.79539e-07Z" fill="#111111"/>
<path d="M32.2738 21.3387C34.7939 22.4076 37.2654 23.5919 39.6781 24.8868C41.6087 25.9229 43.6581 27.219 44.3001 29.3204C40.4136 26.3009 36.0327 23.9245 31.3871 22.316C32.8738 26.4423 34.5918 30.4846 36.5304 34.4173C44.3867 31.0013 52.2431 27.5853 60.0994 24.1693C58.6885 20.3415 57.2776 16.5136 55.8667 12.6857C52.6347 18.1676 49.2047 23.5318 45.5858 28.7642C45.0524 28.5405 45.2645 27.7378 45.5634 27.2409C48.4919 22.3725 51.5227 17.566 54.6528 12.8257C55.0008 12.2987 55.4931 11.7046 56.1152 11.8028C56.7112 11.8969 57.0072 12.5642 57.1992 13.1385C58.394 16.7117 59.5888 20.285 60.7836 23.8583C61.0699 24.7144 60.0812 25.4127 59.2567 25.7733C51.9596 28.964 44.6625 32.1548 37.3654 35.3456C37.0384 35.4886 36.6821 35.6346 36.3354 35.5509C35.8586 35.4359 35.589 34.9423 35.3798 34.497C33.5983 30.7061 31.9812 26.8372 30.5347 22.9051C30.3898 22.5114 30.2463 22.0741 30.3973 21.6826C30.5553 21.2728 30.9836 21.0467 31.3783 20.8568C38.9765 17.2019 46.7038 13.8179 54.5409 10.7132C54.8823 10.9926 54.9742 11.5344 54.7441 11.9115C47.254 15.0539 39.7639 18.1963 32.2738 21.3387Z" fill="#111111"/>
<path d="M118.907 2.88405C119.194 2.80516 119.524 2.78855 119.768 2.95976C119.969 3.10111 120.078 3.36435 120.035 3.60729C119.526 3.68589 119.734 4.45894 119.656 4.96962C119.562 5.58502 118.774 5.93744 118.213 5.67254C117.652 5.40763 117.399 4.67659 117.582 4.08175C117.765 3.4869 118.309 3.04843 118.907 2.88405V2.88405Z" fill="#111111"/>
<path d="M148.145 3.01909C148.046 3.09206 147.907 3.06234 147.791 3.02049C147.234 2.81894 146.742 2.37204 146.599 1.79499C146.456 1.21794 146.737 0.531955 147.288 0.315864C147.927 0.065822 148.699 0.551294 148.871 1.2173C149.044 1.88331 148.698 2.61243 148.145 3.01909V3.01909Z" fill="#111111"/>
<path d="M341.649 41.8539C341.84 41.0713 343.09 40.9379 343.542 41.604C343.993 42.2702 343.585 43.2898 342.841 43.5924C342.495 43.7331 342.152 43.3901 341.959 43.0698C341.737 42.7024 341.547 42.2712 341.649 41.8539V41.8539Z" fill="#111111"/>
<path d="M88.0837 12.4717C88.4773 12.9157 88.418 13.7567 87.8686 13.9781C87.3055 14.2051 86.6274 13.6978 86.0813 13.9632C85.7587 13.4338 85.9068 12.6678 86.4032 12.298C86.8997 11.9282 87.6727 12.0081 88.0837 12.4717Z" fill="#111111"/>
<path d="M283.84 29.3185C283.349 28.7419 282.249 28.9473 281.997 29.6628C281.746 30.3782 282.473 31.2322 283.216 31.0934C283.959 30.9547 284.332 29.8952 283.84 29.3185Z" fill="#111111"/>
<path d="M373.435 41.3136C374.097 38.8628 374.617 35.8527 372.772 34.1154C372.235 33.6095 372.484 32.6376 373.072 32.1919C373.66 31.7462 374.441 31.6804 375.175 31.6312C386.572 30.8679 397.968 30.1046 409.365 29.3412C413.922 29.036 418.546 28.7349 423.019 29.6628C411.396 35.9638 399.772 42.2647 388.149 48.5656C387.426 48.9577 386.269 49.1999 386.004 48.4188C385.16 45.9366 381.733 45.6203 379.235 46.3858C376.736 47.1512 374.186 48.5462 371.666 47.8592C372.255 45.6773 372.845 43.4955 373.435 41.3136ZM419.383 30.5378C418.798 30.219 418.081 30.3771 417.436 30.5431C404.762 33.8103 392.119 37.1971 379.508 40.7029C381.698 42.7503 383.887 44.7977 386.077 46.845C386.665 47.3951 387.517 47.978 388.196 47.5451C398.187 41.1677 408.616 35.4807 419.383 30.5378ZM376.598 37.4978C388.691 35.6421 400.728 33.4209 412.688 30.8383C412.569 30.2835 411.824 30.2007 411.26 30.2444C398.726 31.2174 386.192 32.1904 373.657 33.1634C374.062 34.3068 374.466 35.4502 374.87 36.5936C374.964 36.86 375.067 37.1393 375.281 37.3222C375.63 37.6194 376.146 37.5672 376.598 37.4978V37.4978ZM373.42 43.7859C373.285 44.2041 373.288 44.8493 373.725 44.8793C374.311 43.6861 374.917 42.4649 375.886 41.5571C377.086 40.4317 378.712 39.9073 380.284 39.4308C383.951 38.3196 387.643 37.291 391.356 36.3461C391.527 36.2121 391.433 35.9088 391.24 35.8092C391.047 35.7097 390.814 35.7495 390.601 35.7916C385.619 36.7769 380.637 37.7622 375.654 38.7475C375.076 38.8619 374.8 39.5135 374.618 40.0766C374.218 41.313 373.819 42.5495 373.42 43.7859ZM373.382 46.2999C373.101 46.668 372.924 47.3591 373.376 47.4569C375.448 46.405 377.705 45.7204 380.011 45.444C380.542 45.3805 381.214 45.2109 381.279 44.6783C381.323 44.3151 381.036 44.0054 380.772 43.7539C379.983 43.0039 379.193 42.2539 378.404 41.5039C378.253 41.3607 378.082 41.2084 377.874 41.2061C377.639 41.2034 377.451 41.3922 377.294 41.5678C375.929 43.0933 374.624 44.6722 373.382 46.2999Z" fill="#111111"/>
<path d="M205.907 10.7475C205.181 10.562 205.028 9.38757 205.659 8.98393C206.291 8.58029 207.258 9.14241 207.27 9.89438C207.282 10.6463 206.407 11.2418 205.698 10.9979L205.907 10.7475Z" fill="#111111"/>
<path d="M178.13 4.42694C177.989 5.09973 177.673 5.73465 177.221 6.25127C176.53 6.48202 175.786 5.63622 176.04 4.95108C176.294 4.26594 177.308 4.06307 177.854 4.54551L178.13 4.42694Z" fill="#111111"/>
<path d="M260.012 26.0622C259.133 25.9514 258.562 24.8179 258.995 24.0411C259.181 23.7077 259.507 23.4616 259.872 23.3532C260.259 24.1943 260.31 25.1854 260.012 26.0622L260.012 26.0622Z" fill="#111111"/>
<path d="M314.084 37.0821C314.295 37.1667 314.538 37.3247 314.511 37.552C314.497 37.6678 314.413 37.7611 314.333 37.845C313.994 38.1982 313.615 38.5476 313.141 38.6671C312.667 38.7866 312.081 38.5915 311.918 38.1289C311.749 37.6489 312.123 37.1067 312.602 36.9401C313.081 36.7735 313.612 36.8941 314.084 37.0821V37.0821Z" fill="#111111"/>
<path d="M231.864 17.9259C231.543 17.31 232.565 16.6536 233.095 17.1009C233.625 17.5482 233.436 18.4933 232.868 18.8899C232.526 18.5869 232.184 18.2839 231.843 17.9809L231.864 17.9259Z" fill="#111111"/>
</svg>
