<svg width="481" height="91" viewBox="0 0 481 91" fill="none" xmlns="http://www.w3.org/2000/svg">
<path d="M481 86.0292C478.295 84.7904 475.572 83.524 472.888 82.177C466.171 78.8048 459.524 75.2879 452.75 72.035C446.99 69.2686 441.133 66.6919 435.242 64.216C430.952 62.4129 426.587 60.755 422.165 59.3124C416.249 57.3824 410.273 55.6219 404.271 53.9813C399.878 52.7806 395.416 51.817 390.957 50.8853C387.517 50.1666 384.03 49.6794 380.57 49.0557C377.876 48.5701 375.198 47.9915 372.499 47.5345C370.964 47.2744 369.397 47.204 367.852 46.9975C365.473 46.6797 363.103 46.2902 360.722 45.9849C359.007 45.7649 357.281 45.6353 355.56 45.4605C352.203 45.1196 348.847 44.7645 345.489 44.4381C344.248 44.3174 343 44.2698 341.756 44.1739C329.551 43.2326 317.324 43.7646 305.108 43.6928C300.615 43.6665 296.118 43.9778 291.626 44.1856C289.177 44.299 286.732 44.504 284.287 44.6931C281.149 44.9358 278.011 45.1737 274.878 45.4695C271.646 45.7747 268.409 46.0687 265.193 46.5087C260.73 47.1192 256.276 47.8095 251.835 48.5613C247.143 49.3553 242.459 50.201 237.794 51.1357C233.04 52.088 228.302 53.123 223.579 54.2172C216.383 55.8844 209.195 57.5927 202.022 59.3601C195.409 60.9899 188.816 62.7078 182.22 64.4107C177.211 65.7041 172.201 66.9997 167.21 68.3598C162.997 69.5074 158.822 70.7928 154.609 71.9372C150.305 73.1063 145.977 74.1858 141.656 75.29C138.258 76.1584 134.864 77.0471 131.45 77.8508C126.544 79.0059 121.624 80.1042 116.705 81.204C111.273 82.4186 105.847 83.6626 100.397 84.7888C96.6039 85.5725 92.7723 86.165 88.9629 86.8695C85.836 87.4477 82.726 88.1241 79.5901 88.645C77.4096 89.0071 75.2001 89.2007 72.9997 89.4318C69.5594 89.7931 66.1224 90.2842 62.6719 90.4281C57.2523 90.6541 51.8229 90.6691 46.3971 90.7062C44.3 90.7205 42.2011 90.5627 40.1041 90.4627C36.7186 90.3011 33.3292 90.1871 29.9504 89.9331C26.4595 89.6707 22.9698 89.3403 19.4971 88.9005C16.2407 88.4881 13.0102 87.8737 9.76198 87.3907C8.69877 87.2326 7.61703 87.1572 6.5418 87.1334C4.69358 87.0927 2.84317 87.1474 0.995314 87.0991C0.659541 87.0903 0.33157 86.7805 0 86.6097C0.294966 86.3519 0.559664 85.9217 0.889616 85.8632C3.9061 85.3289 6.90715 85.659 9.91153 86.0811C12.1859 86.4007 14.4751 86.6154 16.7592 86.8632C19.9873 87.2133 23.2167 87.5516 26.446 87.8914C26.6148 87.9091 26.7871 87.8905 26.9577 87.8941C30.9326 87.9793 34.9072 88.0845 38.8825 88.1465C45.4169 88.2483 51.9538 88.4598 58.4855 88.3564C62.4014 88.2944 66.3113 87.7428 70.2201 87.3714C72.4647 87.1581 74.7011 86.86 76.9423 86.6103C77.8439 86.5098 78.7496 86.4461 79.6507 86.3418C79.8153 86.3227 80.0659 86.2165 80.0989 86.0998C80.1401 85.9536 80.0443 85.6452 79.9276 85.5952C76.8727 84.2854 75.8414 81.1895 73.9796 78.8298C73.2149 77.8607 72.4989 76.8444 71.6602 75.9442C70.2929 74.4764 70.7613 72.586 72.7458 71.957C74.2207 71.4895 75.723 71.1101 77.2031 70.6583C78.6145 70.2274 78.8655 69.7669 78.0871 68.5249C76.8425 66.539 75.5346 64.5803 74.0872 62.7423C73.5235 62.0265 72.5059 61.6736 71.7014 61.1457C71.4271 60.9658 71.1722 60.7561 70.9085 60.56C71.1859 60.3275 71.4451 59.9265 71.7442 59.8936C72.6909 59.7897 73.6506 59.7564 74.3758 60.6271C74.8666 61.2165 75.4448 61.7339 76.0013 62.2652C76.1014 62.3608 76.2861 62.367 76.4318 62.4144C76.4679 62.258 76.5782 62.0716 76.5292 61.9497C75.5503 59.5105 76.5275 57.0066 76.2694 54.5518C76.0905 52.8501 75.9443 51.1138 75.4807 49.4797C74.4872 45.9776 70.1323 43.3813 66.6499 43.9586C65.0674 44.2209 63.9558 45.4512 62.9728 46.6984C62.8338 46.8748 62.6939 47.0506 62.5545 47.2267C62.438 46.9752 62.2228 46.7246 62.2205 46.472C62.2025 44.4608 64.8588 41.8057 66.9107 41.589C71.5195 41.1023 74.8434 43.1548 77.0617 46.9836C77.8515 48.3469 78.2517 50.1234 78.267 51.7167C78.302 55.3724 78.2347 59.0663 77.7243 62.6755C77.4399 64.6863 78.7696 65.8493 79.1274 67.463C79.2203 67.8819 79.4079 68.2938 79.625 68.666C79.7844 68.9395 80.0853 69.3512 80.2829 69.3296C80.5903 69.2959 80.9873 69.0094 81.132 68.7214C82.3595 66.278 83.3431 63.6872 84.7804 61.3798C86.6458 58.3851 88.7874 55.5519 90.9698 52.7758C91.6261 51.9409 92.8046 51.5113 93.7688 50.9385C93.9311 50.8421 94.2211 50.9627 94.4521 50.983C94.3966 51.215 94.4077 51.4986 94.2755 51.6713C92.4804 54.0156 90.6551 56.3364 88.868 58.6866C88.6289 59.001 88.5579 59.4443 88.4091 59.8278C88.8029 59.8394 89.211 59.9241 89.5883 59.8503C91.6695 59.443 93.779 58.9818 95.397 57.5227C96.8066 56.2516 98.0736 54.8065 99.2919 53.3443C99.6634 52.8985 99.7915 52.1452 99.8115 51.5256C99.875 49.5561 99.7578 47.5789 99.8698 45.6138C99.9207 44.7228 100.291 43.8316 100.62 42.9807C100.909 42.2311 101.096 41.8001 99.9497 41.837C97.5205 41.915 95.0856 41.9129 92.6556 41.8473C89.7381 41.7687 87.8682 43.2898 86.4506 45.6527C85.2251 47.6956 84.9677 49.9768 84.7361 52.2679C84.5443 54.1663 84.4095 56.0706 84.2004 57.9668C84.1669 58.2705 83.8758 58.5455 83.7039 58.8338C83.6199 58.5502 83.4832 58.2709 83.4602 57.9824C83.2747 55.6545 83.0119 53.3269 82.9636 50.9953C82.8959 47.7293 84.0165 44.8263 86.306 42.5088C88.0014 40.7927 90.1688 39.8883 92.6013 39.815C94.5194 39.7573 96.4413 39.773 98.36 39.8178C99.1718 39.8368 99.9774 40.0639 100.79 40.1058C101.621 40.1486 102.458 40.104 103.289 40.0503C103.684 40.0247 104.084 39.7883 104.46 39.834C104.785 39.8736 105.077 40.1769 105.384 40.3636C105.198 40.6055 105.058 40.9193 104.817 41.078C102.664 42.4963 101.427 44.3414 101.598 47.0688C101.709 48.8404 101.77 50.675 101.438 52.4007C100.926 55.0633 98.8902 56.8478 96.9315 58.4558C94.6017 60.3685 91.8462 61.5091 88.7188 61.1285C87.6284 60.9958 87.0198 61.6177 86.5463 62.3385C85.6496 63.7033 84.8612 65.143 84.0877 66.584C83.9217 66.8932 84.0102 67.3403 83.9815 67.7238C84.278 67.5856 84.6081 67.4926 84.8648 67.3007C85.6857 66.6868 86.4328 65.9616 87.2953 65.4188C88.3524 64.7537 89.2732 65.2573 89.3267 66.5193C89.4522 69.4822 89.6745 72.455 89.5479 75.4105C89.4287 78.1925 88.8891 80.9549 88.6155 83.734C88.5929 83.9633 89.2441 84.5251 89.4934 84.4761C93.5073 83.6875 97.5131 82.8532 101.508 81.9699C104.745 81.2539 107.965 80.4608 111.192 79.6981C115.585 78.66 119.979 77.6286 124.368 76.5755C128.946 75.4768 133.526 74.3783 138.095 73.239C144.9 71.542 151.716 69.8831 158.491 68.068C163.738 66.6621 168.91 64.9733 174.15 63.5339C181.324 61.5629 188.526 59.6913 195.725 57.8121C199.813 56.745 203.909 55.7043 208.021 54.7331C211.22 53.9774 214.452 53.3616 217.66 52.641C217.995 52.5657 218.266 52.2019 218.566 51.972C218.172 51.5162 217.746 50.6463 217.388 50.6736C215.483 50.8188 215.048 49.6362 214.464 48.1756C213.495 45.7526 212.237 43.4439 211.067 41.1043C210.285 39.541 209.371 38.0409 208.649 36.452C207.799 34.5847 206.55 34.8885 205.058 35.0171C203.676 35.1363 202.28 35.1893 200.896 35.1296C200.56 35.1152 200.012 34.5579 199.991 34.2234C199.969 33.8713 200.387 33.2893 200.744 33.1499C202.73 32.3756 204.859 31.908 206.746 30.9517C209.526 29.5425 212.641 29.3817 215.473 28.207C218.242 27.0586 221.102 26.1333 223.914 25.0877C229.758 22.9145 235.563 20.6253 241.457 18.5994C243.534 17.8856 245.821 17.7748 248.02 17.4458C248.702 17.3437 249.416 17.3863 250.108 17.446C250.534 17.4827 250.946 17.677 251.364 17.8006C251.081 18.1057 250.854 18.5404 250.505 18.6949C248.088 19.7631 245.664 20.8198 243.204 21.7847C241.66 22.3905 240.032 22.7782 238.48 23.3661C237.668 23.6736 237.124 24.1123 237.514 25.3024C238.584 28.5688 240.616 31.2407 242.437 34.0615C244.261 36.8855 245.958 39.7916 247.694 42.6724C247.874 42.9711 247.889 43.3681 248.06 43.674C248.534 44.5174 248.457 45.4587 247.706 45.8469C246.866 46.2812 245.749 46.134 245.147 45.2152C243.344 42.4626 241.572 39.6867 239.874 36.8676C238.456 34.5133 237.106 32.1135 235.833 29.6775C235.251 28.5638 234.891 27.326 234.496 26.123C234.205 25.2391 233.809 24.976 232.862 25.3337C227.619 27.314 222.354 29.238 217.092 31.1676C215.72 31.6709 214.34 32.1576 212.945 32.5912C212.052 32.8689 211.699 33.3082 212.153 34.217C213.607 37.1259 215.019 40.0566 216.509 42.9462C217.695 45.2441 218.974 47.4929 220.206 49.7671C220.299 49.939 220.424 50.1558 220.392 50.324C220.098 51.8509 220.874 51.9164 222.041 51.6425C225.352 50.8653 228.665 50.0954 231.992 49.393C234.789 48.8026 237.607 48.3132 240.414 47.7751C243.933 47.1007 247.444 46.3848 250.971 45.7603C252.937 45.4122 254.932 45.2295 256.91 44.9424C259.119 44.6218 261.321 44.2514 263.53 43.9353C264.469 43.801 265.418 43.743 266.363 43.6623C268.425 43.4864 270.487 43.3118 272.55 43.148C275.857 42.8855 279.164 42.6303 282.471 42.3758C284.747 42.2007 287.02 41.9742 289.299 41.8728C294.047 41.6615 298.797 41.4564 303.549 41.3609C310.594 41.2193 317.642 41.1641 324.688 41.0943C327.746 41.0641 330.809 40.9939 333.862 41.1122C338.154 41.2786 342.444 41.5453 346.726 41.8802C349.835 42.1234 352.934 42.5146 356.03 42.8975C359.917 43.3783 363.797 43.9243 367.681 44.4303C370.397 44.7841 373.127 45.0446 375.829 45.4802C379.05 45.9994 382.252 46.643 385.456 47.2659C389.322 48.0177 393.21 48.6868 397.039 49.6038C402.535 50.9203 408.014 52.325 413.446 53.8852C418.427 55.3159 423.362 56.9211 428.264 58.6068C431.28 59.6441 434.245 60.8696 437.147 62.1995C442.962 64.8647 448.785 67.5285 454.482 70.4365C460.556 73.5372 466.502 76.8936 472.476 80.1899C475.308 81.753 478.075 83.4361 480.936 85.0648C481 85.3649 481 85.6649 481 86.0292ZM74.3643 76.064C74.8459 76.6335 75.3975 77.1578 75.7965 77.7807C77.2421 80.0376 78.7614 82.2622 79.9942 84.6346C80.554 85.7118 81.1762 86.005 82.1781 85.8222C83.1541 85.6441 84.1233 85.3958 85.0704 85.0978C86.9855 84.4954 86.9757 84.4732 86.7831 82.5264C86.758 82.2723 86.7684 82.0129 86.7814 81.7569C86.9495 78.4487 87.1063 75.1398 87.3007 71.8331C87.3584 70.8515 87.5341 69.8773 87.6365 68.8977C87.6814 68.4674 87.6782 68.0319 87.6968 67.5988C87.2606 67.7657 86.7173 67.8194 86.4051 68.1175C84.0886 70.3301 81.2453 71.6183 78.3155 72.6791C76.9334 73.1795 75.3872 73.2121 73.9253 73.5067C73.4993 73.5926 73.1077 73.8511 72.7004 74.0304C72.9415 74.3076 73.1917 74.5774 73.4215 74.8639C73.7021 75.2137 73.9655 75.5776 74.3643 76.064Z" fill="#111111"/>
<path d="M413.163 31.8312C416.07 32.5687 418.556 33.9015 420.776 35.7041C421.915 36.6288 422.917 37.7223 423.997 38.7218C424.576 39.2576 425.303 39.6701 425.767 40.287C427.188 42.1759 426.317 43.5702 424.404 44.3867C422.409 45.2377 420.994 44.6929 420.337 42.8047C419.709 40.9998 418.065 40.3624 416.605 39.588C415.756 39.1378 415.114 39.9113 414.612 40.5467C413.802 41.5714 413.028 42.6254 412.254 43.6783C411.546 44.6418 411.791 45.2931 413.189 46.2326C414.644 47.2107 414.932 50.0846 413.667 51.2357C413.445 51.4378 412.976 51.6892 412.838 51.5953C412.532 51.3881 412.23 50.9985 412.169 50.6416C412.063 50.0169 412.185 49.357 412.13 48.7188C412.008 47.291 410.831 46.9448 409.766 46.5729C408.992 46.3025 408.41 46.5677 407.993 47.3934C407.665 48.0429 407.092 48.5841 406.563 49.1075C406.281 49.3861 405.863 49.5247 405.506 49.7265C405.498 49.2005 405.293 48.5522 405.525 48.1738C406.019 47.3668 406.739 46.6996 407.367 45.9756C407.492 45.8317 407.619 45.6897 407.745 45.5468C407.579 45.4325 407.424 45.2429 407.245 45.216C405.953 45.022 404.66 44.7694 403.362 44.7313C402.781 44.7142 402.173 45.1197 401.603 45.3865C401.1 45.6215 400.77 46.7658 400.158 46.031C399.786 45.5844 399.83 44.4694 400.115 43.8558C400.758 42.473 402.708 41.9116 404.56 42.3809C405.792 42.693 407.001 43.0969 408.239 43.3779C408.541 43.4463 409.035 43.299 409.235 43.0699C410.6 41.5121 411.918 39.9122 413.202 38.2871C413.245 38.2327 412.822 37.6333 412.525 37.512C411.357 37.034 410.154 36.6391 408.96 36.2256C407.225 35.625 406.614 34.902 406.764 33.6042C406.868 32.7015 408.377 31.5939 409.685 31.5921C410.802 31.5906 411.919 31.7455 413.163 31.8312Z" fill="#111111"/>
<path d="M216.757 25.8522C214.781 26.5515 212.872 27.1958 210.954 27.8131C210.611 27.9238 210.215 28.0138 209.873 27.9509C209.443 27.8717 209.043 27.6253 208.63 27.4511C208.928 27.0253 209.132 26.404 209.539 26.2065C211.631 25.1926 213.808 24.3549 215.893 23.3272C218.307 22.1373 220.919 21.1312 222.938 19.4357C224.265 18.3217 224.921 16.1996 225.475 14.4036C226.475 11.1616 227.302 7.85048 227.944 4.51823C228.255 2.90594 229.249 1.85453 230.112 0.665728C230.317 0.383532 231.153 0.186739 231.342 0.355125C231.656 0.63423 231.894 1.29283 231.795 1.70231C230.947 5.23592 229.739 8.70716 229.195 12.2824C228.755 15.1758 228.185 17.9979 227.299 20.7674C227.176 21.1521 226.884 21.6282 226.547 21.7737C224.666 22.5859 222.742 23.2951 220.844 24.0681C219.493 24.618 218.161 25.213 216.757 25.8522Z" fill="#111111"/>
<path d="M421.291 21.7375C419.395 25.1207 416.97 27.8407 413.424 29.3491C412.645 29.6807 411.748 29.8111 411.001 29.0332C410.282 28.2843 410.083 27.4309 410.625 26.5937C411.379 25.43 412.097 24.1222 413.158 23.305C415.914 21.1822 417.598 18.4223 418.832 15.2447C419.533 13.4406 420.419 11.6915 421.405 10.0272C421.724 9.48716 422.645 8.98533 423.257 9.02258C424.003 9.06804 424.601 9.84867 424.411 10.7382C423.823 13.4835 423.206 16.2247 422.507 18.9431C422.263 19.8896 421.747 20.7652 421.291 21.7375Z" fill="#111111"/>
<path d="M62.781 50.4116C62.5463 50.8334 62.2445 51.184 62.2253 51.5495C62.0384 55.1163 62.1823 58.5946 63.9654 61.8764C65.6949 65.0594 67.9101 67.2238 71.7856 67.0917C72.5614 67.0653 73.3528 67.3931 74.129 67.5893C74.27 67.6249 74.4607 67.8095 74.4681 67.935C74.476 68.067 74.2983 68.3256 74.1901 68.3321C71.8015 68.4739 69.3847 68.9816 67.1015 67.7448C64.2342 66.1917 62.8784 63.5098 61.6775 60.6582C60.4892 57.8364 60.6016 54.8919 60.6933 51.9506C60.7278 50.8438 61.0601 49.7304 62.0882 49.0852C62.4355 48.8672 62.9546 48.7939 63.364 48.8575C63.6065 48.8951 63.788 49.3293 63.9969 49.5852C63.6129 49.8393 63.229 50.0933 62.781 50.4116Z" fill="#111111"/>
<path d="M220.085 3.60715C218.451 2.90831 216.875 2.28692 215.319 1.61906C215.161 1.55145 215.027 1.18882 215.057 0.98993C215.086 0.794434 215.343 0.480941 215.494 0.48397C216.059 0.495265 216.661 0.514253 217.178 0.715043C218.352 1.17086 219.507 1.68962 220.619 2.28059C221.046 2.50781 221.334 3.00087 221.685 3.37279C221.173 3.47234 220.661 3.57189 220.085 3.60715Z" fill="#111111"/>
<path d="M215.285 6.1145C215.967 6.41376 216.54 6.6837 217.063 7.02986C217.223 7.13595 217.322 7.45884 217.301 7.66683C217.29 7.76801 216.933 7.91178 216.74 7.90177C215.589 7.84213 214.436 7.7752 213.292 7.63536C213.001 7.59972 212.743 7.29099 212.469 7.10774C212.711 6.83346 212.911 6.39688 213.204 6.31846C213.829 6.15175 214.503 6.1713 215.285 6.1145Z" fill="#111111"/>
<path d="M216.885 13.6367C215.748 14.0867 214.683 14.4988 213.594 14.8353C213.385 14.9001 213.085 14.6686 212.826 14.5738C212.939 14.3927 213.027 14.1873 213.17 14.0345C213.938 13.2131 214.682 12.2388 215.985 12.5811C216.366 12.6812 216.631 13.2295 216.885 13.6367Z" fill="#111111"/>
</svg>
