<svg width="1068" height="937" viewBox="0 0 1068 937" fill="none" xmlns="http://www.w3.org/2000/svg">
<g clip-path="url(#clip0)">
<path d="M113.749 936.89C112.572 936.657 111.571 936.222 110.569 936.22C90.7397 936.18 70.9094 936.299 51.081 936.15C39.0337 936.06 27.5051 933.676 16.7045 927.93C2.31658 920.275 -3.30656 905.775 1.91652 890.833C6.66136 877.259 16.4109 868.232 29.2136 861.904C40.5639 856.293 52.4763 852.609 64.6271 849.367C74.151 846.826 83.5415 843.787 93.0082 841.029C108.311 836.569 123.626 832.153 138.938 827.726C158.314 822.124 177.685 816.508 197.07 810.937C212.605 806.473 228.162 802.089 243.699 797.63C264.754 791.586 285.81 785.542 306.845 779.426C318.288 776.1 329.66 772.531 341.113 769.24C359.572 763.936 378.097 758.861 396.546 753.522C411.946 749.065 427.265 744.329 442.642 739.791C452.628 736.844 462.631 733.95 472.676 731.212C475.223 730.517 475.256 729.747 473.49 728.192C465.712 721.346 458.043 714.371 450.124 707.692C441.529 700.444 432.889 693.223 423.922 686.449C414.853 679.599 405.447 673.183 396.032 666.808C382.849 657.881 369.638 648.985 356.225 640.41C340.491 630.351 324.485 620.72 308.68 610.772C296.633 603.189 284.551 595.642 272.787 587.634C260.985 579.601 249.339 571.302 238.032 562.592C227.843 554.745 218.305 546.059 208.295 537.971C198.562 530.107 190.759 520.508 183.748 510.351C178.332 502.506 173.779 494.018 169.36 485.546C165.978 479.062 164.06 471.968 163.265 464.638C162.563 458.163 161.158 451.672 161.304 445.217C161.667 429.284 165.308 414.262 174.206 400.55C180.47 390.896 188.318 383.437 198.324 378.029C199.063 377.63 199.683 377.011 200.357 376.494C199.741 375.953 199.192 375.298 198.498 374.887C185.895 367.421 173.648 359.482 162.042 350.469C149.087 340.407 137.375 329.054 126.254 317.134C114.248 304.265 104.387 289.757 97.2251 273.575C92.863 263.719 90.186 253.504 88.9177 242.679C86.0462 218.171 93.8963 197.083 108.183 177.937C113.212 171.197 118.934 164.863 125.006 159.039C133.415 150.975 142.956 144.226 153.384 138.958C163.976 133.606 174.555 128.113 185.552 123.708C199.665 118.054 214.155 113.331 228.544 108.385C240.5 104.276 252.47 100.182 264.565 96.5135C285.205 90.2526 305.897 84.1483 326.663 78.3209C344.251 73.3856 361.988 68.985 379.634 64.2521C391.379 61.1017 403.011 57.5043 414.82 54.6207C426 51.8904 437.363 49.9156 448.611 47.451C459.82 44.995 470.954 42.1932 482.179 39.8205C493.049 37.5231 503.994 35.5854 514.904 33.4776C524.514 31.6209 534.104 29.652 543.734 27.91C552.228 26.3736 560.768 25.0964 569.284 23.6792C580.411 21.8274 591.517 19.8399 602.665 18.1235C610.062 16.9847 617.531 16.3243 624.939 15.249C630.062 14.5054 635.122 13.3294 640.236 12.5157C644.102 11.9007 648.048 11.7568 651.893 11.0487C663.575 8.89724 675.26 6.73803 686.876 4.2628C695.432 2.43974 703.653 -0.893884 712.704 -0.170514C721.669 0.546041 729.446 4.03404 736.4 9.36688C745.036 15.9896 749.674 25.3183 750.899 35.7923C751.551 41.3635 750.259 47.4393 748.647 52.9362C745.904 62.2842 739.831 69.566 732.014 75.36C731.628 75.6461 731.243 75.9337 730.858 76.2206C731.314 76.6689 731.706 77.4021 732.237 77.5225C739.712 79.2185 747.206 80.8249 754.693 82.4656C762.605 84.1993 770.514 85.9493 778.425 87.6868C786.444 89.4481 794.47 91.1781 802.484 92.967C811.766 95.0392 815.714 100.231 816.884 109.588C818.247 120.494 812.322 127.959 804.341 134.245C795.467 141.236 784.575 143.974 774.406 148.143C761.642 153.376 748.598 157.931 735.639 162.683C726.623 165.989 717.537 169.105 708.5 172.355C689.517 179.181 670.603 186.206 651.552 192.839C630.745 200.083 609.827 207.013 588.935 214.011C567.729 221.115 546.495 228.137 525.267 235.175C524.593 235.398 523.844 235.395 523.13 235.498C523.687 235.085 524.228 234.649 524.804 234.264C536.767 226.26 548.539 217.946 560.777 210.386C567.631 206.152 575.184 203.003 582.56 199.672C589.628 196.48 596.806 193.503 604.058 190.755C619.588 184.871 635.12 178.976 650.794 173.493C668.841 167.179 687.077 161.411 705.163 155.206C718.94 150.48 732.692 145.658 746.297 140.464C754.241 137.431 761.918 133.679 769.635 130.078C778.437 125.97 787.176 121.725 795.884 117.42C798.609 116.073 801.057 114.164 803.792 112.842C805.843 111.852 805.091 111.042 803.833 110.494C797.213 107.612 790.69 104.386 783.841 102.189C776.893 99.9607 769.68 98.1244 762.449 97.321C752.449 96.2099 742.314 95.7213 732.256 95.9171C723.995 96.0779 715.752 97.5477 707.519 98.5754C691.622 100.56 676.145 104.485 661.143 109.954C642.716 116.673 624.557 124.125 606.226 131.113C595.745 135.108 585.162 138.837 574.606 142.635C567.701 145.119 560.768 147.528 553.829 149.918C553.186 150.139 552.41 149.98 551.696 149.997C552.247 149.646 552.808 149.308 553.348 148.941C567.856 139.05 583.59 131.707 600.099 125.787C618.976 119.018 637.823 112.121 656.41 104.606C670.641 98.8525 684.162 91.4906 696.435 82.1619C706.36 74.6187 715.353 65.9889 720.972 54.6804C726.51 43.534 726.889 30.9043 717.33 21.7418C711.617 16.2653 704.607 15.2804 697.441 17.6703C683.216 22.415 669.192 27.7559 655.015 32.6487C638.883 38.2162 622.695 43.6257 606.494 48.9877C592.023 53.7767 577.531 58.5049 562.994 63.0839C544.412 68.9365 525.826 74.7853 507.147 80.3152C489.045 85.6746 470.877 90.8362 452.635 95.697C436.628 99.9623 420.453 103.598 404.397 107.684C390.7 111.171 377.102 115.052 363.39 118.477C353.521 120.942 343.524 122.892 333.606 125.164C323.709 127.432 313.792 129.635 303.969 132.19C289.355 135.992 274.769 139.916 260.259 144.091C246.422 148.072 232.564 152.057 218.964 156.762C208.084 160.526 197.417 165.023 186.952 169.839C176.647 174.58 166.588 179.9 156.657 185.393C147.207 190.619 137.998 196.387 130.619 204.423C123.942 211.693 120.203 220.314 119.825 230.385C119.312 244.021 122.504 256.879 129.136 268.511C135.808 280.21 143.308 291.529 151.397 302.3C158.225 311.391 166.394 319.479 174.011 327.973C184.824 340.033 197.354 350.059 210.681 359.194C213.137 360.878 214.755 360.246 216.712 358.966C229.559 350.556 242.259 341.91 255.306 333.823C262.554 329.331 270.331 325.671 277.957 321.811C288.846 316.299 299.672 310.628 310.789 305.609C324.339 299.492 338.017 293.597 351.914 288.329C363.324 284.004 375.049 280.439 386.792 277.085C398.725 273.676 410.819 270.805 422.901 267.944C433.554 265.422 444.241 262.987 455.002 260.993C462.464 259.61 470.06 258.866 477.626 258.152C487 257.267 496.399 256.308 505.799 256.163C511.184 256.08 520.544 260.387 522.068 266.445C524.28 275.244 521.062 280.891 514.709 282.513C510.215 283.661 505.493 283.886 500.908 284.721C488.449 286.99 475.935 289.035 463.58 291.784C449.549 294.906 435.562 298.333 421.746 302.292C406.99 306.52 392.35 311.22 377.861 316.289C367.09 320.057 356.545 324.523 346.073 329.076C334.504 334.107 322.858 339.078 311.744 345.006C296.791 352.982 282.23 361.711 267.66 370.382C257.238 376.584 246.841 382.88 236.856 389.751C223.902 398.664 212.337 409.271 204.689 423.208C199.976 431.797 198.052 441.182 199.515 451.337C201.308 463.788 207.643 473.518 215.807 482.407C228.187 495.887 242.875 506.612 257.617 517.29C276.123 530.693 295.068 543.385 314.81 554.926C334.283 566.311 353.554 578.046 372.787 589.836C388.627 599.547 404.342 609.466 419.996 619.476C430.908 626.453 441.804 633.482 452.372 640.961C461.925 647.722 471.087 655.042 480.307 662.262C497.83 675.983 513.51 691.707 529.11 707.511C530.87 709.293 532.645 709.839 535.389 708.857C557.136 701.076 578.877 693.25 600.82 686.05C611.145 682.663 621.867 680.424 632.494 678.044C639.392 676.5 646.435 674.76 653.427 674.702C661.778 674.633 670.244 675.762 678.198 678.872C686.709 682.199 694.214 687.133 700.258 693.984C708.279 703.075 713.305 713.727 716.211 725.505C719.081 737.133 719.757 748.97 718.8 760.733C717.537 776.276 716.798 792.004 711.264 806.892C709.778 810.891 707.989 814.705 703.549 816.135C701.091 816.928 699.169 817.074 697.84 813.598C692.49 799.611 686.616 785.826 681.026 771.931C676.803 761.433 672.875 750.814 668.5 740.381C666.457 735.51 663.987 730.747 661.129 726.309C658.06 721.541 648.599 718.859 642.427 720.691C627.272 725.191 612.195 729.952 597.031 734.42C582.878 738.59 568.662 742.544 554.457 746.534C550.578 747.623 551.31 750.808 551.799 753.181C553.399 760.929 552.128 768.416 550.032 775.74C547.867 783.307 545.739 791.04 542.252 798.031C538.413 805.728 533.609 813.117 528.2 819.812C521.632 827.944 514.325 835.561 506.734 842.764C497.225 851.787 486.543 859.374 474.96 865.624C466.47 870.205 458.205 875.24 449.529 879.431C432.787 887.521 415.508 894.338 397.488 899.075C384.531 902.481 371.536 905.758 358.504 908.864C346.056 911.829 333.573 914.679 321.034 917.223C314.389 918.571 307.583 919.106 300.865 920.111C293.523 921.21 286.211 922.517 278.863 923.566C272.99 924.405 267.074 924.932 261.192 925.71C254.687 926.571 248.209 927.637 241.7 928.467C237.011 929.066 232.293 929.433 227.586 929.891C217.941 930.829 208.298 931.776 198.65 932.682C195.487 932.979 192.315 933.214 189.143 933.379C183.759 933.658 178.371 933.85 172.986 934.093C162.798 934.553 152.613 935.091 142.421 935.471C133.54 935.801 124.652 935.952 115.767 936.204C115.267 936.218 114.771 936.424 114.274 936.715C114.274 936.89 113.924 936.89 113.749 936.89ZM444.612 828.075C447.851 826.326 451.068 824.534 454.333 822.835C463.74 817.938 472.334 811.841 479.946 804.515C485.219 799.439 490.318 794.066 494.736 788.249C499.143 782.445 502.652 775.951 506.404 769.669C506.773 769.05 506.042 766.959 505.897 766.967C501.041 767.222 495.935 766.813 491.396 768.216C479.966 771.749 468.887 776.404 457.491 780.062C444.801 784.136 431.873 787.458 419.13 791.373C401.659 796.741 384.284 802.421 366.83 807.845C357.827 810.642 348.757 813.227 339.692 815.818C324.878 820.05 310.065 824.285 295.212 828.377C277.929 833.138 260.597 837.722 243.298 842.428C227.265 846.788 211.241 851.182 195.227 855.611C186.863 857.924 178.562 860.473 170.164 862.649C166.844 863.51 163.215 863.231 159.935 864.186C145.902 868.268 131.913 872.509 117.975 876.906C108.4 879.927 98.92 883.257 89.4423 886.577C88.4674 886.919 87.7992 888.135 86.9887 888.946C88.0219 889.532 89.0204 890.199 90.1041 890.669C90.5948 890.882 91.255 890.717 91.8378 890.703C101.771 890.472 111.709 890.345 121.637 889.972C129.614 889.671 137.579 889.059 145.55 888.61C154.103 888.127 162.654 887.592 171.213 887.23C179.275 886.888 187.348 886.778 195.413 886.489C199.052 886.359 202.699 886.175 206.317 885.781C216.339 884.689 226.351 883.509 236.359 882.296C243.56 881.423 250.761 880.524 257.94 879.486C265.285 878.423 272.61 877.208 279.934 876C286.365 874.941 292.793 873.857 299.202 872.678C305.472 871.525 311.697 870.121 317.978 869.043C325.52 867.747 333.258 867.287 340.632 865.385C355.217 861.622 369.732 857.491 384.046 852.808C397.461 848.419 410.665 843.336 423.794 838.135C430.799 835.36 437.451 831.691 444.612 828.075Z" fill="#111111"/>
<path d="M928.221 698.967C931.021 692.547 933.942 686.529 936.59 680.393C940.176 672.085 943.639 663.721 947.003 655.321C954.092 637.617 961.112 619.884 968.105 602.141C974.308 586.402 980.974 570.817 986.423 554.818C990.689 542.295 993.505 529.27 996.777 516.42C999.496 505.744 1002.05 495.022 1004.47 484.276C1006.07 477.203 1007.15 470.015 1008.75 462.944C1010.6 454.764 1012.5 446.581 1014.85 438.535C1018.18 427.116 1022.22 415.902 1025.4 404.446C1027.56 396.659 1037.44 389.611 1046.38 392.45C1051.23 393.99 1056.16 395.298 1061.01 396.853C1065.35 398.248 1067.85 402.637 1068.25 408.014C1068.85 416.262 1065.52 423.588 1063.28 431.172C1059.13 445.19 1054.92 459.189 1050.69 473.182C1048.71 479.704 1046.58 486.179 1044.64 492.709C1044.39 493.545 1044.9 494.585 1044.94 495.535C1045.03 497.652 1045.43 499.849 1045.03 501.876C1043.83 507.867 1042.15 513.761 1040.94 519.749C1039.38 527.418 1037.98 535.121 1036.75 542.848C1036.02 547.395 1035.83 552.022 1035.29 556.602C1034.4 564.15 1033.41 571.687 1032.51 579.234C1032.21 581.81 1031.95 584.399 1031.82 586.989C1031.53 592.72 1031.36 598.457 1031.1 604.189C1030.65 613.909 1030.3 623.636 1029.66 633.342C1029.19 640.298 1028.22 647.218 1027.62 654.166C1026.84 663.198 1026.36 672.258 1025.46 681.277C1024.48 691.074 1023.1 700.831 1022.04 710.62C1021.6 714.583 1021.56 718.587 1021.3 722.57C1020.61 733.009 1019.92 743.448 1019.2 753.885C1018.77 760.107 1018.22 766.322 1017.82 772.546C1017.08 784.031 1016.54 795.532 1015.62 807.002C1015.33 810.674 1014.11 814.273 1013.27 817.896C1013.15 818.398 1012.79 818.843 1012.54 819.315C1012.21 818.985 1011.76 818.713 1011.57 818.317C1006.81 808.463 1002.2 798.525 1000.35 787.643C998.524 776.924 996.934 766.162 995.441 755.391C994.121 745.868 993.02 736.312 991.926 726.758C990.916 717.941 990.002 709.113 989.122 700.282C988.362 692.649 987.747 685.001 986.999 677.366C986.353 670.771 985.635 664.182 984.875 657.599C984.793 656.897 984.211 656.252 983.861 655.581C983.511 656.135 983.085 656.656 982.822 657.25C978.374 667.301 974.005 677.388 969.494 687.411C966.13 694.883 962.309 702.161 959.186 709.729C953.487 723.537 946.046 736.403 937.893 748.806C932.568 756.908 926.093 764.262 920.024 771.864C912.751 780.973 903.89 788.373 894.248 794.798C884.532 801.273 873.907 805.259 862.014 803.856C854.781 803.003 848.552 799.51 843.078 794.726C834.912 787.588 830.622 778.483 829.552 767.798C828.563 757.929 827.039 748.058 826.905 738.172C826.748 726.538 829.872 715.361 834.101 704.492C838.405 693.432 844.396 683.525 852.126 674.491C858.264 667.319 865.147 661.297 873.688 657.308C884.831 652.105 898.117 653.655 906.999 662.7C911.061 666.837 911.803 671.189 909.254 676.29C905.97 682.861 902.889 689.548 899.271 695.93C897.309 699.393 894.48 702.382 891.925 705.489C888.192 710.031 884.442 714.568 880.469 718.896C879.847 719.573 877.474 719.709 876.823 719.107C874.247 716.726 873.25 713.557 873.614 709.996C873.737 708.794 873.662 707.572 873.677 706.36C871.948 706.426 869.525 705.798 868.626 706.695C866.421 708.897 864.087 711.57 863.278 714.465C859.872 726.652 859.004 739.203 859.702 751.802C860.092 758.841 864.919 763.781 874.11 762.851C882.429 762.008 887.58 756.73 893.02 751.853C904.453 741.601 913.375 729.284 920.485 715.699C923.283 710.353 925.655 704.784 928.221 698.967Z" fill="#111111"/>
<path d="M734.882 577.031C731.364 575.882 733.031 573.127 733.236 571.083C733.596 567.5 734.525 563.979 732.268 560.672C732.092 560.414 731.898 560.015 731.976 559.763C733.245 555.622 733.748 550.943 736.087 547.521C738.387 544.155 742.972 544.742 746.979 545.34C753.813 546.361 757.804 551.357 762.254 555.765C762.503 556.011 763.001 556.32 762.958 556.497C762.48 558.488 762.447 560.893 761.261 562.337C759.228 564.812 756.458 566.683 753.999 568.809C753.515 569.228 752.636 569.635 752.615 570.079C752.374 575.25 750.553 570.988 749.758 570.472C748.072 569.377 746.673 567.83 744.963 566.786C744.31 566.387 742.659 566.487 742.26 566.991C739.735 570.181 737.433 573.547 734.882 577.031Z" fill="#111111"/>
</g>
<defs>
<clipPath id="clip0">
<rect width="1068" height="937" fill="white"/>
</clipPath>
</defs>
</svg>
