<?xml version="1.0" encoding="utf-8"?>
<!DOCTYPE svg PUBLIC "-//W3C//DTD SVG 1.1//EN" "http://www.w3.org/Graphics/SVG/1.1/DTD/svg11.dtd"><svg version="1.1"
	id="Contours" xmlns="http://www.w3.org/2000/svg" xmlns:xlink="http://www.w3.org/1999/xlink" x="0px" y="0px"
	width="2008.084229px" height="2008.084229px" viewBox="-0.000000 -0.000001 2008.084229 1762.293335"
	enable-background="new 0 0 2008.084229 2008.084229" xml:space="preserve" stroke="black" fill="none"
	stroke-linecap='round' stroke-linejoin='round'>
	<path class="selected" fill="#000000" opacity="1.000000" stroke="none"
		d="
M1557.617222 1447.791794 C1555.728660 1438.331117 1553.838397 1428.860022 1552.654144 1419.285649 C1545.820850 1364.040280 1563.954410 1306.186126 1601.098979 1264.724992 C1616.271149 1247.789665 1635.562943 1233.024910 1658.077304 1229.846291 C1680.591664 1226.667671 1706.217250 1238.286778 1713.118366 1259.951834 C1701.591791 1297.123372 1679.626368 1330.997016 1650.391290 1356.685444 C1640.495153 1352.651046 1635.789926 1339.253196 1640.990400 1329.916978 C1635.743183 1323.406472 1626.295992 1332.735796 1623.880474 1340.741123 C1617.307092 1362.526137 1614.483181 1385.437196 1615.569954 1408.166365 C1615.829522 1413.595144 1616.382782 1419.243571 1619.240440 1423.866643 C1624.012513 1431.586819 1634.320883 1434.462704 1643.243270 1432.799935 C1652.165656 1431.137165 1659.941161 1425.796988 1666.991027 1420.080944 C1716.263018 1380.131099 1741.870808 1318.678990 1765.590381 1259.847872 C1788.273377 1203.587745 1810.956375 1147.327620 1833.639373 1091.067495 C1838.381603 1079.305450 1843.125120 1067.540041 1847.420858 1055.607686 C1881.481076 960.997963 1886.795396 857.737330 1922.811548 763.854771 C1925.104988 757.876507 1927.600141 751.813574 1931.868324 747.040511 C1947.957702 729.047932 1977.301026 738.322468 1999.018282 748.856310 C2007.277745 758.540025 2010.199530 772.510522 2006.513071 784.692603 C1992.361642 831.456680 1978.210214 878.220758 1964.058785 924.984835 C1962.697601 929.482933 1961.976639 935.616089 1966.181645 937.714570 C1961.078783 946.997345 1959.081713 957.621493 1957.260865 968.056704 C1944.129443 1043.312426 1936.438475 1119.516896 1934.267821 1195.878837 C1929.200147 1227.886388 1926.475928 1260.264722 1926.124174 1292.669056 C1918.023959 1362.074446 1912.303927 1431.757597 1908.977512 1501.554850 C1908.261972 1516.568829 1907.559243 1532.016161 1901.360135 1545.709321 C1886.291600 1518.385783 1876.346804 1488.247699 1872.194598 1457.322053 C1861.384962 1383.172084 1853.300023 1308.624944 1847.961578 1233.881602 C1806.529004 1325.663276 1771.923703 1427.637088 1691.181515 1487.813769 C1672.280546 1501.900553 1650.128934 1513.516828 1626.557537 1513.246049 C1591.712419 1512.845766 1559.823449 1482.569310 1557.617216 1447.791804 z" />
	<path class="selected" fill="#000000" opacity="1.000000" stroke="none"
		d="
M237.661631 400.386930 C214.498380 439.251151 233.109234 489.343549 257.071113 527.720525 C294.203909 587.191839 343.808506 638.835768 401.736346 678.333199 C554.641355 569.525846 736.085537 501.203703 922.781513 482.135549 C940.859695 480.289137 961.094536 479.526075 974.966407 491.264946 C988.838278 503.003818 986.590585 531.587334 968.564922 533.890679 C786.063917 557.210925 609.300601 624.256665 457.240912 727.834181 C416.426356 755.635569 373.262407 794.439976 376.420967 843.722514 C378.902333 882.438891 409.648033 912.804125 439.794074 937.224020 C617.805032 1081.422352 847.250215 1161.351411 998.574811 1333.345383 C1038.892758 1319.402528 1079.210705 1305.459672 1119.528652 1291.516816 C1177.123179 1271.599329 1244.586865 1252.683249 1295.600155 1286.022116 C1327.860009 1307.104996 1345.483412 1345.513251 1350.365766 1383.740841 C1355.248119 1421.968431 1349.044519 1460.645564 1342.856255 1498.683590 C1339.906778 1516.813431 1330.302437 1540.157421 1312.157640 1537.301395 C1292.193168 1487.606394 1272.228700 1437.911399 1252.264233 1388.216403 C1248.095873 1377.840638 1243.406991 1366.813425 1234.024675 1360.730342 C1220.678502 1352.077269 1203.111669 1356.461298 1187.904884 1361.124955 C1137.779779 1376.497455 1087.654674 1391.869954 1037.529569 1407.242453 C1047.131814 1481.107548 998.346277 1551.008351 939.774974 1597.026368 C846.066021 1670.651163 726.558671 1702.348649 609.290801 1723.567157 C443.754185 1753.519437 275.093288 1766.175284 106.940466 1761.262137 C67.727157 1760.116389 20.790995 1753.039440 4.709822 1717.256870 C-7.859044 1689.289612 6.201994 1655.125106 29.465292 1635.151050 C52.728590 1615.176995 83.171406 1606.135763 112.625699 1597.615870 C372.179445 1522.537854 631.733190 1447.459837 891.286935 1372.381820 C762.593177 1245.565072 592.803730 1170.122440 448.296245 1061.668959 C390.247721 1018.103296 334.019519 965.856690 311.198260 896.959750 C288.377001 828.062811 310.522386 739.731629 376.192458 708.827912 C326.857629 681.926993 281.872200 647.069924 243.504911 606.014642 C198.081898 557.409317 160.580162 494.834245 165.705329 428.505817 C170.226323 369.996423 207.915899 318.009414 255.075298 283.084072 C302.234697 248.158730 358.382256 227.825502 414.007147 209.126304 C664.915435 124.779462 923.756167 64.046569 1185.995347 27.991454 C1227.164211 22.331171 1268.745974 17.202506 1308.084569 3.808882 C1344.503332 -8.590628 1388.778515 10.342553 1404.971788 45.240290 C1421.165061 80.138028 1407.035980 126.171996 1374.053173 145.976253 C1420.026680 156.293667 1466.000187 166.611082 1511.973694 176.928496 C1536.015116 182.323891 1542.529161 216.761832 1529.300683 237.549031 C1516.072204 258.336230 1491.474743 268.349155 1468.419815 277.042287 C1304.361375 338.902384 1138.798065 396.771360 971.925693 450.580755 C1123.733056 324.356970 1340.633522 312.066076 1510.927859 212.177347 C1436.792680 171.758496 1345.306346 179.216468 1264.422325 203.454525 C1183.538303 227.692582 1107.758351 267.260225 1026.302002 289.499190 C1118.069940 218.128024 1254.710071 216.121305 1333.684783 130.808981 C1348.755055 114.529344 1361.598498 93.772874 1359.683389 71.671472 C1357.768280 49.570070 1334.962126 28.946345 1314.085476 36.450017 C1093.753659 115.643667 868.936973 182.357649 641.072015 236.165655 C516.217571 265.648770 387.359686 292.510917 279.470657 361.921606 C263.396866 372.262722 247.446894 383.968828 237.661631 400.386930 M167.316450 1672.087503 C196.025068 1674.446429 224.894774 1672.752649 253.650248 1671.057933 C301.181639 1668.256649 348.713030 1665.455366 396.244421 1662.654082 C472.608230 1654.546984 548.579681 1642.745187 623.804141 1627.303783 C631.165444 1625.792721 638.532780 1624.244696 646.000865 1623.408164 C685.503457 1613.762539 724.452815 1601.851703 762.593845 1587.753666 C800.835323 1573.618500 838.542781 1557.131009 872.019502 1533.860369 C905.496224 1510.589729 934.739444 1480.100023 951.842379 1443.090522 C933.304319 1438.740458 914.468845 1447.455822 897.418874 1455.934100 C806.328690 1485.199685 714.803817 1513.112281 622.884629 1539.659577 C606.186424 1544.482206 589.475243 1549.259772 572.764087 1554.037331 C551.532683 1560.107186 530.301279 1566.177040 509.069874 1572.246895 C502.443150 1574.141412 495.558437 1576.054459 488.749654 1574.985278 C474.142687 1582.307325 458.166126 1586.885681 441.898114 1588.411377 C427.035427 1594.211637 411.642368 1598.652053 395.973918 1601.659068 C380.739420 1606.772996 365.168651 1610.884915 349.395590 1613.959442 C338.296219 1617.701800 327.196849 1621.444158 316.097479 1625.186516 C309.268321 1621.303215 300.862146 1625.245751 293.750607 1628.583929 C281.925204 1634.134811 269.330072 1638.042925 256.439541 1640.161093 C228.822183 1648.268916 201.204825 1656.376738 173.587467 1664.484561 C169.908788 1665.564536 165.282255 1668.837721 167.316449 1672.087502 z" />
	<path class="selected" fill="#000000" opacity="1.000000" stroke="none"
		d="
M1434.969516 1046.946788 C1435.935064 1047.919046 1436.224586 1050.284974 1434.894956 1049.953839 C1432.207387 1049.284516 1431.067161 1053.254513 1431.250617 1056.018090 C1431.434073 1058.781667 1430.323296 1062.752093 1427.629189 1062.109597 C1425.111848 1061.509257 1423.418819 1064.552797 1422.539299 1066.986695 C1421.659779 1069.420593 1419.509378 1072.325469 1417.155503 1071.249977 C1415.821526 1070.640479 1414.443080 1072.240574 1414.323691 1073.702328 C1414.204303 1075.164083 1414.732766 1076.654937 1414.406110 1078.084719 C1414.079454 1079.514501 1412.138161 1080.680761 1411.178983 1079.571276 C1408.787652 1076.805213 1406.396321 1074.039151 1404.004990 1071.273088 C1402.542432 1069.581340 1400.969098 1067.814389 1398.838488 1067.134983 C1396.707878 1066.455577 1393.898388 1067.388732 1393.384753 1069.565260 C1392.997392 1071.206705 1393.576540 1073.651264 1391.937064 1074.046880 C1386.159971 1075.440929 1383.227424 1081.721366 1381.093344 1087.267885 C1380.439418 1088.967451 1377.709883 1088.780076 1376.605324 1087.332288 C1375.500764 1085.884499 1375.552395 1083.893368 1375.653953 1082.075174 C1375.975494 1076.318620 1376.297035 1070.562066 1376.618576 1064.805513 C1376.869478 1060.313602 1376.189899 1054.469977 1371.822588 1053.389790 C1374.078383 1049.027086 1376.334178 1044.664382 1378.589973 1040.301678 C1378.915199 1039.672690 1379.190366 1038.783662 1378.624764 1038.357644 C1376.176790 1036.513817 1377.436469 1032.522859 1379.518823 1030.274290 C1385.261702 1024.073017 1394.757863 1022.931111 1403.098576 1024.298201 C1406.779216 1024.901478 1410.421528 1025.923665 1413.710912 1027.681789 C1418.204822 1030.083714 1421.867465 1033.753686 1425.458055 1037.369228 C1428.628542 1040.561748 1431.799029 1043.754268 1434.969516 1046.946788 z" />
</svg>