<svg width="1103" height="1103" viewBox="0 0 1103 1103" fill="none" xmlns="http://www.w3.org/2000/svg">
<path fill-rule="evenodd" clip-rule="evenodd" d="M130.749 1020.16C130.318 1020.08 129.911 1019.96 129.519 1019.86C128.839 1019.67 128.204 1019.49 127.569 1019.49C120.183 1019.48 112.797 1019.48 105.411 1019.49C92.9675 1019.5 80.5239 1019.52 68.081 1019.42C56.0337 1019.33 44.5051 1016.95 33.7045 1011.2C19.3166 1003.55 13.6934 989.047 18.9165 974.104C23.6614 960.53 33.4109 951.504 46.2136 945.175C57.5639 939.564 69.4763 935.88 81.6271 932.638C87.7217 931.012 93.7617 929.182 99.802 927.353L99.805 927.352L99.8125 927.35C103.208 926.321 106.603 925.293 110.008 924.3C122.109 920.773 134.219 917.274 146.328 913.775L146.333 913.774C149.535 912.849 152.737 911.923 155.938 910.998C160.454 909.692 164.969 908.386 169.484 907.08C184.344 902.781 199.203 898.482 214.07 894.209C222.103 891.9 230.141 889.613 238.18 887.326L238.252 887.306C245.736 885.177 253.22 883.048 260.699 880.901C281.754 874.858 302.81 868.813 323.845 862.698C329.167 861.151 334.473 859.551 339.779 857.952L339.794 857.947L339.8 857.946C345.897 856.108 351.993 854.27 358.113 852.512C366.676 850.051 375.254 847.64 383.831 845.228L383.835 845.227C393.746 842.441 403.657 839.655 413.546 836.793C422.555 834.186 431.536 831.483 440.517 828.781L440.522 828.779C446.892 826.862 453.262 824.945 459.642 823.062C469.628 820.115 479.631 817.222 489.676 814.483C492.223 813.789 492.256 813.018 490.49 811.464C488.137 809.392 485.794 807.31 483.451 805.227C478.049 800.424 472.647 795.622 467.124 790.964C458.529 783.715 449.889 776.495 440.922 769.721C431.853 762.871 422.447 756.455 413.032 750.079C399.849 741.152 386.638 732.256 373.225 723.681C364.19 717.905 355.065 712.27 345.939 706.635C339.174 702.457 332.409 698.279 325.68 694.044C324.806 693.494 323.932 692.944 323.058 692.394L322.782 692.221C311.698 685.248 300.608 678.271 289.787 670.906C277.985 662.873 266.339 654.574 255.032 645.864C249.101 641.296 243.391 636.444 237.68 631.592L237.677 631.589C233.578 628.106 229.478 624.622 225.295 621.243C215.562 613.379 207.759 603.779 200.748 593.623C195.332 585.777 190.779 577.29 186.36 568.817C182.978 562.333 181.06 555.24 180.265 547.909C180.046 545.891 179.759 543.871 179.472 541.851C178.837 537.391 178.203 532.932 178.304 528.489C178.667 512.555 182.308 497.534 191.206 483.822C197.47 474.167 205.318 466.709 215.324 461.301C215.829 461.028 216.277 460.653 216.726 460.278C216.935 460.104 217.143 459.929 217.357 459.765C217.162 459.593 216.972 459.41 216.783 459.227L216.783 459.227C216.377 458.833 215.971 458.439 215.498 458.159C202.895 450.692 190.648 442.754 179.042 433.741C166.087 423.679 154.375 412.326 143.254 400.406C131.248 387.537 121.387 373.029 114.225 356.847C109.863 346.991 107.186 336.776 105.918 325.951C103.046 301.443 110.896 280.355 125.183 261.209C130.212 254.469 135.934 248.135 142.006 242.311C150.415 234.247 159.956 227.497 170.384 222.229C171.471 221.68 172.558 221.129 173.646 220.578C183.152 215.761 192.684 210.932 202.552 206.979C213.911 202.429 225.514 198.481 237.113 194.535C239.925 193.578 242.737 192.622 245.544 191.657C257.5 187.548 269.47 183.454 281.565 179.785C302.205 173.524 322.897 167.42 343.663 161.593C354.514 158.548 365.422 155.706 376.33 152.865L376.333 152.864C383.104 151.1 389.876 149.336 396.634 147.524C401.161 146.309 405.672 145.028 410.183 143.748L410.184 143.747C417.374 141.706 424.564 139.664 431.82 137.892C438.606 136.235 445.46 134.856 452.315 133.477L452.315 133.477C456.753 132.584 461.191 131.691 465.611 130.723C470.614 129.626 475.603 128.461 480.591 127.296L480.593 127.296C486.779 125.851 492.965 124.406 499.179 123.092C506.559 121.532 513.973 120.138 521.388 118.744L521.389 118.744L521.39 118.744C524.896 118.085 528.402 117.426 531.904 116.749C535.084 116.135 538.262 115.508 541.44 114.881L541.443 114.881C547.867 113.614 554.292 112.347 560.734 111.182C566.251 110.184 571.787 109.295 577.324 108.407L577.327 108.406C580.313 107.927 583.3 107.447 586.284 106.951C589.996 106.333 593.706 105.7 597.416 105.067L597.418 105.067L597.419 105.067C604.828 103.803 612.237 102.539 619.665 101.395C623.627 100.785 627.611 100.312 631.594 99.8394C635.047 99.4297 638.5 99.0198 641.939 98.5206C644.725 98.1162 647.493 97.5839 650.26 97.0516C652.582 96.6051 654.903 96.1585 657.236 95.7873C658.994 95.5076 660.769 95.3254 662.543 95.1432C664.67 94.9247 666.796 94.7064 668.893 94.3203C680.575 92.1688 692.26 90.0096 703.876 87.5344C706.205 87.0383 708.508 86.4303 710.81 85.8226L710.811 85.8225C716.968 84.1973 723.116 82.5746 729.703 83.1011C738.669 83.8176 746.446 87.3056 753.4 92.6385C762.036 99.2612 766.674 108.59 767.899 119.064C768.551 124.635 767.259 130.711 765.646 136.208C762.904 145.556 756.831 152.838 749.014 158.632C748.829 158.769 748.644 158.906 748.46 159.044C748.259 159.193 748.059 159.343 747.858 159.492C748.003 159.635 748.141 159.805 748.28 159.976C748.577 160.344 748.875 160.712 749.237 160.794C754.646 162.021 760.065 163.202 765.484 164.382L765.486 164.383C767.555 164.833 769.625 165.284 771.693 165.737C776.161 166.716 780.627 167.7 785.094 168.685L785.127 168.692C788.559 169.448 791.992 170.204 795.425 170.958C798.206 171.569 800.988 172.176 803.771 172.784L803.775 172.785C809.013 173.928 814.251 175.071 819.484 176.239C828.766 178.311 832.714 183.502 833.884 192.86C835.247 203.766 829.321 211.231 821.341 217.517C814.717 222.735 806.969 225.583 799.237 228.427C796.61 229.392 793.985 230.358 791.406 231.415C781.525 235.466 771.476 239.111 761.428 242.755L761.415 242.76C758.488 243.821 755.561 244.883 752.639 245.955C747.344 247.896 742.024 249.772 736.705 251.649L736.698 251.651L736.689 251.654C732.957 252.971 729.224 254.287 725.5 255.626C719.11 257.924 712.727 260.245 706.345 262.565L706.339 262.567C693.763 267.139 681.188 271.711 668.552 276.11C651.458 282.061 634.29 287.801 617.123 293.54C613.393 294.787 609.664 296.034 605.935 297.283C588.022 303.283 570.09 309.226 552.157 315.168C548.86 316.261 545.563 317.353 542.267 318.446C541.807 318.599 541.312 318.646 540.818 318.693C540.587 318.715 540.357 318.737 540.13 318.769C540.306 318.639 540.481 318.506 540.656 318.373L540.658 318.371L540.66 318.37C541.036 318.084 541.412 317.798 541.804 317.536C545.288 315.205 548.756 312.847 552.224 310.49C560.664 304.753 569.103 299.016 577.777 293.657C583.556 290.088 589.83 287.289 596.077 284.503L596.088 284.499C597.247 283.981 598.406 283.465 599.56 282.943C606.628 279.752 613.806 276.774 621.058 274.026L622.025 273.66C637.233 267.898 652.446 262.134 667.794 256.764C677.826 253.255 687.916 249.914 698.006 246.573L698.007 246.572C706.069 243.903 714.131 241.233 722.163 238.478C735.94 233.752 749.692 228.929 763.297 223.735C769.917 221.208 776.351 218.181 782.778 215.159C784.063 214.554 785.349 213.95 786.635 213.349C795.437 209.241 804.176 204.996 812.884 200.692C814.217 200.033 815.485 199.239 816.752 198.445C818.074 197.617 819.396 196.789 820.792 196.114C822.843 195.123 822.091 194.313 820.833 193.765C819.195 193.052 817.563 192.318 815.931 191.584L815.929 191.583C810.964 189.349 805.994 187.114 800.841 185.461C793.893 183.232 786.68 181.396 779.449 180.593C769.449 179.482 759.314 178.993 749.256 179.189C743.073 179.309 736.9 180.163 730.734 181.015C728.662 181.302 726.59 181.589 724.519 181.847C708.622 183.831 693.145 187.757 678.143 193.226C666.869 197.337 655.695 201.722 644.521 206.107L644.52 206.108C637.431 208.89 630.342 211.672 623.226 214.385C614.899 217.559 606.508 220.565 598.117 223.571C595.946 224.349 593.776 225.126 591.606 225.907C584.701 228.391 577.768 230.8 570.829 233.189C570.39 233.341 569.889 233.314 569.388 233.288C569.155 233.276 568.923 233.263 568.696 233.269C568.872 233.157 569.048 233.047 569.224 232.936L569.225 232.936C569.603 232.699 569.98 232.463 570.348 232.212C584.856 222.321 600.59 214.978 617.099 209.058C635.976 202.289 654.823 195.393 673.41 187.878C687.641 182.124 701.162 174.762 713.435 165.434C723.36 157.89 732.353 149.261 737.972 137.952C743.51 126.806 743.889 114.176 734.33 105.013C728.617 99.5369 721.607 98.552 714.441 100.942C706.325 103.649 698.274 106.55 690.222 109.452C684.162 111.636 678.103 113.819 672.015 115.92C655.883 121.488 639.695 126.897 623.494 132.259C609.023 137.048 594.531 141.777 579.994 146.356C561.412 152.208 542.826 158.057 524.147 163.587C506.045 168.946 487.877 174.108 469.635 178.969C460.307 181.454 450.922 183.726 441.537 185.997L441.536 185.998C434.816 187.624 428.096 189.251 421.397 190.956C415.043 192.573 408.711 194.275 402.378 195.978L402.377 195.978L402.376 195.978C395.058 197.945 387.741 199.913 380.39 201.748C374.32 203.264 368.202 204.586 362.083 205.907L362.083 205.907C358.253 206.734 354.424 207.561 350.606 208.436C349.055 208.791 347.505 209.145 345.954 209.499C337.604 211.403 329.253 213.307 320.969 215.462C306.355 219.264 291.769 223.188 277.259 227.363L277.128 227.4C263.335 231.369 249.521 235.343 235.964 240.033C225.084 243.798 214.417 248.295 203.952 253.11C193.647 257.852 183.588 263.172 173.657 268.664C164.207 273.891 154.998 279.659 147.619 287.694C140.942 294.965 137.203 303.586 136.825 313.656C136.312 327.292 139.504 340.15 146.136 351.782C152.808 363.482 160.308 374.801 168.397 385.572C173.242 392.023 178.763 397.969 184.282 403.913C186.54 406.346 188.799 408.778 191.011 411.245C201.824 423.304 214.354 433.331 227.681 442.466C230.137 444.149 231.755 443.518 233.712 442.237C237.527 439.74 241.33 437.221 245.132 434.703L245.144 434.695L245.145 434.694C254.142 428.736 263.138 422.777 272.306 417.095C278.099 413.504 284.228 410.446 290.35 407.392C291.888 406.625 293.426 405.858 294.957 405.082C297.056 404.02 299.152 402.952 301.248 401.884L301.263 401.876L301.264 401.876C310.04 397.404 318.82 392.93 327.789 388.881C341.339 382.764 355.017 376.868 368.914 371.601C380.324 367.276 392.049 363.711 403.792 360.356C415.725 356.947 427.819 354.076 439.901 351.216C450.554 348.694 461.241 346.259 472.002 344.265C479.464 342.882 487.06 342.138 494.626 341.424C495.385 341.352 496.145 341.28 496.905 341.207C505.523 340.389 514.16 339.568 522.799 339.434C528.184 339.351 537.544 343.659 539.068 349.717C541.28 358.515 538.062 364.162 531.709 365.785C529 366.477 526.209 366.833 523.415 367.19L523.414 367.19C521.572 367.425 519.729 367.661 517.908 367.993C514.893 368.542 511.875 369.078 508.856 369.614C499.402 371.293 489.945 372.972 480.58 375.056C466.549 378.177 452.562 381.605 438.746 385.564C423.99 389.792 409.35 394.492 394.861 399.561C384.09 403.329 373.545 407.794 363.073 412.348C362.229 412.715 361.384 413.082 360.54 413.448L360.539 413.449C349.807 418.109 339.047 422.782 328.744 428.278C314.698 435.77 300.999 443.925 287.313 452.074L287.311 452.075C286.427 452.601 285.544 453.127 284.66 453.653C274.238 459.855 263.841 466.152 253.856 473.022C240.902 481.935 229.337 492.543 221.689 506.479C216.976 515.069 215.052 524.454 216.515 534.608C218.308 547.059 224.643 556.789 232.807 565.679C245.187 579.158 259.875 589.884 274.617 600.561C293.123 613.964 312.068 626.657 331.81 638.198C351.283 649.582 370.555 661.318 389.787 673.108C405.627 682.818 421.342 692.738 436.996 702.747C447.908 709.724 458.804 716.753 469.372 724.233C477.545 730.016 485.431 736.21 493.313 742.4C494.644 743.445 495.975 744.49 497.307 745.533C514.83 759.255 530.51 774.979 546.11 790.782C547.87 792.565 549.645 793.11 552.389 792.129C553.768 791.635 555.146 791.142 556.525 790.648C576.894 783.357 597.268 776.065 617.82 769.322C626.948 766.328 636.385 764.231 645.794 762.141L645.796 762.14C647.03 761.866 648.263 761.592 649.494 761.316C650.106 761.179 650.718 761.041 651.332 760.902L651.333 760.902C657.641 759.476 664.055 758.026 670.427 757.974C678.778 757.904 687.244 759.033 695.198 762.143C703.709 765.471 711.214 770.404 717.258 777.255C725.279 786.346 730.305 796.998 733.211 808.776C736.081 820.404 736.757 832.241 735.8 844.005C735.674 845.557 735.553 847.112 735.432 848.668C734.341 862.682 733.245 876.763 728.264 890.164C726.778 894.162 724.989 897.976 720.549 899.407C718.091 900.199 716.169 900.345 714.84 896.869C711.372 887.803 707.684 878.822 703.996 869.84C701.994 864.965 699.993 860.091 698.026 855.203C696.349 851.034 694.719 846.846 693.088 842.658L693.087 842.656L693.086 842.652C690.611 836.296 688.137 829.94 685.5 823.653C683.457 818.782 680.987 814.018 678.129 809.58C675.06 804.813 665.599 802.131 659.427 803.963C652.274 806.086 645.138 808.268 638.003 810.45C630.02 812.891 622.038 815.332 614.031 817.692C601.871 821.274 589.665 824.698 577.459 828.121L577.452 828.123C576.168 828.483 574.885 828.843 573.601 829.203L571.457 829.805C567.645 830.876 568.286 833.971 568.774 836.329L568.799 836.452C570.399 844.2 569.128 851.687 567.032 859.011C566.921 859.399 566.81 859.788 566.699 860.177L566.699 860.178C564.645 867.37 562.56 874.67 559.252 881.303C555.413 889 550.609 896.388 545.2 903.084C538.632 911.216 531.325 918.833 523.734 926.036C514.225 935.059 503.543 942.646 491.96 948.896C488.983 950.502 486.033 952.164 483.084 953.827C477.623 956.904 472.162 959.981 466.529 962.703C449.787 970.792 432.508 977.61 414.488 982.347C401.531 985.753 388.536 989.03 375.504 992.135C363.056 995.101 350.573 997.95 338.034 1000.49C333.823 1001.35 329.547 1001.88 325.27 1002.4L325.269 1002.4L325.263 1002.41C322.794 1002.71 320.323 1003.01 317.865 1003.38C314.581 1003.87 311.303 1004.41 308.025 1004.94C303.974 1005.6 299.924 1006.26 295.863 1006.84C292.609 1007.3 289.342 1007.67 286.075 1008.04L286.073 1008.04C283.444 1008.34 280.815 1008.64 278.192 1008.98C275.163 1009.38 272.14 1009.83 269.117 1010.27L269.107 1010.27L269.106 1010.27C265.64 1010.79 262.174 1011.3 258.7 1011.74C255.33 1012.17 251.945 1012.48 248.56 1012.79C247.235 1012.91 245.91 1013.03 244.586 1013.16C242.879 1013.33 241.172 1013.5 239.465 1013.66L239.435 1013.66C231.507 1014.44 223.58 1015.21 215.65 1015.95C212.487 1016.25 209.315 1016.49 206.143 1016.65C202.76 1016.83 199.376 1016.97 195.992 1017.11C193.99 1017.19 191.988 1017.27 189.986 1017.36C186.643 1017.52 183.299 1017.68 179.956 1017.83C173.112 1018.16 166.268 1018.49 159.421 1018.74C153.728 1018.95 148.032 1019.09 142.335 1019.23L142.29 1019.23C139.116 1019.31 135.942 1019.39 132.767 1019.48C132.267 1019.49 131.771 1019.7 131.274 1019.99C131.274 1020.16 130.924 1020.16 130.749 1020.16ZM461.612 911.347C462.627 910.799 463.64 910.246 464.653 909.694C466.872 908.483 469.091 907.273 471.333 906.106C480.74 901.21 489.334 895.112 496.946 887.786C502.219 882.71 507.318 877.338 511.736 871.521C515.174 866.993 518.065 862.045 520.952 857.106C521.766 855.714 522.579 854.322 523.404 852.941C523.773 852.322 523.042 850.231 522.897 850.238C521.594 850.307 520.274 850.328 518.952 850.348H518.95H518.949C515.341 850.405 511.717 850.461 508.396 851.488C502.349 853.357 496.399 855.541 490.45 857.724L490.447 857.725C485.152 859.668 479.857 861.611 474.491 863.334C467.395 865.612 460.225 867.654 453.054 869.697C447.401 871.308 441.747 872.918 436.13 874.644C426.533 877.593 416.966 880.635 407.398 883.678L407.39 883.681C399.542 886.177 391.694 888.672 383.83 891.116C375.066 893.84 366.239 896.362 357.414 898.883L356.691 899.089L355.901 899.315C341.351 903.472 326.801 907.629 312.212 911.648C301.952 914.475 291.674 917.239 281.397 920.003L281.373 920.01L281.365 920.012C274.341 921.901 267.317 923.79 260.298 925.699C244.265 930.06 228.241 934.454 212.227 938.882C208.982 939.78 205.747 940.713 202.511 941.646L202.504 941.648L202.502 941.648C197.401 943.119 192.301 944.59 187.164 945.921C185.57 946.334 183.906 946.485 182.243 946.635C180.441 946.798 178.641 946.961 176.935 947.457C162.902 951.54 148.913 955.781 134.975 960.178C125.671 963.113 116.458 966.34 107.249 969.567L107.243 969.569L106.442 969.849C105.776 970.082 105.254 970.724 104.731 971.365C104.488 971.663 104.246 971.96 103.989 972.217C104.288 972.387 104.584 972.564 104.881 972.74C105.607 973.173 106.334 973.606 107.104 973.94C107.455 974.093 107.893 974.052 108.326 974.011C108.499 973.995 108.672 973.979 108.838 973.975C111.761 973.907 114.684 973.848 117.607 973.789L117.665 973.788C124.657 973.647 131.649 973.506 138.637 973.243C143.878 973.046 149.113 972.714 154.349 972.382H154.35C157.083 972.209 159.816 972.035 162.55 971.881C164.539 971.769 166.527 971.654 168.515 971.539L168.517 971.539C175.081 971.159 181.645 970.78 188.213 970.501C192.759 970.308 197.309 970.189 201.859 970.071C205.378 969.979 208.896 969.887 212.413 969.761C216.052 969.63 219.699 969.447 223.317 969.052C233.339 967.961 243.351 966.781 253.359 965.568C260.56 964.695 267.761 963.796 274.94 962.757C281.912 961.749 288.865 960.602 295.817 959.456L295.824 959.455L296.934 959.272C303.365 958.212 309.793 957.128 316.202 955.95C318.936 955.447 321.662 954.897 324.388 954.346L324.391 954.346C327.914 953.634 331.437 952.922 334.978 952.314C337.739 951.84 340.526 951.478 343.312 951.116L343.314 951.116C348.138 950.489 352.958 949.862 357.632 948.656C372.217 944.893 386.732 940.763 401.046 936.08C414.461 931.691 427.665 926.607 440.794 921.406C446.209 919.261 451.413 916.582 456.803 913.806C458.387 912.991 459.986 912.168 461.612 911.347ZM945.221 782.238C946.576 779.132 947.959 776.12 949.325 773.143L949.326 773.143C950.784 769.967 952.223 766.832 953.59 763.665C957.176 755.357 960.639 746.993 964.003 738.593C971.092 720.888 978.112 703.156 985.105 685.413C986.81 681.087 988.55 676.773 990.29 672.459L990.296 672.443C994.885 661.065 999.474 649.686 1003.42 638.09C1006.66 628.583 1009.06 618.787 1011.47 608.998L1011.47 608.996C1012.23 605.891 1012.99 602.786 1013.78 599.691C1016.5 589.016 1019.05 578.294 1021.47 567.547C1022.27 564.022 1022.93 560.469 1023.6 556.916C1024.27 553.339 1024.95 549.763 1025.75 546.215C1027.6 538.036 1029.5 529.853 1031.85 521.806C1033.36 516.632 1035.01 511.5 1036.67 506.369L1036.67 506.368C1038.67 500.175 1040.66 493.982 1042.4 487.717C1044.56 479.931 1054.44 472.883 1063.38 475.721C1065.73 476.467 1068.1 477.159 1070.47 477.851C1072.99 478.587 1075.51 479.323 1078.01 480.124C1082.35 481.519 1084.85 485.909 1085.25 491.285C1085.72 497.752 1083.78 503.651 1081.84 509.552L1081.83 509.56C1081.3 511.184 1080.76 512.808 1080.28 514.443C1076.13 528.462 1071.92 542.461 1067.69 556.453C1066.79 559.432 1065.85 562.401 1064.92 565.37L1064.91 565.398L1064.91 565.4C1063.8 568.921 1062.69 572.443 1061.64 575.98C1061.49 576.494 1061.62 577.085 1061.75 577.684C1061.84 578.061 1061.92 578.44 1061.94 578.807C1061.96 579.392 1062.01 579.982 1062.06 580.574C1062.19 582.124 1062.32 583.68 1062.03 585.148C1061.42 588.19 1060.69 591.207 1059.95 594.224L1059.95 594.225C1059.24 597.149 1058.53 600.074 1057.94 603.021C1056.38 610.689 1054.98 618.393 1053.75 626.119C1053.31 628.885 1053.06 631.681 1052.82 634.477C1052.66 636.278 1052.5 638.08 1052.29 639.873C1051.81 643.938 1051.3 647.999 1050.8 652.06C1050.36 655.541 1049.93 659.022 1049.51 662.505C1049.21 665.082 1048.95 667.67 1048.82 670.261C1048.66 673.476 1048.53 676.693 1048.41 679.91C1048.31 682.427 1048.21 684.945 1048.1 687.461C1047.99 689.854 1047.88 692.248 1047.78 694.642L1047.77 694.777V694.778C1047.46 702.06 1047.14 709.343 1046.66 716.614C1046.39 720.631 1045.95 724.637 1045.52 728.643L1045.51 728.646L1045.51 728.658C1045.19 731.583 1044.88 734.508 1044.62 737.438C1044.3 741.201 1044.02 744.97 1043.75 748.738V748.74C1043.37 754.014 1042.99 759.288 1042.46 764.549C1041.91 770.053 1041.23 775.545 1040.56 781.037L1040.56 781.048C1040.03 785.327 1039.5 789.606 1039.04 793.892C1038.76 796.428 1038.64 798.982 1038.53 801.536V801.538C1038.46 802.974 1038.39 804.409 1038.3 805.842C1037.61 816.281 1036.92 826.72 1036.2 837.156C1036.01 839.915 1035.79 842.673 1035.58 845.43C1035.31 848.892 1035.04 852.354 1034.82 855.818C1034.56 859.838 1034.32 863.861 1034.09 867.883L1034.09 867.886L1034.09 867.901C1033.65 875.363 1033.22 882.825 1032.62 890.274C1032.42 892.877 1031.74 895.443 1031.07 898.008L1031.06 898.011C1030.79 899.063 1030.51 900.114 1030.27 901.167C1030.19 901.51 1029.99 901.827 1029.8 902.144C1029.71 902.29 1029.62 902.437 1029.54 902.586C1029.44 902.481 1029.32 902.383 1029.2 902.284C1028.95 902.071 1028.7 901.859 1028.57 901.588C1023.81 891.735 1019.2 881.796 1017.35 870.914C1015.52 860.196 1013.93 849.434 1012.44 838.663C1011.12 829.139 1010.02 819.583 1008.93 810.03C1007.92 801.213 1007 792.385 1006.12 783.554C1005.73 779.566 1005.37 775.575 1005.01 771.584C1004.68 767.934 1004.36 764.284 1004 760.638C1003.35 754.042 1002.64 747.454 1001.87 740.871C1001.82 740.391 1001.53 739.938 1001.24 739.485C1001.17 739.367 1001.09 739.25 1001.02 739.132C1000.96 739.039 1000.91 738.946 1000.86 738.852C1000.8 738.948 1000.74 739.042 1000.68 739.136C1000.62 739.215 1000.57 739.294 1000.51 739.374C1000.26 739.745 1000 740.116 999.822 740.521C998.236 744.106 996.659 747.696 995.083 751.285L995.06 751.338C992.224 757.795 989.388 764.252 986.494 770.682C985.158 773.649 983.751 776.586 982.343 779.522C980.206 783.98 978.069 788.437 976.186 793C970.487 806.808 963.046 819.674 954.893 832.077C950.935 838.099 946.342 843.709 941.751 849.314L941.751 849.315C940.166 851.25 938.581 853.185 937.024 855.136C929.751 864.245 920.89 871.644 911.248 878.07C901.532 884.545 890.907 888.53 879.014 887.128C871.781 886.274 865.552 882.781 860.078 877.997C851.912 870.86 847.622 861.755 846.552 851.07C846.277 848.33 845.961 845.589 845.645 842.849L845.645 842.847C844.824 835.717 844.002 828.584 843.905 821.444C843.748 809.809 846.872 798.632 851.101 787.764C855.405 776.704 861.396 766.796 869.126 757.763C875.264 750.591 882.147 744.568 890.688 740.58C901.831 735.376 915.117 736.927 923.999 745.972C928.061 750.109 928.803 754.461 926.254 759.562C925.352 761.367 924.465 763.18 923.578 764.994C921.237 769.783 918.895 774.573 916.271 779.202C914.757 781.874 912.727 784.263 910.705 786.643C910.106 787.348 909.509 788.051 908.925 788.761C905.192 793.303 901.442 797.84 897.469 802.167C896.847 802.845 894.474 802.98 893.823 802.379C891.247 799.998 890.25 796.828 890.615 793.267C890.699 792.443 890.69 791.609 890.681 790.775C890.677 790.394 890.672 790.012 890.677 789.632C890.137 789.652 889.528 789.605 888.919 789.558C887.582 789.454 886.244 789.35 885.626 789.967C883.421 792.169 881.087 794.841 880.278 797.736C876.872 809.924 876.004 822.475 876.702 835.074C877.092 842.113 881.919 847.053 891.11 846.122C898.738 845.349 903.703 840.848 908.668 836.345C909.118 835.938 909.568 835.53 910.02 835.124C921.453 824.873 930.375 812.555 937.485 798.97C939.892 794.37 941.985 789.605 944.157 784.659L944.158 784.656C944.33 784.265 944.502 783.873 944.674 783.48C944.856 783.068 945.038 782.654 945.221 782.238ZM749.971 655.729C749.557 657.495 749.11 659.397 751.882 660.302C752.699 659.187 753.491 658.083 754.272 656.994C755.93 654.681 757.544 652.431 759.26 650.262C759.659 649.759 761.31 649.659 761.963 650.057C762.86 650.605 763.671 651.291 764.483 651.978C765.219 652.6 765.956 653.223 766.758 653.744C766.952 653.869 767.206 654.217 767.484 654.597C768.347 655.777 769.433 657.262 769.615 653.351C769.629 653.045 770.051 652.756 770.471 652.469C770.66 652.34 770.849 652.211 770.999 652.08C771.729 651.449 772.486 650.841 773.243 650.233C775.037 648.791 776.831 647.349 778.261 645.609C779.113 644.571 779.37 643.038 779.624 641.518C779.724 640.923 779.823 640.329 779.958 639.769C779.987 639.647 779.761 639.463 779.536 639.28C779.434 639.197 779.332 639.113 779.254 639.037C778.662 638.45 778.078 637.853 777.494 637.256C773.691 633.369 769.903 629.497 763.979 628.612C759.972 628.013 755.387 627.427 753.087 630.792C751.439 633.204 750.702 636.241 749.966 639.273C749.658 640.543 749.35 641.812 748.976 643.034C748.898 643.287 749.092 643.686 749.268 643.943C751.176 646.74 750.807 649.69 750.429 652.701C750.361 653.25 750.292 653.802 750.236 654.355C750.192 654.788 750.083 655.254 749.971 655.729Z" fill="#111111"/>
</svg>
