<?xml version="1.0" encoding="utf-8"?><!DOCTYPE svg PUBLIC "-//W3C//DTD SVG 1.1//EN" "http://www.w3.org/Graphics/SVG/1.1/DTD/svg11.dtd"><svg version="1.1" id="Contours" xmlns="http://www.w3.org/2000/svg" xmlns:xlink="http://www.w3.org/1999/xlink" x="0px" y="0px" width="1144.918701px" height="1144.918701px" viewBox="0.000000 0.000002 1144.918701 1862.468994" enable-background="new 0 0 1144.918701 1144.918701" xml:space="preserve" stroke="black" fill="none" stroke-linecap='round' stroke-linejoin='round'><path class="selected"  fill="#000000" opacity="1.000000" stroke="none" 
 	d="
M463.668762 369.718962 C476.593872 375.977384 489.272339 381.978605 501.941528 387.999479 C505.006348 389.455961 508.126892 390.826567 511.063538 392.512480 C513.858154 394.116789 514.979065 393.272550 514.901672 390.336332 C514.611084 379.308683 514.063538 368.284758 513.952332 357.255979 C513.535095 315.902555 513.563232 274.541685 512.751587 233.196806 C512.464294 218.564695 510.220642 203.973082 508.949280 189.356108 C508.733459 186.875334 508.443481 184.225798 509.095947 181.910093 C509.490967 180.508482 511.646118 178.703489 512.987366 178.722380 C514.312927 178.741056 516.589478 180.698210 516.762390 182.024870 C518.050354 191.904539 518.455811 201.912321 520.014832 211.740873 C523.294373 232.416746 521.368591 253.192686 521.889038 273.916777 C522.074463 281.301237 521.814819 288.696043 521.940308 296.083006 C522.202271 311.500425 522.681030 326.914488 522.887634 342.332395 C523.044617 354.051939 523.121948 365.780302 522.828186 377.494657 C522.692688 382.897428 521.496704 388.266874 520.952271 393.668669 C520.629578 396.870817 521.618347 399.260649 524.816345 401.056974 C528.260437 402.991606 530.973694 406.203703 534.370605 408.253935 C536.957397 409.815214 540.059631 411.100065 543.027649 411.342314 C551.525269 412.035673 560.071350 412.135710 568.598389 412.468168 C568.764709 412.474638 568.955383 412.415251 569.094788 412.476774 C572.705994 414.071257 576.311951 415.677702 579.918762 417.282072 C576.550781 417.677763 573.188293 418.357084 569.813843 418.422941 C548.124390 418.846464 526.428162 418.973173 504.742615 419.527861 C491.013245 419.878996 477.299805 420.830900 463.576782 421.458464 C455.052368 421.848356 446.524719 422.378202 437.996033 422.430387 C372.146729 422.833708 306.296997 423.179716 240.446869 423.418302 C231.254669 423.451567 222.058990 422.510099 212.866669 422.541044 C200.672699 422.582060 188.482269 423.247099 176.287109 423.445829 C151.097778 423.856291 125.906067 424.378996 100.715790 424.357939 C89.493500 424.348539 78.264343 423.243559 67.053925 422.422331 C61.644653 422.026091 56.281433 421.035612 50.878937 420.500517 C46.560211 420.072721 45.180420 423.297087 45.042480 426.559294 C44.866089 430.732206 45.641266 434.939970 45.867371 439.140165 C45.908142 439.897917 45.278229 440.691801 44.957947 441.468962 C44.278229 440.855986 43.241302 440.365629 42.981354 439.608549 C41.926361 436.535490 41.234161 433.338041 40.181915 430.263884 C37.244171 421.681303 32.718658 418.592985 23.850250 418.427275 C17.485504 418.308439 11.113281 417.958708 4.777252 417.362821 C3.121887 417.207121 1.589096 415.748136 0.000000 414.887724 C1.499023 414.081510 2.943176 412.722929 4.506866 412.567533 C10.343170 411.987699 16.216797 411.761137 22.080414 411.488310 C24.574585 411.372282 27.078979 411.496122 29.578064 411.462919 C33.938873 411.404936 35.848541 408.958525 34.850189 404.878446 C34.438965 403.197721 33.958740 401.469389 33.957184 399.762236 C33.910126 347.438627 34.131989 295.113493 33.781250 242.792173 C33.683472 228.203123 31.955963 213.622404 30.851501 199.047300 C30.758331 197.817717 29.715698 196.660032 29.114166 195.468962 C28.221466 196.129850 27.121613 196.634642 26.480560 197.485197 C25.266327 199.096281 24.387115 200.956327 23.222443 202.609892 C22.696320 203.356871 21.819611 203.856932 21.101929 204.468962 C20.374207 203.570707 18.870941 202.452055 19.052765 201.812284 C19.847504 199.015867 20.959534 196.270811 22.285156 193.674955 C23.628479 191.044371 25.519257 188.694425 26.877869 186.070219 C28.564087 182.813291 27.194458 180.654203 23.491730 180.488401 C21.163483 180.384153 18.748901 180.830351 16.519592 180.349760 C14.863953 179.992826 13.443817 178.543486 11.918762 177.580748 C13.035950 176.210142 13.922729 174.032865 15.317596 173.634458 C18.359314 172.765715 21.661499 172.527861 24.853729 172.549681 C27.778839 172.569609 28.838196 171.731260 29.044739 168.664549 C29.250000 165.616362 30.156586 162.490354 31.423737 159.702055 C31.910431 158.631071 34.712097 157.506925 35.626892 157.988279 C37.089294 158.757780 37.900848 160.819792 38.885681 162.398924 C39.110168 162.758848 38.931824 163.378508 38.916840 163.877958 C38.637909 173.160948 38.682892 173.408201 48.287140 173.577574 C61.516174 173.810850 74.735535 174.736448 87.951904 175.490843 C97.680267 176.046110 107.389160 176.977873 117.121277 177.423429 C128.638824 177.950682 140.170074 178.274321 151.698914 178.441618 C180.387634 178.858030 209.077789 179.283659 237.768616 179.402861 C250.959808 179.457670 264.154724 178.830473 277.346497 178.459867 C287.598267 178.171873 297.845947 177.592680 308.098511 177.504698 C356.284180 177.091032 404.475159 177.044981 452.652527 176.200407 C459.665649 176.077452 466.622009 172.373228 473.590759 170.279692 C475.656799 169.659056 477.655334 168.812956 479.723755 168.201780 C480.693359 167.915281 481.755249 167.941221 482.775330 167.825529 C482.164001 168.865782 481.798462 170.289305 480.892639 170.870237 C478.696350 172.278623 476.176086 173.174162 473.933716 174.521604 C472.868408 175.161741 472.139587 176.362028 471.258362 177.308592 C472.431274 177.695372 473.586487 178.344969 474.779968 178.425047 C481.134460 178.851652 487.500793 179.100370 493.855957 179.518217 C494.566406 179.564909 495.232239 180.290800 495.918762 180.701719 C495.215149 181.290800 494.574829 182.284117 493.797974 182.405882 C486.730408 183.513395 479.626404 185.382475 472.557251 185.284391 C456.381775 185.059782 443.295654 192.240873 430.272278 200.496580 C415.280945 209.999845 399.959900 218.984617 384.742432 228.128721 C370.739990 236.542753 356.782227 245.038755 342.616211 253.170072 C334.315002 257.934996 325.613464 261.997984 317.148621 266.483580 C305.938171 272.424101 294.760498 278.427671 283.638367 284.531126 C282.489502 285.161528 281.046326 286.722654 281.135742 287.727812 C281.224304 288.723326 282.942688 289.869871 284.181580 290.421751 C297.966187 296.561949 311.816833 302.553862 325.609863 308.675321 C347.287903 318.296141 368.954529 327.943113 390.588196 337.663267 C402.111145 342.840605 413.477783 348.371275 425.054932 353.421507 C437.758911 358.963224 450.623901 364.135649 463.668762 369.718962 M266.918762 294.968962 C265.625061 295.468962 264.255310 295.830076 263.049377 296.490354 C250.687286 303.258665 238.231079 309.867338 226.041046 316.934416 C212.440094 324.819517 199.177948 333.287962 185.598938 341.212248 C174.495056 347.692106 163.032684 353.557371 151.926086 360.032743 C136.066925 369.278959 120.600128 379.215300 104.568848 388.144194 C89.874512 396.328398 74.647278 403.554777 59.680786 411.253691 C58.768066 411.723173 58.083557 412.636320 57.292847 413.343046 C58.303619 413.718351 59.298798 414.368803 60.327545 414.427153 C73.209473 415.157560 86.096710 416.358122 98.981750 416.348356 C122.703247 416.330290 146.423126 417.200651 170.148010 414.673307 C186.418610 412.940092 202.894501 412.586210 219.278961 412.579679 C257.126434 412.564482 294.975159 413.490263 332.821472 413.377287 C378.031433 413.242277 423.261292 414.729277 468.451355 411.607939 C481.550537 410.703154 494.765625 411.529936 507.926697 411.443510 C514.609436 411.399687 517.170837 409.432218 515.721069 405.066923 C514.983948 402.847563 512.494873 400.691008 510.263123 399.579618 C501.857300 395.393705 493.301819 391.485807 484.672485 387.776029 C470.956482 381.879606 457.142761 376.210112 443.358582 370.472990 C426.874451 363.612089 410.316956 356.923124 393.908630 349.886015 C383.294861 345.334104 372.953552 340.150328 362.380066 335.500059 C343.638733 327.257536 324.818237 319.195005 306.022034 311.077421 C293.161987 305.523527 280.287048 300.003935 266.918762 294.968962 M203.918762 319.968962 C209.788300 316.432798 215.602631 312.800779 221.539459 309.381529 C232.025024 303.342375 242.598572 297.456022 253.093597 291.433073 C254.144531 290.829924 254.908630 289.727018 255.805847 288.856047 C254.802185 288.060362 253.906464 287.036039 252.778595 286.503355 C236.890717 278.999662 220.970825 271.563871 205.059692 264.109495 C191.800323 257.897428 178.592377 251.572599 165.271393 245.495573 C146.772705 237.056425 128.020569 229.153868 109.701935 220.345671 C97.435883 214.447721 85.847229 207.157499 73.743225 200.900877 C64.439117 196.091581 54.825623 191.875364 45.290405 187.525328 C44.016205 186.944059 41.503571 186.512602 41.112244 187.079771 C40.219818 188.373075 39.785492 190.418241 40.065704 191.998259 C40.741943 195.811613 42.489716 199.485350 42.819916 203.300657 C44.065887 217.697660 45.213165 232.116209 45.824036 246.550932 C46.298157 257.754087 45.918762 268.993345 45.918762 280.216551 C45.918762 323.047453 45.909088 365.878385 45.970337 408.709196 C45.971985 409.873136 46.538300 411.854032 47.194397 412.015104 C48.284180 412.282499 49.801117 411.608549 50.895172 410.935881 C62.460419 403.825224 73.901886 396.510771 85.531982 389.509062 C94.706146 383.985929 104.143250 378.901518 113.377563 373.475859 C123.443542 367.561491 133.374725 361.417997 143.430054 355.485197 C154.535919 348.932524 165.722351 342.516569 176.861694 336.020506 C185.723419 330.852720 194.567108 325.653990 203.918762 319.968962 M378.918762 219.968962 C385.925354 215.962339 392.769897 211.631987 399.975891 208.023619 C411.317932 202.344114 420.982483 193.511686 433.593506 190.207548 C434.775208 189.897917 435.704956 188.626615 436.751648 187.801817 C434.926941 187.071287 433.069092 185.656095 431.283936 185.742552 C426.522522 185.973112 421.803955 187.262663 417.047791 187.395780 C398.693909 187.909422 380.332520 188.165708 361.972961 188.461302 C339.281860 188.826658 316.589539 189.109465 293.898499 189.477262 C275.872192 189.769407 257.846832 190.412687 239.821472 190.396055 C219.129303 190.376982 198.436768 189.849028 177.746094 189.451414 C165.384369 189.213896 153.019226 188.957182 140.668243 188.419065 C131.101776 188.002287 121.555573 187.125242 111.999115 186.471373 C97.249725 185.462278 82.493652 184.543272 67.752716 183.423765 C63.325012 183.087492 58.946320 182.142454 54.527374 181.629484 C53.358459 181.493803 52.123444 181.927641 50.918762 182.099974 C51.754242 182.891783 52.454468 184.031858 53.447662 184.417478 C58.905334 186.536619 64.636719 188.046019 69.901794 190.548216 C86.063751 198.229154 102.027039 206.326719 118.124146 214.145750 C130.881409 220.342527 143.603363 226.633726 156.552917 232.407774 C176.942566 241.499235 197.579895 250.034819 217.977722 259.108396 C231.353058 265.058103 244.682312 271.174375 257.657227 277.935667 C264.457397 281.479216 270.186523 281.112181 276.543396 277.432524 C288.480286 270.522795 300.644348 264.006864 312.648865 257.212187 C325.212402 250.101133 337.646973 242.761503 350.237244 235.698698 C359.548645 230.475187 369.019104 225.535215 378.918762 219.968962 M529.918762 410.968962 C527.785767 409.468962 525.743225 407.806974 523.478394 406.543180 C522.476074 405.983854 520.969482 405.981901 519.803345 406.236967 C519.350159 406.336027 518.704041 408.260771 519.011902 408.628202 C519.962585 409.762968 521.223694 411.080290 522.560547 411.348783 C524.765747 411.791654 527.124634 411.468962 529.918762 410.968962 z"/><path class="selected"  fill="#000000" opacity="1.000000" stroke="none" 
 	d="
M102.668762 698.218962 C91.695190 709.859281 80.962860 721.241423 70.267151 732.657804 C69.531494 733.443144 69.014893 734.455839 68.502869 735.419340 C68.236542 735.920561 68.202942 736.545378 68.064209 737.114408 C68.848511 737.232634 69.965210 737.746916 70.367310 737.409574 C76.396942 732.350187 84.014679 733.053984 90.856476 732.706999 C110.682831 731.701506 130.564178 731.648405 150.425995 731.508573 C174.256348 731.340727 198.101624 730.997038 221.915680 731.642118 C236.720856 732.043180 251.545380 733.650236 266.239136 735.624601 C277.715454 737.166532 288.987305 740.198393 300.405823 742.258757 C301.358887 742.430754 303.849670 740.123625 303.747253 739.170072 C302.693481 729.359770 300.926086 719.621305 300.016602 709.801786 C299.215393 701.150541 299.554260 692.397612 298.866821 683.731108 C295.771729 644.710905 297.162048 605.623991 296.985474 566.563932 C296.914246 550.814543 297.531189 535.060331 297.942261 519.311125 C298.138794 511.779570 298.652405 504.256315 298.855469 496.724760 C298.890991 495.406950 298.097473 494.066862 297.686829 492.737028 C296.861938 493.716520 295.848633 494.592924 295.246338 495.694181 C293.148193 499.530363 293.399353 499.399809 290.810974 496.214933 C289.914612 495.111967 287.735291 494.457731 286.204651 494.557707 C273.276367 495.402250 260.374634 496.692900 247.440125 497.387419 C239.297546 497.824675 231.095886 497.136808 222.949890 497.540922 C207.852814 498.289762 192.776001 499.453459 177.692810 500.474760 C168.300934 501.110624 158.854858 501.352140 149.533722 502.552214 C120.025482 506.351286 90.410767 503.695341 60.856354 504.393705 C53.616364 504.564848 46.355164 503.782804 39.101746 503.487150 C37.804535 503.434233 36.495422 503.703825 35.195923 503.669218 C33.767731 503.631315 31.248291 503.728178 31.103119 503.221830 C30.363983 500.643827 31.189178 497.705351 34.081696 497.600004 C43.625488 497.252348 53.189850 497.468962 62.746307 497.468962 C70.079102 497.468962 77.414124 497.585356 84.744141 497.442778 C96.940369 497.205534 109.157471 497.169950 121.321350 496.372221 C135.295319 495.455778 149.215057 493.736479 163.169342 492.488798 C175.412384 491.394010 187.660980 490.324675 199.924774 489.508818 C212.635742 488.663114 225.367615 487.622282 238.090851 487.615263 C250.480042 487.608427 262.877441 488.691435 275.255615 489.526762 C279.836548 489.835905 284.357788 491.024015 288.938843 491.341459 C290.421753 491.444303 292.518921 490.447843 293.445312 489.260099 C295.614258 486.479643 297.121704 482.395414 301.457153 483.681120 C306.405640 485.148527 306.620056 490.204191 306.786255 494.219999 C307.192505 504.035734 306.824158 513.880827 306.937500 523.712065 C307.213196 547.630033 307.436829 571.550383 307.991882 595.462492 C308.213928 605.029264 309.441345 614.568876 309.856812 624.136259 C310.169922 631.345976 309.831238 638.581449 309.935547 645.803251 C310.219910 665.497770 311.006531 685.197111 310.724731 704.882109 C310.600830 713.535978 308.209656 722.140715 307.161499 730.805632 C306.686646 734.731108 306.973450 738.748991 306.919800 742.725004 C306.885376 745.281034 307.146118 746.797514 303.122375 745.767301 C299.109131 744.739958 294.471436 746.462065 290.114746 746.407133 C277.584900 746.249174 265.051575 745.963591 252.533508 745.412504 C244.130554 745.042509 235.757477 743.659391 227.360321 743.550077 C187.779907 743.034574 148.195953 742.778105 108.612885 742.483244 C96.281158 742.391386 83.947906 742.512968 71.615875 742.445585 C67.212402 742.421476 65.251068 744.274626 64.832214 748.813383 C63.758209 760.450773 62.264130 772.049772 60.886047 783.657926 C60.810974 784.290434 60.261749 784.866606 59.933197 785.468962 C59.261688 784.680998 58.146973 783.968107 57.998352 783.091459 C57.462463 779.930815 57.389893 776.693266 56.891693 773.524198 C55.640320 765.564238 53.986908 757.657072 53.042633 749.664030 C52.636139 746.223112 53.829071 742.625029 53.872864 739.093168 C54.001587 728.705046 53.791382 718.312284 53.951050 707.925016 C54.149689 695.004789 54.999695 682.082365 54.814331 669.171659 C54.580505 652.885649 54.150879 636.560697 52.721283 620.348173 C51.757599 609.419462 48.870361 598.664640 46.941833 587.814604 C46.136261 583.282438 45.594757 578.703581 44.916107 574.148588 C44.261780 569.756559 43.750641 565.334989 42.886627 560.984098 C40.627655 549.607878 38.436768 538.207975 35.691254 526.946073 C35.031952 524.241606 32.030914 522.188505 30.654816 519.550077 C29.736450 517.789274 28.869446 514.985685 29.660889 513.631559 C30.471100 512.245207 33.290894 511.598844 35.300964 511.421598 C45.449768 510.527128 51.714539 517.766508 58.979095 522.983427 C68.972961 530.160368 79.211151 536.999845 89.142914 544.259794 C101.334747 553.171842 113.267517 562.437529 125.404999 571.425016 C140.819153 582.838652 156.334747 594.115263 171.785065 605.480253 C174.359528 607.373930 176.909454 609.318693 179.319000 611.414274 C182.511322 614.190641 185.497620 614.059294 188.587250 611.311552 C200.395721 600.809294 212.243958 590.351652 224.038330 579.833708 C230.991028 573.633390 238.180115 567.656401 244.711914 561.035429 C255.207336 550.396635 265.527039 539.552458 275.348206 528.295317 C279.605591 523.415495 282.520020 517.341703 285.881592 511.712919 C287.374817 509.212553 289.107300 506.398954 292.068054 507.760710 C293.293335 508.324247 293.694519 512.222807 293.333252 514.417326 C291.992310 522.562101 286.695190 528.639555 281.369080 534.398588 C268.599426 548.206327 255.934875 562.158842 242.414795 575.210661 C230.522949 586.690397 217.512939 597.010221 205.028625 607.878935 C201.453400 610.991545 198.039459 614.289762 194.455475 617.391813 C192.288025 619.267851 192.400543 620.859831 194.539001 622.602384 C200.152435 627.176603 205.593719 631.975126 211.359802 636.346342 C227.141113 648.310026 241.716705 661.522612 254.603271 676.598356 C260.438171 683.424589 266.828491 689.782865 272.542114 696.704069 C279.242249 704.820341 285.449646 713.342070 291.941711 721.632414 C293.453613 723.563078 295.358276 725.187345 296.855286 727.127714 C297.315552 727.724211 297.021973 728.902372 297.073547 729.814176 C296.366455 729.543730 295.541016 729.424589 294.970947 728.978910 C290.049988 725.131376 284.845520 721.568998 280.352783 717.266752 C270.144836 707.491362 260.478943 697.149015 250.250519 687.396086 C237.186737 674.939421 223.908508 662.699797 210.483459 650.632780 C202.691284 643.628752 194.360748 637.226957 186.417175 630.386137 C183.644928 627.998625 181.621399 628.536650 179.108948 630.717558 C164.912354 643.040922 150.518433 655.138578 136.405060 667.555632 C125.085541 677.514494 114.069458 687.818205 102.668762 698.218962 M57.918762 586.968962 C58.272308 588.989225 58.662323 591.003813 58.973389 593.030607 C60.632690 603.841947 62.770325 614.610136 63.777069 625.482695 C64.761414 636.113249 64.533447 646.853178 64.940063 657.541288 C65.152679 663.129179 65.911041 668.711943 65.855377 674.291410 C65.710510 688.815824 65.210907 703.336515 64.981598 717.860746 C64.958344 719.334928 65.809143 720.822966 66.254333 722.304533 C67.475830 721.449430 68.964661 720.811857 69.869934 719.699369 C72.880402 716.000029 75.237793 711.668425 78.637329 708.403654 C95.375397 692.328642 112.328827 676.476835 129.298157 660.644743 C133.793549 656.450651 138.559509 652.538908 143.298706 648.615263 C152.463684 641.027372 161.603546 633.403349 170.946533 626.038786 C175.119080 622.749784 174.089874 620.251921 170.569733 617.628141 C160.643982 610.229887 150.596008 602.990812 140.794647 595.431669 C130.270142 587.315031 120.012390 578.853483 109.562103 570.639311 C99.653137 562.850614 89.709229 555.103361 79.663971 547.491911 C69.039429 539.441557 58.283691 531.564238 47.562286 523.642363 C46.716095 523.017118 45.690125 522.635038 44.747711 522.139982 C44.783905 523.395475 44.548859 524.734587 44.905518 525.891264 C46.131531 529.868071 47.950836 533.695951 48.839386 537.735624 C50.763794 546.484709 52.268463 555.326628 53.913666 564.136442 C55.271942 571.409574 56.585419 578.691130 57.918762 586.968962 z"/><path class="selected"  fill="#000000" opacity="1.000000" stroke="none" 
 	d="
M839.168762 765.218962 C828.903381 751.286955 819.216858 737.347380 808.767395 724.005278 C800.572449 713.541716 791.747986 703.521452 782.632874 693.841093 C771.804993 682.341581 760.768066 670.976713 749.106934 660.336882 C726.693115 639.886259 703.217651 620.722624 678.363647 603.214079 C662.356445 591.937712 647.414673 579.155485 631.495056 567.746488 C618.522949 558.449736 604.900574 550.042936 591.391968 541.518034 C581.659363 535.375944 571.776367 529.437895 561.674805 523.933012 C558.093872 521.981535 553.657043 521.619779 549.636414 520.444975 C548.354858 520.070646 547.155640 519.414640 545.918762 518.887480 C546.767090 517.081327 547.281006 514.047026 548.528625 513.707426 C551.802917 512.815885 555.790222 512.024504 558.787292 513.121855 C566.719971 516.026213 574.450500 519.622343 581.951843 523.536467 C598.140137 531.983488 614.478821 540.231840 630.094727 549.657072 C641.704224 556.664335 652.256287 565.418913 663.311768 573.350004 C674.095337 581.086210 685.000122 588.655851 695.704224 596.499906 C706.221497 604.207121 716.977844 611.670622 726.874939 620.124113 C745.337036 635.893217 763.676941 651.856901 781.248474 668.599333 C793.305481 680.087492 804.546814 692.562529 815.111389 705.450041 C825.844788 718.543486 835.772278 732.367887 845.207703 746.438810 C860.107117 768.658476 874.705505 791.103910 888.659729 813.925566 C899.000916 830.838041 908.284119 848.408964 917.737122 865.850065 C930.841858 890.028898 941.422424 915.336515 950.203186 941.375944 C952.041931 946.828581 952.685364 952.681364 953.948792 958.334318 C954.118103 959.092497 954.695129 959.759611 955.083313 960.468962 C955.695129 959.983244 956.458313 959.606291 956.896301 958.995817 C965.926086 946.414396 974.644226 933.598234 983.992371 921.259245 C994.337952 907.603483 1004.773743 893.950895 1016.175354 881.195280 C1020.274353 876.609465 1027.282043 874.610807 1033.002136 871.504728 C1033.607239 871.176237 1034.481873 871.344084 1035.231384 871.281584 C1035.100403 872.204069 1035.278381 873.355925 1034.790222 874.013029 C1030.514221 879.768278 1025.974304 885.330778 1021.790344 891.150114 C1013.407043 902.810514 1005.141907 914.557218 996.941101 926.347013 C992.371033 932.917326 988.085144 939.684782 983.570740 946.294767 C976.732727 956.307218 969.749817 966.221159 962.947083 976.257170 C960.237122 980.255217 958.366760 984.933073 955.202454 988.490446 C947.305969 997.367887 945.079651 998.878385 931.758606 992.449186 C922.936340 988.191496 914.788269 982.165617 907.118591 975.966154 C890.098938 962.209196 874.926697 946.241545 856.382874 934.263273 C848.775330 929.349211 841.947571 923.236418 834.668030 917.798674 C833.221863 916.718473 831.351135 915.647184 829.645447 915.596281 C826.557190 915.503874 824.586609 915.182463 824.845764 911.317106 C825.084412 907.758879 826.860535 906.004728 830.117004 905.484465 C836.950867 904.393034 841.807312 908.932951 846.843201 912.090055 C861.452332 921.248991 875.778870 930.867155 890.058533 940.538053 C893.796448 943.069548 896.935852 946.477262 900.392517 949.432829 C911.709290 959.109098 922.938049 968.892546 934.426086 978.361540 C939.143860 982.250212 941.619202 981.403898 944.981873 975.926969 C945.236267 975.512541 945.683411 975.219084 946.028259 974.857267 C952.128357 968.455046 951.649353 962.694792 947.232849 954.699308 C936.806213 935.823698 928.305847 915.895719 918.478943 896.673185 C911.428528 882.881925 903.631897 869.463468 895.915344 856.023954 C887.400574 841.194303 878.931091 826.320219 869.826843 811.852568 C860.299866 796.713224 850.038879 782.035917 840.116272 767.144987 C839.787048 766.650785 839.647034 766.030485 839.168762 765.218962 z"/><path class="selected"  fill="#000000" opacity="1.000000" stroke="none" 
 	d="
M478.668762 1496.718962 C471.703430 1484.753630 465.095886 1472.974577 458.238953 1461.342741 C452.619690 1451.810392 447.196716 1442.103483 440.810486 1433.095182 C429.425049 1417.035368 416.895081 1401.775724 405.766846 1385.548429 C397.498535 1373.491423 388.621521 1362.140592 378.059570 1352.063444 C374.897766 1349.046842 371.505371 1347.269743 366.950623 1347.402800 C358.902039 1347.638395 350.840820 1347.397306 342.786499 1347.493742 C337.284058 1347.559660 335.859375 1350.330778 336.643799 1355.818937 C338.689575 1370.132780 343.791504 1384.027311 342.857788 1398.736051 C342.588196 1402.984220 341.614197 1407.190885 340.873535 1411.400846 C340.800903 1411.813566 339.873413 1412.495939 339.722595 1412.407316 C338.729858 1411.823332 337.658203 1411.210661 336.948120 1410.335050 C331.884216 1404.090544 328.387695 1397.015348 326.248962 1389.285246 C322.429504 1375.480558 318.300476 1361.739958 317.902283 1347.244108 C317.615723 1336.812834 324.143494 1330.054777 333.120972 1330.374967 C338.296631 1330.559538 343.501526 1329.678312 348.700989 1329.494108 C360.390930 1329.080290 372.083862 1328.675871 383.779053 1328.505094 C395.164734 1328.338957 406.554688 1328.468962 417.942810 1328.468962 C423.165527 1328.468962 428.395935 1328.641569 433.608154 1328.407316 C436.997925 1328.254972 439.603149 1330.089445 439.619873 1332.711515 C439.634277 1334.955412 437.488159 1338.622892 435.551697 1339.212858 C428.976562 1341.216764 422.119507 1342.535978 415.279053 1343.368986 C406.440369 1344.445646 397.511475 1344.773039 388.629211 1345.515959 C387.775146 1345.587370 386.975830 1346.314054 386.151062 1346.736662 C386.703125 1347.443693 387.174805 1348.236051 387.820190 1348.843962 C392.725342 1353.463957 398.073059 1357.688322 402.502625 1362.722624 C410.249390 1371.527067 417.673340 1380.642301 424.803589 1389.955900 C434.344666 1402.418302 443.949219 1414.878630 452.657654 1427.920011 C462.171143 1442.166960 470.757874 1457.036955 479.628235 1471.708342 C488.079895 1485.687223 496.568665 1499.650114 504.681519 1513.825895 C511.367004 1525.507292 517.696899 1537.401823 523.872498 1549.362883 C530.526001 1562.249357 537.164307 1575.165129 543.169861 1588.359098 C549.480896 1602.224089 555.157593 1616.384001 560.877808 1630.509611 C565.096802 1640.928068 569.260498 1651.389494 572.885559 1662.023771 C580.754517 1685.107878 588.263794 1708.314543 595.918335 1731.471647 C601.586670 1748.619841 607.529114 1765.683927 612.833069 1782.944059 C617.251343 1797.321989 621.666321 1811.777922 624.671814 1826.487516 C626.898987 1837.387785 628.109253 1848.476408 631.837524 1859.058805 C632.165405 1859.989347 631.349915 1861.322721 631.065491 1862.468962 C630.295349 1861.581144 629.259094 1860.813810 628.794495 1859.787809 C619.581055 1839.438078 606.954773 1820.769621 600.593994 1798.955778 C596.212158 1783.928556 589.033813 1769.739714 584.041626 1754.861906 C576.568909 1732.592009 570.368713 1709.892790 562.798462 1687.658415 C554.407104 1663.012175 545.676636 1638.445646 535.992310 1614.285978 C527.059937 1592.002165 517.237122 1570.026579 506.734314 1548.436857 C498.678589 1531.877531 488.945618 1516.134611 479.992554 1500.009855 C479.477966 1499.083097 479.269592 1497.986540 478.668762 1496.718962 z"/><path class="selected"  fill="#000000" opacity="1.000000" stroke="none" 
 	d="
M722.668762 175.218962 C740.888672 168.468992 758.810120 161.831114 776.840271 155.502897 C800.997742 147.024107 825.293396 138.938017 849.425598 130.389311 C865.540222 124.680784 881.255920 117.773405 897.535461 112.619627 C926.602478 103.417540 955.873352 94.824125 985.231262 86.590010 C1001.882507 81.919767 1018.841125 78.315351 1035.725037 74.513761 C1051.460144 70.970808 1067.211121 67.415586 1083.086731 64.610121 C1093.036316 62.851896 1103.221619 62.386473 1113.314636 61.493772 C1122.192688 60.708509 1131.089294 60.130705 1139.978821 59.477079 C1140.807434 59.416136 1141.663879 59.358290 1142.472351 59.499525 C1143.310120 59.645887 1144.105042 60.036405 1144.918762 60.320127 C1144.175720 61.036421 1143.552307 62.123945 1142.669983 62.408110 C1137.367371 64.115919 1132.044006 65.786863 1126.656067 67.197157 C1109.508118 71.685652 1092.333801 76.074156 1075.159729 80.462400 C1062.346863 83.736311 1049.530701 86.998213 1036.694153 90.177503 C1022.630676 93.660658 1008.502258 96.888456 994.476868 100.516020 C982.468201 103.622007 970.518738 106.978910 958.625305 110.502806 C936.523621 117.051329 914.398743 123.540586 892.436951 130.536283 C865.963440 138.969084 839.608704 147.781401 813.281311 156.663084 C795.313416 162.724638 777.508118 169.266111 759.579956 175.447874 C739.015686 182.538603 718.251831 189.076353 697.843140 196.584227 C679.067261 203.491392 660.631592 211.327421 642.075134 218.826231 C616.810791 229.035795 591.449707 239.025053 566.426514 249.797270 C561.196106 252.048887 557.138245 257.173613 552.816284 261.266050 C551.898621 262.135008 552.186401 264.277037 551.918762 265.832487 C553.165833 265.711332 554.428528 265.399870 555.657471 265.500242 C563.051453 266.104002 570.506104 266.388121 577.806396 267.591917 C584.377319 268.675444 590.790649 270.748777 597.247192 272.483335 C604.316406 274.382505 608.022156 279.837614 610.794678 286.002806 C611.315125 287.160002 612.038269 289.873442 608.645325 289.496946 C604.573669 289.045134 600.440674 289.047789 596.401611 288.420042 C586.732117 286.917295 577.133240 284.936552 567.444458 283.590513 C561.652710 282.785826 555.711060 283.092588 549.900696 282.379087 C545.427246 281.829801 540.769775 281.110044 536.705139 279.311247 C531.281860 276.911192 530.407288 270.669828 532.594116 264.168913 C536.917603 251.316404 546.098389 241.839353 554.281006 231.666380 C562.258850 221.747770 570.575562 212.102049 578.576965 202.201902 C580.091003 200.328520 580.860107 197.841154 581.911743 195.608244 C584.457764 190.202207 589.111328 187.059904 592.472595 188.522795 C596.303528 190.190092 598.087708 196.311064 595.241455 201.467222 C591.096069 208.976774 586.410645 216.224272 581.487427 223.255857 C578.162537 228.004728 573.977661 232.145597 570.316711 236.671110 C569.733582 237.391905 569.885010 238.706816 569.696838 239.747099 C570.737061 239.521452 571.877991 239.498381 572.802124 239.039152 C583.169861 233.887815 593.324463 228.266111 603.887451 223.558775 C622.024658 215.476042 640.335083 207.766813 658.713318 200.244017 C679.373047 191.787321 700.187195 183.707853 720.944458 175.490202 C721.371765 175.321043 721.924500 175.468962 722.668762 175.218962 z"/><path class="selected"  fill="#000000" opacity="1.000000" stroke="none" 
 	d="
M390.918762 813.468962 C401.248047 813.468962 411.078308 813.556242 420.906494 813.452238 C447.814941 813.167509 474.723328 812.854948 501.629944 812.436735 C509.658447 812.312040 517.685181 811.477568 525.704712 811.582426 C531.100647 811.652983 536.527954 812.559721 541.854614 813.555509 C545.321716 814.203764 547.168701 816.789946 546.901245 820.465849 C546.633118 824.150846 544.583984 826.119902 540.875610 826.480802 C530.957275 827.446073 521.064941 828.960050 511.125671 829.370695 C487.590881 830.343046 464.038635 831.133024 440.486694 831.400297 C391.147644 831.960173 341.803772 832.087553 292.462891 832.503508 C280.437317 832.604887 268.415100 833.126554 256.391785 833.471586 C245.200836 833.792631 234.009705 834.110990 222.820129 834.476713 C213.794037 834.771757 204.768494 835.449369 195.745728 835.399992 C179.722412 835.312284 163.679413 835.208708 147.686310 834.342253 C134.543884 833.630217 121.421173 830.568510 108.370605 830.999174 C102.022278 831.208647 96.358856 831.235258 90.757843 828.691008 C88.599518 827.710600 86.852936 825.823698 84.918762 824.349821 C87.502472 822.722868 89.970642 819.971403 92.692749 819.691801 C99.343567 819.008696 106.113251 819.380400 112.832550 819.485990 C130.854492 819.769255 148.873932 820.257353 166.896606 820.433622 C183.778473 820.598844 200.673065 820.817839 217.543243 820.344267 C228.488892 820.037016 239.393951 818.441557 250.330292 817.591886 C257.220520 817.056608 264.137573 816.875883 271.037903 816.458830 C281.426392 815.831022 291.802490 814.880155 302.199341 814.541410 C312.408020 814.208830 322.637573 814.579008 332.855347 814.445280 C352.044128 814.194242 371.231079 813.802275 390.918762 813.468962 z"/><path class="selected"  fill="#000000" opacity="1.000000" stroke="none" 
 	d="
M62.918762 910.468962 C66.358185 905.813688 70.849609 904.470915 76.134918 904.407804 C86.995789 904.278044 97.854736 903.861540 108.710419 903.455046 C125.097626 902.841520 141.478668 902.058073 157.867432 901.493498 C171.054260 901.039030 184.254883 900.956022 197.437653 900.419889 C207.834686 899.997282 218.221069 899.230314 228.599091 898.443815 C240.355927 897.552580 252.207611 897.157560 263.821777 895.311979 C282.524719 892.339811 301.281250 892.512907 320.085571 892.417570 C333.111328 892.351408 346.147827 892.061613 359.155273 891.396452 C372.253662 890.726408 385.322266 889.471891 398.403381 888.467131 C402.598083 888.144987 406.786682 887.598844 410.985901 887.504118 C429.340088 887.089079 447.702148 886.964933 466.051392 886.408537 C477.281494 886.068083 488.491882 885.104948 499.714233 884.477018 C512.265381 883.774870 524.814636 882.943327 537.376526 882.587736 C541.077271 882.482878 544.856873 883.646696 548.519470 884.555387 C549.760681 884.863371 550.752625 886.175749 551.858521 887.029142 C550.724365 887.509001 549.629395 888.251310 548.449951 888.427336 C539.016541 889.835173 529.567139 891.135710 520.122620 892.468962 C508.316956 894.135588 496.521851 895.883024 484.700256 897.427702 C480.206299 898.014738 475.646179 898.077360 471.125122 898.478727 C447.758484 900.552580 424.374084 901.787565 400.888672 901.603239 C388.674744 901.507414 376.456787 903.003385 364.228333 903.418791 C348.378479 903.957121 332.515015 904.083219 316.660095 904.490568 C308.464294 904.701017 300.267151 905.013029 292.083252 905.495329 C276.663818 906.403898 261.252441 907.452238 245.839874 908.474943 C236.283661 909.108854 226.737427 910.262541 217.176239 910.388761 C177.496185 910.913175 137.812225 911.142790 98.129517 911.461759 C91.741547 911.513029 85.343597 911.261686 78.967621 911.543180 C74.857422 911.724821 70.791138 912.826628 66.678558 913.075651 C65.472229 913.148771 64.174561 911.713102 62.918762 910.468962 z"/><path class="selected"  fill="#000000" opacity="1.000000" stroke="none" 
 	d="
M288.668762 1342.218962 C278.761108 1347.734098 268.748352 1351.359342 257.594910 1352.698576 C245.045715 1354.205412 232.909454 1353.214811 221.192780 1349.326506 C203.944672 1343.602384 192.535797 1331.706877 186.816406 1314.215666 C184.258636 1306.393522 184.134430 1298.650968 184.868378 1290.667692 C185.172211 1287.362883 184.986847 1284.005339 184.906647 1280.674406 C184.604095 1268.108122 188.137085 1256.327116 193.117889 1245.083342 C195.053802 1240.712980 198.964966 1237.058439 202.528259 1233.655851 C203.755859 1232.483610 207.052856 1232.280851 208.673309 1233.093351 C209.989136 1233.753019 210.961975 1236.711149 210.692505 1238.431486 C210.456848 1239.935392 208.253174 1241.111540 206.963409 1242.474455 C205.023438 1244.524626 202.447388 1246.297575 201.313995 1248.733854 C193.846130 1264.786833 192.576599 1282.333219 195.412659 1298.985319 C199.515991 1323.078703 210.623566 1334.223356 234.077942 1339.249113 C256.670593 1344.090055 276.345398 1337.100798 293.071289 1320.971281 C304.894958 1309.569059 313.568359 1296.168180 317.113037 1280.442717 C321.510498 1260.934050 321.802246 1240.956999 304.315552 1226.895231 C296.447327 1220.568083 286.378845 1216.378508 276.674316 1213.092009 C265.764771 1209.397306 254.321533 1207.007048 242.486633 1207.378385 C232.255585 1207.699430 223.070557 1210.737394 214.652557 1216.281828 C207.164459 1221.214079 199.842224 1226.397673 192.416260 1231.425260 C191.971313 1231.726530 191.256622 1231.629484 190.667480 1231.717741 C190.521667 1230.364347 189.848389 1228.770842 190.333771 1227.704801 C191.551483 1225.030241 193.377991 1222.641203 194.810760 1220.054777 C201.677582 1207.658903 212.450531 1200.123136 225.731354 1196.394377 C230.696564 1195.000334 236.253784 1195.712248 241.541504 1195.473112 C242.206696 1195.442961 242.880585 1195.528532 243.540009 1195.460173 C256.266449 1194.140348 267.985535 1198.546232 279.855652 1201.943693 C295.144653 1206.319914 309.176575 1213.127775 319.458801 1225.667204 C326.485657 1234.236662 331.536621 1243.912931 331.951721 1255.463102 C332.379211 1267.355925 332.071289 1279.062834 327.986450 1290.496305 C323.365723 1303.429655 317.291138 1315.329924 308.262268 1325.883634 C302.640015 1332.455290 296.524292 1337.994474 288.668762 1342.218962 z"/><path class="selected"  fill="#000000" opacity="1.000000" stroke="none" 
 	d="
M787.668762 1077.218962 C784.992981 1078.441984 782.363342 1079.651945 780.668030 1076.602995 C779.726990 1074.910734 778.498840 1071.938078 779.227478 1071.061247 C780.682678 1069.310270 783.371521 1067.673674 785.594666 1067.613859 C806.936462 1067.038542 828.287048 1066.772428 849.635803 1066.476530 C875.980408 1066.111296 902.326477 1065.840300 928.670715 1065.455900 C946.855408 1065.190641 965.039490 1064.857634 983.221252 1064.443571 C991.248108 1064.260710 999.269470 1063.519621 1007.291931 1063.541593 C1016.981750 1063.568205 1026.678772 1063.986296 1036.355042 1064.541838 C1040.268372 1064.766447 1044.138245 1065.784147 1048.017151 1066.500212 C1048.359192 1066.563322 1048.916199 1067.272306 1048.873718 1067.333586 C1048.351868 1068.082975 1047.848328 1069.212126 1047.126892 1069.393034 C1043.781799 1070.231657 1040.392639 1070.975920 1036.976257 1071.430754 C1030.941223 1072.233854 1024.889099 1073.014372 1018.818420 1073.417204 C1010.642395 1073.959806 1002.444153 1074.215422 994.251404 1074.451017 C980.400208 1074.849455 966.547302 1075.327238 952.692566 1075.434782 C899.032043 1075.851774 845.370544 1076.132292 791.709534 1076.488859 C790.444885 1076.497282 789.182312 1076.802336 787.668762 1077.218962 z"/><path class="selected"  fill="#000000" opacity="1.000000" stroke="none" 
 	d="
M102.918762 980.468962 C93.755981 980.468962 85.084595 980.702482 76.433685 980.381803 C71.194794 980.187712 65.844482 979.641325 60.835968 978.222990 C58.798431 977.646086 55.918304 973.957365 56.293427 972.358244 C56.872101 969.891203 59.551636 967.230558 63.329132 969.293669 C64.103119 969.716276 65.265533 969.476408 66.247742 969.461882 C88.266479 969.137663 110.294067 969.078703 132.300201 968.362028 C144.899323 967.951872 157.462799 966.459318 170.043762 965.472380 C178.762207 964.788420 187.501709 963.416716 196.198425 963.641813 C208.462860 963.959196 220.702301 965.405729 232.935974 966.546232 C234.526031 966.694548 236.251038 967.622892 237.486481 968.686125 C238.601379 969.645475 239.131042 971.285124 239.918762 972.624723 C238.769836 972.906217 237.506287 972.969938 236.490784 973.504728 C230.554749 976.630827 224.143097 976.439665 217.724182 976.518522 C215.193054 976.549650 212.674225 977.362638 210.140289 977.423429 C204.198914 977.565885 198.245117 977.286344 192.308350 977.504728 C177.087524 978.064421 161.870728 978.749723 146.657196 979.485807 C134.601532 980.069303 122.556305 980.874723 110.498688 981.406095 C108.157043 981.509367 105.779663 980.802336 102.918762 980.468962 z"/><path class="selected"  fill="#000000" opacity="1.000000" stroke="none" 
 	d="
M898.668762 1229.218962 C857.258728 1229.468962 816.098572 1229.476164 774.938538 1229.436369 C773.598328 1229.435148 772.258728 1228.953947 770.918762 1228.696501 C771.997498 1227.620695 772.924011 1225.876676 774.182434 1225.590422 C778.500305 1224.607511 782.928528 1223.599821 787.325012 1223.552092 C830.678528 1223.081388 874.034607 1222.848234 917.388733 1222.433683 C927.084778 1222.341032 936.778259 1221.848967 946.469788 1221.458464 C962.026062 1220.831510 977.583923 1220.224333 993.132507 1219.436735 C1002.863586 1218.943937 1012.581970 1217.556242 1022.299988 1217.613493 C1034.858704 1217.687345 1047.411682 1218.791227 1059.964539 1219.500334 C1060.629089 1219.537931 1061.267883 1220.028898 1061.918762 1220.308927 C1061.179382 1221.029020 1060.511414 1222.273039 1059.689148 1222.384977 C1053.654236 1223.207121 1047.601379 1224.166838 1041.529114 1224.383879 C1032.375671 1224.710905 1023.199402 1224.338835 1014.037170 1224.505217 C1004.673767 1224.675138 995.314392 1225.102384 985.955750 1225.480070 C979.092590 1225.756925 972.235535 1226.180998 965.372375 1226.457853 C956.013855 1226.835539 946.653259 1227.175871 937.291443 1227.458952 C924.932678 1227.832731 912.571716 1228.130949 900.212463 1228.488493 C899.776917 1228.501066 899.349792 1228.802336 898.668762 1229.218962 z"/><path class="selected"  fill="#000000" opacity="1.000000" stroke="none" 
 	d="
M845.918762 1115.468962 C853.416321 1115.468962 860.419983 1115.660246 867.410095 1115.430998 C884.131897 1114.882414 900.856262 1114.308683 917.561951 1113.415007 C931.323547 1112.679045 945.052185 1111.344816 958.809387 1110.503996 C972.351746 1109.676237 985.911194 1109.122770 999.464539 1108.479460 C1002.378601 1108.341154 1005.300110 1108.267790 1008.215149 1108.322843 C1008.790100 1108.333586 1009.351257 1109.071867 1009.918762 1109.474455 C1009.319519 1109.805998 1008.755066 1110.320036 1008.115906 1110.441008 C1000.846008 1111.818449 993.605042 1113.447355 986.277283 1114.398893 C974.034119 1115.988859 961.741150 1117.214811 949.453308 1118.432951 C943.947693 1118.978849 938.406433 1119.191008 932.876526 1119.455900 C924.853210 1119.840422 916.826965 1120.169767 908.799622 1120.460417 C898.609314 1120.829191 888.416077 1121.114714 878.225403 1121.475431 C869.698792 1121.777311 861.176697 1122.285734 852.648010 1122.440031 C829.571960 1122.857878 806.491882 1123.058927 783.418762 1123.588224 C781.123230 1123.640959 778.868347 1125.360929 776.589294 1126.294279 C775.592102 1126.702604 774.581482 1127.078337 773.577087 1127.468962 C773.389099 1126.270964 772.733704 1124.904997 773.093445 1123.903776 C774.689270 1119.462126 778.750549 1118.424040 782.773987 1117.489469 C783.406311 1117.342619 784.102356 1117.479826 784.768494 1117.467375 C802.457458 1117.135954 820.147034 1116.836271 837.834412 1116.430754 C840.368591 1116.372526 842.890930 1115.802214 845.918762 1115.468962 z"/><path class="selected"  fill="#000000" opacity="1.000000" stroke="none" 
 	d="
M388.918762 678.468962 C400.025391 677.135649 410.604187 675.484770 421.246033 674.553800 C433.095703 673.517118 444.998840 673.054777 456.885742 672.488920 C472.594543 671.741117 488.306580 670.818998 504.024841 670.639067 C509.594238 670.575346 515.271362 672.162443 520.710144 673.675749 C522.142029 674.074186 522.868408 677.007963 523.918762 678.777494 C522.140015 679.062529 520.368469 679.514616 518.580688 679.592131 C516.112061 679.699064 513.626587 679.400297 511.156372 679.492277 C503.963745 679.759916 496.775757 680.147550 489.584900 680.466459 C474.372192 681.141264 459.154724 681.720426 443.947327 682.497831 C433.889526 683.011991 423.851440 683.907926 413.794495 684.443754 C399.419434 685.209501 385.031494 685.735502 370.659058 686.542814 C368.566833 686.660429 366.568481 687.966276 364.459412 688.376310 C360.781067 689.091459 358.037231 687.166899 357.211243 683.917814 C356.940918 682.854399 359.699707 680.704618 361.413208 679.560820 C362.623718 678.752775 364.403137 678.534696 365.934753 678.514311 C373.428284 678.414213 380.923889 678.468962 388.918762 678.468962 z"/><path class="selected"  fill="#000000" opacity="1.000000" stroke="none" 
 	d="
M393.918762 509.468962 C384.667419 508.407011 375.633057 508.665007 367.538208 504.461637 C365.932495 503.627958 363.794983 501.721586 363.794189 500.308805 C363.792236 496.835661 366.982544 497.071989 369.295349 497.527189 C385.738770 500.763395 402.363464 500.607206 418.997559 500.479887 C427.209839 500.417021 435.422974 500.468962 443.635742 500.468962 C457.174866 500.468962 470.733948 500.030363 484.244934 500.647184 C491.395264 500.973600 498.666077 502.501310 505.491882 504.699675 C509.797058 506.086149 513.441040 509.631620 517.235107 512.408781 C517.979004 512.953215 518.050781 514.415922 518.432556 515.455168 C517.545532 515.459745 516.622192 515.629972 515.776672 515.444731 C494.724915 510.834013 473.362671 511.445036 452.013977 511.408659 C436.172424 511.381742 420.330688 510.846952 404.491760 510.433256 C401.127991 510.345426 397.776123 509.802275 393.918762 509.468962 z"/><path class="selected"  fill="#000000" opacity="1.000000" stroke="none" 
 	d="
M1005.918762 276.468962 C995.087097 276.468962 984.742615 276.796385 974.426819 276.391783 C959.189880 275.794157 943.969788 274.985838 928.976990 271.581358 C921.706970 269.930479 914.150696 269.569212 906.763367 268.379240 C905.385681 268.157316 904.195496 266.770567 902.918762 265.921415 C904.255798 264.770628 905.647156 262.581602 906.920349 262.648436 C912.480896 262.940275 918.026428 263.763761 923.541077 264.626097 C931.023987 265.796202 938.444885 268.059873 945.943176 268.305601 C969.620056 269.081571 993.320374 269.155577 1017.012146 269.463743 C1044.369202 269.819578 1071.726501 270.196531 1099.084900 270.415220 C1104.276184 270.456724 1109.472595 269.792356 1114.668030 269.477568 C1115.664246 269.417234 1116.803894 269.159727 1117.640198 269.529570 C1119.757263 270.465666 1121.739319 271.706785 1123.775452 272.825682 C1121.736389 273.706755 1119.769348 275.022215 1117.642639 275.375212 C1113.668762 276.034758 1109.607361 276.330961 1105.573547 276.434660 C1089.382996 276.850920 1073.189026 277.400938 1056.996521 277.395811 C1040.137146 277.390470 1023.278015 276.802305 1005.918762 276.468962 z"/><path class="selected"  fill="#000000" opacity="1.000000" stroke="none" 
 	d="
M953.918762 318.468962 C937.899231 316.679686 921.982239 317.875242 906.970276 312.391294 C905.417908 311.824186 904.259827 310.177824 902.918762 309.032255 C904.689026 308.511167 906.721985 307.147428 908.187195 307.604368 C918.435608 310.800627 928.989807 311.278257 939.547913 311.413175 C956.032410 311.623838 972.522888 311.591368 989.008484 311.426756 C1000.363708 311.313383 1011.716003 310.835203 1023.067566 310.458036 C1031.424744 310.180326 1039.776184 309.700926 1048.134583 309.490568 C1064.315369 309.083311 1080.499329 308.801207 1096.681946 308.471586 C1097.680847 308.451231 1098.740295 308.262998 1099.661438 308.531217 C1100.462585 308.764494 1101.107727 309.533659 1101.821716 310.066008 C1101.182800 310.533689 1100.599426 311.283018 1099.895447 311.422209 C1096.027527 312.186918 1092.152893 313.042845 1088.237488 313.412535 C1082.400818 313.963652 1076.532166 314.261564 1070.670227 314.443449 C1057.321228 314.857603 1043.962952 315.002714 1030.617981 315.506742 C1017.564514 315.999784 1004.527405 316.918180 991.474548 317.435484 C979.128357 317.924803 966.771179 318.135618 953.918762 318.468962 z"/><path class="selected"  fill="#000000" opacity="1.000000" stroke="none" 
 	d="
M447.918762 551.468962 C454.007996 550.879728 459.586609 550.148283 465.188721 549.732328 C475.336731 548.978727 485.383057 549.495329 494.896606 553.554350 C496.157104 554.092131 497.174622 555.676603 497.768555 557.014372 C497.950806 557.425077 496.336060 559.369413 495.563049 559.357817 C484.032166 559.185331 472.491760 558.324125 460.980225 558.629972 C452.725403 558.849333 444.504517 560.520475 436.279968 561.629545 C432.521423 562.136381 428.812012 563.111967 425.043213 563.418119 C414.998230 564.234159 404.931091 564.772489 394.876648 565.477934 C385.983215 566.101957 377.096252 566.818205 368.203186 567.446989 C367.195068 567.518278 366.165649 567.287260 365.146118 567.196379 C365.348083 565.842802 365.099976 563.689482 365.831848 563.277616 C368.627930 561.704130 371.649109 559.984770 374.748413 559.588652 C389.857361 557.657377 405.018799 556.135649 420.161621 554.468962 C429.247314 553.468962 438.333069 552.469023 447.918762 551.468962 z"/><path class="selected"  fill="#000000" opacity="1.000000" stroke="none" 
 	d="
M773.168762 1178.718962 C772.655090 1179.135588 772.250671 1179.508268 772.148376 1179.438566 C770.237122 1178.132902 766.358765 1182.896452 766.299744 1178.222258 C766.275879 1176.331999 770.225464 1173.447966 772.846130 1172.703581 C776.233215 1171.741545 780.100159 1172.468962 783.760559 1172.468962 C791.913147 1172.468962 800.073669 1172.241056 808.216736 1172.519499 C822.421936 1173.004972 836.616150 1173.805998 850.815369 1174.467253 C858.163879 1174.809538 865.516418 1175.083097 872.860535 1175.501188 C875.063660 1175.626554 877.330872 1175.873991 879.407654 1176.555876 C880.936096 1177.057585 882.202209 1178.358000 883.585266 1179.302458 C881.721497 1180.024626 879.850769 1181.383268 877.995056 1181.363005 C867.981506 1181.253508 857.972107 1180.787443 847.960388 1180.472990 C836.785095 1180.122038 825.609680 1179.773527 814.432922 1179.476164 C800.762268 1179.112272 787.090271 1178.802336 773.168762 1178.718962 z"/><path class="selected"  fill="#000000" opacity="1.000000" stroke="none" 
 	d="
M114.918762 1017.468962 C123.643127 1016.468962 131.847961 1015.161100 140.102539 1014.636442 C142.978027 1014.453825 145.976471 1016.205778 148.918762 1017.074186 C146.369965 1018.921354 144.064453 1021.667082 141.223755 1022.436247 C134.430389 1024.275846 127.431519 1025.799040 120.430725 1026.329069 C109.145508 1027.183439 97.793060 1027.226042 86.466034 1027.360563 C84.959198 1027.378630 83.434906 1025.928556 81.918732 1025.158293 C83.170654 1023.928434 84.238312 1022.005339 85.712860 1021.613615 C88.770081 1020.801237 92.058350 1020.905607 95.224731 1020.447477 C101.632233 1019.520231 108.021790 1018.468962 114.918762 1017.468962 z"/><path class="selected"  fill="#000000" opacity="1.000000" stroke="none" 
 	d="
M384.918762 611.468962 C397.029419 612.784513 408.240601 609.544340 419.642883 608.481291 C420.633301 608.388945 421.860229 608.106047 422.589966 608.549345 C423.858887 609.320158 425.133972 610.441130 425.750183 611.729216 C425.963562 612.175321 424.387878 614.124174 423.354980 614.416227 C415.733887 616.571684 408.141113 619.415190 400.349854 620.230558 C390.797180 621.230314 381.060181 620.468962 371.402893 620.468962 C370.736877 620.468962 369.864563 620.741117 369.441528 620.420561 C367.854492 619.217680 366.414124 617.821257 364.918762 616.497404 C366.395203 615.154631 367.724487 612.907255 369.375610 612.638517 C374.322449 611.833708 379.395203 611.802336 384.918762 611.468962 z"/><path class="selected"  fill="#000000" opacity="1.000000" stroke="none" 
 	d="
M1092.918762 226.468962 C1091.626282 227.802305 1090.341858 229.345426 1089.039978 229.360411 C1074.211609 229.531279 1059.380676 229.468962 1044.550354 229.468962 C1039.494202 229.468962 1034.429871 229.624388 1029.388123 229.354917 C1028.192566 229.291014 1026.503479 228.017942 1026.082336 226.906675 C1025.678284 225.840300 1026.211853 223.563108 1027.066711 223.057249 C1028.734314 222.070494 1030.919128 221.513121 1032.880432 221.537016 C1050.740173 221.754484 1068.601624 222.019712 1086.450989 222.618040 C1088.641907 222.691465 1090.764465 224.802275 1092.918762 226.468962 z"/><path class="selected"  fill="#000000" opacity="1.000000" stroke="none" 
 	d="
M940.668762 370.718962 C947.676575 371.135649 954.448914 371.098844 961.183777 371.583586 C963.424133 371.744779 965.568054 373.244169 967.756042 374.131803 C965.581116 374.910856 963.431091 376.266569 961.226624 376.361723 C954.412537 376.655485 947.545349 376.893766 940.757629 376.379423 C927.133972 375.347196 913.555481 373.728971 899.943787 372.517851 C896.309387 372.194487 892.610657 372.633146 888.964417 372.384916 C887.582458 372.290922 886.265442 371.246305 884.918762 370.634977 C886.349670 369.579618 887.770447 367.642912 889.213318 367.626310 C894.565491 367.564726 899.924866 368.135588 905.281555 368.468962 C915.994934 369.135649 926.708069 369.807157 937.422180 370.460844 C938.417542 370.521574 939.419739 370.468962 940.668762 370.718962 z"/><path class="selected"  fill="#000000" opacity="1.000000" stroke="none" 
 	d="
M258.668701 1446.218962 C259.178406 1445.802214 259.423767 1445.522795 259.700134 1445.487638 C261.101929 1445.309294 262.511780 1445.194548 263.918762 1445.057341 C263.784973 1445.494963 263.763000 1446.221403 263.499268 1446.323576 C261.730347 1447.008634 259.909973 1447.561003 258.106232 1448.156462 C258.210388 1447.593962 258.314575 1447.031462 258.668701 1446.218962 z"/><path class="selected"  fill="#000000" opacity="1.000000" stroke="none" 
 	d="
M369.918762 989.468962 C368.969177 988.918547 368.519531 988.368254 368.069885 987.817839 C368.970764 987.486174 369.945862 986.772795 370.751587 986.929533 C371.561646 987.087126 372.203247 988.110929 372.918762 988.755217 C372.085449 988.993132 371.252075 989.231047 369.918762 989.468962 z"/><path class="selected"  fill="#000000" opacity="1.000000" stroke="none" 
 	d="
M345.168762 1100.718962 C345.736511 1101.151213 346.054199 1101.833586 346.371948 1102.515837 C345.571106 1102.683683 344.770325 1102.851652 343.969543 1103.019743 C344.285950 1102.336149 344.602356 1101.652555 345.168762 1100.718962 z"/><path class="selected"  fill="#000000" opacity="1.000000" stroke="none" 
 	d="
M337.918762 1139.468962 C338.918762 1138.972502 339.919006 1138.971647 340.916748 1139.020353 C340.932678 1139.021208 340.932739 1139.916838 340.916748 1139.917570 C339.919006 1139.966520 338.918762 1139.965422 337.918762 1139.468962 z"/><path class="selected"  fill="#000000" opacity="1.000000" stroke="none" 
 	d="
M44.918762 26.468962 C43.918762 26.055860 43.418762 25.642774 42.918762 25.229689 C43.578278 24.976103 44.237793 24.722532 44.897308 24.468962 C45.071106 25.135633 45.244934 25.802290 44.918762 26.468962 z"/><path class="selected"  fill="#000000" opacity="1.000000" stroke="none" 
 	d="
M15.918762 0.468962 C16.918762 -0.027453 17.918976 -0.028429 18.916779 0.020384 C18.932678 0.021147 18.932678 0.916792 18.916779 0.917555 C17.918976 0.966352 16.918762 0.965376 15.918762 0.468962 z"/><path class="selected"  fill="#000000" opacity="1.000000" stroke="none" 
 	d="
M75.668762 297.718962 C79.842896 300.135618 83.788544 302.264921 87.671906 304.502348 C88.397461 304.920408 88.873322 305.771879 89.464386 306.423338 C88.543793 306.533171 87.558472 306.913908 86.712494 306.711637 C76.435760 304.254393 68.157440 298.073301 59.966461 291.885527 C56.704559 289.421324 53.990173 286.198423 51.210236 283.153196 C50.483582 282.357176 50.445190 280.932798 50.090698 279.797026 C51.344055 280.165007 52.833008 280.217985 53.813141 280.951200 C61.071899 286.381071 68.229431 291.946287 75.668762 297.718962 z"/></svg>