<svg width="170" height="49" viewBox="0 0 170 49" fill="none" xmlns="http://www.w3.org/2000/svg">
<path d="M1.10633 38.0172V19.2903H24.7284V18.1949H1.10633V1.11069H26.2218V0.015625H0V39.1123H26.443V38.0172H1.10666H1.10633ZM47.7418 10.9669L37.9502 23.7255L28.3794 10.9673H26.941L37.2861 24.5471L25.9449 39.1119H27.2727L37.9495 25.3677L48.6818 39.1119H50.0647L38.6687 24.5465L49.0689 10.9666H47.7414L47.7418 10.9669ZM53.3843 48.7496V31.2276H53.4949C54.1589 33.7829 55.4681 35.8363 57.4228 37.3878C59.3775 38.9391 61.8667 39.715 64.8909 39.715C66.8455 39.715 68.5791 39.3226 70.0911 38.5378C71.6032 37.753 72.8663 36.6852 73.8806 35.3344C74.8946 33.9837 75.6693 32.414 76.2042 30.6252C76.7387 28.8367 77.0063 26.9564 77.0063 24.9855C77.0063 22.868 76.7294 20.9149 76.1763 19.1263C75.6231 17.3375 74.8209 15.7859 73.77 14.472C72.7188 13.1577 71.4465 12.1353 69.9527 11.4057C68.4592 10.6754 66.7718 10.3103 64.8909 10.3103C63.4525 10.3103 62.1157 10.5203 60.8803 10.94C59.6448 11.36 58.5477 11.9529 57.5888 12.7196C56.6243 13.4923 55.7848 14.4063 55.0993 15.43C54.3987 16.4705 53.8638 17.6113 53.4949 18.8526H53.3843V10.9669H52.278V48.7496H53.3843V48.7496ZM64.8909 38.6742C61.4245 38.6742 58.6397 37.4969 56.5376 35.1425C54.4355 32.788 53.3843 29.4019 53.3843 24.9849C53.3843 23.1595 53.6426 21.4256 54.1589 19.783C54.6753 18.1404 55.422 16.6983 56.3992 15.4573C57.3767 14.216 58.5846 13.2303 60.0226 12.5004C61.461 11.7702 63.0839 11.405 64.8909 11.405C66.735 11.405 68.3486 11.7702 69.7315 12.5004C71.1145 13.2303 72.258 14.2252 73.1614 15.4846C74.0649 16.744 74.7472 18.1861 75.2084 19.8103C75.6693 21.4348 75.8997 23.1595 75.8997 24.9849C75.8997 26.6278 75.6878 28.2615 75.2635 29.8857C74.8395 31.5102 74.1847 32.9704 73.2996 34.2666C72.4147 35.5622 71.2808 36.6208 69.8976 37.4424C68.5143 38.2637 66.8455 38.6742 64.8909 38.6742V38.6742ZM83.0915 39.1123V23.1779C83.0915 21.6448 83.3126 20.1478 83.7555 18.6879C84.1978 17.2277 84.8801 15.9407 85.8022 14.8276C86.7242 13.7141 87.895 12.8379 89.3151 12.199C90.7348 11.5601 92.4222 11.2956 94.3769 11.405V10.31C92.6802 10.2738 91.196 10.4559 89.9237 10.8575C88.651 11.2591 87.554 11.8066 86.6319 12.5004C85.7099 13.1939 84.9724 14.006 84.4193 14.937C83.8665 15.8666 83.4563 16.8723 83.2021 17.9212H83.0915V10.9669H81.9852V39.1126H83.0915V39.1123ZM95.7598 25.2586H119.548C119.622 23.3239 119.428 21.4624 118.967 19.6735C118.506 17.8847 117.768 16.2967 116.754 14.9098C115.74 13.5225 114.431 12.409 112.826 11.5693C111.222 10.7296 109.313 10.31 107.101 10.31C105.515 10.31 103.966 10.6386 102.454 11.2959C100.941 11.9529 99.6137 12.9109 98.4705 14.1703C97.3273 15.4297 96.4053 16.972 95.7047 18.7977C95.0041 20.6227 94.6535 22.7034 94.6535 25.0398C94.6535 27.1204 94.8932 29.0644 95.3727 30.8713C95.8521 32.6783 96.5895 34.2482 97.5853 35.5806C98.5814 36.9129 99.863 37.9442 101.43 38.6742C102.997 39.4044 104.888 39.7512 107.101 39.7147C110.346 39.7147 113.075 38.8109 115.288 37.0043C117.501 35.197 118.81 32.651 119.216 29.3655H118.109C117.63 32.4686 116.404 34.7958 114.431 36.347C112.457 37.8985 109.977 38.6742 106.99 38.6742C104.961 38.6742 103.246 38.3274 101.845 37.634C100.444 36.9405 99.3003 35.9911 98.4151 34.7866C97.5302 33.5817 96.8754 32.1672 96.4514 30.5427C96.0271 28.9185 95.7967 27.1569 95.7598 25.2586ZM118.441 24.1636H95.7601C95.8704 22.1923 96.2393 20.4219 96.8661 18.8522C97.4933 17.2823 98.3138 15.9407 99.3281 14.8276C100.342 13.7141 101.523 12.8655 102.869 12.2812C104.215 11.6972 105.662 11.405 107.211 11.405C109.055 11.405 110.678 11.7429 112.079 12.4182C113.481 13.0936 114.652 14.0155 115.592 15.1835C116.533 16.3515 117.243 17.7115 117.722 19.2627C118.201 20.8143 118.441 22.448 118.441 24.1636ZM142.506 19.2903H143.612C143.612 16.1507 142.69 13.8692 140.846 12.4455C139.002 11.0218 136.494 10.31 133.323 10.31C131.552 10.31 130.059 10.5292 128.841 10.9673C127.625 11.405 126.629 11.971 125.854 12.6644C125.08 13.3579 124.527 14.1246 124.195 14.9643C123.863 15.804 123.697 16.6072 123.697 17.3736C123.697 18.9068 123.973 20.1297 124.527 21.0424C125.08 21.955 125.946 22.6669 127.126 23.1779C127.938 23.5428 128.86 23.8714 129.893 24.1639C130.925 24.4557 132.124 24.766 133.489 25.0943C134.705 25.3868 135.904 25.6787 137.084 25.9705C138.264 26.2627 139.306 26.6551 140.21 27.1477C141.114 27.6407 141.851 28.2704 142.423 29.0371C142.994 29.8036 143.28 30.8076 143.28 32.0486C143.28 33.2534 142.995 34.2755 142.423 35.1149C141.856 35.9502 141.11 36.6514 140.238 37.1686C139.353 37.6977 138.366 38.0809 137.278 38.3182C136.19 38.5555 135.13 38.6742 134.097 38.6742C130.741 38.6742 128.168 37.935 126.38 36.4568C124.591 34.9782 123.697 32.651 123.697 29.4749H122.59C122.59 33.0161 123.558 35.6079 125.495 37.2508C127.431 38.8934 130.298 39.7147 134.097 39.7147C135.314 39.7147 136.54 39.5776 137.776 39.3039C139.011 39.0301 140.118 38.5831 141.095 37.9623C142.064 37.3503 142.878 36.5261 143.474 35.5533C144.082 34.5673 144.387 33.3628 144.387 31.9391C144.387 30.5884 144.119 29.4933 143.585 28.6536C143.05 27.8142 142.349 27.1204 141.482 26.5729C140.616 26.0254 139.638 25.5965 138.55 25.2862C137.456 24.9742 136.359 24.6729 135.259 24.3825C133.905 24.0308 132.549 23.6841 131.193 23.3423C130.031 23.0501 128.952 22.7034 127.957 22.3018C126.998 21.9002 126.232 21.3253 125.661 20.577C125.089 19.8287 124.803 18.7609 124.803 17.3736C124.803 17.1183 124.877 16.6618 125.024 16.0048C125.172 15.3475 125.522 14.6813 126.076 14.006C126.629 13.3309 127.477 12.7285 128.62 12.199C129.763 11.6699 131.331 11.405 133.323 11.405C134.687 11.405 135.932 11.5513 137.057 11.8431C138.181 12.1353 139.15 12.6007 139.961 13.2395C140.772 13.8784 141.399 14.6905 141.842 15.6762C142.284 16.6621 142.506 17.8666 142.506 19.2903V19.2903ZM168.119 19.2903H169.225C169.225 16.1507 168.304 13.8692 166.46 12.4455C164.615 11.0218 162.108 10.31 158.936 10.31C157.166 10.31 155.672 10.5292 154.455 10.9673C153.238 11.405 152.242 11.971 151.468 12.6644C150.693 13.3579 150.14 14.1246 149.808 14.9643C149.476 15.804 149.31 16.6072 149.31 17.3736C149.31 18.9068 149.587 20.1297 150.14 21.0424C150.693 21.955 151.56 22.6669 152.74 23.1779C153.552 23.5428 154.473 23.8714 155.506 24.1639C156.538 24.4557 157.737 24.766 159.102 25.0943C160.319 25.3868 161.518 25.6787 162.698 25.9705C163.878 26.2627 164.92 26.6551 165.823 27.1477C166.727 27.6407 167.465 28.2704 168.036 29.0371C168.608 29.8036 168.894 30.8076 168.894 32.0486C168.894 33.2534 168.608 34.2755 168.036 35.1149C167.469 35.9502 166.723 36.6514 165.851 37.1686C164.966 37.6977 163.979 38.0809 162.891 38.3182C161.803 38.5555 160.743 38.6742 159.71 38.6742C156.354 38.6742 153.782 37.935 151.993 36.4568C150.204 34.9782 149.31 32.651 149.31 29.4749H148.204C148.204 33.0161 149.172 35.6079 151.108 37.2508C153.044 38.8934 155.912 39.7147 159.71 39.7147C160.928 39.7147 162.154 39.5776 163.389 39.3039C164.624 39.0301 165.731 38.5831 166.709 37.9623C167.677 37.3503 168.491 36.5261 169.087 35.5533C169.696 34.5673 170 33.3628 170 31.9391C170 30.5884 169.733 29.4933 169.198 28.6536C168.663 27.8142 167.963 27.1204 167.096 26.5729C166.229 26.0254 165.252 25.5965 164.164 25.2862C163.07 24.9742 161.972 24.6729 160.872 24.3825C159.518 24.0308 158.163 23.6841 156.806 23.3423C155.644 23.0501 154.566 22.7034 153.57 22.3018C152.611 21.9002 151.846 21.3253 151.274 20.577C150.702 19.8287 150.416 18.7609 150.416 17.3736C150.416 17.1183 150.49 16.6618 150.638 16.0048C150.785 15.3475 151.136 14.6813 151.689 14.006C152.242 13.3309 153.09 12.7285 154.234 12.199C155.377 11.6699 156.944 11.405 158.936 11.405C160.301 11.405 161.545 11.5513 162.67 11.8431C163.795 12.1353 164.763 12.6007 165.574 13.2395C166.386 13.8784 167.013 14.6905 167.455 15.6762C167.898 16.6621 168.119 17.8666 168.119 19.2903H168.119Z" fill="#111111"/>
</svg>
