<svg width="134" height="80" viewBox="0 0 134 80" fill="none" xmlns="http://www.w3.org/2000/svg">
<g clip-path="url(#clip0)">
<path d="M31.5757 21.0529H56.7105V23.0411H33.8797V38.0045H55.349V39.9927H33.8797V56.4211H56.9723V58.4093H31.5757V21.0529ZM58.9622 21.0529H61.6327L73.467 37.4813L85.5632 21.0529L102.016 0.185059L74.9856 39.2079L88.9145 58.4093H86.1392L73.467 40.9345L60.7425 58.4093H58.0196L72.0532 39.2079L58.9622 21.0529ZM89.9094 23.0411V21.0529H118.553V23.0411H105.357V58.4093H103.053V23.0411H89.9094Z" fill="#111111"/>
<path d="M0.130859 21.053H3.01089L42.7248 80.1956L26.313 58.4093L2.53961 23.8782L2.43488 58.4093H0.130859V21.053Z" fill="#111111"/>
<path d="M118.32 55.8211C118.797 55.8211 119.144 55.4582 119.144 54.9891C119.144 54.52 118.797 54.157 118.32 54.157C117.85 54.157 117.497 54.52 117.497 54.9891C117.497 55.4582 117.85 55.8211 118.32 55.8211ZM120.584 53.6321C120.584 55.017 121.587 55.9216 123.05 55.9216C124.608 55.9216 125.549 54.9891 125.549 53.3696V47.6681H124.294V53.3641C124.294 54.2631 123.84 54.7434 123.039 54.7434C122.322 54.7434 121.834 54.2966 121.817 53.6321H120.584ZM127.191 53.5595C127.281 55.0002 128.486 55.9216 130.279 55.9216C132.196 55.9216 133.395 54.9556 133.395 53.4143C133.395 52.2025 132.711 51.5324 131.052 51.1471L130.161 50.9293C129.108 50.6836 128.682 50.3541 128.682 49.779C128.682 49.053 129.343 48.5783 130.335 48.5783C131.277 48.5783 131.927 49.0418 132.044 49.7845H133.266C133.193 48.4276 131.994 47.4727 130.352 47.4727C128.587 47.4727 127.41 48.4276 127.41 49.8627C127.41 51.0466 128.077 51.7502 129.539 52.0908L130.582 52.3421C131.652 52.5934 132.123 52.962 132.123 53.5763C132.123 54.291 131.383 54.8104 130.374 54.8104C129.293 54.8104 128.542 54.3246 128.435 53.5595H127.191Z" fill="#111111"/>
</g>
<defs>
<clipPath id="clip0">
<rect width="133.548" height="80" fill="white"/>
</clipPath>
</defs>
</svg>
