<svg width="204" height="80" viewBox="0 0 204 80" fill="none" xmlns="http://www.w3.org/2000/svg">
<g clip-path="url(#clip0)">
<path d="M123.844 53.632H129.227V33.8719H123.844V53.632ZM123.615 28.7637C123.615 27.0081 124.592 26.1306 126.545 26.1306C128.497 26.1306 129.474 27.0081 129.474 28.7637C129.474 29.6006 129.23 30.2515 128.742 30.7171C128.253 31.1827 127.521 31.4148 126.545 31.4148C124.592 31.4148 123.615 30.5311 123.615 28.7637V28.7637Z" fill="#111111"/>
<path fill-rule="evenodd" clip-rule="evenodd" d="M102.063 42.2317C103.8 40.7588 104.667 38.6325 104.667 35.8516C104.667 33.1767 103.853 31.1646 102.223 29.8153C100.593 28.4673 98.2139 27.792 95.0836 27.792H86.8418V53.6321H92.3129V44.441H94.6605C97.8606 44.441 100.328 43.7052 102.063 42.2317ZM94.1133 39.9519H92.3129V32.2817H94.8013C96.2957 32.2817 97.3926 32.5875 98.093 33.2004C98.7929 33.8133 99.1431 34.7619 99.1431 36.0463C99.1431 37.3182 98.7256 38.2874 97.8899 38.9533C97.0542 39.6192 95.7959 39.9519 94.1133 39.9519V39.9519Z" fill="#111111"/>
<path d="M120.988 33.6596C120.506 33.5535 119.9 33.5005 119.17 33.5005C117.946 33.5005 116.814 33.8394 115.773 34.5165C114.737 35.1886 113.884 36.1091 113.293 37.1945H113.029L112.234 33.8718H108.157V53.6319H113.54V43.5753C113.54 41.9844 114.02 40.7469 114.978 39.8631C115.938 38.9794 117.276 38.5376 118.994 38.5376C119.618 38.5376 120.147 38.5969 120.583 38.7142L120.988 33.6596ZM146.069 52.395C147.476 51.334 148.178 49.7913 148.178 47.7642C148.178 46.7862 148.008 45.9437 147.667 45.2366C147.326 44.5295 146.796 43.9054 146.078 43.3631C145.361 42.8214 144.231 42.2385 142.689 41.6137C140.96 40.9185 139.839 40.3936 139.328 40.0404C138.816 39.6871 138.559 39.269 138.559 38.7853C138.559 37.9253 139.354 37.4953 140.943 37.4953C141.836 37.4953 142.713 37.6308 143.572 37.901C144.431 38.1731 145.355 38.5201 146.343 38.9445L147.967 35.0564C145.719 34.0197 143.407 33.5011 141.03 33.5011C138.536 33.5011 136.61 33.981 135.251 34.9415C133.891 35.902 133.212 37.2594 133.212 39.015C133.212 40.0404 133.374 40.9035 133.698 41.6044C134.021 42.3059 134.539 42.9275 135.251 43.4692C135.962 44.0115 137.078 44.6007 138.595 45.2366C139.654 45.6847 140.501 46.076 141.137 46.4118C141.772 46.7482 142.219 47.0484 142.479 47.3136C142.737 47.5788 142.866 47.9233 142.866 48.3477C142.866 49.4786 141.89 50.044 139.936 50.044C138.983 50.044 137.88 49.8849 136.627 49.5672C135.374 49.2489 134.247 48.8545 133.247 48.3827V52.8368C134.161 53.2233 135.114 53.5106 136.089 53.6937C137.101 53.8884 138.324 53.9858 139.76 53.9858C142.56 53.9858 144.663 53.4553 146.069 52.3944V52.395ZM169.504 53.6319H164.121V42.0905C164.121 40.6651 163.882 39.5954 163.406 38.8827C162.929 38.17 162.179 37.813 161.155 37.813C159.779 37.813 158.779 38.3198 158.155 39.3333C157.531 40.3468 157.22 42.0138 157.22 44.3354V53.6319H151.837V33.8718H155.949L156.673 36.3994H156.973C157.502 35.492 158.267 34.7818 159.267 34.2694C160.267 33.757 161.415 33.5005 162.709 33.5005C165.662 33.5005 167.662 34.4672 168.71 36.3994H169.186C169.716 35.4801 170.495 34.7674 171.525 34.2606C172.554 33.7539 173.716 33.5005 175.01 33.5005C177.246 33.5005 178.938 34.0753 180.084 35.2236C181.232 36.3726 181.805 38.2137 181.805 40.7469V53.6319H176.404V42.0905C176.404 40.6651 176.166 39.5954 175.69 38.8827C175.213 38.17 174.463 37.813 173.439 37.813C172.122 37.813 171.137 38.2848 170.483 39.2272C169.83 40.1702 169.504 41.6662 169.504 43.7163V53.6319Z" fill="#111111"/>
<path fill-rule="evenodd" clip-rule="evenodd" d="M198.017 50.9453L199.058 53.632H202.817V40.4642C202.817 38.1076 202.111 36.352 200.7 35.1975C199.288 34.0429 197.258 33.465 194.61 33.465C191.846 33.465 189.328 34.0603 187.057 35.2505L188.839 38.8915C190.969 37.9366 192.822 37.4598 194.399 37.4598C196.446 37.4598 197.47 38.4615 197.47 40.4642V41.3304L194.046 41.4365C191.093 41.5426 188.884 42.0937 187.418 43.0891C185.954 44.0852 185.221 45.6317 185.221 47.7287C185.221 49.732 185.765 51.2754 186.854 52.3595C187.942 53.4435 189.433 53.9852 191.328 53.9852C192.869 53.9852 194.119 53.7643 195.078 53.3224C196.037 52.8806 196.969 52.0886 197.875 50.9453H198.017ZM195.387 44.547L197.47 44.4765V46.1023C197.47 47.293 197.096 48.2473 196.349 48.9656C195.602 49.6846 194.604 50.0441 193.357 50.0441C191.616 50.0441 190.745 49.2839 190.745 47.7642C190.745 46.7033 191.127 45.9144 191.893 45.3958C192.657 44.8778 193.822 44.5945 195.387 44.547V44.547ZM59.3618 63.4796L23.5409 74.0892C22.4466 74.4138 21.3978 73.4658 21.6277 72.3605L34.4245 10.9869C34.6638 9.83981 36.248 9.65758 36.7478 10.7204L60.4418 61.1074C60.8887 62.0579 60.3789 63.1788 59.3618 63.4796V63.4796ZM65.5047 60.977L38.0702 2.63525V2.634C37.7293 1.91558 37.2007 1.30293 36.5403 0.861012C35.8799 0.419094 35.1124 0.164383 34.3192 0.123887C32.6496 0.0265281 31.154 0.83286 30.3101 2.20525L0.556098 50.4666C0.104077 51.1956 -0.131078 52.0386 -0.121806 52.8966C-0.112535 53.7547 0.140779 54.5924 0.608447 55.3114L15.1527 77.8737C16.0195 79.2205 17.5215 80 19.0826 80C19.525 80 19.97 79.9376 20.4075 79.8078L62.6255 67.3034C63.2611 67.117 63.8492 66.796 64.3502 66.3624C64.8512 65.9287 65.2534 65.3923 65.5296 64.7896C65.8023 64.1903 65.9413 63.5387 65.937 62.8802C65.9327 62.2217 65.7852 61.572 65.5047 60.9763V60.977Z" fill="#111111"/>
</g>
<defs>
<clipPath id="clip0">
<rect width="203.373" height="80" fill="white"/>
</clipPath>
</defs>
</svg>
