<svg width="90" height="80" viewBox="0 0 90 80" fill="none" xmlns="http://www.w3.org/2000/svg">
<path d="M90 40.0092C90 34.0581 82.5336 28.4184 71.0864 24.921C73.7281 13.2753 72.554 4.01007 67.3808 1.04372C66.1883 0.347905 64.7941 0.0183105 63.2715 0.0183105V4.10163C64.1154 4.10163 64.7941 4.26642 65.3628 4.57771C67.8577 6.00595 68.9401 11.4443 68.0962 18.439C67.8944 20.1602 67.5642 21.973 67.1606 23.8224C63.565 22.9435 59.6392 22.266 55.5116 21.8265C53.0351 18.439 50.4668 15.3628 47.8802 12.6711C53.8606 7.12291 59.4741 4.08331 63.2899 4.08331V0C58.245 0 51.6409 3.58892 44.9633 9.8146C38.2858 3.62554 31.6816 0.0732436 26.6368 0.0732436V4.15656C30.4342 4.15656 36.066 7.17784 42.0465 12.6894C39.4782 15.3811 36.9099 18.439 34.47 21.8265C30.3241 22.266 26.3983 22.9435 22.8027 23.8407C22.3808 22.0096 22.0689 20.2335 21.8488 18.5306C20.9865 11.5358 22.0506 6.09751 24.5271 4.65095C25.0775 4.32136 25.7929 4.17487 26.6368 4.17487V0.0915541C25.0958 0.0915541 23.7016 0.421149 22.4908 1.11696C17.3359 4.08331 16.1802 13.3303 18.8402 24.9393C7.42968 28.455 0 34.0764 0 40.0092C0 45.9602 7.46637 51.5999 18.9136 55.0973C16.2719 66.743 17.446 76.0082 22.6192 78.9746C23.8117 79.6704 25.2059 80 26.7468 80C31.7917 80 38.3958 76.4111 45.0734 70.1854C51.7509 76.3745 58.3551 79.9268 63.3999 79.9268C64.9409 79.9268 66.3351 79.5972 67.5459 78.9013C72.7008 75.935 73.8565 66.688 71.1965 55.079C82.5703 51.5816 90 45.9419 90 40.0092ZM66.115 27.7958C65.4362 30.1579 64.5923 32.5933 63.6384 35.0286C62.8863 33.5637 62.0974 32.0989 61.2352 30.634C60.3914 29.1691 59.4925 27.7409 58.5936 26.3493C61.1985 26.7338 63.7118 27.2099 66.115 27.7958ZM57.713 47.2969C56.2821 49.7688 54.8145 52.1126 53.2919 54.2916C50.5585 54.5296 47.7884 54.6578 45 54.6578C42.2299 54.6578 39.4598 54.5296 36.7448 54.3099C35.2222 52.1309 33.7362 49.8054 32.3053 47.3518C30.9111 44.9531 29.6453 42.5177 28.4896 40.0641C29.627 37.6104 30.9111 35.1568 32.287 32.7581C33.7179 30.2861 35.1855 27.9423 36.7081 25.7633C39.4415 25.5253 42.2116 25.3971 45 25.3971C47.7701 25.3971 50.5402 25.5253 53.2552 25.745C54.7778 27.924 56.2638 30.2495 57.6947 32.7031C59.0889 35.1019 60.3547 37.5372 61.5104 39.9908C60.3547 42.4445 59.0889 44.8981 57.713 47.2969ZM63.6384 44.9165C64.629 47.3701 65.4729 49.8238 66.17 52.2042C63.7668 52.7901 61.2352 53.2845 58.6119 53.669C59.5108 52.2591 60.4097 50.8125 61.2536 49.3294C62.0974 47.8645 62.8863 46.3813 63.6384 44.9165ZM45.0367 64.4541C43.3306 62.6963 41.6245 60.737 39.9368 58.5946C41.5879 58.6679 43.2756 58.7228 44.9817 58.7228C46.7061 58.7228 48.4122 58.6862 50.0815 58.5946C48.4305 60.737 46.7244 62.6963 45.0367 64.4541ZM31.3881 53.669C28.7831 53.2845 26.2699 52.8084 23.8667 52.2225C24.5455 49.8604 25.3893 47.425 26.3433 44.9897C27.0954 46.4546 27.8842 47.9194 28.7464 49.3843C29.6086 50.8492 30.4892 52.2774 31.3881 53.669ZM44.945 15.5642C46.651 17.322 48.3571 19.2813 50.0448 21.4237C48.3938 21.3504 46.7061 21.2955 45 21.2955C43.2756 21.2955 41.5695 21.3321 39.9001 21.4237C41.5512 19.2813 43.2572 17.322 44.945 15.5642ZM31.3698 26.3493C30.4709 27.7592 29.572 29.2058 28.7281 30.6889C27.8842 32.1538 27.0954 33.6187 26.3433 35.0835C25.3526 32.6299 24.5088 30.1762 23.8117 27.7958C26.2148 27.2282 28.7464 26.7338 31.3698 26.3493ZM14.7676 49.2744C8.27355 46.5095 4.07256 42.884 4.07256 40.0092C4.07256 37.1344 8.27355 33.4905 14.7676 30.7439C16.3453 30.0664 18.0697 29.4621 19.8492 28.8945C20.8948 32.4834 22.2707 36.2188 23.9768 40.0458C22.289 43.8544 20.9315 47.5715 19.9042 51.1421C18.0881 50.5745 16.3636 49.9519 14.7676 49.2744ZM24.6372 75.4406C22.1423 74.0124 21.0599 68.574 21.9038 61.5793C22.1056 59.8581 22.4358 58.0453 22.8394 56.1959C26.435 57.0748 30.3608 57.7523 34.4884 58.1918C36.9649 61.5793 39.5332 64.6555 42.1199 67.3472C36.1394 72.8954 30.5259 75.935 26.7102 75.935C25.8846 75.9167 25.1875 75.7519 24.6372 75.4406ZM68.1512 61.4877C69.0135 68.4825 67.9494 73.9208 65.4729 75.3674C64.9225 75.697 64.2071 75.8434 63.3632 75.8434C59.5658 75.8434 53.934 72.8222 47.9535 67.3106C50.5218 64.6189 53.0901 61.561 55.53 58.1735C59.6759 57.734 63.6017 57.0565 67.1973 56.1593C67.6192 58.0087 67.9495 59.7848 68.1512 61.4877ZM75.214 49.2744C73.6364 49.9519 71.9119 50.5562 70.1325 51.1238C69.0868 47.5349 67.711 43.7995 66.0049 39.9725C67.6926 36.1639 69.0501 32.4468 70.0775 28.8762C71.8936 29.4438 73.618 30.0664 75.2324 30.7439C81.7265 33.5088 85.9274 37.1344 85.9274 40.0092C85.9091 42.884 81.7081 46.5278 75.214 49.2744Z" fill="#111111"/>
<path d="M45 48C49.4183 48 53 44.4183 53 40C53 35.5817 49.4183 32 45 32C40.5817 32 37 35.5817 37 40C37 44.4183 40.5817 48 45 48Z" fill="#111111"/>
</svg>
