<svg width="67" height="80" viewBox="0 0 67 80" fill="none" xmlns="http://www.w3.org/2000/svg">
<path d="M62.324 10.5849C54.8955 -0.0472962 40.224 -3.19873 29.6159 3.56006L10.9854 15.4341C5.89641 18.6357 2.39117 23.8326 1.32926 29.7504C0.440542 34.6803 1.22167 39.7658 3.54897 44.2017C1.95424 46.6208 0.86657 49.3382 0.351686 52.1895C-0.720497 58.2209 0.682021 64.43 4.24262 69.415C11.6728 80.0482 26.3443 83.1983 36.9508 76.4399L55.5813 64.5658C60.6706 61.3646 64.176 56.1675 65.2374 50.2495C66.126 45.3197 65.3455 40.2343 63.0193 35.7978C64.6136 33.3788 65.7009 30.6616 66.2153 27.8104C67.2882 21.779 65.8856 15.5696 62.3243 10.5849" fill="#111111"/>
<path d="M27.794 70.4264C21.787 71.9884 15.4434 69.637 11.9057 64.5371C9.76344 61.5386 8.91954 57.8034 9.5646 54.1752C9.67273 53.5855 9.82154 53.004 10.0099 52.4349L10.3609 51.3647L11.3157 52.066C13.5207 53.6861 15.9861 54.9179 18.6057 55.7083L19.2983 55.9185L19.2345 56.6097C19.1499 57.5931 19.4162 58.5748 19.9862 59.3806C21.0508 60.9168 22.9608 61.6257 24.7699 61.1561C25.1749 61.0479 25.5609 60.8782 25.9146 60.6531L44.5511 48.7768C45.4731 48.1963 46.1085 47.2548 46.302 46.1825C46.4952 45.0889 46.241 43.9636 45.5964 43.0593C44.5312 41.5228 42.6207 40.8136 40.8109 41.2828C40.4064 41.391 40.0209 41.5606 39.6677 41.7855L32.5562 46.3189C31.3868 47.0624 30.1106 47.6229 28.7718 47.9808C22.7648 49.5426 16.4214 47.1912 12.8837 42.0914C10.7414 39.0929 9.89744 35.3577 10.5426 31.7295C11.1812 28.1698 13.29 25.044 16.3515 23.1189L34.9863 11.2416C36.1562 10.4969 37.4333 9.93576 38.7731 9.57779C44.7801 8.01598 51.1235 10.3673 54.6612 15.4671C56.8035 18.4656 57.6474 22.2008 57.0023 25.8291C56.8937 26.4187 56.7449 27.0001 56.557 27.5694L56.206 28.6396L55.2517 27.9393C53.0469 26.3183 50.5812 25.0859 47.9612 24.2954L47.2686 24.0852L47.3324 23.3939C47.4163 22.4106 47.1501 21.4292 46.5807 20.6231C45.5161 19.0869 43.6061 18.378 41.797 18.8476C41.392 18.9558 41.006 19.1255 40.6523 19.3507L22.0158 31.2274C21.094 31.8075 20.4589 32.7489 20.2663 33.821C20.0719 34.9145 20.3257 36.0402 20.9705 36.9446C22.0358 38.4811 23.9462 39.1903 25.756 38.7211C26.1609 38.6126 26.5469 38.443 26.9006 38.218L34.0112 33.6863C35.1801 32.9418 36.4563 32.3809 37.7951 32.0231C43.8021 30.4613 50.1456 32.8127 53.6833 37.9125C55.8256 40.911 56.6695 44.6461 56.0244 48.2744C55.3853 51.8342 53.2767 54.9603 50.2155 56.8864L31.5806 68.7626C30.4107 69.5074 29.1336 70.0685 27.7938 70.4264" fill="#FFFEFE"/>
</svg>
