<svg width="80" height="80" viewBox="0 0 80 80" fill="none" xmlns="http://www.w3.org/2000/svg">
<g clip-path="url(#clip0)">
<path d="M80 15.1901C77.0567 16.4967 73.8933 17.3767 70.5733 17.7734C73.9633 15.7434 76.5667 12.5267 77.79 8.69341C74.62 10.5734 71.1067 11.9401 67.3667 12.6767C64.3767 9.48674 60.1067 7.49341 55.3867 7.49341C44.79 7.49341 37.0033 17.3801 39.3967 27.6434C25.76 26.9601 13.6667 20.4267 5.57 10.4967C1.27 17.8734 3.34 27.5234 10.6467 32.4101C7.96 32.3234 5.42667 31.5867 3.21667 30.3567C3.03667 37.9601 8.48667 45.0734 16.38 46.6567C14.07 47.2834 11.54 47.4301 8.96667 46.9367C11.0533 53.4567 17.1133 58.2001 24.3 58.3334C17.4 63.7434 8.70667 66.1601 0 65.1334C7.26333 69.7901 15.8933 72.5067 25.16 72.5067C55.6333 72.5067 72.85 46.7701 71.81 23.6867C75.0167 21.3701 77.8 18.4801 80 15.1901V15.1901Z" fill="#111111"/>
</g>
<defs>
<clipPath id="clip0">
<rect width="80" height="80" fill="white"/>
</clipPath>
</defs>
</svg>
