<svg width="477" height="88" viewBox="0 0 477 88" fill="none" xmlns="http://www.w3.org/2000/svg">
<g clip-path="url(#clip0)">
<path d="M43.4307 58.1067C46.4831 56.5701 49.4286 54.9986 52.4714 53.6481C56.8323 51.7125 61.2309 49.8517 65.6768 48.1234C69.0348 46.818 72.4659 45.6846 75.9107 44.6265C82.0005 42.7559 88.095 40.8855 94.2472 39.2405C98.0124 38.2337 101.891 37.6566 105.715 36.869C108.949 36.2029 112.171 35.4783 115.411 34.8449C117.11 34.5128 118.837 34.3248 120.551 34.0653C123.337 33.6432 126.119 33.182 128.911 32.8014C131.168 32.4938 133.439 32.289 135.701 32.0234C138.524 31.6922 141.343 31.3386 144.166 31.0091C145.101 30.8999 146.04 30.816 146.98 30.7538C149.701 30.5735 152.423 30.3979 155.146 30.2432C158.375 30.0597 161.604 29.8723 164.836 29.738C167.803 29.6147 170.772 29.5246 173.742 29.4818C181.11 29.3756 188.479 29.277 195.848 29.2354C198.308 29.2215 200.774 29.3316 203.23 29.4897C206.217 29.682 209.199 29.9636 212.18 30.2457C215.511 30.561 218.845 30.8705 222.166 31.2735C225.897 31.7262 229.625 32.2231 233.338 32.8066C237.215 33.4159 241.075 34.1308 244.936 34.8369C248.983 35.5771 253.04 36.2763 257.059 37.1485C262.13 38.249 267.175 39.4731 272.217 40.7062C276.898 41.8513 281.55 43.1188 286.233 44.2584C291.662 45.5794 297.113 46.8063 302.548 48.0995C306.744 49.0978 310.924 50.1671 315.124 51.1475C320.725 52.4548 326.334 53.7327 331.95 54.9744C337.113 56.1159 342.281 57.2387 347.464 58.2842C352.008 59.2007 356.576 59.9955 361.133 60.8496C365.648 61.696 370.154 62.5993 374.681 63.3801C377.272 63.8271 379.897 64.0767 382.506 64.4205C386.358 64.9279 390.204 65.486 394.062 65.9328C396.35 66.1978 398.669 66.201 400.955 66.4766C408.616 67.4003 416.308 67.1794 423.995 67.2403C427.663 67.2693 431.278 66.8784 434.87 66.2006C438.359 65.5421 441.875 64.9848 445.317 64.1304C449.94 62.9828 454.518 61.6414 459.088 60.2902C462.359 59.3228 465.57 58.1457 468.842 57.1789C470.142 56.7947 471.538 56.743 472.885 56.5067C473.904 56.3279 474.911 56.081 475.93 55.8974C476.263 55.8374 476.614 55.881 476.957 55.8772C476.723 56.1123 476.528 56.4244 476.247 56.5709C472.007 58.7846 467.739 60.9178 463.167 62.4044C459.894 63.4685 456.746 64.9342 453.453 65.9172C449.441 67.1148 445.36 68.1126 441.262 68.9737C437.957 69.6682 434.595 70.1501 431.236 70.5069C428.108 70.8391 424.951 70.956 421.803 71.0319C418.251 71.1176 414.693 71.1511 411.143 71.0244C407.394 70.8907 403.65 70.5767 399.909 70.2733C397.639 70.0893 395.375 69.8162 393.117 69.5126C388.916 68.9475 384.723 68.3236 380.525 67.7389C378.559 67.4652 376.582 67.2725 374.623 66.9583C372.294 66.5848 369.981 66.1121 367.659 65.6976C365.686 65.3455 363.703 65.0441 361.735 64.6672C359.428 64.2255 357.132 63.7279 354.832 63.2516C351.792 62.6222 348.753 61.9854 345.712 61.3604C343.604 60.9273 341.49 60.5278 339.385 60.079C336.277 59.4163 333.166 58.7668 330.075 58.0316C326.461 57.1719 322.874 56.1972 319.263 55.3255C315.141 54.3303 311.003 53.4001 306.875 52.4293C303.598 51.6587 300.321 50.8903 297.053 50.0836C292.025 48.8424 287.002 47.5833 281.984 46.3052C277.929 45.2724 273.896 44.1481 269.83 43.1613C266.165 42.2719 262.467 41.519 258.785 40.6966C255.068 39.866 251.364 38.9684 247.632 38.2045C244.65 37.5941 241.638 37.132 238.637 36.6191C235.591 36.0987 232.549 35.554 229.493 35.1007C227.282 34.7726 225.05 34.5917 222.83 34.3172C220.219 33.9942 217.612 33.628 215 33.3074C213.982 33.1825 212.956 33.1159 211.933 33.0487C209.211 32.8702 206.49 32.5909 203.766 32.556C193.225 32.421 182.683 32.3099 172.141 32.3085C168.023 32.308 163.904 32.602 159.787 32.7971C156.894 32.9342 154 33.0827 151.113 33.3131C147.484 33.6027 143.857 33.9364 140.238 34.3344C136.938 34.6973 133.64 35.1116 130.357 35.6118C126.313 36.2282 122.285 36.957 118.25 37.6371C114.215 38.3173 110.159 38.8913 106.151 39.7051C101.333 40.6835 96.5107 41.7007 91.7715 43.0001C85.1777 44.8081 78.6069 46.7355 72.1244 48.9076C66.3786 50.8329 60.717 53.0403 55.1133 55.3553C51.282 56.9382 47.5646 58.8249 43.8849 60.7469C39.0031 63.2968 34.1974 65.9948 29.3784 68.6646C25.6898 70.7082 21.9366 72.6569 18.3873 74.9245C15.1363 77.0015 12.1205 79.4501 9.00004 81.7335C6.66016 83.4456 4.31596 85.1518 1.98064 86.8702C1.64898 87.1142 1.38478 87.4584 1.03778 87.6715C0.729028 87.861 0.348724 87.9329 0 88.0567C0.0613642 87.6265 -0.0319618 87.0475 0.211259 86.7921C1.18746 85.767 2.23026 84.7966 3.31783 83.89C5.44879 82.1137 7.65667 80.4301 9.77779 78.6423C13.7587 75.287 17.9122 72.1608 22.4177 69.569C27.3615 66.7251 32.4209 64.0837 37.4333 61.3604C39.4066 60.2883 41.389 59.2333 43.4307 58.1067Z" fill="#111111"/>
<path d="M369.575 44.7792C369.934 43.7809 370.261 42.8947 370.658 42.042C371.978 39.2106 374.637 37.3144 378.118 38.464C379.824 39.0272 381.425 40.0002 383.16 40.3512C384.357 40.5932 385.718 40.1574 386.98 39.9009C390.525 39.1806 394.055 38.3871 397.594 37.6403C400.088 37.1141 402.577 36.5503 405.089 36.1241C408.032 35.6248 411.001 35.2839 413.951 34.8238C417.003 34.3477 420.046 33.8049 423.094 33.3041C424.248 33.1146 425.419 33.0123 426.558 32.7623C426.946 32.6772 427.404 32.3355 427.587 31.9835C428.42 30.3809 429.239 28.7626 429.92 27.0913C430.422 25.8614 431.166 25.305 432.498 25.3769C433.89 25.4521 435.292 25.4509 436.684 25.3777C438.097 25.3036 439.187 25.853 440.168 26.8054C441.306 27.9116 442.482 28.9786 443.648 30.056C444.302 30.6604 444.992 31.3368 444.683 32.2784C444.396 33.1505 443.541 33.2711 442.666 33.325C441.461 33.3992 440.245 33.556 439.08 33.8585C438.686 33.9607 438.206 34.592 438.165 35.0197C438.086 35.8615 438.297 36.7291 438.367 37.5877C438.414 38.1498 438.403 38.4012 439.228 38.2439C441.108 37.8858 443.05 37.6411 444.953 37.71C445.968 37.7467 446.969 38.5066 447.94 39.0104C448.06 39.0729 448.082 39.6859 447.935 39.8435C447.463 40.3519 446.849 40.7253 446.366 41.2256C445.118 42.5201 443.908 43.8521 442.691 45.1777C442.591 45.2869 442.495 45.4678 442.509 45.6042C442.686 47.3817 441.446 47.0316 440.4 47.0871C438.345 47.1962 436.294 47.3881 434.239 47.5099C434.012 47.5234 433.721 47.3563 433.546 47.1841C432.13 45.7913 430.735 44.3777 429.335 42.9695C428.352 41.9805 427.228 42.6138 426.25 42.8428C420.475 44.1961 414.733 45.6968 408.96 47.0619C403.669 48.3131 398.364 49.5087 393.042 50.6213C390.717 51.1076 388.329 51.2854 385.985 51.6947C385.396 51.7975 384.658 52.1109 384.349 52.5715C383.226 54.2464 381.705 54.8139 379.759 55.0335C376.89 55.3575 374.538 54.1526 372.187 52.9164C370.091 51.8136 368.953 48.3187 369.392 46.1077C369.471 45.711 369.515 45.3072 369.575 44.7792ZM443.702 31.8981C441.773 30.2149 439.868 28.502 437.894 26.8738C437.505 26.5531 436.849 26.435 436.317 26.4387C435.041 26.4475 433.76 26.5436 432.492 26.6955C432.144 26.7371 431.703 27.0241 431.53 27.328C430.474 29.1768 429.457 31.0494 428.481 32.9424C427.998 33.8807 427.318 34.3695 426.26 34.3253C425.928 34.3114 425.586 34.3038 425.262 34.3647C422.673 34.8507 420.097 35.4152 417.498 35.8344C414.901 36.2532 412.276 36.4869 409.675 36.8837C406.663 37.3433 403.664 37.8887 400.66 38.4035C398.212 38.8232 395.747 39.1676 393.322 39.6991C390.235 40.3762 387.186 41.2297 384.106 41.949C383.67 42.051 383.126 41.9077 382.688 41.7344C381.597 41.3032 380.569 40.6998 379.463 40.3263C376.806 39.4297 374.561 38.9889 373.018 41.2226C372.488 41.9905 372.118 42.8828 371.752 43.751C370.517 46.6826 370.792 49.5537 373.179 51.2468C374.257 52.0113 375.712 52.2571 377.015 52.6787C379.009 53.3238 380.77 52.8878 382.477 51.6489C383.338 51.0245 384.452 50.6504 385.507 50.4205C387.93 49.8924 390.398 49.5737 392.828 49.0759C396.721 48.2789 400.59 47.3701 404.483 46.5758C407.693 45.9209 410.956 45.5025 414.135 44.7287C418.381 43.6954 422.546 42.3275 426.797 41.3206C427.725 41.1009 428.958 40.267 429.983 41.5425C430.771 42.5232 431.757 43.3423 432.636 44.2508C434.005 45.6643 435.58 46.4351 437.608 46.0717C438.223 45.9614 438.874 46.0473 439.508 46.0564C440.277 46.0674 440.758 45.781 441.282 45.1134C442.687 43.324 444.285 41.6889 445.8 39.9861C445.939 39.83 446.027 39.6287 446.139 39.4484C445.882 39.3548 445.615 39.1605 445.368 39.1831C442.726 39.4248 440.073 39.6097 437.456 40.0175C436.554 40.158 436.403 39.7461 436.658 39.2876C437.465 37.84 437.084 36.4615 436.684 35.0504C436.373 33.9555 436.716 33.0889 437.753 32.8143C438.797 32.5376 439.886 32.412 440.964 32.2926C441.871 32.1921 442.789 32.1956 443.702 31.8981Z" fill="#111111"/>
<path d="M224.622 23.8633C220.317 22.7685 216.162 21.6011 212.175 19.904C207.244 17.8055 202.158 16.1876 196.924 15.0638C195.72 14.8053 195.442 16.0186 194.929 16.761C194.663 17.1462 194.574 17.6935 194.245 17.9847C193.927 18.2655 193.222 18.5616 193.009 18.4061C192.603 18.1096 191.765 17.8228 192.27 16.9568C193.564 14.7357 194.874 12.5227 196.117 10.2726C196.876 8.89804 197.419 7.39505 198.249 6.06996C199.129 4.66664 200.181 3.36026 201.266 2.10574C201.683 1.62265 202.245 1.9182 202.256 2.56806C202.266 3.11055 202.161 3.72264 201.903 4.19111C200.456 6.82315 198.948 9.42163 197.459 12.0302C196.983 12.863 197.273 13.5058 198.261 13.6542C204.464 14.5863 210.278 16.7623 216.034 19.1611C218.415 20.1535 220.892 20.9123 223.301 21.842C223.954 22.0942 224.532 22.5613 225.113 22.974C225.302 23.1079 225.391 23.3826 225.526 23.5929C225.267 23.683 225.008 23.7731 224.622 23.8633Z" fill="#111111"/>
<path d="M48.7619 42.8023C46.5927 44.5241 44.4861 46.1808 42.3824 47.8414C42.0609 48.0951 41.5891 48.3062 41.4675 48.6401C40.9426 50.083 39.9843 49.5571 39.3632 48.9838C37.9898 47.7161 36.7706 46.2788 35.4999 44.9002C34.7452 44.0813 34.0041 43.2492 33.2757 42.4066C33.1269 42.2345 32.9674 41.9857 32.9741 41.7775C33.033 39.9435 33.0234 38.0975 33.251 36.2825C33.3958 35.1276 33.6625 33.84 34.3166 32.9342C35.1993 31.7118 36.5138 30.8064 37.6293 29.7504C38.2081 29.2024 38.8472 28.687 39.3015 28.0444C40.2982 26.635 41.574 27.2539 42.7654 27.4843C45.1658 27.9484 47.2806 29.0746 49.2571 30.4916C50.2954 31.2359 50.7363 32.0332 50.2835 33.424C49.6097 35.4936 49.1967 37.6522 48.7366 39.7869C48.576 40.5321 48.8917 40.8589 49.7307 40.5927C50.0773 40.4828 50.5275 40.7028 50.9305 40.7727C50.7225 41.0879 50.5681 41.4651 50.2943 41.7042C49.8455 42.0962 49.319 42.3985 48.7619 42.8023ZM34.9901 35.7241C34.9054 35.901 34.7657 36.0717 34.7448 36.2559C34.5607 37.8812 34.5001 39.5296 34.1815 41.1265C34.0408 41.8315 34.0952 42.0827 34.72 42.3697C35.2916 42.6324 35.855 42.9977 36.2976 43.4427C37.4146 44.5656 38.4174 45.8063 39.5684 46.8899C39.846 47.1512 40.6858 47.2059 40.9863 46.9795C42.5532 45.7987 44.084 44.5549 45.5118 43.2092C46.1255 42.6308 46.6406 41.8091 46.8878 41.0014C47.6507 38.5083 48.2818 35.9734 48.9236 33.4444C49.1485 32.5581 48.9132 31.679 48.0655 31.2977C46.1794 30.4493 44.2613 29.6498 42.2985 29.009C41.5821 28.7751 40.7119 28.7958 40.018 29.5931C39.3346 30.3784 38.3261 30.8695 37.5878 31.617C36.4915 32.7268 34.5981 33.336 34.9901 35.7241Z" fill="#111111"/>
<path d="M189.146 19.2081C188.176 18.5738 187.28 17.9846 186.36 17.4377C185.352 16.839 184.356 16.5918 183.326 17.4856C183.095 17.6858 182.332 17.7101 182.274 17.5899C182.033 17.0946 181.698 16.3774 181.89 15.9867C182.571 14.6033 183.379 13.2661 184.277 12.011C186.13 9.42069 188.194 6.97863 189.116 3.82314C189.75 1.65524 189.807 1.65372 192.189 1.67638C195.367 1.70661 198.395 0.878017 201.434 0.100628C201.702 0.0322618 201.975 -0.122311 202.232 -0.0966406C202.743 -0.0456014 203.244 0.103138 203.749 0.211509C203.283 0.528261 202.858 1.00085 202.346 1.13582C199.554 1.87058 196.762 2.92633 193.928 3.07778C191.55 3.20488 190.811 4.35853 190.073 6.17058C188.918 9.00981 187.403 11.6625 185.506 14.0873C185.071 14.6442 185.118 15.0715 185.931 15.479C188.215 16.6241 190.424 17.9197 192.648 19.1841C192.762 19.2491 192.813 19.7198 192.75 19.7578C192.384 19.9766 191.919 20.3353 191.59 20.2502C190.767 20.0376 189.999 19.612 189.146 19.2081Z" fill="#111111"/>
<path d="M230.207 19.0169C231.115 19.3767 231.926 19.6862 232.661 20.1244C232.91 20.2729 232.968 20.7466 233.112 21.0717C232.794 21.0823 232.43 21.1997 232.165 21.0851C230.988 20.5762 230.302 21.016 229.784 22.0992C229.377 22.9531 228.904 23.7929 228.334 24.5426C228.116 24.8298 227.549 24.8494 227.141 24.9909C227.055 24.5809 226.776 24.0787 226.918 23.7779C227.357 22.8507 227.852 21.9062 228.524 21.1467C229.203 20.3802 228.998 20.0689 228.202 19.783C223.932 18.2506 219.635 16.7906 215.399 15.1708C211.35 13.6227 207.381 11.8645 203.337 10.3018C202.384 9.93339 201.27 9.98993 200.235 9.82566C200.011 9.79015 199.804 9.64549 199.589 9.55111C199.703 9.37099 199.783 9.15536 199.934 9.01636C201.129 7.91514 202.572 8.27192 203.778 8.7191C207.952 10.2664 212.05 12.0194 216.192 13.654C219.718 15.0452 223.266 16.3801 226.803 17.7421C227.897 18.1633 228.988 18.5917 230.207 19.0169Z" fill="#111111"/>
<path d="M375.097 44.5879C376.131 44.8619 377.122 45.0062 378.068 45.2965C379.871 45.8495 380.116 46.3146 379.984 48.5014C379.912 49.6791 378.886 50.8849 377.725 51.156C376.017 51.5546 373.734 50.6532 373.129 49.3417C372.342 47.6349 373.274 45.278 375.097 44.5879ZM377.445 46.4372C376.954 46.1993 376.473 45.9373 375.969 45.7343C375.736 45.6407 375.412 45.5596 375.209 45.6512C374.593 45.9284 373.806 48.1585 374.17 48.727C374.681 49.5264 375.525 49.7604 376.432 49.6109C376.805 49.5495 377.232 49.4094 377.492 49.1571C377.881 48.78 378.359 48.288 378.394 47.8151C378.422 47.4205 377.868 46.9831 377.445 46.4372Z" fill="#111111"/>
<path d="M380.809 42.5473C380.999 42.6652 381.125 42.8469 381.252 43.0286C381.139 43.102 381.025 43.1754 380.912 43.2487C380.857 43.0362 380.801 42.8236 380.809 42.5473Z" fill="#111111"/>
<path d="M43.6844 40.5068C43.0344 40.9899 42.488 41.6619 41.8509 41.7644C41.0638 41.891 40.1936 41.5774 39.3756 41.3843C39.0861 41.316 38.8556 41.0227 38.5785 40.8677C38.1528 40.6295 37.4418 40.5143 37.3288 40.1829C37.0722 39.4296 36.9045 38.5317 37.0711 37.7748C37.294 36.7617 37.7539 35.7503 38.3299 34.8844C38.7124 34.3092 39.475 33.9887 40.0698 33.5573C40.1651 33.4881 40.2668 33.4221 40.3749 33.3772C41.0595 33.0932 42.0393 32.3801 42.3817 32.6123C43.7486 33.5395 44.9479 34.7301 46.1331 35.9011C46.3625 36.1277 46.3501 36.7234 46.2732 37.1139C46.1375 37.8034 46.0201 38.5885 45.6108 39.1072C45.1554 39.6844 44.3826 40.0086 43.6844 40.5068ZM40.9555 40.6981C41.7695 40.2202 42.5746 39.726 43.3995 39.2679C45.1109 38.3174 45.3686 36.6946 43.9846 35.336C43.58 34.9388 43.1279 34.5797 42.6547 34.2689C42.4577 34.1396 42.0485 34.0543 41.9061 34.1668C40.5111 35.2687 38.8391 36.1455 38.4439 38.1269C38.3937 38.3781 38.3045 38.7745 38.4268 38.8824C39.1535 39.5237 39.9371 40.1 40.9555 40.6981Z" fill="#111111"/>
</g>
<defs>
<clipPath id="clip0">
<rect width="477" height="88" fill="white"/>
</clipPath>
</defs>
</svg>
