<svg width="1199" height="599" viewBox="0 0 1199 599" fill="none" xmlns="http://www.w3.org/2000/svg">
<g clip-path="url(#clip0)">
<path d="M1.66403 596.246C0.225288 596.437 -0.492114 594.242 0.377628 593.081C1.24737 591.919 2.83477 591.621 4.27053 591.409C18.1513 589.361 32.032 587.314 45.9128 585.266C47.5756 585.021 48.4201 587.574 47.4029 588.912C46.3856 590.249 44.5392 590.57 42.8729 590.791C29.1366 592.609 15.4003 594.428 1.66403 596.246Z" fill="#111111"/>
<path d="M114.735 582.064C113.755 584.218 111.292 585.201 109.054 585.97C95.5314 590.615 81.7594 594.778 67.5817 596.63C66.7932 596.733 65.781 596.71 65.4663 595.98C65.3045 595.605 65.4047 595.174 65.5071 594.779C66.1993 592.104 66.8915 589.43 67.5837 586.755C67.8993 585.535 68.2479 584.256 69.1309 583.357C70.3418 582.125 72.224 581.921 73.9455 581.77C86.3866 580.677 98.7426 578.619 110.866 575.619C112.972 575.097 115.32 574.576 117.212 575.638C115.138 576.783 115.716 579.908 114.735 582.064ZM84.3297 584.962C79.5372 585.204 74.7715 585.972 70.1459 587.249C69.6786 587.378 69.1732 587.54 68.9072 587.945C68.6412 588.35 68.8347 589.051 69.3191 589.068C73.7224 588.63 78.0939 587.874 82.3883 586.808C83.3565 586.567 84.5675 585.93 84.3297 584.962V584.962Z" fill="#111111"/>
<path d="M212.612 552.572C212.321 551.945 212.683 551.222 213.054 550.638C218.504 542.06 227.641 536.623 236.591 531.806C243.621 528.024 250.75 524.425 257.969 521.015C258.858 520.596 259.824 520.168 260.789 520.353C261.754 520.539 262.586 521.646 262.115 522.508C261.317 523.969 262.577 525.711 262.555 527.376C262.525 529.653 260.217 531.13 258.192 532.173C249.311 536.751 240.43 541.329 231.549 545.906C226.281 548.622 220.976 551.352 215.304 553.073C214.347 553.364 213.033 553.48 212.612 552.572Z" fill="#111111"/>
<path d="M185.118 553.047C174.075 561.495 160.963 566.72 148.036 571.841C144.308 573.319 140.58 574.796 136.851 576.273C136.667 576.346 136.463 576.42 136.275 576.357C136.121 576.305 136.011 576.17 135.917 576.037C134.419 573.895 135.346 570.764 137.25 568.973C139.154 567.182 141.764 566.394 144.264 565.629C157.174 561.676 169.812 556.83 182.055 551.137C182.839 550.773 183.688 550.395 184.538 550.556C185.388 550.717 186.122 551.691 185.706 552.449C185.57 552.696 185.342 552.875 185.118 553.047Z" fill="#111111"/>
<path d="M530.261 369.928C530.944 369.546 531.647 369.157 532.422 369.053C532.814 369.001 533.362 369.192 533.284 369.579C527.009 374.498 520.222 378.764 513.067 382.285C517.754 376.96 524.071 373.394 530.261 369.928Z" fill="#111111"/>
<path d="M45.2819 598.907C43.6319 598.633 42.5455 596.598 43.2362 595.075C43.9269 593.552 46.1742 593.028 47.4676 594.088C46.8354 595.729 46.2033 597.37 45.5712 599.011L45.2819 598.907Z" fill="#111111"/>
<path d="M294.642 209.279C295.766 209.759 295.815 211.662 294.716 212.199C293.687 211.732 293.008 210.586 293.093 209.459C293.615 209.345 294.138 209.232 294.661 209.119L294.642 209.279Z" fill="#111111"/>
<path d="M1130.37 30.6306C1129.68 30.7813 1128.57 30.4153 1128.94 29.8133C1129.37 28.9583 1130.98 29.9576 1130.4 30.7237L1130.37 30.6306Z" fill="#111111"/>
<path d="M332.888 495.874C316.254 506.596 299.62 517.318 282.987 528.04C290.513 516.922 300.33 507.361 311.644 500.13C301.728 504.64 292.453 510.558 284.186 517.65C277.553 495.951 333.216 497.079 327.577 475.101C307.192 395.651 293.643 314.45 287.13 232.687C286.018 218.738 273.367 208.951 261.838 201.015C204.138 161.297 146.438 121.579 88.7385 81.8609C457.778 43.0865 828.015 15.693 1198.74 -0.267395C1029.12 136.775 836.068 245.407 681.444 399.166C678.714 401.881 674.129 400.295 670.69 398.563C636.627 381.399 602.564 364.236 568.501 347.073C562.462 344.03 555.405 348.055 549.864 351.93C460.29 414.584 370.716 477.238 281.142 539.892C298.391 525.22 315.639 510.547 332.888 495.874ZM581.026 337.326C611.276 353.916 641.527 370.506 671.777 387.097C819.338 258.857 979.127 145.55 1138.62 32.4776C888.541 82.8738 644.28 158.204 400.518 233.407C454.087 263.724 507.655 294.04 561.224 324.356C568.37 328.401 576.667 332.574 584.43 329.897C583.296 332.373 582.161 334.849 581.026 337.326ZM280.562 203.295C381.017 174.769 482.44 149.654 584.599 128.006C781.083 86.3698 980.472 57.5106 1174.21 4.54591C820.985 30.5263 467.762 56.5066 114.539 82.487C169.88 122.756 225.221 163.026 280.562 203.295V203.295ZM348.281 472.186C417.199 427.82 486.117 383.454 555.035 339.088C498.516 307.633 441.998 276.178 385.48 244.723C383.809 243.793 382.052 242.839 380.141 242.793C378.229 242.748 376.141 243.942 375.871 245.835C367.107 307.343 358.343 368.851 349.579 430.36C347.602 444.237 345.63 458.422 348.281 472.186V472.186ZM413.691 214.808C533.741 177.724 654.085 141.588 774.706 106.405C612.027 134.676 450.308 168.47 289.923 207.709C290.25 209.897 291.276 211.974 292.814 213.564C291.587 223.921 293.856 234.335 296.039 244.533C312.325 320.599 324.609 397.455 336.885 474.269C347.729 394.347 357.172 314.234 365.206 233.981C361.935 234.227 358.665 234.472 355.394 234.718C359.255 229.583 365.698 226.497 372.12 226.706C368.115 224.429 364.11 222.153 360.105 219.877C377.432 225.608 396.254 220.194 413.691 214.808V214.808ZM378.597 237.766C436.939 269.888 495.281 302.01 553.623 334.132C556.214 335.559 559.966 336.767 561.692 334.365C518.49 308.588 474.629 283.914 430.167 260.376C413.546 251.577 396.696 242.878 378.597 237.766ZM665.173 120.793C730.39 107.696 795.391 93.5214 860.14 78.2773C865.055 77.1203 870.034 75.9323 874.472 73.526C785.595 90.958 696.971 109.683 608.638 129.692C627.671 128.229 646.457 124.552 665.173 120.793ZM731.314 34.8183C783.556 30.2849 835.799 25.7514 888.041 21.218C897.001 20.4405 906.037 19.6486 914.641 17.0358C825.682 22.1134 736.875 29.8466 648.377 40.2218C676.08 39.6107 703.708 37.2138 731.314 34.8183ZM910.761 68.8947C876.938 76.8066 843.114 84.7185 809.29 92.6304C806.103 93.376 802.846 94.1502 800.088 95.9131C848.195 86.9073 895.961 76.0854 943.251 63.478C932.26 63.8735 921.47 66.3897 910.761 68.8947ZM574.569 341.158C573.466 340.551 572.314 339.931 571.057 339.862C569.493 339.777 567.914 340.645 567.149 342.012C593.554 356.66 620.303 370.687 647.367 384.077C624.001 368.326 599.265 354.73 574.569 341.158ZM473.966 206.436C445.62 213.491 417.275 220.547 388.929 227.602C388.03 227.826 386.881 228.577 387.349 229.376C392.507 229.785 397.672 228.89 402.749 227.894C427.119 223.114 451.013 215.915 473.966 206.436ZM291.659 64.6174C325.038 63.6918 358.308 60.4989 391.547 57.3078C394.569 57.0177 397.647 56.714 400.441 55.5268C364.071 56.9692 327.764 60.0033 291.659 64.6174V64.6174ZM538.994 148.005C504.4 152.292 470.526 160.989 436.765 169.663C433.986 170.377 431.207 171.091 428.427 171.805C465.473 164.789 502.343 156.853 538.994 148.005V148.005ZM1111.82 34.7121C1115.43 34.7521 1119.03 34.2599 1122.61 33.7687C1126.94 33.1752 1131.27 32.5817 1135.6 31.9881C1137.35 31.7474 1139.12 31.5041 1140.8 30.9471C1142.94 30.2368 1144.89 29.0377 1146.81 27.8492C1151.5 24.951 1156.18 22.0529 1160.87 19.1547C1160.21 18.7873 1159.4 18.979 1158.68 19.1799C1146.21 22.6428 1133.74 26.1056 1121.27 29.5685C1121.93 30.3027 1122.58 31.037 1123.24 31.7713C1119.29 32.011 1115.39 33.0153 1111.82 34.7121ZM430.903 255.133C416.334 243.866 399.384 235.691 381.495 231.302C380.471 231.05 379.309 230.832 378.426 231.407C377.542 231.982 377.535 233.685 378.576 233.853C393.142 236.196 406.586 242.909 419.767 249.535C423.479 251.401 427.191 253.267 430.903 255.133V255.133ZM142.3 109.536C133.607 101.08 123.356 94.427 113.179 87.8316C111.253 86.583 109.264 85.3088 107.011 84.868C106.251 84.7193 105.305 84.7478 104.902 85.409C104.333 86.3423 105.37 87.4127 106.286 88.0107C117.996 95.6633 130.014 102.846 142.3 109.536ZM338.851 191.095C323.792 194.505 308.788 198.157 293.846 202.05C292.579 202.38 290.974 203.308 291.438 204.532C308.378 201.307 325.097 196.923 341.44 191.421C340.823 190.747 339.743 190.893 338.851 191.095V191.095ZM365.105 265.549C364.598 269.645 364.098 273.865 365.182 277.847C367.953 264.531 369.675 250.997 370.328 237.411C368.88 237.549 368.349 239.358 368.17 240.801C367.149 249.05 366.127 257.3 365.105 265.549ZM1142.71 35.9592C1143.98 36.2873 1145.25 35.5174 1146.34 34.7825C1155.86 28.3682 1165.37 21.9539 1174.89 15.5396C1173.85 13.8937 1171.31 14.8666 1169.72 15.994C1160.59 22.4733 1151.58 29.1301 1142.71 35.9592ZM699.168 369.209C692.664 373.983 686.506 379.229 680.76 384.892C678.957 386.669 677.194 388.487 675.452 390.323C675.603 391.724 677.795 391.113 678.818 390.144C685.885 383.444 692.972 376.722 699.168 369.209ZM340.765 491.046C347.691 485.978 354.616 480.91 361.542 475.843C363.537 474.382 365.578 472.875 366.925 470.801C357.188 476.479 347.841 482.823 338.971 489.776C339.286 490.477 340 490.981 340.765 491.046V491.046ZM286.367 223.238C287.444 229.41 288.522 235.582 289.6 241.753C289.764 242.692 290.352 243.915 291.262 243.633C290.591 234.758 288.975 225.955 286.451 217.42C285.702 219.239 286.028 221.3 286.367 223.238V223.238ZM341.29 477.559C343.599 477.623 345.495 475.487 345.98 473.23C346.464 470.972 345.887 468.637 345.313 466.4C345.062 465.425 344.653 464.284 343.673 464.049C342.879 468.552 342.085 473.056 341.29 477.559ZM1183.79 9.43458C1180.8 8.62238 1177.38 9.75414 1175.46 12.1881C1178.44 13.0691 1181.92 11.9207 1183.79 9.43458ZM111.224 81.0316C112.288 81.3353 113.887 81.3042 113.986 80.2033C112.341 79.7539 110.574 79.7597 108.932 80.2198C109.114 81.0994 110.337 81.5538 111.05 81.0069L111.224 81.0316ZM576.455 334.431C577.446 335.312 579.325 334.607 579.49 333.291C578.769 332.993 577.988 332.69 577.229 332.871C576.471 333.052 575.849 333.957 576.251 334.625L576.455 334.431ZM349.418 395.27C350.74 394.499 350.871 392.314 349.65 391.391C349.424 392.52 349.198 393.649 348.972 394.777L349.418 395.27Z" fill="#111111"/>
</g>
<defs>
<clipPath id="clip0">
<rect width="1199" height="599" fill="white"/>
</clipPath>
</defs>
</svg>
