<svg width="721" height="233" viewBox="0 0 721 233" fill="none" xmlns="http://www.w3.org/2000/svg">
<g clip-path="url(#clip0)">
<path d="M721 124.383C720.513 126.606 720.247 128.818 719.494 130.852C718.013 134.848 716.571 138.911 714.542 142.637C712.282 146.789 709.454 150.643 706.742 154.536C705.112 156.876 703.341 159.141 701.44 161.266C698.041 165.063 694.634 168.872 690.973 172.41C687.444 175.819 683.676 179 679.851 182.081C676.155 185.059 672.357 187.938 668.407 190.565C665.214 192.689 661.755 194.424 658.367 196.245C649.761 200.873 640.693 204.396 631.353 207.211C625.772 208.893 620.163 210.514 614.496 211.865C611.124 212.668 607.613 212.885 604.167 213.383C600.038 213.979 595.914 214.613 591.783 215.192C590.444 215.379 589.087 215.439 587.739 215.567C575.936 216.694 564.1 216.225 552.277 216.275C549.104 216.288 545.922 216.155 542.759 215.907C537.662 215.509 532.578 214.944 527.486 214.479C524.488 214.205 521.478 214.048 518.484 213.73C514.483 213.304 510.495 212.751 506.496 212.298C504.85 212.112 503.19 212.067 501.539 211.918C497.675 211.568 493.797 211.31 489.953 210.8C485.434 210.199 480.954 209.297 476.438 208.668C472.956 208.182 469.443 207.929 465.947 207.547C461.646 207.076 457.348 206.575 453.048 206.094C449.733 205.723 446.404 205.449 443.104 204.977C439.282 204.431 435.484 203.714 431.675 203.071C429.003 202.621 426.327 202.193 423.66 201.716C419.078 200.895 414.507 200.009 409.92 199.22C407.291 198.768 404.633 198.49 401.999 198.067C398.986 197.584 395.983 197.041 392.981 196.498C389.249 195.823 385.528 195.093 381.793 194.441C378.098 193.796 374.402 193.146 370.687 192.632C367.324 192.167 363.93 191.939 360.562 191.502C357.409 191.092 354.276 190.522 351.128 190.069C349.106 189.779 347.07 189.594 345.045 189.328C335.862 188.123 326.631 188.126 317.398 188.248C312.095 188.318 306.789 188.38 301.493 188.635C297.136 188.844 292.783 189.251 288.444 189.718C283.698 190.229 278.958 190.825 274.239 191.54C268.424 192.42 262.634 193.467 256.832 194.431C252.392 195.169 247.934 195.814 243.511 196.641C239.015 197.48 234.552 198.493 230.074 199.428C225.819 200.315 221.554 201.155 217.311 202.096C212.028 203.268 206.734 204.411 201.497 205.767C193.932 207.725 186.399 209.813 178.881 211.946C175.741 212.837 172.668 213.966 169.578 215.027C168.678 215.337 167.849 216.021 166.947 216.109C166.067 216.194 164.991 215.955 164.25 215.476C160.936 213.332 157.71 211.004 155.818 207.42C154.936 205.748 154.239 203.881 153.927 202.025C152.899 195.907 154.001 189.872 154.958 183.838C155.503 180.395 156 176.961 158.07 174.004C158.183 173.843 158.139 173.364 158.02 173.298C157.819 173.187 157.476 173.221 157.236 173.309C151.857 175.298 146.567 177.572 141.091 179.237C133.989 181.397 126.749 183.112 119.55 184.946C115.028 186.097 110.487 187.183 105.926 188.163C103.882 188.602 101.772 188.753 99.6837 188.959C94.4746 189.471 89.2613 189.942 84.0488 190.42C83.6266 190.459 83.1835 190.494 82.7751 190.41C82.0148 190.254 81.2729 190.008 80.5233 189.799C81.1744 189.158 81.7232 188.165 82.496 187.94C84.7954 187.271 87.1671 186.8 89.5391 186.438C94.7614 185.641 100.038 185.155 105.225 184.186C113.432 182.654 121.609 180.942 129.749 179.088C134.768 177.945 139.719 176.477 144.655 175.005C148.702 173.798 152.678 172.356 156.694 171.046C157.556 170.765 158.467 170.635 159.334 170.364C159.592 170.284 159.774 169.96 159.991 169.748C159.7 169.717 159.409 169.682 159.117 169.657C158.743 169.625 158.368 169.602 157.993 169.575C158.183 169.196 158.366 168.813 158.568 168.44C158.624 168.338 158.723 168.213 158.824 168.188C161.506 167.518 163.137 165.594 164.708 163.504C164.973 163.151 166.05 163.385 166.751 163.386C167.491 163.387 168.388 163.721 168.945 163.416C173.564 160.889 178.131 158.266 182.692 155.636C189.664 151.616 196.569 147.477 203.6 143.563C208.225 140.988 213.051 138.776 217.735 136.305C226.522 131.67 235.292 127.003 244.028 122.273C249.202 119.472 254.174 116.273 259.457 113.706C266.528 110.269 273.403 106.331 281.121 104.353C284.461 103.497 287.76 102.478 291.07 101.507C291.495 101.382 291.87 101.094 292.273 100.891C293.728 100.158 294.629 100.597 294.877 102.241C294.908 102.445 294.438 102.898 294.148 102.951C287.495 104.177 281.053 106.124 274.868 108.831C269.563 111.153 264.27 113.531 259.128 116.186C250.249 120.769 241.493 125.588 232.683 130.303C227.905 132.859 223.09 135.347 218.348 137.969C210.773 142.158 203.272 146.481 195.687 150.652C192.135 152.606 188.457 154.331 184.847 156.182C184.09 156.57 183.368 157.033 182.666 157.514C182.413 157.687 182.268 158.016 182.073 158.274C182.403 158.246 182.759 158.291 183.057 158.179C187.581 156.477 192.075 154.693 196.622 153.052C202.391 150.97 208.151 148.841 214.006 147.024C220.759 144.928 227.611 143.153 234.418 141.234C239.645 139.761 244.846 138.186 250.104 136.829C256.547 135.167 263.039 133.697 269.505 132.122C274.308 130.952 279.086 129.678 283.906 128.581C288.203 127.604 292.536 126.783 296.862 125.938C301.369 125.058 305.878 124.178 310.404 123.404C312.592 123.029 314.82 122.879 317.032 122.655C321.939 122.159 326.847 121.677 331.756 121.2C332.177 121.159 332.607 121.208 333.032 121.192C336.206 121.075 339.38 120.971 342.551 120.81C343.035 120.785 343.706 120.631 343.949 120.293C345.86 117.634 348.91 117.838 351.598 117.212C354.224 116.6 356.946 116.366 359.536 115.644C361.469 115.106 361.156 113.212 361.162 111.662C361.173 108.855 361.864 107.897 364.623 106.988C365.802 106.6 366.979 106.188 368.185 105.904C371.332 105.166 374.493 104.522 377.766 104.775C378.248 104.812 379.065 104.684 379.198 104.393C380.098 102.411 381.954 102.569 383.609 102.246C386.596 101.663 389.456 101.928 391.999 103.719C395.162 105.949 398.248 108.289 401.406 110.527C403.855 112.262 403.79 115.862 401.272 117.808C398.594 119.878 395.701 121.229 392.268 121.178C391.527 121.168 390.755 121.043 390.059 120.797C389.615 120.641 389.283 120.165 388.901 119.833C389.341 119.558 389.753 119.116 390.226 119.038C392.12 118.724 394.119 118.784 395.914 118.2C397.438 117.704 398.823 116.623 400.106 115.597C401.292 114.649 401.34 113.261 400.183 112.29C397.415 109.967 394.565 107.734 391.661 105.58C388.686 103.372 385.283 103.394 381.835 104.096C381.475 104.17 381.191 104.617 380.872 104.891C381.314 105.103 381.742 105.456 382.201 105.502C384.148 105.697 384.934 106.394 384.488 107.737C384.426 107.924 383.853 108.115 383.602 108.035C382.263 107.61 380.982 106.83 379.623 106.672C375.898 106.237 372.231 106.907 368.605 107.758C367.722 107.965 366.839 108.183 365.972 108.448C363.919 109.074 363.048 110.269 362.99 112.47C362.865 117.193 362.879 117.259 358.139 118.255C355.206 118.872 352.222 119.252 349.26 119.735C349.142 119.754 349.001 119.7 348.898 119.743C348.36 119.973 347.83 120.223 347.297 120.466C347.819 120.587 348.343 120.82 348.864 120.814C357.39 120.716 365.915 120.496 374.441 120.5C379.531 120.503 384.586 120.931 389.579 122.213C392.168 122.878 394.963 122.704 397.649 123.034C401.277 123.478 404.896 124 408.506 124.569C411.803 125.089 415.082 125.721 418.37 126.294C421.888 126.908 425.401 127.561 428.93 128.102C431.808 128.544 434.719 128.773 437.595 129.228C442.031 129.93 446.447 130.759 450.876 131.508C453.667 131.981 456.464 132.411 459.26 132.854C462.971 133.441 466.685 134.008 470.394 134.609C473.409 135.098 476.418 135.629 479.431 136.133C483.811 136.866 488.185 137.644 492.577 138.302C495.635 138.76 498.72 139.043 501.791 139.414C506.771 140.017 511.746 140.657 516.73 141.22C518.616 141.433 520.519 141.549 522.417 141.587C529.969 141.739 537.521 141.909 545.074 141.938C549.524 141.956 553.997 141.951 558.42 141.538C563.373 141.076 568.27 140.035 573.214 139.438C581.016 138.495 588.384 135.947 595.6 133.118C601.141 130.945 606.377 127.907 610.981 124.045C615.535 120.226 620.1 116.378 624.279 112.166C628.794 107.617 632.333 102.267 633.707 95.8845C634.97 90.0165 633.835 84.5462 630.027 79.7173C625.656 74.174 620.305 69.6935 614.465 65.8678C608.776 62.1411 602.762 58.9122 596.92 55.4155C590.285 51.4436 582.948 49.418 575.531 47.5903C571.173 46.5163 566.828 45.3866 562.458 44.3645C560.83 43.9835 559.149 43.8142 557.486 43.589C554.659 43.206 551.821 42.9034 549.001 42.4788C545.292 41.9202 541.606 41.2041 537.891 40.6902C534.529 40.2249 531.147 39.8598 527.763 39.594C522.263 39.162 516.757 38.7817 511.247 38.5C505.026 38.1819 498.8 37.8379 492.573 37.7826C470.606 37.5874 448.638 37.4896 426.67 37.409C422.646 37.3942 418.618 37.5845 414.596 37.7675C410.619 37.9484 406.645 38.2127 402.673 38.4887C396 38.9524 389.331 39.4839 382.657 39.9297C378.2 40.2274 373.738 40.4682 369.274 40.6589C362.686 40.9404 356.097 41.2045 349.505 41.3838C342.745 41.5676 335.974 41.8891 329.223 41.6739C324.776 41.5322 320.363 40.4938 315.923 39.9593C313.056 39.6142 310.157 39.5299 307.289 39.1918C303.891 38.7912 300.514 38.2216 297.122 37.7673C294.979 37.4802 292.824 37.28 290.676 37.023C286.68 36.5448 282.689 36.0229 278.689 35.5784C275.998 35.2793 273.3 35.0145 270.598 34.8536C265.654 34.5592 260.704 34.3486 255.756 34.112C253.009 33.9806 250.261 33.8715 247.514 33.7446C245.009 33.629 242.492 33.2784 240.004 33.4267C234.236 33.7704 228.478 34.3004 222.725 34.8569C218.66 35.2501 214.593 35.6924 210.56 36.3263C205.508 37.1204 200.476 38.0594 195.462 39.0708C189.585 40.2564 183.727 41.5401 177.88 42.8686C172.277 44.1419 166.662 45.3931 161.119 46.8958C153.536 48.9514 145.952 51.0428 138.486 53.479C131.757 55.6749 125.164 58.2971 118.553 60.8392C112.05 63.3395 105.619 66.0261 99.1193 68.533C95.2366 70.0304 91.2636 71.2926 87.3641 72.7485C84.3121 73.888 81.3433 75.2531 78.2786 76.3546C74.3044 77.783 70.2718 79.0493 66.2637 80.3837C66.2095 80.4018 66.134 80.3776 66.0915 80.4067C65.1826 81.0292 64.2771 81.6564 63.3709 82.2828C64.3442 82.379 65.3164 82.5437 66.2909 82.5582C68.9058 82.597 71.5356 82.3996 74.1338 82.6106C78.3234 82.9507 82.4915 83.5525 86.6707 84.0252C89.0005 84.2887 91.3441 84.4478 93.6644 84.7747C96.5192 85.1769 99.3522 85.7306 102.202 86.1697C104.157 86.471 106.119 86.8286 108.089 86.9159C112.779 87.124 117.476 87.1729 122.169 87.313C125.404 87.4096 128.64 87.7066 131.871 87.639C137.855 87.5136 143.835 87.1935 149.816 86.9419C155.372 86.7082 160.927 86.2754 166.484 86.2486C184.852 86.1599 203.222 86.1266 221.59 86.2653C227.645 86.311 233.694 86.9738 239.749 87.2967C243.223 87.4819 246.716 87.4086 250.178 87.706C255.384 88.1532 260.6 88.4469 265.724 89.7658C269.455 90.7262 273.361 90.9853 277.162 91.7008C281.883 92.5896 286.583 93.6006 291.276 94.6306C291.904 94.7686 292.495 95.2643 293.003 95.7084C293.4 96.0557 293.643 96.5797 293.954 97.0252C293.382 97.02 292.782 97.125 292.241 96.9921C288.106 95.9765 284.012 94.7729 279.848 93.9023C274.503 92.7849 269.12 91.8257 263.724 90.9868C260.194 90.4379 256.618 90.1143 253.051 89.8845C247.744 89.5427 242.426 89.3988 237.115 89.1214C233.321 88.9232 229.534 88.5183 225.738 88.427C217.275 88.2234 208.809 88.1765 200.344 88.0246C198.143 87.9851 195.945 87.7632 193.743 87.6968C193.263 87.6823 192.774 87.9748 192.29 88.1259C192.686 88.3406 193.089 88.5431 193.477 88.7721C195.578 90.0131 197.705 91.2139 199.767 92.5176C202.398 94.1814 205.068 95.655 208.307 95.7052C209.353 95.7215 210.394 95.9789 211.442 96.0269C211.798 96.0433 212.169 95.7556 212.533 95.6068C212.299 95.3062 212.125 94.8486 211.82 94.7303C209.724 93.917 207.605 93.1586 205.482 92.4156C204.258 91.9874 203.004 91.6455 201.786 91.2036C201.574 91.1267 201.472 90.7457 201.32 90.5052C201.565 90.4112 201.823 90.2132 202.055 90.2397C203.808 90.4405 205.562 90.6494 207.304 90.9245C210.134 91.3711 212.299 92.9521 214.52 94.7066C217.006 96.6704 217.472 99.2743 217.684 101.96C217.94 105.218 216.351 107.261 213.267 108.442C209.184 110.006 204.966 110.983 200.608 111.356C199.138 111.482 197.662 111.554 196.199 111.731C193.488 112.058 191.512 110.669 189.666 109C187.797 107.312 186.098 105.407 184.085 103.92C183.014 103.13 181.462 102.864 180.082 102.648C177.765 102.285 175.344 102.424 173.091 101.858C169.696 101.005 168.857 97.382 171.099 94.6797C173.946 91.2491 177.433 89.1029 181.944 88.7522C182.145 88.7366 182.326 88.5143 182.525 88.4045C182.825 88.2394 183.133 88.0886 183.438 87.9317C183.123 87.8454 182.805 87.6714 182.496 87.687C180.659 87.7793 178.826 88.0049 176.99 88.0202C171.455 88.0666 165.918 87.9427 160.386 88.0621C154.219 88.1953 148.059 88.6206 141.892 88.7436C131.726 88.9465 121.554 89.1996 111.39 89.04C107.072 88.9722 102.774 87.8812 98.4575 87.3216C96.0133 87.0047 93.5486 86.8493 91.0985 86.5735C86.9791 86.1097 82.8672 85.5772 78.7455 85.1357C76.8582 84.9336 74.9564 84.8503 73.0588 84.7641C69.8657 84.6191 66.6713 84.4684 63.4762 84.4338C62.8638 84.4272 62.0961 84.7969 61.6535 85.2435C57.7069 89.2256 53.846 93.2922 49.9008 97.2757C47.2375 99.965 45.7994 103.233 44.7106 106.799C42.9234 112.652 42.456 118.651 43.0445 124.632C43.4349 128.598 44.7672 132.495 45.9145 136.352C46.3209 137.719 47.2719 139.016 48.2452 140.104C50.7268 142.876 53.2675 145.61 55.9586 148.177C59.0931 151.167 61.6429 154.571 64.1122 158.106C66.4188 161.408 69.1289 164.429 71.6781 167.561C73.9962 170.408 76.2939 173.306 77.3075 176.887C77.9924 179.307 78.3025 181.84 78.679 184.337C78.907 185.85 78.9444 187.391 79.0609 188.92C79.0793 189.162 79.136 189.436 79.0505 189.643C78.7386 190.401 78.3227 191.791 78.0381 191.769C76.8286 191.674 76.9011 190.579 76.8577 189.588C76.5099 181.664 74.2475 174.511 68.2768 168.915C65.0758 165.915 61.3282 164.076 56.8874 163.83C54.3235 163.687 51.7542 163.432 49.1931 163.489C40.0613 163.693 31.9588 166.646 24.3426 171.81C18.2073 175.97 15.6563 181.983 13.3995 188.405C12.7441 190.271 12.3249 192.231 11.9544 194.177C11.8228 194.868 12.1446 195.65 12.2811 196.386C12.6978 198.635 12.532 200.777 12.0193 203.063C11.3445 206.071 12.8536 208.937 14.1552 211.582C16.2244 215.786 18.9951 219.608 22.5664 222.65C25.9098 225.498 29.3427 228.317 33.6281 229.805C36.3966 230.767 38.9082 229.832 41.3754 228.919C45.6947 227.321 49.9119 225.448 54.2277 223.839C55.6064 223.326 57.3703 223.653 58.5985 222.96C62.8583 220.556 66.9402 217.841 71.1272 215.305C76.1994 212.234 81.3042 209.27 86.8875 207.111C91.4396 205.351 95.6803 202.803 100.188 200.91C106.507 198.257 112.83 195.512 119.366 193.507C125.458 191.638 131.844 190.736 138.079 189.315C142.166 188.383 146.249 187.497 150.465 187.535C150.993 187.539 151.518 187.879 152.045 188.064C151.562 188.365 151.115 188.809 150.589 188.945C145.312 190.312 140.057 191.802 134.725 192.918C126.939 194.548 119.241 196.47 111.779 199.209C108.093 200.562 104.536 202.277 100.962 203.918C94.1647 207.038 87.3094 210.049 80.6445 213.432C74.7468 216.426 69.1005 219.91 63.2896 223.079C61.1235 224.261 58.8869 225.762 56.5412 226.081C50.2032 226.941 45.4205 231.434 39.3586 232.851C35.9216 233.655 32.8235 233.381 29.8255 231.469C25.8308 228.92 21.8665 226.347 18.6366 222.822C14.033 217.798 10.696 212.084 9.37721 205.341C8.66947 201.722 9.03441 198.106 9.70462 194.498C10.1792 191.943 9.05519 189.597 8.49165 187.179C7.17395 181.525 5.6763 175.898 4.68527 170.186C3.85604 165.406 3.59756 160.523 3.17317 155.679C2.94962 153.127 2.79895 150.558 2.81573 147.998C2.8434 143.775 2.99981 139.553 3.16363 135.333C3.37195 129.967 3.62489 124.602 3.89031 119.238C4.10777 114.844 4.2609 110.442 4.6513 106.062C4.9437 102.781 5.60963 99.5347 6.01415 96.2614C6.10934 95.4912 5.74118 94.6753 5.72513 93.8776C5.68075 91.6715 5.39923 89.4086 5.78099 87.2694C6.3862 83.8783 6.87843 80.2659 8.4512 77.2914C11.3807 71.751 15.9053 67.7208 22.4115 66.5398C24.8425 66.0985 27.2566 65.6999 29.6416 66.8627C29.995 67.035 30.6095 66.6027 31.1137 66.5486C34.1244 66.2261 36.6969 64.9343 39.3638 63.5269C42.4141 61.9173 45.8515 60.9619 49.2045 60.0197C54.0708 58.6522 59.0135 57.5559 63.9215 56.3358C73.6804 53.9099 83.4075 51.3472 93.2057 49.0921C100.67 47.3743 107.908 45.1125 114.874 41.9225C121.771 38.7636 128.764 35.8122 135.65 32.6293C141.269 30.0321 146.669 26.9318 152.385 24.5854C160.65 21.1931 169.085 18.2065 177.501 15.1956C181.43 13.7902 185.436 12.5325 189.495 11.5782C193.253 10.6945 197.152 10.4291 200.945 9.66914C207.087 8.4384 213.288 8.89122 219.439 9.08436C223.225 9.20325 227.005 10.3362 230.734 11.2365C233.913 12.0039 236.962 13.3709 240.164 13.9621C244.103 14.6895 248.156 14.6863 252.077 13.6581C253.619 13.2539 253.85 11.6716 253.467 10.3768C252.357 6.62433 254.503 3.17944 258.045 1.70801C263.086 -0.386429 268.426 -0.518015 273.693 -0.0568774C279.091 0.415736 284.414 1.68545 289.799 2.37066C294.185 2.92866 298.615 3.14953 303.027 3.49813C304.941 3.6494 306.866 3.90148 308.776 3.8328C312.025 3.71596 315.266 3.37944 318.51 3.13967C320.224 3.01308 321.936 2.8594 323.651 2.78219C326.945 2.63395 330.24 2.47294 333.536 2.42105C343.217 2.26864 352.899 2.05782 362.58 2.08695C368.319 2.10421 374.058 2.50406 379.794 2.78381C383.771 2.97775 387.751 3.18008 391.716 3.52422C396.267 3.91913 400.802 4.49111 405.347 4.95221C407.055 5.1255 408.776 5.17294 410.486 5.33073C415.578 5.80054 420.686 6.15513 425.752 6.82219C430.836 7.49166 435.875 8.49951 440.94 9.32765C444.819 9.96208 448.713 10.5093 452.589 11.1655C456.613 11.8467 460.622 12.6207 464.64 13.3388C468.776 14.078 472.921 14.7673 477.051 15.5374C480.258 16.1354 483.44 16.8695 486.649 17.4585C489.433 17.9695 492.233 18.4027 495.036 18.7966C498.782 19.3231 502.537 19.7918 506.291 20.2569C507.634 20.4233 508.986 20.5355 510.336 20.6221C512.596 20.767 514.866 20.7905 517.117 21.0063C530.077 22.2479 543.071 21.7025 556.047 21.644C561.809 21.618 567.567 20.7576 573.325 20.2607C575.902 20.0383 578.484 19.8427 581.05 19.5194C584.384 19.0991 587.702 18.546 591.032 18.0869C592.312 17.9104 593.606 17.8361 594.894 17.7134C599.984 17.228 605.065 16.5263 610.166 16.3203C614.726 16.1363 619.309 16.4793 623.88 16.629C626.082 16.701 628.311 16.6766 630.475 17.0216C635.868 17.8815 641.326 18.5754 646.583 19.9878C653.376 21.8131 659.988 24.305 666.697 26.4499C674.591 28.9735 681.902 32.633 688.527 37.5988C695.796 43.0467 701.584 49.751 705.645 57.9264C708.97 64.6225 712.144 71.3754 714.824 78.3629C716.39 82.4471 718.267 86.4115 719.928 90.4611C720.37 91.5371 720.529 92.7285 720.909 93.8669C721 104.009 721 114.15 721 124.383ZM648.559 198.077C650.154 197.334 651.795 196.676 653.333 195.831C656.065 194.332 658.769 192.773 661.423 191.141C665.647 188.545 670.088 186.204 673.954 183.146C679.746 178.566 685.594 173.996 690.447 168.325C693.364 164.917 696.615 161.795 699.564 158.412C704.713 152.503 709.366 146.242 712.617 139.042C713.519 137.044 714.986 135.2 715.442 133.121C716.661 127.565 718.011 121.948 718.306 116.303C718.658 109.572 718.979 102.763 717.749 96.0195C717.115 92.5386 716.374 89.1409 714.816 85.9278C713.029 82.24 711.314 78.5122 709.714 74.7398C706.41 66.9509 703.067 59.1758 698.304 52.1408C696.473 49.4363 694.428 46.8001 692.09 44.5347C689.638 42.1592 686.852 40.0554 683.969 38.2128C680.015 35.6861 676.026 33.0313 671.703 31.3052C664.601 28.4702 657.203 26.3821 649.958 23.8957C642.008 21.1674 633.751 19.755 625.454 19.2967C615.746 18.7604 605.991 18.9542 596.314 20.5795C590.396 21.5735 584.401 22.1175 578.433 22.8046C573.775 23.341 569.115 23.9103 564.439 24.2398C559.015 24.622 553.574 24.9301 548.139 24.9596C540.465 25.0014 532.789 24.817 525.117 24.613C520.956 24.5024 516.802 24.1568 512.646 23.9049C510.931 23.801 509.208 23.7436 507.507 23.5282C503.07 22.9664 498.641 22.337 494.211 21.719C490.822 21.2463 487.408 20.8943 484.055 20.2329C477.837 19.0059 471.677 17.4779 465.451 16.2891C459.558 15.1638 453.612 14.3128 447.69 13.3411C440.287 12.1266 432.892 10.8529 425.477 9.71879C420.759 8.99724 416.018 8.40126 411.271 7.89705C405.826 7.31862 400.366 6.86712 394.907 6.43061C391.059 6.12296 387.205 5.88663 383.349 5.69999C377.491 5.41641 371.631 5.06314 365.769 4.99232C356.1 4.8755 346.428 4.94593 336.757 4.97684C335.347 4.98135 333.94 5.22615 332.528 5.321C326.963 5.69509 321.401 6.19005 315.828 6.37894C310.482 6.56018 305.123 6.49196 299.773 6.38509C297.315 6.336 294.845 6.05463 292.415 5.66129C288.564 5.03781 284.77 3.9907 280.903 3.56547C276.288 3.05809 271.623 2.86451 266.979 2.83966C264.699 2.82746 262.37 3.33081 260.145 3.91122C257.376 4.63341 256.061 6.62406 256.061 9.44974C256.061 10.2392 255.988 11.037 256.076 11.8165C256.31 13.8971 255.543 15.1114 253.039 16.1202C251.786 16.6249 250.375 16.8549 249.016 16.9595C243.453 17.3876 238.032 16.6994 232.69 15.0063C226.537 13.0564 220.296 11.7552 213.727 11.792C207.235 11.8283 200.772 12.041 194.459 13.4157C188.217 14.775 182.028 16.502 175.96 18.5031C168.381 21.0023 160.859 23.7285 153.482 26.7663C147.405 29.269 141.595 32.4143 135.628 35.191C129.053 38.2501 122.43 41.2044 115.836 44.2211C108.672 47.4983 101.125 49.6252 93.53 51.5876C84.2387 53.9884 74.926 56.307 65.6181 58.6433C60.3819 59.9577 55.1244 61.1891 49.9003 62.5491C46.8398 63.3458 43.8236 64.3135 40.7954 65.2301C40.5065 65.3175 40.2735 65.5892 40.0145 65.7753C40.2817 65.9084 40.5395 66.1328 40.8175 66.1612C45.8323 66.6752 50.1224 69.0673 54.192 71.7157C56.6633 73.3238 58.712 75.6119 60.8294 77.7162C61.9348 78.8148 62.7748 79.2758 64.2854 78.2864C65.6233 77.4101 67.2386 76.92 68.7771 76.3922C72.454 75.1309 76.2044 74.0705 79.8365 72.6956C82.8799 71.5436 85.7434 69.918 88.7865 68.7653C91.8933 67.5885 95.1758 66.8754 98.285 65.7041C103.384 63.7833 108.384 61.603 113.465 59.6336C117.292 58.1502 121.226 56.9381 125.033 55.4076C133.561 51.979 142.14 48.7696 151.065 46.4426C160.914 43.8745 170.684 41.0301 180.714 39.1846C185.823 38.2444 190.864 36.9367 195.968 35.9558C201.566 34.8798 207.193 33.9462 212.821 33.0348C215.695 32.5694 218.599 32.296 221.488 31.9221C225.18 31.4441 228.87 30.5503 232.562 30.547C241.281 30.5392 250.001 30.9152 258.718 31.2101C263.425 31.3694 268.129 31.6444 272.83 31.9386C275.411 32.1 277.986 32.3756 280.557 32.6605C284.677 33.1172 288.79 33.6336 292.909 34.1067C295.295 34.3808 297.69 34.5762 300.071 34.8849C303.408 35.3174 306.73 35.8615 310.068 36.2834C312.513 36.5926 314.984 36.7068 317.425 37.0423C321.379 37.5858 325.307 38.6573 329.265 38.7573C336.749 38.9464 344.247 38.6598 351.737 38.465C357.721 38.3094 363.702 38.0111 369.682 37.7495C374.753 37.5278 379.827 37.3515 384.889 37.0029C390.533 36.6142 396.162 36.0106 401.804 35.5819C405.955 35.2665 410.115 35.0294 414.274 34.8533C418.661 34.6677 423.054 34.4776 427.443 34.4955C444.788 34.5661 462.134 34.6825 479.479 34.8523C489.599 34.9513 499.712 34.6696 509.841 35.4518C516.628 35.9759 523.452 36.0177 530.214 37.0075C534.195 37.5902 538.209 37.9479 542.195 38.4965C546.149 39.0406 550.086 39.7057 554.032 40.3014C556.555 40.6822 559.113 40.8906 561.601 41.4273C566.775 42.5436 571.977 43.61 577.049 45.0978C582.988 46.8399 588.971 48.6224 594.619 51.1041C599.981 53.46 604.984 56.6578 610.057 59.6351C618.288 64.4664 625.724 70.2642 631.942 77.5926C637.376 83.9956 638.341 91.1128 635.959 98.8971C633.975 105.38 629.895 110.582 625.403 115.465C623.688 117.328 621.644 118.906 619.664 120.507C615.577 123.811 611.655 127.389 607.252 130.212C602.243 133.425 596.921 136.208 591.077 137.804C586.83 138.964 582.696 140.587 578.406 141.526C574.109 142.467 569.691 142.907 565.307 143.397C560.046 143.985 554.772 144.67 549.49 144.808C542.919 144.98 536.332 144.695 529.755 144.492C525.898 144.373 522.045 144.078 518.197 143.774C512.616 143.334 507.04 142.837 501.467 142.316C499.5 142.132 497.543 141.833 495.589 141.533C492.737 141.095 489.891 140.618 487.045 140.139C483.75 139.586 480.46 139.001 477.163 138.452C473.178 137.788 469.195 137.104 465.198 136.511C461.516 135.965 457.802 135.622 454.131 135.016C449.6 134.268 445.104 133.319 440.586 132.498C437.692 131.972 434.788 131.504 431.885 131.037C429.485 130.651 427.079 130.304 424.675 129.939C421.299 129.427 417.918 128.947 414.549 128.392C410.516 127.727 406.502 126.938 402.463 126.313C398.784 125.745 395.083 125.324 391.392 124.838C386.778 124.231 382.171 123.177 377.549 123.107C366.898 122.944 356.24 123.203 345.587 123.407C340.879 123.497 336.173 123.803 331.475 124.13C327.665 124.395 323.861 124.776 320.068 125.219C315.446 125.759 310.826 126.341 306.227 127.045C301.274 127.804 296.317 128.587 291.414 129.607C283.822 131.186 276.266 132.943 268.71 134.687C263.169 135.967 257.632 137.276 252.129 138.708C247.919 139.804 243.773 141.146 239.582 142.321C231.787 144.506 223.908 146.419 216.197 148.864C205.95 152.114 195.791 155.656 185.675 159.297C181.669 160.739 177.915 162.868 173.978 164.522C171.803 165.435 169.509 166.472 167.227 166.579C165.708 166.651 164.811 167.084 164.132 168.084C163.252 169.381 162.736 170.921 161.888 172.244C158.673 177.262 157.916 182.932 157.568 188.665C157.346 192.316 157.44 195.995 157.572 199.655C157.62 200.986 157.868 202.507 158.575 203.58C160.734 206.857 163.131 209.981 165.521 213.098C165.83 213.502 166.73 213.815 167.21 213.674C172.68 212.07 178.106 210.32 183.573 208.708C189.594 206.932 195.603 205.082 201.696 203.586C209.838 201.587 218.049 199.867 226.244 198.088C231.556 196.935 236.88 195.833 242.219 194.812C248.881 193.537 255.553 192.311 262.24 191.174C266.47 190.456 270.734 189.938 274.983 189.332C280.094 188.603 285.189 187.719 290.321 187.188C295.685 186.633 301.081 186.373 306.468 186.068C310.063 185.865 313.666 185.696 317.265 185.714C323.297 185.742 329.337 185.783 335.358 186.102C339.793 186.337 344.207 186.991 348.623 187.519C353.363 188.086 358.097 188.708 362.83 189.336C368.187 190.046 373.549 190.728 378.891 191.536C383.964 192.303 389.023 193.172 394.073 194.083C398.416 194.865 402.724 195.844 407.071 196.6C412.422 197.53 417.802 198.29 423.161 199.178C428.045 199.988 432.911 200.913 437.799 201.704C440.613 202.159 443.455 202.451 446.284 202.813C450.097 203.301 453.905 203.828 457.724 204.257C460.535 204.572 463.369 204.68 466.177 205.017C470.677 205.559 475.162 206.227 479.656 206.817C482.604 207.205 485.561 207.528 488.508 207.921C491.959 208.381 495.397 208.945 498.854 209.356C502.526 209.792 506.215 210.083 509.894 210.47C514.317 210.936 518.733 211.473 523.159 211.912C527.321 212.325 531.488 212.704 535.661 213.001C539.995 213.31 544.338 213.7 548.678 213.704C558.237 213.713 567.798 213.552 577.356 213.352C580.605 213.285 583.854 212.972 587.089 212.634C592.257 212.093 597.426 211.524 602.571 210.806C607.89 210.063 613.274 209.495 618.467 208.201C628.643 205.666 638.586 202.332 648.559 198.077ZM14.1035 180.04C15.3068 178.11 16.2134 175.889 17.7707 174.306C21.9199 170.089 26.6818 166.727 32.2366 164.396C38.0735 161.948 44.0744 160.708 50.3462 160.554C54.7587 160.446 59.1717 160.401 63.3642 162.154C63.5995 162.252 63.944 162.09 64.2376 162.05C64.1317 161.792 64.0779 161.493 63.9108 161.284C63.1399 160.32 62.3427 159.376 61.5451 158.434C59.7237 156.281 57.9772 154.058 56.0511 152.003C53.6492 149.44 51.0974 147.017 48.6104 144.534C47.1555 143.081 45.938 140.902 44.1941 140.334C40.9994 139.295 38.0345 137.87 34.9842 136.549C31.6128 135.089 28.0962 134.448 24.7687 136.923C24.5652 137.074 24.1126 136.891 23.7759 136.864C23.8254 136.571 23.7713 136.182 23.9405 135.999C25.3347 134.496 27.0679 133.641 29.1321 133.592C32.1419 133.52 34.8504 134.505 37.4701 135.923C39.1447 136.83 40.9407 137.519 42.7072 138.245C43.0534 138.388 43.5142 138.252 43.9222 138.244C43.9073 138.037 43.9256 137.821 43.8726 137.624C43.0787 134.674 42.3647 131.699 41.4524 128.785C40.2266 124.871 40.9794 120.488 38.5703 116.859C38.3323 116.5 38.3028 116 38.1912 115.562C37.359 112.298 36.0369 109.117 33.4902 106.992C30.01 104.087 25.1071 102.635 20.6111 106.103C20.337 106.315 19.8655 106.271 19.4858 106.346C19.6048 105.924 19.6141 105.42 19.8593 105.092C23.1749 100.657 29.1614 101.895 32.852 104.101C37.1382 106.663 39.2318 110.799 40.0329 115.642C40.0815 115.936 40.3946 116.187 40.5847 116.458C40.7596 116.172 41.0745 115.892 41.0886 115.599C41.3684 109.801 42.8297 104.359 45.6599 99.2559C46.1096 98.4449 45.9676 97.1932 45.8081 96.1916C45.6527 95.2161 45.1479 94.2899 44.7546 93.3597C43.0609 89.3542 40.4758 86.0004 37.1679 83.2022C34.7521 81.1587 31.9119 80.0837 28.7935 79.6219C28.261 79.5431 27.7959 79.0105 27.2996 78.6875C27.8403 78.5246 28.3724 78.262 28.923 78.2149C33.0491 77.8621 36.2734 79.8998 39.2234 82.3714C43.0421 85.5708 45.3067 89.8358 46.9915 94.4468C47.6956 96.3739 47.9939 96.4215 49.3055 94.9726C49.6227 94.6222 49.907 94.2409 50.2357 93.9021C52.7531 91.3072 55.1531 88.58 57.8464 86.1813C59.4846 84.7223 59.3335 82.6159 60.403 80.9999C60.5601 80.7624 60.18 79.9899 59.8541 79.6519C59.163 78.9351 58.2669 78.4128 57.5896 77.6856C53.8366 73.6555 48.9557 71.4966 43.9534 69.6382C41.9384 68.8896 39.6997 68.5181 37.5444 68.4316C35.4109 68.3461 34.0511 69.9202 32.8851 71.608C32.3551 72.3751 31.5357 72.9429 30.8476 73.6011C29.9549 72.0293 31.4676 71.4843 32.1351 70.5724C32.4031 70.2062 32.6201 69.8028 32.8603 69.4164C32.2803 69.4133 31.6181 69.2253 31.1348 69.4396C29.1807 70.3061 27.2947 71.3246 25.3511 72.2165C24.979 72.3873 24.4605 72.24 24.0096 72.2394C24.1465 71.8247 24.1673 71.2944 24.4432 71.018C25.1452 70.3147 25.9552 69.7173 26.7343 69.0929C27.133 68.7734 27.5582 68.4869 27.9714 68.1854C27.3801 68.001 26.7557 67.5926 26.2038 67.674C24.5133 67.9235 22.8042 68.22 21.1858 68.7516C16.1945 70.3913 12.1863 73.4097 10.1642 78.3064C8.68596 81.8859 7.87832 85.7443 6.83353 89.4955C6.71408 89.9244 6.99281 90.4638 7.08692 90.9519C7.35776 90.5691 7.70891 90.2199 7.88652 89.798C9.12741 86.8499 10.5485 83.951 11.4581 80.9015C11.9159 79.3669 11.9965 77.8819 13.3205 76.675C13.9894 76.0652 14.0204 74.8034 14.5018 73.9249C14.7608 73.4522 15.362 73.1665 15.8088 72.7964C15.9167 73.3755 16.2761 74.054 16.0922 74.5177C14.7476 77.9075 13.4438 81.3274 11.8397 84.5972C9.44007 89.4886 8.03051 94.6785 7.24791 99.987C6.61759 104.263 6.68647 108.64 6.43865 112.973C6.20002 117.144 5.94803 121.314 5.71115 125.486C5.46169 129.879 5.15039 134.27 5.00314 138.666C4.88732 142.123 5.03902 145.589 4.96678 149.049C4.84116 155.065 5.03659 161.068 6.10294 166.991C7.31905 173.747 8.74267 180.466 10.1109 187.193C10.1884 187.574 10.581 187.892 10.8269 188.239C11.0676 187.886 11.3852 187.564 11.5362 187.177C12.4137 184.928 13.2519 182.664 14.1035 180.04ZM208.071 97.875C204.332 97.3582 200.914 96.0916 197.985 93.6401C194.374 90.6185 190.255 89.2251 185.528 89.8618C184.786 89.9618 184.053 90.1436 183.309 90.2163C178.883 90.6493 175.16 92.4524 172.438 96.0004C171.959 96.6248 171.691 97.8637 171.99 98.5147C172.359 99.318 173.342 100.153 174.204 100.351C175.855 100.73 177.626 100.888 179.315 100.748C183.859 100.371 186.683 102.91 189.317 106.071C191.28 108.427 193.614 110.398 197.002 109.877C200.917 109.275 204.806 108.5 208.708 107.808C210.933 107.413 213.034 106.754 214.694 105.11C216.528 103.292 216.269 99.3119 214.168 97.8049C213.83 97.5619 213.283 97.5056 212.84 97.5282C211.37 97.6032 209.904 97.7535 208.071 97.875ZM62.0936 82.9358C62.2761 82.7892 62.4586 82.6426 62.641 82.496C62.5256 82.3997 62.4103 82.3034 62.2949 82.207C62.1061 82.45 61.9174 82.6929 62.0936 82.9358Z" fill="#111111"/>
<path d="M584.237 106.893C581.217 102.254 577.434 98.6227 572.647 96.0493C568.277 93.6999 563.889 91.3813 559.044 90.1478C557.209 89.6807 555.313 89.1957 553.442 89.1834C549.015 89.1542 544.529 88.6384 540.198 90.1811C539.769 90.3339 539.131 89.9001 538.59 89.7386C539.022 89.4143 539.41 88.9867 539.893 88.7821C543.679 87.1786 547.659 86.4388 551.749 86.6074C556.475 86.8021 561.076 87.6187 565.36 89.8382C569.056 91.7531 572.921 93.3523 576.56 95.3636C580.777 97.6941 583.851 101.265 586.35 105.349C587.826 107.759 589.67 109.963 590.222 112.858C590.818 115.988 589.074 122.619 585.961 124.923C581.692 128.083 576.806 129.341 571.889 130.638C567.649 131.756 563.38 132.955 559.046 133.475C555.573 133.891 551.962 133.542 548.453 133.159C545.278 132.813 542.092 132.181 539.029 131.278C535.315 130.184 531.705 128.723 528.085 127.33C522.766 125.284 517.223 124.836 511.641 125.256C507.068 125.601 502.548 126.686 497.976 126.954C492.743 127.26 487.479 127.02 482.228 127.026C478.078 127.03 474.147 125.964 470.345 124.444C468.341 123.642 466.324 122.757 465.16 120.683C463.648 117.99 464.378 113.913 466.295 111.551C469.606 107.473 473.957 105.189 479.166 104.418C484.861 103.575 490.276 101.812 495.487 99.3496C501.535 96.4919 507.862 94.4877 514.421 93.0699C518.526 92.1828 522.629 91.228 526.772 91.7714C530.112 92.2094 533.406 93.2827 536.605 94.4043C538.416 95.0395 538.996 97.3807 538.14 99.0364C537.985 99.3357 537.549 99.5239 537.202 99.6663C537.116 99.7017 536.704 99.3288 536.728 99.1946C537.375 95.5708 534.381 95.4032 532.24 94.6328C529.167 93.5274 525.905 93.1025 522.679 93.5508C518.592 94.1189 514.503 94.8422 510.504 95.8504C504.216 97.4359 498.301 100.09 492.31 102.548C488.307 104.19 484.019 105.203 479.79 106.211C475.65 107.197 471.65 108.381 468.748 111.67C466.935 113.725 465.512 116.049 466.624 119.045C467.302 120.869 468.83 121.752 470.471 122.248C474.587 123.493 478.68 124.871 483.083 124.864C486.559 124.858 490.057 125.371 493.508 125.128C497.596 124.84 501.629 123.837 505.715 123.427C509.169 123.081 512.667 123.2 516.139 123.003C522.603 122.636 528.465 124.826 534.373 126.996C539.163 128.754 543.914 130.495 549.105 131.148C555.983 132.014 562.423 130.564 568.882 128.815C572.741 127.77 576.547 126.502 580.324 125.182C585.769 123.279 588.806 117.958 587.348 112.46C586.829 110.506 585.362 108.802 584.237 106.893Z" fill="#111111"/>
<path d="M449.482 60.3448C445.111 59.7375 440.897 59.2687 436.744 58.4815C433.063 57.7841 429.409 56.8708 425.816 55.8076C419.056 53.8072 412.393 51.4705 405.6 49.5946C402.277 48.6769 398.764 48.4047 395.319 47.9834C393.137 47.7166 390.924 47.651 388.723 47.6049C384.215 47.5106 379.868 48.5155 375.818 50.345C370.276 52.8483 365.863 56.7096 363.381 62.4298C363.17 62.9159 363.331 63.5629 363.319 64.1351C363.706 63.8939 364.1 63.6619 364.48 63.4099C368.174 60.9599 372.174 59.1724 376.377 57.7811C381.186 56.1896 385.862 54.0172 390.783 53.0019C394.701 52.1937 398.917 52.4924 402.969 52.7693C406.513 53.0114 410.02 53.8614 413.528 54.5295C416.335 55.0643 419.018 55.9641 421.291 57.7962C421.407 57.8894 421.5 58.0104 421.604 58.1184C421.188 58.2164 420.754 58.4394 420.363 58.3805C419.881 58.3079 419.453 57.9062 418.969 57.8092C415.202 57.0534 411.4 56.4528 407.662 55.5761C403.769 54.6629 399.854 54.4518 395.883 54.4971C391.844 54.5433 388.064 55.5748 384.346 57.0514C378.706 59.2915 372.944 61.2482 367.407 63.7129C365.026 64.7727 362.072 65.5463 361.107 68.606C360.784 69.6285 360.541 70.6775 360.181 71.6857C360.041 72.0758 359.679 72.3865 359.418 72.7334C359.27 72.3591 359.143 71.9751 358.97 71.6132C358.78 71.2151 358.629 70.7443 358.317 70.4675C357.18 69.46 357.363 68.3133 358.503 67.2305C359.546 66.2395 360.804 65.0411 361.074 63.7478C362.124 58.7347 365.04 55.1094 368.914 52.0664C373.204 48.696 378.133 46.5812 383.465 45.8682C387.25 45.362 391.174 45.5452 395.004 45.8363C398.498 46.102 402.008 46.6962 405.405 47.5624C409.881 48.7042 414.228 50.3435 418.677 51.6052C424.945 53.3825 431.214 55.1918 437.563 56.6366C441.734 57.5856 446.032 58.0506 450.299 58.4737C452.97 58.7385 455.69 58.4657 458.384 58.563C459.063 58.5875 459.724 59.1063 460.394 59.398C459.819 59.7136 459.252 60.284 458.668 60.302C455.669 60.3945 452.666 60.3448 449.482 60.3448Z" fill="#111111"/>
<path d="M126.506 157.996C124.662 157.753 122.991 157.562 121.34 157.257C116.886 156.436 112.398 155.742 108.002 154.673C102.232 153.271 96.5703 151.42 90.7939 150.049C88.5131 149.507 86.0499 149.688 83.6675 149.627C80.4276 149.544 77.1777 147.574 76.5277 145.05C75.7738 142.122 76.1712 139.325 78.1114 136.921C81.6735 132.506 85.8441 128.806 90.9666 126.246C94.9132 124.273 99.0871 123.232 103.485 123.005C104.35 122.961 105.205 122.734 106.07 122.659C109.863 122.33 113.609 122.962 117.108 124.185C123.485 126.414 129.624 125.762 135.831 123.745C139.072 122.692 141.741 120.78 144.289 118.609C144.675 118.28 145.355 118.293 145.899 118.148C145.722 118.655 145.674 119.277 145.343 119.649C144.343 120.774 143.252 121.82 142.159 122.859C141.574 123.415 141.263 123.746 142.031 124.546C144.88 127.511 147.196 130.812 148.131 134.936C149.335 140.246 150.086 145.612 147.972 150.789C146.461 154.491 143.251 156.688 139.325 157.199C135.149 157.743 130.904 157.753 126.506 157.996ZM144.936 131.397C143.475 129.209 142.052 126.993 140.507 124.865C140.29 124.566 139.424 124.518 138.951 124.661C137.067 125.228 135.243 125.997 133.354 126.543C128.769 127.867 123.94 128.118 119.49 126.87C114.33 125.422 109.255 124.594 103.939 124.822C100.046 124.988 96.289 125.875 92.8062 127.45C87.593 129.806 83.2153 133.379 79.6643 137.903C77.9788 140.051 77.4604 142.351 78.6938 144.914C79.8866 147.393 82.1495 147.664 84.4969 147.794C86.6958 147.915 88.9685 147.722 91.0797 148.217C97.3135 149.678 103.526 151.266 109.666 153.076C115.992 154.942 122.446 155.868 128.987 156.114C131.973 156.226 134.989 155.738 137.983 155.435C144.395 154.786 146.648 151.27 147.222 146.141C147.775 141.196 147.2 136.234 144.936 131.397Z" fill="#111111"/>
<path d="M389.996 64.7173C386.276 64.8387 382.703 64.6878 379.212 65.1524C375.086 65.7014 371.003 66.6714 366.956 67.6741C364.564 68.2665 364.15 69.2732 364.813 71.4139C364.904 71.7085 364.978 72.0084 365.06 72.3059C364.688 72.2193 364.239 72.237 363.956 72.0292C361.98 70.579 362.129 67.9349 364.481 66.9626C367.699 65.6326 371.028 64.4462 374.418 63.684C380.375 62.345 386.485 62.276 392.553 62.5937C395.459 62.7458 398.337 63.5257 401.215 64.0874C405.877 64.9975 410.502 66.1349 415.192 66.8545C419.82 67.5646 424.519 67.7999 429.17 68.3801C434.901 69.0951 440.496 68.6614 446.123 67.3233C451.707 65.9952 456.948 64.0569 461.629 60.7095C462.566 60.0392 463.475 59.319 464.465 58.7378C464.751 58.5698 465.276 58.8058 465.691 58.8566C465.575 59.2356 465.573 59.7252 465.326 59.9771C461.262 64.1343 456.258 66.5776 450.778 68.4231C443.357 70.9222 435.741 71.4251 428.11 70.8202C419.379 70.1282 410.708 68.7831 402.174 66.6053C398.27 65.6088 394.182 65.3245 389.996 64.7173Z" fill="#111111"/>
<path d="M118.477 77.4702C117.393 77.2986 116.422 77.2831 115.604 76.9229C113.899 76.173 112.169 75.9545 110.325 75.9805C108.492 76.0063 106.634 75.8942 104.833 75.5809C104.202 75.4712 103.332 74.6473 103.229 74.0383C103.023 72.8274 104.172 73.0627 104.885 73.1145C107.666 73.3165 110.447 73.5417 113.218 73.8539C113.979 73.9397 114.694 74.3862 115.446 74.6174C116.635 74.9831 117.825 75.5339 119.035 75.5921C120.623 75.6685 121.72 76.3942 122.921 77.2945C125.584 79.29 128.342 81.1699 131.156 82.9468C131.824 83.3683 132.906 83.4143 133.729 83.2638C137.952 82.4921 142.174 81.6925 146.352 80.7145C148.825 80.1354 149.843 78.2221 148.792 75.9299C147.503 73.1148 145.891 70.439 144.313 67.7655C142.857 65.2993 141.612 62.8847 142.532 59.8532C143.133 57.8711 145.641 55.6816 147.585 56.0448C148.184 56.1566 148.621 57.1286 149.133 57.7067C148.774 57.924 148.344 58.3952 148.067 58.3183C146.002 57.7442 144.665 58.7764 144.368 61.0807C144.042 63.6121 145.323 65.4871 146.561 67.4757C148.259 70.2023 150.439 72.6445 151.147 75.965C151.758 78.8292 150.429 81.9301 147.624 82.9199C142.25 84.8163 136.723 85.8964 130.996 85.4454C130.149 85.3788 129.227 84.9138 128.546 84.3743C126.653 82.8758 124.956 81.122 123.012 79.7016C121.712 78.7521 120.121 78.2001 118.477 77.4702Z" fill="#111111"/>
<path d="M55.2508 202.722C54.687 203.528 54.2863 204.306 53.7251 204.943C52.8577 205.928 52.0144 207.043 50.9166 207.689C49.4872 208.53 48.2766 207.921 47.4642 206.438C47.082 205.74 46.5699 205.113 46.2005 204.409C45.9956 204.019 45.7308 203.283 45.8901 203.138C47.2441 201.907 45.986 201.359 45.3237 200.644C43.8002 199 43.9783 197.165 45.4071 195.366C47.2975 192.986 50.2595 192.625 52.6116 191.146C54.4014 190.022 56.1177 188.777 57.9366 187.703C58.516 187.361 59.5629 187.064 59.9576 187.35C60.4165 187.682 60.5654 188.683 60.5442 189.384C60.5021 190.776 60.4861 192.244 60.0338 193.531C59.2666 195.715 59.6527 197.134 61.7949 198.229C62.6511 198.666 62.0084 200.234 60.8932 200.63C59.0395 201.288 57.1921 201.963 55.2508 202.722ZM47.6782 196.801C46.6537 198.515 46.9865 199.114 48.9938 199.17C50.8608 199.221 51.4866 200.345 50.5772 201.94C50.2749 202.471 49.8999 203.083 49.9242 203.641C49.9487 204.203 50.4294 204.744 50.7102 205.294C51.0102 204.92 51.5332 204.568 51.5747 204.167C51.8882 201.142 54.3286 200.169 56.5698 199.333C58.1897 198.73 57.6563 198.33 56.8909 197.632C56.0283 196.845 55.6938 196.167 56.6146 195.082C57.1553 194.445 57.2808 193.434 57.5105 192.569C57.5921 192.261 57.4297 191.89 57.3787 191.547C57.0692 191.659 56.7386 191.732 56.4534 191.888C53.5849 193.457 50.7239 195.04 47.6782 196.801Z" fill="#111111"/>
<path d="M327.682 62.9865C331.499 59.4867 335.982 58.184 340.903 58.5636C344.831 58.8664 348.763 59.5228 352.09 61.8505C353.015 62.4976 353.549 63.7166 354.207 64.7102C354.296 64.844 354.055 65.1954 353.966 65.446C353.767 65.3408 353.538 65.2695 353.372 65.1253C350.255 62.4068 346.529 61.4569 342.504 61.4468C339.222 61.4387 335.831 60.9635 332.8 62.6461C328.05 65.2833 324.59 68.9973 323.578 74.5548C322.694 79.4076 319.924 82.8294 315.626 85.1298C314.13 85.9308 312.75 86.9901 311.19 87.6195C309.939 88.1246 308.501 88.2852 307.137 88.3313C306.67 88.3471 306.176 87.5515 305.694 87.1266C306.154 86.9442 306.62 86.5931 307.075 86.6073C309.675 86.6885 311.716 85.3906 313.614 83.9092C315.684 82.294 318.493 81.5142 319.708 78.9266C320.515 77.2054 321.43 75.4174 321.681 73.5757C322.272 69.2306 324.624 66.0152 327.682 62.9865Z" fill="#111111"/>
<path d="M91.8364 93.5025C91.0641 95.306 90.3281 96.9464 89.4918 98.5341C89.3021 98.894 88.7643 99.0711 88.3868 99.3324C88.4418 98.8678 88.4804 98.4005 88.5571 97.9395C88.6178 97.5754 88.7253 97.2191 88.812 96.8593C88.4328 97.0648 87.9906 97.2027 87.6843 97.4867C85.4395 99.5678 83.3602 101.855 80.9583 103.732C78.3689 105.755 75.326 106.715 71.9464 107.063C66.8221 107.591 62.562 106.08 58.9271 102.662C57.8025 101.605 57.0002 100.303 55.1535 100.758C54.9167 100.817 54.4245 100.506 54.3274 100.259C54.2477 100.055 54.5268 99.6451 54.7371 99.4056C56.2334 97.701 58.3854 97.9183 59.7429 99.691C61.9089 102.519 64.893 104.076 68.4136 104.413C74.5607 105.001 79.5303 102.587 83.6867 98.1943C85.389 96.3951 87.1701 94.6691 88.9439 92.9389C90.2989 91.6172 90.8693 91.711 91.8364 93.5025Z" fill="#111111"/>
<path d="M334.98 66.6302C338.971 64.4605 343.033 64.6188 347.096 65.84C349.281 66.4968 350.951 67.9064 351.519 70.2476C351.616 70.6495 351.289 71.1541 351.158 71.6113C350.844 71.407 350.367 71.2736 350.242 70.9871C349.211 68.623 347.285 67.4473 344.866 67.2557C342.545 67.0719 340.095 66.8321 337.881 67.3618C334.197 68.2429 332.548 71.4804 331.292 74.6932C330.433 76.892 330.206 79.329 329.456 81.5801C328.095 85.6685 324.639 87.7698 321.205 89.8755C318.495 91.5375 315.628 92.3718 312.414 92.474C309.925 92.5531 307.535 92.5653 305.349 91.2861C304.748 90.9346 304.362 90.2171 303.878 89.6675C304.533 89.7313 305.252 89.6406 305.832 89.8834C310.172 91.7018 314.611 91.1761 318.578 89.3687C322.739 87.4725 326.772 84.8874 328.18 79.9618C328.772 77.8916 329.087 75.736 329.768 73.6995C330.717 70.8625 332.738 68.7244 334.98 66.6302Z" fill="#111111"/>
<path d="M24.778 191.609C23.3274 192.468 23.2181 193.266 24.2716 194.569C25.2239 195.746 26.2438 196.881 27.0635 198.146C27.419 198.694 27.6254 199.643 27.3838 200.178C27.182 200.625 26.2352 200.752 25.6058 200.987C24.8697 201.261 24.0712 201.41 23.3903 201.779C22.7342 202.135 22.1779 203.119 21.6049 203.097C20.0802 203.041 18.5129 202.754 17.0717 202.248C15.8392 201.816 15.4175 199.607 16.3253 198.397C17.2148 197.212 18.483 196.309 19.3644 195.12C19.9203 194.37 20.9394 193.743 20.4122 192.335C20.2138 191.805 21.0186 190.456 21.6845 190.131C23.69 189.152 25.8483 188.483 27.9565 187.72C28.3287 187.585 28.765 187.471 29.139 187.536C29.6186 187.619 30.0651 187.893 30.5259 188.085C30.1836 188.417 29.8923 188.84 29.4899 189.066C27.9692 189.918 26.4125 190.706 24.778 191.609ZM24.3218 198.623C24.4435 198.431 24.7126 198.185 24.6648 198.055C23.8589 195.858 22.0089 195.467 20.3535 197.12C20.0102 197.463 19.5728 197.753 19.3454 198.16C19.0009 198.777 18.8023 199.476 18.5418 200.14C19.3952 200.181 20.3033 200.425 21.0886 200.213C22.1548 199.926 23.1269 199.291 24.3218 198.623Z" fill="#111111"/>
<path d="M216.647 51.6C218.877 53.3391 218.378 55.7188 217.872 57.7193C217.3 59.9812 215.475 61.4676 212.982 61.8021C207.714 62.5089 202.69 61.3296 197.85 59.4883C196.522 58.9831 195.577 57.4111 194.547 56.2486C194.38 56.0596 194.687 55.4521 194.774 55.0381C195.11 55.1464 195.623 55.1515 195.756 55.3784C197.746 58.7698 201.404 58.7808 204.569 59.5342C206.847 60.0763 209.305 59.9185 211.684 59.9655C214.698 60.0251 216.586 57.9681 216.245 55.0058C216.195 54.5699 215.717 54.0288 215.3 53.8437C215.025 53.7215 214.355 54.0389 214.124 54.3521C213.523 55.1664 213.099 56.1108 212.517 56.9414C212.422 57.0759 211.635 56.9921 211.574 56.8439C210.715 54.7362 213.814 50.9002 216.068 51.2485C216.215 51.2712 216.333 51.4785 216.647 51.6Z" fill="#111111"/>
<path d="M435.157 114.545C433.992 116.715 432.366 118.061 430.038 118.577C427.595 119.117 424.023 116.505 423.532 114.038C422.907 110.903 423.986 108.131 425.91 106.091C428.917 102.904 433.626 104.023 435.598 108.743C436.398 110.661 435.924 112.583 435.157 114.545ZM426.855 107.895C425.443 109.403 425.116 111.275 425.271 113.209C425.443 115.333 427.019 116.199 428.885 116.427C430.792 116.66 432.188 115.712 433.111 114.042C434.162 112.14 434.172 108.991 432.56 107.405C431.078 105.945 428.929 106.007 426.855 107.895Z" fill="#111111"/>
<path d="M559.421 67.1768C558.567 65.4611 559.471 64.2278 560.695 63.6544C561.948 63.067 563.502 63.1164 564.929 62.914C564.989 62.9054 565.189 63.2223 565.151 63.2953C565.016 63.5481 564.851 63.8609 564.614 63.9691C563.851 64.318 563.023 64.53 562.27 64.897C560.864 65.5825 560.751 66.3791 561.963 67.5067C563.527 68.9624 565.382 69.0618 567.304 68.3518C568.781 67.8061 570.209 67.1262 570.266 65.2456C570.31 63.7945 568.665 61.8099 567.053 61.4689C566.22 61.2928 565.31 61.5156 564.453 61.4086C563.943 61.345 563.469 60.9912 562.979 60.7679C563.301 60.3663 563.54 59.8013 563.958 59.59C566.398 58.3577 571.104 60.675 571.738 63.3657C572.651 67.2415 570.273 70.2583 566.13 70.5561C563.252 70.7631 560.981 69.8445 559.421 67.1768Z" fill="#111111"/>
<path d="M38.6458 226.771C30.946 223.678 24.7643 218.657 19.4983 212.586C17.846 210.681 17.2608 207.852 16.1989 205.441C16.1452 205.319 16.2032 205.148 16.2091 205C16.4498 205.151 16.7692 205.249 16.9186 205.464C17.9301 206.918 19.0621 208.318 19.8619 209.885C21.8061 213.693 25.091 216.131 28.4524 218.453C31.6338 220.65 34.9862 222.6 38.2449 224.687C38.7398 225.004 39.271 225.402 39.544 225.895C39.9557 226.639 39.5383 226.977 38.6458 226.771Z" fill="#111111"/>
<path d="M52.7876 179.129C53.4338 180.928 52.7791 182.526 51.2526 183.142C49.7346 183.754 47.815 183.633 46.9428 185.473C46.8945 185.575 46.2755 185.569 46.2476 185.494C46.0097 184.848 45.4865 183.823 45.7284 183.576C46.5007 182.79 47.4975 181.971 48.5324 181.752C50.28 181.382 51.0961 180.687 50.9945 178.822C50.8941 176.98 51.7633 176.146 53.654 176.247C55.0816 176.324 56.5153 176.618 57.8986 176.991C58.3413 177.11 58.6314 177.794 58.9914 178.219C58.4118 178.369 57.824 178.661 57.2548 178.629C56.6636 178.595 56.1038 178.132 55.5062 178.062C54.5004 177.945 53.4291 177.852 52.7876 179.129Z" fill="#111111"/>
<path d="M454.134 100.699C454.942 100.136 455.645 99.6427 456.382 99.2062C456.576 99.0911 456.875 99.1508 457.125 99.1302C457.01 99.3803 456.903 99.6348 456.777 99.8798C456.417 100.581 456.139 101.35 455.654 101.952C455.331 102.355 454.722 102.545 454.218 102.781C453.905 102.927 453.376 102.873 453.239 103.093C451.144 106.44 448.911 109.724 448.355 113.789C448.264 114.452 447.753 115.058 447.436 115.691C446.867 115.112 446.427 114.75 446.853 113.627C448.21 110.053 449.021 106.246 451.388 103.13C452.087 102.209 453.148 101.562 454.134 100.699Z" fill="#111111"/>
<path d="M154.972 143.057C154.924 140.246 153.713 137.98 152.873 135.569C151.923 132.841 150.718 130.349 148.96 128.086C148.84 127.931 149.054 127.518 149.114 127.226C149.328 127.306 149.589 127.333 149.75 127.474C152.052 129.486 152.642 132.435 153.868 135.036C154.058 135.439 153.997 136.029 154.277 136.308C156.299 138.33 155.576 141.012 156.041 143.401C156.083 143.615 155.771 143.899 155.623 144.15C155.406 143.846 155.189 143.543 154.972 143.057Z" fill="#111111"/>
<path d="M140.83 186.69C140.667 186.428 140.488 186.152 140.538 186.101C142.82 183.768 145.242 181.612 148.369 180.465C148.954 180.251 149.66 180.154 150.261 180.266C150.769 180.362 151.204 180.84 151.672 181.149C151.261 181.326 150.865 181.579 150.436 181.668C147.605 182.251 145.544 184.223 143.166 185.623C142.442 186.049 141.671 186.397 140.83 186.69Z" fill="#111111"/>
<path d="M557.14 108.806C556.925 105.807 558.009 103.364 559.31 100.973C559.521 100.587 559.506 100.078 559.713 99.6888C559.926 99.2874 560.283 98.9622 560.577 98.6037C560.648 99.1141 560.957 99.7646 560.752 100.113C559.179 102.779 558.68 105.732 558.224 108.714C558.103 109.504 557.716 109.74 557.14 108.806Z" fill="#111111"/>
<path d="M295.11 114.636C295.11 113.586 295.028 112.707 295.152 111.858C295.199 111.534 295.719 111.28 296.024 110.994C296.206 111.402 296.597 111.845 296.537 112.215C296.025 115.401 296.004 115.391 299.005 117.27C299.226 117.409 299.331 117.731 299.49 117.968C299.255 118.072 299.028 118.242 298.785 118.269C296.394 118.54 295.287 117.491 295.11 114.636Z" fill="#111111"/>
<path d="M497.654 104.434C498.079 104.434 498.321 104.434 498.563 104.434C498.515 104.604 498.523 104.861 498.412 104.931C496.738 105.994 495.087 107.106 493.334 108.023C492.921 108.239 492.154 107.779 491.55 107.63C491.99 107.246 492.374 106.748 492.881 106.499C494.385 105.758 495.938 105.115 497.654 104.434Z" fill="#111111"/>
<path d="M555.589 120.375C555.199 120.653 554.899 120.84 554.6 121.027C554.517 120.614 554.217 120.036 554.386 119.814C555.988 117.713 556.533 115.244 557.046 112.746C557.122 112.38 557.429 112.062 557.629 111.721C557.7 112.156 557.923 112.632 557.817 113.018C557.145 115.451 556.401 117.864 555.589 120.375Z" fill="#111111"/>
<path d="M123.131 201.265C121.953 200.156 121.773 199.472 123.68 198.704C125.108 198.129 126.301 197.396 127.832 198.081C128.012 198.161 128.165 198.3 128.331 198.412C128.185 198.543 128.06 198.723 127.889 198.797C127.273 199.062 126.502 199.65 126.042 199.471C124.221 198.762 123.963 200.304 123.131 201.265Z" fill="#111111"/>
<path d="M320.656 113.178C320.869 113.391 320.969 113.772 320.919 113.792C319.323 114.459 317.719 115.111 316.1 115.722C315.001 116.137 313.881 116.496 312.764 116.857C312.57 116.919 312.339 116.867 312.125 116.867C312.187 116.654 312.198 116.402 312.322 116.236C312.538 115.949 312.779 115.591 313.087 115.479C315.297 114.682 317.524 113.933 319.752 113.188C319.969 113.116 320.232 113.178 320.656 113.178Z" fill="#111111"/>
<path d="M252.138 92.8648C253.142 94.5739 254.069 96.3671 254.945 98.1848C255.034 98.3709 254.82 98.7034 254.746 98.968C254.586 98.9166 254.332 98.9121 254.279 98.8068C253.398 97.0556 252.534 95.2962 251.705 93.5203C251.653 93.4094 251.925 93.1475 252.138 92.8648Z" fill="#111111"/>
<path d="M330.51 109.899C328.71 110.664 327.092 111.43 325.473 112.193C325.352 112.25 325.217 112.279 325.089 112.321C325.071 112.147 324.977 111.925 325.05 111.808C325.293 111.418 325.52 110.892 325.891 110.727C327.931 109.818 330.009 108.993 332.084 108.164C332.25 108.098 332.492 108.222 332.698 108.258C332.657 108.422 332.67 108.666 332.565 108.736C331.956 109.146 331.32 109.516 330.51 109.899Z" fill="#111111"/>
<path d="M507.234 93.2292C506.91 93.1883 506.677 93.0562 506.445 92.9241C507.16 91.8454 507.847 90.7455 508.618 89.7078C508.756 89.5219 509.241 89.5934 509.567 89.5461C509.61 89.9464 509.843 90.5018 509.664 90.7197C508.954 91.5831 508.116 92.3411 507.234 93.2292Z" fill="#111111"/>
<path d="M353.593 57.8853C354.186 57.1717 354.687 56.5493 355.189 55.9268C355.384 56.0966 355.76 56.2886 355.742 56.4322C355.667 57.0405 355.578 57.6879 355.299 58.2194C354.971 58.8453 354.442 59.3661 354.001 59.9325C353.834 59.2805 353.668 58.6284 353.593 57.8853Z" fill="#111111"/>
<path d="M118.569 201.083C119.256 201.012 120.293 200.996 119.211 201.813C118.166 202.601 116.826 203.01 115.583 203.505C115.435 203.564 115.085 203.118 114.828 202.905C115.084 202.632 115.29 202.233 115.604 202.108C116.539 201.739 117.517 201.477 118.569 201.083Z" fill="#111111"/>
<path d="M652.39 16.9848C650.77 16.3775 649.327 15.7834 647.901 15.1496C647.669 15.0468 647.454 14.7928 647.36 14.5575C647.327 14.4719 647.645 14.1407 647.848 14.0853C649.31 13.6851 652.044 15.157 652.744 16.7037C652.77 16.7601 652.634 16.8894 652.39 16.9848Z" fill="#111111"/>
<path d="M153.603 108.351C153.96 108.906 154.225 109.369 154.49 109.833C153.954 109.706 153.412 109.6 152.885 109.444C152.62 109.366 152.282 109.261 152.15 109.057C151.596 108.206 151.108 107.312 150.595 106.435C151.275 106.872 151.952 107.312 152.634 107.744C152.921 107.926 153.219 108.088 153.603 108.351Z" fill="#111111"/>
<path d="M361.165 53.4218C360.709 53.8171 360.27 54.1157 359.789 54.2146C359.441 54.2862 359.039 54.093 358.66 54.0179C358.847 53.6978 358.968 53.2953 359.238 53.0783C359.576 52.8066 360.036 52.6857 360.444 52.5026C361.029 52.2409 361.614 51.9819 362.2 51.7218C361.855 52.2277 361.51 52.7337 361.165 53.4218Z" fill="#111111"/>
<path d="M349.122 107.349C349.804 107.591 350.319 107.808 350.798 108.087C351.083 108.253 351.31 108.517 351.564 108.737C351.153 108.859 350.721 109.122 350.336 109.066C349.865 108.997 349.43 108.667 348.985 108.44C348.439 108.162 347.899 107.873 347.356 107.589C347.884 107.509 348.412 107.429 349.122 107.349Z" fill="#111111"/>
<path d="M486.432 121.65C487.502 121.316 488.475 121.039 489.465 120.853C489.735 120.802 490.057 121.025 490.355 121.122C490.125 121.315 489.925 121.597 489.66 121.686C488.604 122.041 487.528 122.335 486.459 122.652C486.42 122.348 486.38 122.045 486.432 121.65Z" fill="#111111"/>
<path d="M102.694 207.459C101.933 207.409 101.264 207.267 100.595 207.125C101.263 206.781 101.929 206.431 102.602 206.098C102.749 206.025 102.927 205.973 103.087 205.982C103.419 206 103.749 206.065 104.08 206.11C103.871 206.347 103.674 206.597 103.449 206.818C103.244 207.018 103.007 207.186 102.694 207.459Z" fill="#111111"/>
<path d="M55.7071 184.595C55.5854 183.856 55.3998 183.303 55.3657 182.742C55.3447 182.395 55.5546 182.034 55.6609 181.68C55.9196 181.953 56.3142 182.186 56.4093 182.508C56.62 183.22 56.7837 183.982 56.7474 184.713C56.7342 184.979 56.1435 186.027 55.7071 184.595Z" fill="#111111"/>
<path d="M474.024 102.885C473.927 103.861 473.384 103.973 472.619 103.309C472.054 102.819 471.451 102.372 470.895 101.872C470.762 101.752 470.75 101.496 470.683 101.302C470.904 101.253 471.192 101.089 471.336 101.173C472.22 101.682 473.071 102.247 474.024 102.885Z" fill="#111111"/>
<path d="M108.624 204.635C109.111 204.614 109.415 204.593 109.719 204.572C108.901 205.173 108.1 205.802 107.24 206.336C107.145 206.395 106.711 205.91 106.434 205.677C106.675 205.451 106.88 205.153 107.164 205.017C107.559 204.827 108.013 204.757 108.624 204.635Z" fill="#111111"/>
<path d="M446.927 117.551C447.023 116.944 447.12 116.519 447.216 116.093C447.485 116.478 447.892 116.83 447.994 117.254C448.209 118.153 448.283 119.087 448.368 120.012C448.38 120.151 448.134 120.314 448.007 120.466C447.769 120.233 447.404 120.039 447.318 119.759C447.116 119.106 447.049 118.411 446.927 117.551Z" fill="#111111"/>
<path d="M138.549 204.635C139.195 205.098 139.716 205.519 140.092 206.044C140.234 206.243 140.041 206.682 140.001 207.012C139.418 206.667 138.742 206.411 138.294 205.939C138.088 205.722 138.329 205.083 138.549 204.635Z" fill="#111111"/>
<path d="M135.995 200.627C136.116 201.122 136.372 201.453 136.332 201.743C136.248 202.348 136.007 202.931 135.831 203.523C135.642 203.009 135.449 202.497 135.267 201.981C135.136 201.611 134.954 201.241 134.921 200.861C134.894 200.548 135.054 200.22 135.132 199.898C135.419 200.081 135.707 200.263 135.995 200.627Z" fill="#111111"/>
<path d="M64.5568 87.2171C64.7147 87.7275 64.7814 88.1468 64.848 88.566C64.4708 88.444 64.0771 88.3562 63.7226 88.1867C63.5172 88.0884 63.3133 87.8876 63.2167 87.6823C63.0118 87.247 62.8777 86.7785 62.7146 86.3237C63.1702 86.4632 63.6335 86.5827 64.0771 86.7532C64.2316 86.8126 64.3375 86.9981 64.5568 87.2171Z" fill="#111111"/>
<path d="M301.771 118.553C301.436 118.273 301.193 118.083 300.949 117.894C301.172 117.78 301.383 117.61 301.619 117.561C302.29 117.422 302.969 117.298 303.651 117.238C303.96 117.211 304.283 117.35 304.599 117.414C304.419 117.7 304.294 118.163 304.048 118.24C303.345 118.458 302.594 118.52 301.771 118.553Z" fill="#111111"/>
<path d="M390.361 108.077C389.735 108.763 388.933 109.458 388.103 110.117C388.04 110.167 387.697 110.003 387.626 109.865C387.57 109.755 387.681 109.449 387.804 109.377C388.582 108.921 389.384 108.506 390.361 108.077Z" fill="#111111"/>
<path d="M338.174 106.984C338.654 106.984 338.978 106.909 339.243 107.002C339.619 107.134 339.95 107.39 340.301 107.593C339.893 107.751 339.489 108.018 339.075 108.037C338.654 108.057 338.211 107.86 337.798 107.703C337.539 107.604 337.317 107.404 337.079 107.25C337.383 107.162 337.687 107.073 338.174 106.984Z" fill="#111111"/>
<path d="M463.441 98.1482C463.279 98.6037 463.096 99.1484 462.752 99.2824C462.398 99.4205 461.883 99.1743 461.454 99.0448C461.414 99.0329 461.44 98.4862 461.515 98.4644C462.116 98.2909 462.736 98.1843 463.441 98.1482Z" fill="#111111"/>
<path d="M654.58 18.4423C655.29 18.7258 656 19.1914 656.709 19.6571C656.623 19.7833 656.562 19.9741 656.445 20.019C656.303 20.0733 656.057 20.0678 655.956 19.9769C655.478 19.5469 655.035 19.0789 654.58 18.4423Z" fill="#111111"/>
<path d="M343.922 107.257C344.168 107.106 344.338 106.971 344.477 106.998C344.937 107.087 345.385 107.234 345.838 107.359C345.665 107.589 345.426 108.039 345.331 108.011C344.811 107.855 344.327 107.582 343.922 107.257Z" fill="#111111"/>
<path d="M450.668 122.561C450.984 122.39 451.408 122.202 451.792 122.263C452.132 122.317 452.428 122.648 452.743 122.857C451.964 123.927 451.4 122.921 450.668 122.561Z" fill="#111111"/>
<path d="M146.669 124.929C147.137 125.214 147.548 125.562 147.868 125.98C147.969 126.111 147.827 126.428 147.795 126.66C147.511 126.361 147.204 126.08 146.951 125.756C146.786 125.543 146.7 125.268 146.669 124.929Z" fill="#111111"/>
<path d="M136.36 196.255C136.67 196.613 136.797 196.972 136.925 197.33C136.64 197.422 136.355 197.514 136.07 197.606C136.106 197.155 136.142 196.705 136.36 196.255Z" fill="#111111"/>
<path d="M49.138 54.8792C49.4363 55.128 49.552 55.3769 49.6678 55.6257C49.3058 55.7383 48.9192 55.9806 48.5903 55.9185C48.3662 55.8763 48.2227 55.4083 48.0432 55.1306C48.3473 55.0468 48.6515 54.963 49.138 54.8792Z" fill="#111111"/>
<path d="M160.355 110.901C160.205 110.992 160.145 110.998 160.087 110.991C159.477 110.921 158.867 110.848 158.256 110.776C158.303 110.619 158.38 110.323 158.392 110.325C159.08 110.471 159.763 110.642 160.355 110.901Z" fill="#111111"/>
<path d="M353.501 67.6322C353.348 67.9966 353.196 68.1788 353.043 68.361C352.952 67.8769 352.831 67.395 352.795 66.907C352.787 66.7954 353.076 66.6623 353.228 66.5391C353.319 66.8427 353.41 67.1464 353.501 67.6322Z" fill="#111111"/>
<path d="M129.152 197.621C129.144 197.447 129.213 197.328 129.314 197.286C129.718 197.12 130.128 196.958 130.549 196.845C130.614 196.827 130.749 197.075 130.852 197.2C130.315 197.37 129.779 197.541 129.152 197.621Z" fill="#111111"/>
<path d="M112.365 205.273C112.489 204.878 112.705 204.575 112.921 204.271C113.18 204.465 113.438 204.659 113.697 204.853C113.283 205.024 112.87 205.194 112.365 205.273Z" fill="#111111"/>
<path d="M298.395 107.349C298.268 107.779 298.199 108.104 297.999 108.258C297.721 108.472 297.344 108.558 297.01 108.698C297.13 108.407 297.183 108.051 297.387 107.841C297.662 107.557 298.054 107.386 298.395 107.349Z" fill="#111111"/>
<path d="M30.8908 55.9723C31.3547 56.0105 31.6362 56.0486 31.9177 56.0867C31.7506 56.2915 31.5875 56.6637 31.4156 56.6678C30.9995 56.6775 30.5794 56.5157 30.1609 56.423C30.3434 56.2728 30.5258 56.1225 30.8908 55.9723Z" fill="#111111"/>
<path d="M637.337 15.0718C636.82 15.0841 636.394 15.0054 635.968 14.9266C636.019 14.7721 636.071 14.6176 636.122 14.4632C636.557 14.6357 636.993 14.8082 637.337 15.0718Z" fill="#111111"/>
<path d="M444.281 73.371C443.764 73.3833 443.339 73.3046 442.913 73.2258C442.964 73.0713 443.015 72.9169 443.066 72.7624C443.502 72.9349 443.937 73.1074 444.281 73.371Z" fill="#111111"/>
<path d="M21.4021 62.8954C21.3436 62.531 21.4676 62.1666 21.5916 61.8023C21.7717 61.8916 21.9519 61.981 22.132 62.0703C21.9496 62.3453 21.7671 62.6204 21.4021 62.8954Z" fill="#111111"/>
<path d="M502.034 101.154C502.092 101.519 501.968 101.883 501.844 102.247C501.664 102.158 501.484 102.069 501.304 101.979C501.486 101.704 501.669 101.429 502.034 101.154Z" fill="#111111"/>
<path d="M353.958 108.897C354.475 108.88 354.9 108.954 355.326 109.027C355.28 109.182 355.234 109.336 355.187 109.491C354.747 109.323 354.307 109.156 353.958 108.897Z" fill="#111111"/>
<path d="M465.63 98.6947C466.026 98.6837 466.33 98.7638 466.634 98.8439C466.529 99.0067 466.424 99.1696 466.319 99.3324C466.059 99.1502 465.799 98.968 465.63 98.6947Z" fill="#111111"/>
<path d="M364.815 50.8712C364.838 51.1513 364.7 51.4475 364.506 51.7007C364.455 51.7674 364.23 51.7013 364.085 51.6962C364.267 51.4212 364.45 51.1462 364.815 50.8712Z" fill="#111111"/>
<path d="M549.568 125.476C549.462 125.81 549.266 126.053 549.069 126.296C548.962 126.188 548.854 126.081 548.747 125.974C548.99 125.777 549.233 125.581 549.568 125.476Z" fill="#111111"/>
<path d="M492.545 121.195C492.87 120.851 493.196 120.69 493.521 120.529C493.561 120.688 493.656 120.976 493.632 120.986C493.279 121.138 492.91 121.253 492.545 121.195Z" fill="#111111"/>
<path d="M156.705 104.889C156.872 105.269 156.947 105.558 157.023 105.847C156.818 105.793 156.435 105.732 156.437 105.687C156.45 105.388 156.545 105.094 156.705 104.889Z" fill="#111111"/>
<path d="M542.907 172.935C544.369 172.206 545.661 171.499 546.917 170.733C547.222 170.547 547.41 170.168 547.652 169.878C547.315 169.925 546.957 169.915 546.645 170.029C542.841 171.412 539.057 172.851 535.241 174.201C529.141 176.359 522.994 178.386 516.921 180.618C513.762 181.779 510.731 183.282 507.615 184.567C507.203 184.738 506.637 184.536 506.142 184.506C506.416 184.17 506.633 183.753 506.973 183.51C510.783 180.792 515.02 179.002 519.457 177.544C526.566 175.209 533.602 172.65 540.689 170.246C545.171 168.726 549.685 167.298 554.201 165.879C554.764 165.703 555.451 165.727 556.03 165.869C556.336 165.944 556.53 166.472 556.775 166.796C556.468 167.02 556.18 167.282 555.848 167.462C554.858 168 553.843 168.493 552.854 169.033C552.682 169.127 552.589 169.366 552.46 169.538C552.687 169.577 552.95 169.71 553.135 169.64C554.343 169.184 555.541 168.699 556.731 168.195C559.576 166.99 562.399 165.732 565.265 164.58C565.996 164.287 566.866 164.181 567.654 164.237C568.162 164.273 568.682 164.712 569.086 165.089C569.157 165.156 568.771 165.906 568.452 166.166C566.098 168.083 563.706 169.955 561.328 171.843C561.14 171.993 560.969 172.162 560.79 172.323C561.068 172.31 561.398 172.391 561.616 172.27C564.936 170.445 568.235 168.581 571.552 166.752C573.083 165.907 574.6 165.005 576.216 164.366C576.714 164.169 577.522 164.755 578.188 164.982C577.741 165.325 577.329 165.731 576.841 166.002C574.174 167.481 571.492 168.934 568.808 170.383C565.53 172.152 562.239 173.899 558.963 175.673C554.94 177.852 550.947 180.087 546.889 182.2C546.247 182.534 544.945 182.699 544.622 182.339C543.748 181.365 544.753 180.562 545.493 180.047C549.304 177.393 553.15 174.787 557.017 172.216C559.247 170.734 561.545 169.353 563.802 167.912C564.046 167.757 564.228 167.507 564.439 167.301C564.113 167.258 563.729 167.08 563.47 167.192C561.355 168.104 559.29 169.138 557.157 170.006C553.15 171.635 549.102 173.163 545.084 174.764C543.362 175.45 541.702 176.304 539.953 176.9C539.239 177.143 538.361 176.904 537.557 176.885C538.069 176.17 538.444 175.26 539.124 174.784C540.219 174.017 541.514 173.537 542.907 172.935Z" fill="#111111"/>
<path d="M309.799 166.468C314.309 164.273 318.713 162.14 323.167 160.115C323.586 159.925 324.319 160.422 324.906 160.6C324.589 160.946 324.298 161.322 323.949 161.634C323.233 162.273 322.486 162.878 321.751 163.497C321.859 163.606 322.035 163.828 322.066 163.81C322.945 163.281 323.943 162.86 324.645 162.149C325.664 161.118 326.794 160.742 328.162 160.925C328.423 160.96 328.66 161.181 328.908 161.316C328.745 161.573 328.642 161.931 328.408 162.073C326.664 163.132 324.858 164.092 323.14 165.191C319.577 167.47 316.07 169.838 312.502 172.109C311.987 172.437 310.869 172.74 310.695 172.523C309.963 171.612 310.669 170.957 311.43 170.378C313.977 168.443 316.516 166.496 319.024 164.511C319.338 164.262 319.448 163.757 319.653 163.37C319.194 163.403 318.655 163.289 318.291 163.491C315.667 164.95 313.141 166.595 310.465 167.948C306.099 170.154 301.675 172.255 297.196 174.22C296.375 174.58 294.722 174.463 294.254 173.902C293.419 172.898 294.438 171.831 295.307 171.125C297.522 169.322 299.823 167.625 302.025 165.807C302.61 165.324 302.959 164.557 303.416 163.92C302.707 164.201 301.975 164.433 301.293 164.769C296.042 167.358 290.802 169.972 285.555 172.569C283.588 173.542 281.63 174.54 279.621 175.417C279.095 175.647 278.39 175.468 277.767 175.477C278.18 174.994 278.502 174.346 279.023 174.056C281.535 172.658 284.08 171.313 286.653 170.029C291.589 167.568 296.547 165.152 301.508 162.741C302.517 162.251 303.547 161.695 304.628 161.501C305.357 161.37 306.192 161.821 306.979 162.012C306.708 162.52 306.49 163.065 306.159 163.53C303.868 166.739 300.717 168.972 297.494 171.129C297.152 171.357 296.954 171.8 296.689 172.143C297.127 172.164 297.641 172.346 297.99 172.181C300.789 170.859 303.553 169.464 306.337 168.109C307.449 167.568 308.584 167.074 309.799 166.468Z" fill="#111111"/>
<path d="M673.284 58.614C672.484 59.0482 671.757 59.3592 671.078 59.753C670.865 59.8767 670.781 60.2227 670.638 60.4669C670.897 60.5476 671.176 60.736 671.411 60.6916C672.868 60.4161 674.31 59.8708 675.769 59.8242C678.608 59.7335 681.475 59.7404 684.293 60.0477C685.882 60.221 686.027 61.2091 684.845 62.3561C684.085 63.0933 683.225 63.7266 682.434 64.4329C682.228 64.6172 682.11 64.9006 681.951 65.1384C682.249 65.2409 682.564 65.466 682.841 65.4268C685.301 65.0795 687.864 65.0072 690.182 64.2226C692.992 63.2716 695.578 63.5533 698.229 64.4238C698.578 64.5381 699.056 65.0028 699.04 65.2798C699.021 65.5931 698.564 65.9855 698.208 66.1553C696.937 66.7608 695.455 67.0661 695.152 68.8096C695.116 69.0168 694.531 69.3509 694.433 69.2846C694.108 69.0629 693.81 68.7176 693.666 68.3545C693.603 68.1945 693.938 67.8778 694.092 67.6322C694.291 67.3162 694.489 67.0002 694.687 66.6841C694.271 66.5143 693.824 66.1464 693.445 66.2073C691.182 66.5712 688.95 67.2402 686.678 67.4054C684.416 67.5699 682.11 67.3464 679.841 67.1217C678.856 67.0242 678.271 66.182 679.065 65.3093C679.911 64.3801 681.026 63.6975 682.01 62.8913C682.364 62.6016 682.679 62.2655 683.012 61.9506C682.597 61.7797 682.167 61.432 681.769 61.4654C677.966 61.7838 674.168 62.1622 670.37 62.5339C669.324 62.6362 668.285 62.8119 667.238 62.884C666.312 62.9478 665.653 61.8525 666.297 61.1602C667.123 60.2706 668.216 59.6247 669.212 58.8984C669.332 58.8108 669.622 58.9475 669.734 58.8573C670.297 58.4005 670.827 57.903 671.368 57.4197C670.661 57.3016 669.948 57.0571 669.247 57.0858C664.241 57.2907 659.239 57.582 654.232 57.7449C653.751 57.7606 653.248 57.0872 652.756 56.7337C653.287 56.3585 653.809 55.6753 654.352 55.6585C657.631 55.557 660.915 55.6425 664.195 55.5914C665.544 55.5704 666.891 55.2567 668.238 55.2697C670.133 55.2881 672.033 55.4297 673.915 55.6534C674.318 55.7012 675.015 56.563 674.96 56.6474C674.515 57.327 673.923 57.9103 673.284 58.614Z" fill="#111111"/>
<path d="M703.118 109.899C703.726 111.771 704.336 113.459 704.942 115.15C705.623 117.052 706.411 118.925 706.949 120.866C707.607 123.24 708.171 125.655 708.516 128.088C708.611 128.76 707.778 129.562 707.371 130.304C707.17 129.428 706.791 128.55 706.799 127.676C706.828 124.44 705.869 121.518 704.682 118.531C703.908 116.583 702.516 114.864 702.609 112.407C702.68 110.521 701.428 108.592 700.816 106.665C700.709 106.327 700.856 105.908 700.885 105.527C701.264 105.801 701.83 105.995 701.988 106.364C702.451 107.444 702.753 108.594 703.118 109.899Z" fill="#111111"/>
<path d="M588.981 29.6466C589.87 29.8592 590.669 29.9698 591.464 30.1054C592.139 30.2206 592.818 30.3345 593.477 30.5139C593.68 30.5691 593.824 30.8379 593.995 31.0089C593.771 31.1925 593.558 31.3924 593.318 31.5507C593.233 31.6063 593.081 31.5596 592.96 31.5596C591.487 31.5596 589.896 31.9047 588.573 31.459C587.339 31.0433 586.384 29.7932 585.325 28.8884C585.24 28.8158 585.301 28.5728 585.294 28.4089C585.501 28.4083 585.729 28.3502 585.912 28.4165C586.911 28.7793 587.899 29.1727 588.981 29.6466Z" fill="#111111"/>
<path d="M683.685 78.2901C684.244 78.9705 684.735 79.5444 685.171 80.1569C685.345 80.4018 685.4 80.7316 685.509 81.0228C685.182 80.9997 684.745 81.1048 684.544 80.9338C682.466 79.1639 680.07 77.6809 678.949 75.0119C678.852 74.7801 678.829 74.517 678.771 74.2684C679.02 74.3439 679.331 74.3495 679.508 74.5059C680.885 75.7206 682.235 76.9642 683.685 78.2901Z" fill="#111111"/>
<path d="M689.98 88.7656C689.493 87.6413 688.986 86.7088 688.545 85.7456C688.487 85.6175 688.77 85.3337 688.895 85.1219C689.135 85.2789 689.464 85.3807 689.601 85.6015C690.754 87.4666 691.883 89.3464 692.983 91.2433C693.111 91.4642 693.013 91.8155 693.02 92.1064C692.751 92.0859 692.346 92.1712 692.234 92.0279C691.449 91.0277 690.724 89.9802 689.98 88.7656Z" fill="#111111"/>
<path d="M708.5 138.411C708.348 140.205 708.144 141.915 707.83 143.605C707.766 143.947 707.288 144.213 707.001 144.514C706.923 144.136 706.684 143.701 706.794 143.388C707.378 141.713 706.738 139.642 708.5 138.411Z" fill="#111111"/>
<path d="M708.957 135.041C708.957 135.343 708.991 135.476 708.951 135.581C708.712 136.201 708.458 136.817 708.184 137.422C708.179 137.433 707.712 137.284 707.717 137.245C707.805 136.625 707.982 136.014 708.038 135.393C708.075 134.99 707.967 134.57 707.89 134.163C707.775 133.555 707.603 132.956 707.513 132.345C707.487 132.165 707.658 131.957 707.738 131.761C707.901 131.934 708.146 132.081 708.213 132.285C708.49 133.133 708.713 133.999 708.957 135.041Z" fill="#111111"/>
<path d="M571.464 26.9139C572.985 26.0957 574.448 25.7449 575.993 26.4628C576.17 26.5453 576.34 26.6701 576.466 26.8163C576.492 26.8467 576.314 27.1637 576.216 27.1715C574.645 27.2965 573.072 27.3959 571.498 27.4748C571.465 27.4765 571.415 27.1685 571.464 26.9139Z" fill="#111111"/>
<path d="M697.552 100.152C696.103 99.2964 696.249 97.817 695.83 96.6089C695.784 96.4743 695.895 96.2853 695.933 96.1215C696.017 96.1609 696.136 96.1773 696.179 96.2432C697.029 97.5649 697.88 98.8864 698.696 100.229C698.761 100.337 698.568 100.599 698.495 100.79C698.212 100.608 697.928 100.426 697.552 100.152Z" fill="#111111"/>
<path d="M661.423 32.015C661.514 32.2868 661.55 32.4765 661.508 32.6465C661.357 33.2441 661.18 33.835 661.013 34.4284C660.815 34.2398 660.439 34.0393 660.45 33.8648C660.5 33.1285 659.987 32.0818 661.423 32.015Z" fill="#111111"/>
<path d="M677.572 72.369C676.893 72.2476 676.357 72.2031 675.912 71.9802C675.557 71.8028 675.311 71.4076 675.017 71.109C675.314 71.2792 675.596 71.5463 675.912 71.5979C676.443 71.6843 677.003 71.5953 677.536 71.6731C677.641 71.6882 677.683 72.1261 677.572 72.369Z" fill="#111111"/>
<path d="M409.338 11.5192C409.334 11.8836 409.148 12.248 408.962 12.6123C408.722 12.3917 408.483 12.1711 408.243 11.9505C408.547 11.8068 408.851 11.663 409.338 11.5192Z" fill="#111111"/>
<path d="M598.744 32.6527C598.739 32.4098 598.917 32.1668 599.094 31.9239C599.324 32.246 599.554 32.5681 599.783 32.8902C599.497 32.811 599.212 32.7319 598.744 32.6527Z" fill="#111111"/>
<path d="M404.959 10.7905C404.472 10.7004 404.168 10.6104 403.864 10.5204C404.105 10.3675 404.405 10.0443 404.573 10.1025C404.813 10.1856 404.957 10.5476 404.959 10.7905Z" fill="#111111"/>
<path d="M465.996 20.7196C465.661 20.61 465.418 20.4093 465.174 20.2087C465.409 20.1057 465.644 20.0027 465.879 19.8997C465.948 20.1426 466.018 20.3856 465.996 20.7196Z" fill="#111111"/>
<path d="M698.282 104.16C698.186 103.831 698.181 103.594 698.176 103.356C698.333 103.381 698.623 103.395 698.626 103.433C698.654 103.744 698.627 104.059 698.612 104.373C698.611 104.375 698.527 104.387 698.497 104.369C698.449 104.341 698.414 104.292 698.282 104.16Z" fill="#111111"/>
<path d="M695.363 95.2332C695.089 95.0705 694.899 94.8215 694.737 94.5548C694.723 94.5304 694.897 94.3925 694.983 94.3073C695.14 94.5856 695.297 94.8639 695.363 95.2332Z" fill="#111111"/>
<path d="M669.817 66.6302C669.556 66.3701 669.387 66.2011 669.218 66.0321C669.396 65.9674 669.719 65.8255 669.732 65.8497C669.901 66.1634 670.026 66.5008 670.162 66.8321C670.12 66.8374 670.068 66.8606 670.037 66.844C669.987 66.8165 669.95 66.7635 669.817 66.6302Z" fill="#111111"/>
<path d="M687.334 83.3912C687.35 83.7859 687.275 84.0896 687.2 84.3932C687.047 84.3475 686.894 84.3019 686.741 84.2562C686.908 83.9375 687.075 83.6188 687.334 83.3912Z" fill="#111111"/>
<path d="M10.7278 178.127C10.298 176.605 9.89929 175.184 9.65487 173.737C9.57454 173.261 9.89379 172.718 10.0303 172.206C10.1716 172.584 10.331 172.957 10.4508 173.341C10.8512 174.627 11.2334 175.918 11.6333 177.204C11.6991 177.416 11.9084 177.615 11.8977 177.812C11.8605 178.496 11.7556 179.176 11.6765 179.858C11.3907 179.312 11.1049 178.765 10.7278 178.127Z" fill="#111111"/>
<path d="M7.53447 158.725C7.7159 159.211 7.71575 159.696 7.69898 160.182C7.69884 160.186 7.37011 160.186 7.36996 160.182C7.3532 159.696 7.35304 159.211 7.53447 158.725Z" fill="#111111"/>
</g>
<defs>
<clipPath id="clip0">
<rect width="721" height="233" fill="white"/>
</clipPath>
</defs>
</svg>
