<?xml version="1.0" encoding="utf-8"?><!DOCTYPE svg PUBLIC "-//W3C//DTD SVG 1.1//EN" "http://www.w3.org/Graphics/SVG/1.1/DTD/svg11.dtd"><svg version="1.1" id="Contours" xmlns="http://www.w3.org/2000/svg" xmlns:xlink="http://www.w3.org/1999/xlink" x="0px" y="0px" width="924.061584px" height="924.061584px" viewBox="-0.000002 -0.000001 924.061584 1767.792236" enable-background="new 0 0 924.061584 924.061584" xml:space="preserve" stroke="black" fill="none" stroke-linecap='round' stroke-linejoin='round'><path class="selected"  fill="#000000" opacity="1.000000" stroke="none" 
 	d="
M8.152918 313.054742 C7.819589 302.693292 7.087465 292.824822 7.261293 282.972344 C7.447695 272.407189 8.592355 261.861993 9.082498 251.297143 C9.214266 248.456933 8.560076 245.565942 8.137926 242.717309 C7.185640 236.291436 5.988458 229.897057 5.221407 223.450555 C4.830339 220.163934 5.180094 216.792107 5.148729 213.459222 C4.822199 178.765588 4.539469 144.071420 4.121164 109.378869 C3.992182 98.681680 4.109758 87.921716 2.964708 77.314614 C1.965944 68.062615 -0.342962 58.988183 0.043077 49.533852 C0.217378 45.265351 0.632051 41.451379 3.070604 37.727700 C6.636736 32.282197 9.556879 26.418496 12.911295 20.828408 C18.379358 11.715928 27.461717 8.001771 37.133554 6.216561 C46.581545 4.472672 56.413057 4.761483 65.831583 2.912156 C87.500971 -1.342643 109.336908 0.413651 131.114465 0.107735 C142.132776 -0.047034 151.916254 3.611108 159.924936 11.352830 C172.834512 23.832032 185.673303 36.384553 198.519037 48.929635 C206.585199 56.807031 216.153070 60.949593 227.497308 61.073724 C252.358698 61.345773 277.218530 61.755410 302.079736 62.046182 C333.606409 62.414910 365.133051 62.830193 396.660974 63.031930 C460.685938 63.441659 524.712061 63.672128 588.736963 64.088799 C605.099634 64.195260 621.459375 64.726708 637.820642 65.053277 C654.848291 65.393182 671.877466 65.666940 688.903162 66.085290 C694.602930 66.225350 700.291040 66.783242 705.989465 67.040780 C715.394434 67.465844 722.864282 63.160088 730.144861 57.709954 C739.887659 50.416650 745.623377 40.070786 752.079920 30.307229 C760.959375 16.879685 772.651758 9.381066 789.189539 9.984712 C799.508631 10.361375 809.854761 9.924889 820.184839 10.092454 C829.882471 10.249749 839.573145 10.845315 849.270777 10.991509 C852.959985 11.047120 856.687891 9.920800 860.349939 10.139748 C872.818872 10.885201 884.534998 14.505624 895.709375 20.064690 C901.815149 23.102212 902.256189 29.305802 904.024317 34.633675 C905.062341 37.761559 905.019495 41.308663 905.118128 44.677285 C905.533655 58.869454 905.834741 73.065072 906.148889 87.260064 C906.499841 103.120812 906.976404 118.980828 907.123132 134.843697 C907.541345 180.035973 907.776148 225.229913 908.168604 270.422479 C908.417810 299.117028 908.784937 327.810784 909.164514 356.504022 C909.438196 377.199059 909.346948 397.915765 910.356226 418.576989 C910.846338 428.610253 913.482996 438.539056 915.155786 448.513787 C915.468591 450.379022 916.109400 452.237725 916.110925 454.099847 C916.161768 515.596795 916.100244 577.093865 916.198145 638.590752 C916.217249 650.619256 917.131555 662.647515 917.104212 674.674676 C916.853479 785.198052 916.519129 895.721368 916.114588 1006.244317 C916.058985 1021.439874 915.179651 1036.634332 915.223291 1051.827813 C915.292383 1075.856133 915.863672 1099.882378 916.102258 1123.910821 C916.135584 1127.268853 915.168787 1130.637261 915.204370 1133.995049 C915.437769 1156.023492 915.815698 1178.050591 916.154077 1200.078057 C916.482263 1221.439019 916.912378 1242.798882 917.132715 1264.160943 C917.536829 1303.353570 917.801050 1342.547540 918.158594 1381.740777 C918.464502 1415.267999 918.868189 1448.794366 919.141199 1482.321832 C919.521204 1529.014459 919.688501 1575.709039 920.230371 1622.399712 C920.399317 1636.961968 921.895410 1651.510186 922.010645 1666.071099 C922.088892 1675.955254 920.196985 1685.858941 920.337305 1695.737603 C920.464197 1704.668633 921.392359 1713.754205 923.409631 1722.436456 C924.850122 1728.636407 923.863550 1733.885308 920.846155 1738.688531 C914.288721 1749.126885 906.084985 1758.188531 895.658838 1764.995660 C893.865259 1766.166924 891.809473 1767.686456 889.849024 1767.724786 C880.286035 1767.911797 870.714075 1767.664971 861.145838 1767.527154 C860.045130 1767.511407 858.937830 1767.025201 857.851282 1767.084283 C845.192041 1767.770074 833.721460 1763.113946 822.183801 1759.002740 C808.661890 1754.184502 797.723596 1745.482110 787.206445 1735.864190 C778.377039 1727.789483 769.073145 1719.889703 758.859155 1713.787530 C751.357385 1709.305718 742.211328 1707.070611 733.503687 1705.217095 C714.993799 1701.276910 696.092615 1702.124566 677.284021 1702.007012 C659.421533 1701.895440 641.562708 1701.298028 623.700281 1701.074395 C591.507471 1700.671319 559.310571 1700.000298 527.120508 1700.211846 C510.029688 1700.324273 492.948999 1702.044244 475.865076 1703.061456 C471.000757 1703.351128 466.141931 1703.999566 461.279505 1704.010430 C424.614832 1704.091607 387.944452 1704.417168 351.287683 1703.871636 C337.157312 1703.661309 323.058008 1701.384209 308.943018 1700.064751 C308.116968 1699.987359 307.277216 1700.065240 306.444116 1700.053277 C283.416620 1699.721612 260.386011 1699.519708 237.363489 1698.977349 C230.128320 1698.806817 222.857507 1696.791680 215.702081 1697.231744 C195.475031 1698.475640 176.432962 1703.164117 160.419565 1717.051080 C149.729563 1726.321709 138.441080 1735.079522 126.570871 1742.752496 C117.982095 1748.304376 107.970682 1751.640313 98.648401 1756.079400 C94.047403 1758.270440 89.766763 1761.286431 84.998865 1762.945245 C72.363107 1767.341485 60.499948 1764.808160 49.374948 1757.789483 C38.152170 1750.709283 28.847002 1741.612115 21.442186 1730.672173 C19.688112 1728.080621 18.453058 1724.662530 18.287065 1721.554864 C17.627718 1709.210992 17.160112 1696.838067 17.211916 1684.478326 C17.392923 1641.284600 18.035013 1598.091973 18.081110 1554.898492 C18.114748 1523.371880 17.519838 1491.844170 17.141741 1460.317559 C16.865564 1437.289361 16.476854 1414.262627 16.155473 1391.235040 C15.810823 1366.541070 15.443956 1341.847466 15.163309 1317.152764 C14.787966 1284.126275 14.524523 1251.098443 14.139704 1218.072076 C13.875269 1195.377129 13.503290 1172.683404 13.147760 1149.989556 C12.839212 1130.294732 12.431810 1110.601495 12.205477 1090.905938 C12.166895 1087.548394 13.122667 1084.181695 13.108003 1080.821465 C12.835924 1018.462212 12.530359 956.103204 12.117037 893.744866 C12.030672 880.715264 11.489572 867.688653 11.151972 854.660760 C10.822992 841.966058 10.413629 829.272881 10.169443 816.576531 C9.774668 796.050103 9.490465 775.521600 9.151712 754.994073 C8.823946 735.133050 8.336740 715.273309 8.181749 695.410943 C7.764101 641.885613 7.315897 588.359551 7.221300 534.833123 C7.170297 505.973260 7.808359 477.112115 8.156221 448.251763 C8.473970 421.890893 9.029436 395.530846 9.081438 369.169610 C9.118013 350.632012 8.486254 332.093072 8.152918 313.054742 M898.152918 39.554734 C896.356836 36.425347 895.212915 32.549500 892.643823 30.305016 C884.592737 23.271508 875.728418 17.479203 864.282923 18.063531 C858.751917 18.345902 853.229700 18.841134 847.696375 19.033402 C826.974878 19.753373 806.254114 20.603730 785.525415 20.953515 C776.659876 21.103120 770.690698 24.767213 766.065759 32.190553 C758.667322 44.065293 751.771753 56.469689 739.904199 64.772500 C732.884180 69.683892 726.463648 75.837975 717.083643 76.067773 C705.720667 76.346154 694.358606 77.047326 682.998682 76.996224 C641.970423 76.811639 600.943140 76.407906 559.915796 76.048653 C525.221155 75.744866 490.526453 75.433663 455.832788 75.037820 C434.637018 74.796014 413.442957 74.399285 392.248468 74.051431 C372.886743 73.733666 353.521234 73.537927 334.166162 72.982064 C326.263239 72.755090 318.391199 71.604760 310.491510 71.079095 C294.244867 69.998010 278.000849 68.696389 261.733515 68.159844 C246.750177 67.665673 231.737573 68.094628 216.738214 68.030160 C212.300623 68.011102 208.084772 68.737328 205.094476 63.217751 C202.958002 59.274133 198.014398 56.857812 194.341181 53.739022 C181.023126 42.431146 167.799265 31.009606 154.337625 19.875451 C151.015344 17.127602 147.159631 14.019196 143.150034 13.299302 C131.828195 11.266587 120.306818 9.388787 108.849802 9.300408 C93.538019 9.182290 78.205026 10.346543 63.310724 14.966248 C50.127542 19.055238 36.700075 22.353242 23.401514 26.075692 C19.346514 27.210748 16.580515 29.397797 17.119516 34.279839 C17.915483 41.489236 18.868379 48.712380 19.078737 55.949319 C19.631639 74.971063 19.835443 94.003136 20.148714 113.031594 C20.500383 134.392678 20.818575 155.754311 21.153200 177.115685 C21.485231 198.310449 21.874491 219.504418 22.139864 240.700005 C22.524172 271.393853 22.826639 302.088799 23.150987 332.783379 C23.492944 365.144402 23.904154 397.504968 24.134195 429.866814 C24.534815 486.226861 24.906641 542.587334 25.133753 598.948296 C25.535471 698.640801 25.829675 798.333794 26.109415 898.026666 C26.118845 901.387505 25.160478 904.755608 25.216074 908.111016 C25.362940 916.975762 26.047647 925.833672 26.115518 934.697442 C26.524133 988.057427 26.884073 1041.417901 27.137949 1094.778985 C27.528208 1176.805230 27.771890 1258.832208 28.171068 1340.858453 C28.404794 1388.886285 28.862459 1436.913140 29.102510 1484.940972 C29.135134 1491.467584 28.159799 1498.000176 28.212847 1504.525445 C28.386537 1525.888238 29.010912 1547.247857 29.109506 1568.610406 C29.270265 1603.442193 29.119196 1638.275201 29.197008 1673.107476 C29.206384 1677.303399 30.141870 1681.502129 30.086946 1685.692193 C29.966394 1694.890069 29.444513 1704.081963 29.198122 1713.279351 C29.161371 1714.651177 29.660471 1716.057916 30.028719 1717.416802 C33.103281 1728.761163 38.981149 1738.297051 48.726961 1745.050469 C55.483179 1749.732110 62.449915 1753.920220 71.417658 1751.117730 C77.792093 1749.125787 84.460489 1748.056207 90.797830 1745.968194 C98.396326 1743.464776 106.339319 1741.257378 113.134653 1737.234917 C124.355448 1730.592828 134.738626 1722.543877 145.548898 1715.196832 C151.114328 1711.414239 156.944788 1708.018487 162.469721 1704.180474 C171.821085 1697.684258 180.892130 1690.570611 192.138269 1687.710626 C199.161615 1685.924371 206.430872 1684.931329 213.651026 1684.143121 C220.467920 1683.398858 227.434564 1682.615777 234.211084 1683.227105 C245.743616 1684.267510 257.132074 1686.959527 268.667261 1687.899957 C281.139856 1688.916802 293.709406 1688.888604 306.239832 1689.023614 C345.099878 1689.442071 383.961420 1689.717584 422.822168 1690.073418 C423.924829 1690.083428 425.025018 1690.369561 426.126215 1690.527886 C434.305780 1691.703301 442.455225 1693.316460 450.676721 1693.880669 C455.166895 1694.188897 459.758814 1692.404595 464.339746 1692.114678 C477.552515 1691.278252 490.776575 1690.506402 504.008142 1690.107110 C522.029932 1689.563531 540.061731 1689.297173 558.091333 1689.085137 C571.255823 1688.930230 584.424402 1689.136041 597.589502 1689.008843 C601.954126 1688.966607 606.331506 1687.962334 610.671594 1688.145074 C619.241480 1688.505792 627.779016 1689.728692 636.348352 1689.987847 C658.072046 1690.645196 679.819727 1689.141290 701.537561 1691.886163 C714.143945 1693.479668 726.959253 1693.488580 739.688745 1694.008965 C745.406458 1694.242730 750.577173 1695.290337 755.063501 1699.288018 C757.060938 1701.068047 760.004785 1701.757134 762.449854 1703.070489 C767.090662 1705.562920 772.136438 1707.576226 776.202112 1710.809380 C785.832117 1718.467095 795.090173 1726.605767 804.309412 1734.763726 C817.561548 1746.490411 833.581262 1750.454278 850.577417 1750.894952 C859.610986 1751.129327 868.797815 1750.372247 877.710657 1748.857598 C885.435266 1747.545220 892.927576 1744.698418 900.388452 1742.138848 C901.944849 1741.604913 903.718469 1739.500542 904.007959 1737.873589 C905.044458 1732.049004 906.079370 1726.116753 906.061426 1720.228448 C905.877466 1659.867730 905.482385 1599.507378 905.158045 1539.147027 C905.120081 1532.090142 905.174890 1525.032891 905.149622 1517.976006 C904.821314 1426.283013 904.470178 1334.590020 904.197778 1242.896905 C904.183313 1238.036065 905.102136 1233.172295 905.080225 1228.312066 C905.053858 1222.448785 904.242456 1216.588921 904.225794 1210.726128 C904.211023 1205.531915 905.070703 1200.336602 905.079798 1195.140801 C905.088281 1190.279473 904.201135 1185.415704 904.225855 1180.555596 C904.256433 1174.525689 905.110254 1168.497002 905.080713 1162.470513 C905.042261 1154.607354 904.343286 1146.749688 904.180872 1138.884454 C903.763941 1118.691338 903.394983 1098.496514 903.172815 1078.300469 C902.769312 1041.606988 902.400965 1004.912530 902.171777 968.217584 C901.770899 904.024346 901.468469 839.830499 901.157617 775.636773 C900.803980 702.610040 900.522547 629.583062 900.140589 556.556512 C899.871118 505.028924 899.461206 453.502007 899.167505 401.974480 C899.074121 385.584924 899.261865 369.193475 899.129602 352.804437 C898.876550 321.442651 898.164636 290.081414 898.219263 258.720940 C898.336206 191.526971 898.844934 124.333764 899.105982 57.139916 C899.127466 51.612832 898.486231 46.083192 898.152918 39.554734 z"/><path class="selected"  fill="#000000" opacity="1.000000" stroke="none" 
 	d="
M169.902918 765.804742 C174.835657 764.388055 179.660166 763.609490 184.167688 761.963128 C190.786554 759.545586 197.502771 759.031243 204.455194 758.983758 C220.483209 758.874322 236.509424 758.420525 252.534906 758.044000 C264.396539 757.765374 276.253931 757.246331 288.116632 757.082513 C318.306787 756.665643 348.499597 756.443841 378.689783 756.027520 C390.885675 755.859368 403.078546 755.423516 415.270715 755.042718 C423.966760 754.771111 432.660089 754.407342 441.353235 754.050652 C457.242273 753.398736 473.124536 752.413995 489.019861 752.120599 C519.373621 751.560357 549.737512 751.549432 580.091272 750.989251 C596.153162 750.692864 612.205652 749.786187 628.256677 749.033318 C640.150659 748.475457 652.032739 747.665643 663.925073 747.067132 C684.672571 746.022881 705.415491 744.792962 726.175928 744.128228 C747.024378 743.460687 767.904749 742.839349 788.744776 743.327081 C796.990198 743.519952 805.561243 744.763909 813.364771 748.859551 C815.761377 750.117303 819.376001 749.072137 822.432398 749.039361 C823.006983 749.033196 823.579492 748.826714 824.152918 748.712701 C823.835962 749.160027 823.608118 749.873223 823.188501 750.013726 C818.737573 751.504571 817.284082 755.111321 816.086878 759.206231 C814.687464 763.992974 810.521753 766.123284 806.149194 766.902398 C802.534876 767.546502 801.047083 768.704644 801.089502 772.495049 C801.248071 786.658074 801.026087 800.825372 801.184717 814.988397 C801.386621 833.016106 801.784265 851.041924 802.165003 869.067193 C802.436731 881.928704 802.764429 894.789666 803.178369 907.647332 C803.361780 913.346673 804.352136 919.073235 803.969446 924.719170 C803.705591 928.611504 802.100977 932.571709 800.386682 936.163201 C798.596887 939.912652 799.200891 942.525628 802.866235 944.113213 C805.273218 945.155816 807.512903 946.651299 809.673853 948.163384 C810.577112 948.795464 811.081812 949.997125 811.767786 950.939874 C810.276331 951.524957 808.672937 952.798638 807.312525 952.577691 C800.973657 951.547417 794.704614 950.090752 788.404382 948.817193 C786.854578 948.503960 785.281580 948.087945 783.718958 948.086480 C739.391382 948.047051 695.062952 947.891778 650.736841 948.146539 C636.011560 948.231133 621.294885 949.447320 606.569788 950.035088 C595.713342 950.468438 584.850733 950.959161 573.988977 951.008843 C544.660059 951.142754 515.329859 951.125909 486.000818 951.008965 C477.805444 950.976251 469.613245 950.163506 461.417810 950.126885 C455.058313 950.098565 448.693628 951.044976 442.335291 950.999322 C413.642847 950.793145 384.951624 950.406670 356.260431 950.049004 C331.734735 949.743340 307.209039 949.424737 282.684442 949.042046 C265.490442 948.773858 248.296991 948.439507 231.106043 948.021905 C226.239557 947.903619 221.336817 946.809991 216.532251 947.191216 C209.443201 947.753838 202.447107 949.396417 195.374109 950.280328 C188.974756 951.079888 182.531885 951.611016 176.091821 951.928643 C174.978052 951.983575 172.414057 952.192071 173.062082 949.017754 C174.110559 943.881829 174.905267 938.645379 175.200388 933.417046 C175.552301 927.182183 175.267542 920.911187 175.249811 914.655877 C175.247949 914.003228 175.179193 913.350945 175.154032 912.697991 C174.819025 904.003960 174.579309 895.305047 174.133600 886.616692 C173.197214 868.363458 172.155802 850.115533 171.151239 831.865838 C170.828592 826.004083 170.511865 820.141839 170.147257 814.282647 C169.500681 803.892205 169.100916 793.473199 167.968332 783.135064 C167.659387 780.315179 165.108743 777.738274 163.571680 775.058526 C163.364664 774.697625 163.068094 774.388055 162.812982 774.054742 C167.889597 773.779168 167.757868 769.050530 169.902918 765.804742 M180.152933 773.554742 C181.973932 774.388055 183.719766 775.654351 185.627924 775.985589 C199.802027 778.446282 214.115228 780.212884 228.180444 783.169305 C251.553034 788.082085 274.768366 793.741204 298.058374 799.048943 C320.291467 804.115960 342.565637 809.006585 364.764185 814.219781 C380.672083 817.955560 396.473779 822.141290 412.343347 826.042962 C431.405023 830.729485 450.452539 835.484246 469.584253 839.868829 C475.319177 841.183099 481.530664 842.679803 487.144495 841.765069 C497.204431 840.125726 507.006738 836.827142 516.863733 834.034966 C546.085779 825.757134 575.272302 817.353814 604.491297 809.065301 C628.204981 802.338555 651.926233 795.637017 675.680200 789.054498 C696.468530 783.293816 717.315576 777.744927 738.101099 771.974297 C739.283350 771.646050 740.143091 770.156182 741.152918 769.206902 C739.939722 768.822808 738.721460 768.089593 737.514063 768.107171 C719.822351 768.364190 702.130945 768.668267 684.442041 769.077142 C675.579553 769.281976 666.721887 769.708978 657.862940 770.057366 C641.143152 770.714837 624.427332 771.813165 607.703760 771.942925 C588.517298 772.091912 569.323755 771.099542 550.134119 771.127068 C525.611536 771.162225 501.089746 771.721429 476.567590 772.054192 C476.234400 772.058709 475.898279 772.025872 475.568323 772.058892 C462.290430 773.387383 449.038294 775.144219 435.728693 775.939385 C421.567835 776.785394 407.353143 776.748467 393.160913 777.047845 C375.970789 777.410394 358.775690 778.116692 341.589990 777.945733 C323.699335 777.767815 305.818659 776.684380 287.931146 776.067803 C276.241388 775.664910 264.548212 775.348626 252.854852 775.064507 C237.497949 774.691399 222.134882 774.515618 206.784235 773.976678 C202.210535 773.816155 197.687738 772.412957 193.108484 772.144341 C188.812738 771.892510 184.473184 772.388055 180.152933 773.554742 M784.152918 878.554742 C783.819605 860.026299 783.255213 841.498223 783.225488 822.969292 C783.201380 807.942132 783.817285 792.913934 784.154688 777.886346 C784.225305 774.741692 783.924646 771.849603 779.565332 773.168023 C768.463526 776.525933 757.367029 779.905022 746.313135 783.416314 C724.815210 790.244927 703.400110 797.338738 681.854639 804.012566 C654.070032 812.619134 626.193140 820.928033 598.351892 829.351617 C586.502344 832.936944 574.619043 836.412530 562.793970 840.076409 C551.430261 843.597344 540.116174 847.279229 528.797693 850.944085 C527.567468 851.342400 526.452478 852.096734 525.284082 852.685906 C526.623560 853.475518 527.872217 854.662347 529.316736 854.992852 C542.882776 858.096978 556.516870 860.907098 570.063989 864.088982 C591.002405 869.006829 611.906275 874.074822 632.789881 879.221063 C649.708887 883.390435 666.546045 887.893121 683.473230 892.028069 C715.307031 899.804314 747.235498 907.212029 778.335779 917.699822 C780.636560 918.475762 782.956384 918.671685 783.157739 915.138665 C783.472986 909.609429 783.967249 904.085809 784.114099 898.552605 C784.282007 892.224114 784.152918 885.887688 784.152918 878.554742 M181.152918 801.554742 C181.486246 805.417291 181.716898 809.291924 182.172495 813.140008 C183.449594 823.926812 184.917063 834.691766 186.119562 845.486504 C186.959192 853.023797 187.340601 860.612237 188.187921 868.148553 C189.382959 878.777520 190.882013 889.372125 192.130213 899.995599 C192.918451 906.704644 193.124384 913.508172 194.379572 920.119805 C194.742944 922.033807 195.680933 925.958978 200.360163 924.185784 C207.001947 921.669000 213.980127 920.035394 220.824365 918.058221 C245.086817 911.049371 269.402124 904.218377 293.603815 897.005914 C315.169885 890.578851 336.609400 883.866509 358.609339 878.849236 C385.568567 872.700921 412.195307 865.088860 438.926904 857.963799 C440.458643 857.555535 441.640222 855.833489 442.984766 854.722894 C441.632044 853.833550 440.391748 852.493401 438.909448 852.123772 C422.428430 848.014092 405.912561 844.043938 389.401026 840.057061 C354.857630 831.716241 320.232599 823.697259 285.795038 814.940606 C264.625299 809.557671 243.721796 803.118707 222.734522 797.030511 C210.251917 793.409417 197.824762 789.594292 185.403955 785.764825 C182.233560 784.787286 179.676279 784.189935 180.143991 788.970757 C180.521372 792.828118 180.819574 796.693108 181.152918 801.554742 M532.652918 877.054742 C520.729090 874.054742 508.830713 870.947747 496.868006 868.111626 C492.561792 867.090752 487.719324 865.269891 483.777246 866.306817 C467.026819 870.713067 450.568811 876.215875 433.915613 881.011163 C415.877527 886.205193 397.637384 890.715264 379.677362 896.157342 C362.101251 901.483147 344.818292 907.768853 327.307092 913.319024 C317.113184 916.549920 306.699030 919.081231 296.448419 922.143121 C294.907770 922.603326 293.719782 924.244317 292.368616 925.339105 C293.625879 925.577630 294.893671 926.064690 296.138635 926.011956 C301.671015 925.777276 307.197321 925.117059 312.724848 925.127801 C318.753626 925.139581 324.778620 925.945733 330.809900 926.017632 C365.168451 926.427422 399.528101 926.751092 433.887872 927.047173 C476.246485 927.412164 518.607630 927.561578 560.963709 928.109246 C590.689050 928.493584 620.407190 929.421563 650.129785 930.042718 C669.155664 930.440301 688.183191 930.783196 707.211511 931.030328 C717.709009 931.166680 728.210108 931.096307 738.708399 930.995477 C739.860620 930.984490 741.004907 930.155694 742.152918 929.706170 C741.077295 928.822381 740.121362 927.409844 738.907800 927.135064 C723.650781 923.679314 708.316858 920.558221 693.081629 917.012200 C673.502527 912.455071 653.966516 907.704583 634.464014 902.828973 C611.226099 897.019585 588.042749 890.991692 564.837000 885.053704 C554.440759 882.393426 544.047510 879.721429 532.652918 877.054742 z"/><path class="selected"  fill="#000000" opacity="1.000000" stroke="none" 
 	d="
M383.902918 397.304742 C375.153192 397.054742 366.652796 397.122155 358.153833 397.042779 C325.625940 396.738976 293.097833 396.441125 260.571161 396.032464 C244.208154 395.826867 227.847193 395.424493 211.486933 395.042352 C199.957178 394.773064 188.423456 394.534966 176.903955 394.010064 C167.003916 393.558953 157.110101 392.852471 147.236429 391.995293 C142.799371 391.610101 139.621790 388.638390 139.290994 384.400872 C138.523813 374.573113 137.175028 364.524773 138.381677 354.855309 C143.398981 314.649560 140.310465 274.327233 141.060388 234.071435 C141.312189 220.554162 140.703806 207.006036 140.035959 193.494378 C139.799371 188.707818 142.438959 186.666009 145.878275 185.106622 C153.421335 181.686608 161.234094 183.343469 168.976007 184.386926 C170.223688 184.555077 171.455560 185.017815 172.697229 185.027551 C219.224146 185.393060 265.751856 185.667107 312.278253 186.085503 C327.641443 186.223657 343.001978 186.699181 358.362756 187.061639 C371.058405 187.361199 383.750818 187.854455 396.447870 188.028191 C426.807733 188.443688 457.170130 188.673058 487.530237 189.073296 C505.059656 189.304376 522.587793 189.668481 540.114160 190.076897 C548.978723 190.283471 557.837061 190.747887 566.699854 191.047936 C577.393823 191.409997 588.088342 191.766106 598.784754 192.043816 C613.311731 192.420983 627.841516 192.689782 642.368616 193.065118 C653.231531 193.345788 664.091577 193.739220 674.953760 194.050042 C687.314783 194.403771 699.676843 194.717889 712.038294 195.055749 C724.066614 195.384484 736.093469 195.784325 748.123438 196.030022 C754.844263 196.167291 761.573328 195.942773 768.292017 196.124230 C770.261804 196.177453 772.391748 196.720879 774.126367 197.644311 C777.156824 199.257684 779.963709 201.302087 782.797998 203.261742 C783.274683 203.591332 783.417688 204.403588 783.714807 204.992852 C783.125574 205.111565 782.524439 205.373864 781.948999 205.326135 C777.456262 204.953637 776.353784 206.075158 776.933923 210.359307 C777.130945 211.814172 777.121118 213.301049 777.147730 214.774346 C777.488916 233.635552 777.883264 252.496087 778.138086 271.358514 C778.527857 300.218804 778.936670 329.079766 779.090540 357.941766 C779.145715 368.301293 778.647974 378.673394 778.088037 389.022729 C777.786279 394.599480 777.124841 400.200677 776.041406 405.675225 C775.364404 409.096063 772.280481 410.322717 768.963953 410.016686 C763.227564 409.487267 757.523157 408.275353 751.787317 408.145562 C738.960962 407.855309 726.121851 408.183923 713.290979 408.020532 C698.760950 407.835473 684.233301 407.424798 669.706445 407.042199 C659.509790 406.773675 649.314722 406.428063 639.121668 406.045709 C622.230371 405.412164 605.341394 404.718224 588.451196 404.056054 C579.756494 403.715173 571.063196 403.321740 562.365869 403.070092 C548.839319 402.678765 535.308985 402.423180 521.782068 402.042931 C512.085413 401.770379 502.393701 401.310235 492.696436 401.072228 C476.503259 400.674828 460.306238 400.433862 444.113001 400.037743 C434.249109 399.796471 424.386774 399.449548 414.528406 399.037713 C404.400263 398.614587 394.277857 398.054742 383.902918 397.304742 M576.652918 201.054742 C571.792017 200.721398 566.935083 200.181725 562.069605 200.090203 C540.046289 199.675805 518.020166 199.409417 495.995813 199.048150 C477.636438 198.747033 459.277918 198.397485 440.919367 198.051995 C423.893427 197.731561 406.868921 197.319421 389.841974 197.070519 C362.985498 196.677880 336.126917 196.427972 309.270349 196.040795 C291.243738 195.780877 273.219171 195.383263 255.193506 195.056084 C236.501550 194.716790 217.810053 194.340875 199.116998 194.075738 C190.453546 193.952844 181.784631 194.175286 173.122522 194.012048 C167.423990 193.904656 161.687830 193.723748 156.051294 192.962701 C150.114679 192.161126 150.038095 191.845330 150.179956 197.630730 C150.413614 207.160119 150.962885 216.682885 151.124933 226.212762 C151.541940 250.735741 151.822244 275.261102 152.152185 299.785546 C152.488855 324.809869 152.800897 349.834527 153.204965 374.857720 C153.226434 376.187951 153.769205 377.647759 154.470499 378.803857 C156.835428 382.702294 161.108927 381.732201 164.511698 381.917199 C177.019296 382.597283 189.557764 382.699273 202.083368 383.061608 C212.444513 383.361291 222.803644 383.729730 233.164118 384.052453 C244.190515 384.395928 255.217371 384.725335 266.244226 385.053643 C277.604059 385.391900 288.963953 385.728997 300.324213 386.052667 C312.350458 386.395257 324.375391 386.831811 336.404138 387.031670 C361.093927 387.441857 385.786371 387.690087 410.476801 388.064996 C429.003015 388.346337 447.527490 388.740624 466.053308 389.050225 C493.944055 389.516351 521.878198 387.804528 549.718164 390.988397 C556.527979 391.767144 563.433252 391.699670 570.292566 392.059472 C582.681787 392.709374 595.067224 393.437646 607.458765 394.037865 C616.148340 394.458764 624.843530 394.789758 633.539697 395.039025 C647.230982 395.431481 660.929163 395.606530 674.616968 396.085442 C689.842920 396.618157 705.056970 397.488397 720.282800 398.024712 C733.804102 398.501000 747.337305 398.635888 760.858606 399.111718 C764.473535 399.238915 765.412927 397.808495 765.199182 394.466760 C764.718408 386.948876 764.434534 379.416985 764.165308 371.887353 C763.783167 361.195702 763.290247 350.502160 763.223474 339.807092 C763.180628 332.948693 764.067590 326.087457 764.107019 319.224999 C764.231531 297.562737 764.030176 275.898309 764.195032 254.236565 C764.309351 239.208886 764.810999 224.183984 765.160120 209.158318 C765.229700 206.162652 763.844629 204.306054 760.876550 204.090051 C754.690820 203.639947 748.494470 203.244134 742.295801 203.082818 C726.272119 202.665734 710.245630 202.343926 694.218775 202.065545 C672.527918 201.688775 650.836694 201.287652 629.143884 201.086724 C611.981592 200.927789 594.816675 201.054742 576.652918 201.054742 z"/><path class="selected"  fill="#000000" opacity="1.000000" stroke="none" 
 	d="
M712.152918 1178.054742 C714.348169 1177.721368 716.048853 1177.074517 717.737756 1177.104058 C731.767664 1177.350396 745.804163 1177.529839 759.818018 1178.177056 C763.781091 1178.360040 767.648828 1180.151055 771.608545 1180.972100 C777.006006 1182.091119 777.311914 1187.105645 777.734827 1190.644341 C778.052271 1193.300713 776.195154 1197.240533 771.961389 1198.094659 C766.148096 1199.267754 760.445642 1201.477227 754.599146 1201.896539 C742.608545 1202.756524 730.548609 1202.597222 718.526697 1203.089043 C705.963403 1203.602715 693.411157 1204.384576 680.854395 1205.055718 C668.463831 1205.717706 656.075891 1206.433038 643.682825 1207.043023 C629.128320 1207.759698 614.570886 1208.420586 600.012171 1209.046075 C583.623499 1209.750298 567.231897 1210.385430 550.841760 1211.055474 C534.618067 1211.718682 518.395288 1212.405694 502.170801 1213.047906 C492.810510 1213.418511 483.447290 1213.716851 474.085779 1214.056084 C465.057092 1214.383355 456.028406 1214.711846 447.000452 1215.057549 C438.638147 1215.377740 430.276972 1215.726739 421.914911 1216.053399 C413.220056 1216.393121 404.525385 1216.739068 395.829492 1217.050347 C385.968439 1217.403497 376.106470 1217.732354 366.244257 1218.051690 C355.549585 1218.398248 344.854425 1218.729424 334.159021 1219.052544 C322.797540 1219.395684 311.435144 1219.706353 300.073999 1220.059258 C290.044916 1220.370904 280.015100 1220.673638 269.989313 1221.072930 C264.123499 1221.306573 258.236688 1222.252618 252.408991 1221.943047 C240.636835 1221.317681 228.890009 1220.137261 217.160394 1218.919366 C216.057276 1218.804864 214.379267 1216.825982 214.336847 1215.662774 C214.275903 1213.991021 215.044611 1211.248345 216.210169 1210.761895 C220.187464 1209.101495 224.428186 1207.634942 228.686212 1207.167657 C240.736383 1205.845025 252.845972 1205.066460 264.929926 1204.047173 C268.295984 1203.763360 271.670221 1203.493951 275.006799 1202.992486 C276.055444 1202.834893 276.993341 1201.940728 277.981897 1201.383721 C276.998743 1200.940728 276.049463 1200.227105 275.026880 1200.099053 C268.981073 1199.342217 262.908594 1198.795342 256.867731 1198.004571 C255.294733 1197.798394 253.802606 1196.974542 252.273340 1196.434258 C253.916193 1195.974297 255.556085 1195.127984 257.202295 1195.115533 C271.201288 1195.009332 285.202905 1195.183770 299.200769 1195.020684 C315.230798 1194.834161 331.262811 1194.538384 347.284601 1194.007989 C360.515802 1193.570001 373.732416 1192.699639 386.957483 1192.063042 C394.817102 1191.684502 402.677759 1191.254571 410.543054 1191.081353 C429.402887 1190.665948 448.266870 1190.442559 467.126795 1190.030816 C475.991602 1189.837334 484.851587 1189.405084 493.712488 1189.049615 C501.408594 1188.740899 509.101099 1188.335015 516.798425 1188.065118 C536.687525 1187.367608 556.578089 1186.711236 576.468775 1186.058770 C587.329798 1185.702691 598.195581 1185.472710 609.053064 1185.033868 C623.446741 1184.451836 637.838159 1183.790215 652.223535 1183.031548 C662.620142 1182.483453 673.018213 1181.874322 683.392053 1181.009576 C692.828882 1180.222955 702.233911 1179.054864 712.152918 1178.054742 z"/><path class="selected"  fill="#000000" opacity="1.000000" stroke="none" 
 	d="
M765.152918 1059.054742 C719.298425 1059.388116 673.944360 1059.819878 628.589258 1060.033624 C542.408411 1060.439874 456.227136 1060.814263 370.045648 1060.995904 C345.521906 1061.047662 320.995661 1060.443536 296.472528 1060.025811 C287.442377 1059.872002 278.405634 1059.580376 269.393640 1059.008843 C256.465296 1058.188897 243.549555 1057.137505 230.644434 1056.002984 C226.891626 1055.673028 223.070246 1055.083917 219.529505 1053.880425 C218.066400 1053.383233 216.681238 1051.057671 216.387781 1049.367974 C216.232660 1048.474786 218.423029 1047.065606 219.699304 1046.076104 C220.397730 1045.534600 221.385858 1045.135796 222.263819 1045.093194 C230.454584 1044.694878 238.650141 1044.396905 246.843591 1044.052789 C262.565119 1043.392632 278.286463 1042.727959 294.007318 1042.051934 C301.368768 1041.735284 308.725702 1041.256890 316.090204 1041.080987 C333.447290 1040.665826 350.812586 1040.543755 368.165216 1040.003960 C381.394800 1039.592339 394.606958 1038.648492 407.832575 1038.073174 C424.883692 1037.331475 441.935449 1036.504937 458.996118 1036.107476 C482.349329 1035.563165 505.710352 1035.238458 529.069483 1035.120904 C539.927637 1035.066338 550.789148 1035.731377 561.649622 1036.052056 C573.342676 1036.397271 585.034265 1036.885552 596.729944 1037.023858 C632.085047 1037.442193 667.441370 1037.810723 702.798303 1037.996514 C712.489954 1038.047417 722.201013 1037.627007 731.874841 1036.991876 C742.976587 1036.262994 754.033289 1034.842584 765.135828 1034.133965 C771.870935 1033.704156 773.309656 1034.882745 774.808008 1041.296441 C776.057459 1046.644952 778.228052 1052.507378 772.084924 1056.517876 C770.194483 1057.752007 767.810694 1058.230279 765.152918 1059.054742 z"/><path class="selected"  fill="#000000" opacity="1.000000" stroke="none" 
 	d="
M651.152918 513.054742 C611.636865 512.721490 572.621301 512.287530 533.604578 512.114861 C521.581568 512.061639 509.532373 512.366021 497.536646 513.145623 C482.902307 514.096734 468.316492 515.777337 453.700403 517.034173 C444.655725 517.811944 435.601373 518.814751 426.538141 518.976739 C396.356287 519.516290 366.168451 519.949151 335.982965 519.944756 C323.596369 519.942925 311.197382 518.895989 298.827509 518.000054 C288.725641 517.268487 278.665582 515.978265 268.574701 515.072503 C252.971521 513.671929 237.358454 512.381158 221.748438 511.057671 C213.695307 510.374810 205.632105 509.800469 197.587091 509.034356 C187.996240 508.121026 178.419214 507.061700 168.839166 506.038079 C168.238596 505.973992 167.517465 505.830315 167.102258 505.450555 C165.399820 503.893365 163.794183 502.230279 162.152918 500.606194 C164.513391 498.755730 166.694956 495.663506 169.268579 495.292779 C176.362299 494.270867 183.617227 494.293450 190.813623 494.075250 C204.169061 493.670403 217.541864 492.855279 230.882196 493.196648 C245.812219 493.578667 260.701166 495.379388 275.631433 495.980157 C299.169733 496.927300 322.725519 497.481561 346.278558 497.987054 C351.962152 498.109063 357.661066 497.162835 363.357721 497.091912 C396.208124 496.682244 429.062464 496.534661 461.910120 495.980950 C474.637354 495.766412 487.350122 494.709710 500.070642 494.059380 C507.095606 493.700127 514.120203 493.185296 521.149744 493.089715 C551.667444 492.674615 582.186609 492.152581 612.705652 492.127496 C638.225733 492.106500 663.747095 492.669854 689.266382 493.075677 C702.792444 493.290826 716.344873 493.276971 729.830835 494.181573 C742.952905 495.061883 756.211389 495.658196 768.814905 500.127618 C769.124170 500.237359 769.368738 501.856683 769.104395 502.055596 C765.743738 504.584527 767.189600 505.836053 770.153528 507.116021 C771.517664 507.705132 772.597681 508.952325 773.806543 509.901116 C772.299707 510.285638 770.813318 510.866448 769.283045 511.026055 C730.133264 515.109429 690.860010 512.154595 651.152918 513.054742 z"/><path class="selected"  fill="#000000" opacity="1.000000" stroke="none" 
 	d="
M336.152918 1130.054742 C305.165369 1130.054742 274.675134 1130.279717 244.191919 1129.917046 C235.099390 1129.809014 226.018060 1128.121392 216.953760 1126.981500 C215.623560 1126.814141 214.416803 1125.664727 213.152918 1124.969781 C214.115228 1123.535821 214.762506 1121.416314 216.101160 1120.801080 C219.584894 1119.199883 223.292047 1117.745660 227.054437 1117.158746 C235.584985 1115.828179 244.179041 1114.695611 252.789758 1114.135064 C267.488580 1113.177789 282.224451 1112.805352 296.936151 1112.024712 C306.497766 1111.517266 316.041498 1110.681207 325.597955 1110.065240 C336.647577 1109.353326 347.695001 1108.534356 358.756586 1108.095391 C379.133020 1107.286675 399.519312 1106.726373 419.901178 1106.052544 C429.592829 1105.731988 439.284998 1105.085381 448.974695 1105.125665 C463.498438 1105.186089 478.020105 1105.973809 492.542871 1105.981744 C506.232324 1105.989190 519.922327 1105.399102 533.611597 1105.051568 C546.135401 1104.733575 558.658228 1104.377618 571.181970 1104.057549 C584.704675 1103.711846 598.228784 1103.416314 611.750757 1103.045831 C622.276209 1102.757501 632.799097 1102.375787 643.323816 1102.058038 C654.847193 1101.710015 666.370813 1101.367730 677.895349 1101.060113 C691.251123 1100.703667 704.620813 1099.871880 717.960779 1100.202203 C730.891321 1100.522271 743.825220 1101.774346 756.675134 1103.308770 C759.036707 1103.590752 762.113794 1106.832208 762.888696 1109.321587 C764.007776 1112.916680 763.914087 1117.380914 758.915674 1119.032525 C755.536585 1120.149102 752.124475 1121.747125 748.663782 1121.930108 C736.323816 1122.582330 723.956201 1122.704034 711.600000 1123.059991 C700.908472 1123.368096 690.217798 1123.709161 679.527490 1124.058282 C669.835718 1124.374566 660.147241 1124.855401 650.453150 1125.028008 C627.102258 1125.443658 603.748316 1125.681451 580.396875 1126.068658 C564.706873 1126.328667 549.019678 1126.757745 533.330042 1127.045831 C513.143762 1127.416192 492.957056 1127.780572 472.769129 1128.040826 C442.753504 1128.427911 412.736048 1128.668877 382.720789 1129.076592 C367.363214 1129.285210 352.008783 1129.721368 336.152918 1130.054742 z"/><path class="selected"  fill="#000000" opacity="1.000000" stroke="none" 
 	d="
M553.152918 577.054742 C537.462915 577.388055 522.271753 577.676263 507.083338 578.071343 C497.722315 578.314813 488.365564 578.721429 479.006860 579.054742 C469.648157 579.387994 460.288965 579.707574 450.930994 580.058831 C442.571192 580.372613 434.209345 580.653130 425.854578 581.071038 C413.798395 581.674065 401.749689 582.424493 389.694177 583.041741 C381.838526 583.443963 373.979212 583.824029 366.116724 584.032830 C350.762079 584.440667 335.399164 585.132256 320.048670 584.949151 C301.492609 584.727959 282.945856 583.724236 264.395227 583.053521 C255.369531 582.727166 246.346338 582.196893 237.318323 582.099114 C223.476068 581.949334 209.869043 580.224053 196.390314 577.116814 C192.823358 576.294549 189.076807 576.266534 185.422418 575.798272 C184.460382 575.674981 183.534479 575.269647 182.592005 574.993829 C183.005960 573.620477 183.048700 571.890923 183.933191 570.968926 C184.914224 569.946343 186.616327 569.332391 188.088159 569.119500 C191.753656 568.589410 195.460657 568.272637 199.161890 568.078606 C207.016992 567.666924 214.876062 567.245049 222.738794 567.082696 C242.925348 566.665704 263.114649 566.378533 283.303125 566.057427 C304.990717 565.712457 326.679468 565.431817 348.366174 565.038873 C362.058222 564.790765 375.753381 564.538873 389.436212 564.007806 C400.665094 563.571954 411.874231 562.650201 423.098718 562.072625 C437.480432 561.332452 451.865198 560.625909 466.255396 560.083489 C478.774439 559.611565 491.303858 559.422662 503.826746 559.043023 C512.854028 558.769463 521.875452 558.238458 530.903955 558.083611 C555.256006 557.665887 579.611536 557.443719 603.963587 557.027215 C613.658350 556.861382 623.349146 556.083733 633.039453 556.125481 C647.897424 556.189507 662.758875 556.567803 677.608362 557.103692 C689.336878 557.526971 701.080286 558.064568 712.758508 559.169671 C720.427576 559.895379 728.010278 561.631768 735.589868 563.127190 C737.184168 563.441766 738.596033 564.680779 740.092005 565.493829 C738.848657 566.014153 737.536951 566.415582 736.378015 567.082635 C734.638269 568.084039 732.505090 568.919061 731.426721 570.450005 C728.799402 574.180047 725.256311 574.071709 721.354151 574.110406 C699.331995 574.328484 677.311670 574.729302 655.290491 575.052605 C631.936792 575.395501 608.581812 575.666314 585.229334 576.079644 C574.701441 576.265984 564.178247 576.721368 553.152918 577.054742 z"/><path class="selected"  fill="#000000" opacity="1.000000" stroke="none" 
 	d="
M400.152918 1268.054742 C409.007501 1267.721490 417.359674 1267.288018 425.717462 1267.089898 C431.220453 1266.959527 435.974024 1268.782525 439.723718 1273.077935 C443.867761 1277.825005 443.113794 1284.101983 437.259821 1286.241876 C431.157007 1288.472710 424.673059 1290.474786 418.252558 1290.861016 C402.773462 1291.792168 387.235559 1291.837945 371.718775 1292.030572 C338.553339 1292.442559 305.386347 1292.886895 272.219751 1292.906060 C266.068079 1292.909722 259.891535 1291.099786 253.777185 1289.874078 C251.893152 1289.496270 251.213007 1282.963677 252.815607 1280.958550 C253.712366 1279.836480 255.164667 1279.154473 256.043512 1278.023126 C257.531427 1276.107354 262.275446 1276.351128 260.152918 1271.995416 C261.630579 1271.348565 263.128870 1270.110528 264.582300 1270.161065 C269.733179 1270.340386 274.860620 1271.148248 280.011865 1271.369195 C288.632532 1271.738946 297.264612 1271.841607 305.892023 1272.052667 C306.557703 1272.069024 307.224481 1272.068780 307.890161 1272.052667 C321.573541 1271.722100 335.260889 1271.504571 348.938989 1271.023370 C363.987726 1270.493951 379.029199 1269.747613 394.070276 1269.021539 C395.942346 1268.931207 397.792566 1268.387994 400.152918 1268.054742 z"/><path class="selected"  fill="#000000" opacity="1.000000" stroke="none" 
 	d="
M321.152918 635.054742 C330.981836 635.054742 340.318506 634.828912 349.636438 635.149163 C354.361719 635.311578 359.121149 636.168511 363.739465 637.248772 C367.825342 638.204583 368.200647 641.472955 366.349268 645.508233 C362.413812 654.086114 355.548670 656.142754 346.903955 656.143975 C332.882044 656.145989 318.855829 656.597955 304.839472 657.088555 C290.117395 657.603814 275.401575 658.325677 260.689020 659.075188 C249.631952 659.638482 238.556238 661.219170 227.539514 660.846856 C213.403162 660.369134 199.304743 658.498956 185.232202 656.864922 C183.972238 656.718621 182.877283 653.973565 182.066019 652.264275 C181.925821 651.968865 183.491892 650.353021 184.450891 650.131707 C189.496118 648.967278 194.571192 647.867730 199.688410 647.092461 C211.474146 645.306878 223.277948 643.627251 235.098657 642.091485 C241.792841 641.221734 248.539026 640.759637 255.254633 640.046441 C267.532739 638.742364 279.783746 637.105279 292.088556 636.160210 C299.541071 635.587823 307.074426 636.124261 314.569116 636.008965 C316.601465 635.977715 318.625238 635.388116 321.152918 635.054742 z"/><path class="selected"  fill="#000000" opacity="1.000000" stroke="none" 
 	d="
M670.152918 315.054742 C656.405603 315.388055 643.157434 315.689385 629.911340 316.065301 C620.051660 316.345116 610.193506 316.689721 600.337000 317.065209 C592.975855 317.345605 585.616358 318.044793 578.259668 317.999230 C544.909631 317.792779 511.560327 317.426049 478.211633 317.041680 C455.191065 316.776360 432.171442 316.412072 409.152094 316.047204 C390.463373 315.750970 371.768671 315.592309 353.091028 314.952630 C345.781763 314.702325 338.915186 312.321038 333.396021 307.069390 C333.093073 306.781152 332.588556 306.704766 332.177881 306.529778 C332.612085 306.371392 333.042169 306.200372 333.481256 306.056847 C335.535974 305.385400 337.565393 304.261224 339.654352 304.135033 C348.334741 303.610680 357.062006 303.720483 365.718225 302.973290 C377.356378 301.968652 388.940241 300.345788 400.558496 299.090661 C402.864038 298.841607 405.220392 299.096581 407.551813 299.047936 C422.908167 298.727746 438.262720 298.244378 453.620569 298.093163 C470.669580 297.925286 487.722498 297.940301 504.771692 298.098657 C514.632105 298.190209 524.486414 298.807671 534.347009 299.035729 C551.700708 299.437096 569.058191 299.678033 586.412134 300.070458 C597.438379 300.319817 608.466028 300.610375 619.484339 301.084069 C632.042200 301.623986 644.653040 301.829369 657.122949 303.230340 C667.220972 304.364800 677.145227 307.050195 687.140711 309.076531 C687.444422 309.138085 687.682886 309.522179 687.951746 309.755914 C687.493189 309.855492 687.023889 309.920647 686.577722 310.059960 C681.267420 311.718499 675.960657 313.388055 670.152918 315.054742 z"/><path class="selected"  fill="#000000" opacity="1.000000" stroke="none" 
 	d="
M377.152918 261.054742 C367.357416 259.759271 358.048364 258.548730 348.782282 257.069054 C347.514063 256.866540 346.459924 255.323418 345.306665 254.400994 C346.649164 253.285607 347.938806 251.275201 349.342218 251.192376 C364.384424 250.304589 379.439600 249.546746 394.501581 249.114037 C405.158136 248.807885 415.832422 248.927544 426.495386 249.086907 C439.857630 249.286584 453.216577 249.711724 466.576502 250.057580 C478.937158 250.377618 491.295496 250.844933 503.658045 251.029595 C531.348657 251.443200 559.048242 251.449029 586.730188 252.164056 C601.663233 252.549828 616.575342 253.951226 631.481958 255.089440 C642.246546 255.911401 652.997034 256.956994 663.734339 258.087151 C671.669763 258.922417 679.582788 259.992516 687.481958 261.124627 C688.611292 261.286492 689.629175 262.356255 690.638208 263.088921 C690.790491 263.199487 690.698389 264.041497 690.572534 264.081323 C688.357507 264.781976 686.143762 265.854791 683.882593 265.977410 C674.365137 266.493584 664.833277 266.960473 655.304407 267.008874 C629.141687 267.141808 602.977136 266.926324 576.814722 267.088036 C545.789148 267.279778 514.765039 267.961022 483.740503 267.943963 C470.184656 267.936486 456.621607 266.850518 443.076319 266.018456 C429.482141 265.183404 415.904382 264.076196 402.322595 263.046838 C394.096277 262.423364 385.875940 261.721398 377.152918 261.054742 z"/><path class="selected"  fill="#000000" opacity="1.000000" stroke="none" 
 	d="
M278.902918 232.304742 C286.806360 239.735711 290.417291 248.491387 291.303766 259.047204 C292.920252 278.295495 286.880487 294.580712 275.283777 309.661034 C267.614588 319.634026 258.915827 328.210900 248.529321 335.142724 C240.736994 340.343194 231.935266 344.063104 222.762598 343.705224 C215.031336 343.403558 207.249353 340.542230 199.791010 337.948052 C186.373926 333.281274 178.524912 322.649407 171.341882 310.956414 C160.248865 292.898522 165.203150 265.633538 177.056955 250.431969 C185.596582 239.480584 195.825098 231.078271 209.353754 228.646172 C223.631403 226.079461 237.397791 220.555474 252.233057 221.016808 C262.509607 221.336327 271.098566 225.379266 278.902918 232.304742 M259.652918 309.054742 C270.632898 297.944878 276.798792 284.732446 279.386377 269.195397 C281.661157 255.536614 278.626062 244.520989 268.180933 235.665551 C263.290918 231.519799 257.366266 229.053063 250.951593 229.174828 C244.387720 229.299432 237.803369 230.134057 231.300012 231.128991 C225.267023 232.051934 218.891046 233.021355 218.139124 241.128899 C218.112512 241.416039 217.881891 241.684228 217.746393 241.961266 C217.548578 241.439202 217.238977 240.931390 217.170496 240.392876 C216.590601 235.830834 214.453516 234.747582 210.573023 237.144860 C205.263452 240.425011 199.857599 243.569207 194.715875 247.096551 C186.795130 252.530267 179.508249 258.475579 176.337732 268.254388 C173.836923 275.967584 174.172739 283.763574 175.357477 291.382501 C176.317102 297.553887 178.133753 304.002099 181.257166 309.340600 C187.553461 320.102105 198.240991 325.139916 209.705408 329.385156 C220.941950 333.546044 231.117426 333.028741 240.509424 325.951684 C247.100214 320.985406 252.964288 315.054742 259.652918 309.054742 z"/><path class="selected"  fill="#000000" opacity="1.000000" stroke="none" 
 	d="
M230.902918 261.804742 C239.224573 255.721398 247.310297 249.907403 255.360163 244.044122 C258.118707 242.034875 260.619440 242.851006 261.817713 245.457024 C262.628992 247.221276 262.751215 250.331017 261.703119 251.736474 C257.954401 256.763451 253.971124 261.752648 249.361231 265.975152 C234.410242 279.669793 219.942713 293.681634 209.952600 311.663018 C207.197290 316.622277 199.472742 319.088403 196.699182 315.807885 C193.549066 312.082085 191.214014 307.500909 189.261102 302.973901 C187.131616 298.037530 185.842279 292.738244 184.203928 287.591699 C184.108057 287.290521 184.100260 286.926904 184.163553 286.615105 C184.599085 284.469140 185.064493 282.329217 185.520288 280.187371 C187.064508 281.594689 188.915552 282.786248 190.088800 284.454461 C192.503259 287.887536 194.652002 291.520776 196.721582 295.178307 C198.029169 297.489190 199.571741 297.288384 200.960718 295.685601 C208.796930 286.643121 216.495050 277.481042 224.322443 268.430871 C226.277033 266.170922 228.534601 264.173058 230.902918 261.804742 z"/></svg>