<?xml version="1.0" encoding="utf-8"?><!DOCTYPE svg PUBLIC "-//W3C//DTD SVG 1.1//EN" "http://www.w3.org/Graphics/SVG/1.1/DTD/svg11.dtd"><svg version="1.1" id="Contours" xmlns="http://www.w3.org/2000/svg" xmlns:xlink="http://www.w3.org/1999/xlink" x="0px" y="0px" width="1989.074829px" height="1989.074829px" viewBox="0.000000 -0.000000 1989.074829 1370.663208" enable-background="new 0 0 1989.074829 1989.074829" xml:space="preserve" stroke="black" fill="none" stroke-linecap='round' stroke-linejoin='round'><path class="selected"  fill="#000000" opacity="1.000000" stroke="none" 
 	d="
M1953.716805 638.505370 C1953.966805 625.922423 1953.845833 613.588072 1953.995247 601.256957 C1954.219734 582.727660 1954.617195 564.200316 1954.971687 545.672789 C1955.281502 529.477599 1955.638802 513.283324 1955.965340 497.088469 C1956.305305 480.227232 1956.600349 463.365019 1956.977913 446.504637 C1957.254768 434.141875 1957.652718 421.781859 1957.961800 409.419737 C1958.316780 395.225493 1958.625740 381.030119 1958.969002 366.835570 C1959.292000 353.473845 1959.628548 340.112425 1959.968147 326.751097 C1960.295052 313.889433 1960.620003 301.027709 1960.970711 288.166655 C1961.285164 276.637969 1961.639290 265.110289 1961.965340 253.581908 C1962.305428 241.553893 1962.644295 229.525847 1962.963875 217.497283 C1963.310188 204.469466 1963.621956 191.440733 1963.970222 178.412978 C1964.287361 166.551024 1964.637093 154.689909 1964.965828 142.828261 C1965.303719 130.633528 1965.614143 118.438017 1965.972664 106.243895 C1966.277351 95.881476 1966.646126 85.520949 1966.963387 75.158881 C1967.311531 63.797789 1967.479500 52.428610 1968.016243 41.076682 C1968.437141 32.174841 1969.188850 23.283652 1970.005867 14.407277 C1970.549202 8.505383 1965.608894 10.091595 1963.225349 9.955399 C1954.421150 9.452321 1945.570686 9.755370 1936.737679 9.755370 C1921.404793 9.755370 1906.071053 9.646161 1890.739388 9.778796 C1861.544319 10.031357 1832.350594 10.419810 1803.156258 10.756003 C1774.461922 11.086434 1745.767830 11.428072 1717.073372 11.753708 C1687.045906 12.094475 1657.017830 12.391999 1626.990730 12.765147 C1604.128914 13.049250 1581.268806 13.464930 1558.406990 13.744845 C1527.713264 14.120654 1497.018684 14.431199 1466.324348 14.752877 C1433.463631 15.097258 1400.602547 15.415444 1367.741829 15.757271 C1336.547493 16.081761 1305.353279 16.408902 1274.159187 16.759274 C1246.131355 17.074084 1218.103889 17.422038 1190.076180 17.755370 C1162.048592 18.088702 1134.020638 18.399233 1105.993416 18.762488 C1082.965096 19.060950 1059.938484 19.498770 1036.909676 19.738074 C998.716255 20.134970 960.521553 20.399157 922.327827 20.762499 C890.966621 21.060843 859.605965 21.416518 828.245125 21.756964 C798.217476 22.082934 768.189827 22.413390 738.162361 22.757887 C710.134590 23.079443 682.107246 23.441958 654.079292 23.750136 C621.718697 24.105959 589.357491 24.413352 556.996773 24.757906 C526.802376 25.079390 496.608345 25.425627 466.414040 25.754374 C435.386513 26.092192 404.358803 26.414366 373.331367 26.757594 C344.136971 27.080554 314.943123 27.460200 285.748390 27.745883 C247.721413 28.117999 209.693352 28.379378 171.666878 28.791655 C164.135811 28.873309 156.607658 29.747256 149.081841 29.697909 C119.719963 29.505393 90.359123 29.120528 60.999130 28.716902 C57.133484 28.663760 53.254684 28.231368 49.423172 27.685473 C47.880592 27.465697 46.448944 26.467310 44.966805 25.823279 C46.294189 24.467310 47.496475 22.940318 49.007347 21.835204 C49.658791 21.358714 50.948883 21.755370 51.948853 21.755370 C61.948517 21.755370 71.963295 22.106024 81.944443 21.676104 C98.375595 20.968371 114.786812 19.784380 131.202843 18.744280 C140.763573 18.138522 150.307777 17.138461 159.876244 16.818112 C176.563393 16.259436 193.262733 15.895255 209.958534 15.825724 C220.485207 15.781882 231.016685 16.372633 241.541634 16.789357 C244.245735 16.896422 246.939064 17.384198 249.623207 17.790247 C250.106392 17.863345 250.520699 18.391707 250.966805 18.709876 C250.384377 19.058371 249.821144 19.670153 249.216499 19.714301 C243.693184 20.117537 238.165474 20.638491 232.633690 20.710288 C221.136009 20.859511 209.633141 20.625735 198.135963 20.793501 C187.605110 20.947173 177.076714 21.366309 166.551765 21.782832 C162.350044 21.949118 158.157814 22.393801 153.967949 22.783640 C153.283089 22.847365 152.632973 23.284888 151.966805 23.549654 C152.662498 23.951563 153.354942 24.696539 154.054375 24.703162 C162.553322 24.783606 171.053322 24.755370 179.553032 24.755370 C186.386147 24.755370 193.220848 24.850890 200.052040 24.736331 C216.414421 24.461916 232.774467 24.051409 249.136665 23.764662 C270.330544 23.393240 291.524940 23.037001 312.720314 22.767764 C342.804482 22.385611 372.890144 22.122084 402.974342 21.744269 C425.002937 21.467619 447.029457 21.021079 469.058266 20.770941 C503.585030 20.378893 538.113167 20.111533 572.640327 19.748248 C601.001717 19.449839 629.362434 19.091757 657.723396 18.754500 C685.417793 18.425166 713.112068 18.088442 740.806404 17.755446 C768.557930 17.421771 796.309029 17.054678 824.060982 16.763926 C859.254707 16.395209 894.449348 16.111121 929.643135 15.748394 C958.671150 15.449215 987.698555 15.099125 1016.726082 14.752312 C1043.420540 14.433375 1070.114876 14.089520 1096.809212 13.755145 C1123.336922 13.422858 1149.864265 13.051413 1176.392464 12.764660 C1210.752815 12.393246 1245.114021 12.102911 1279.474739 11.751128 C1310.059578 11.438000 1340.644295 11.083987 1371.229012 10.756672 C1402.923225 10.417489 1434.617561 10.098259 1466.311653 9.752581 C1495.672737 9.432347 1525.033211 9.070387 1554.394417 8.760199 C1587.921761 8.405995 1621.449593 8.096447 1654.976936 7.753121 C1686.504646 7.430272 1718.032234 7.110369 1749.559456 6.748650 C1775.754158 6.448115 1801.948128 6.073075 1828.142708 5.759531 C1857.503548 5.408091 1886.865364 5.142397 1916.225227 4.732380 C1930.588631 4.531794 1944.964119 4.381781 1959.302742 3.619399 C1965.539314 3.287802 1971.684456 1.394309 1977.898323 0.376959 C1979.870613 0.054068 1982.121712 -0.270375 1983.909431 0.359243 C1987.061531 1.469366 1989.716560 3.559462 1988.937752 7.570824 C1988.271004 11.005124 1982.380013 14.205668 1978.069710 12.595950 C1973.297371 10.813794 1973.844124 12.429986 1973.832527 16.261582 C1973.747078 44.623312 1973.355232 72.984763 1972.937141 101.344504 C1972.789192 111.375494 1972.181648 121.399214 1971.991096 131.430174 C1971.578621 153.123213 1971.332893 174.819365 1970.956062 196.513152 C1970.677742 212.542159 1970.293465 228.569304 1969.968758 244.597533 C1969.626961 261.458739 1969.310432 278.320464 1968.963753 295.181548 C1968.644661 310.709898 1968.322273 326.238280 1967.959969 341.765685 C1967.659920 354.627959 1967.278328 367.488310 1966.972420 380.350462 C1966.614876 395.377959 1966.318733 410.406950 1965.961067 425.434477 C1965.655037 438.296629 1965.303596 451.157683 1964.965950 464.019072 C1964.636971 476.547362 1964.307014 489.075652 1963.964851 501.603575 C1963.640877 513.465331 1963.302010 525.326781 1962.966316 537.188231 C1962.635262 548.883177 1962.287117 560.577574 1961.970222 572.272948 C1961.621712 585.134032 1961.300179 597.995787 1960.966805 610.857298 C1960.633553 623.718810 1960.291634 636.580077 1959.969124 649.441893 C1959.625618 663.136473 1959.303352 676.831481 1958.965950 690.526244 C1958.636726 703.887755 1958.296761 717.249144 1957.967659 730.610655 C1957.630379 744.305418 1957.298592 758.000182 1956.967293 771.695067 C1956.631844 785.556456 1956.296883 799.417967 1955.967659 813.279479 C1955.630379 827.474181 1955.321297 841.669615 1954.960335 855.863646 C1954.658577 867.725951 1954.280159 879.586424 1953.971931 891.448546 C1953.616219 905.142821 1953.300179 918.838011 1952.966805 932.532835 C1952.633308 946.227660 1952.300179 959.922423 1951.966805 973.617247 C1951.633430 987.312071 1951.309700 1001.007079 1950.964119 1014.701537 C1950.643684 1027.396727 1950.303596 1040.091429 1949.965828 1052.786131 C1949.636971 1065.147826 1949.279427 1077.508666 1948.972298 1089.870848 C1948.615486 1104.231688 1948.309212 1118.593871 1947.964119 1132.954955 C1947.643074 1146.316771 1947.288826 1159.677855 1946.969856 1173.039671 C1946.623055 1187.567381 1946.303108 1202.095946 1945.965950 1216.623900 C1945.636482 1230.818846 1945.306282 1245.013548 1944.964973 1259.208251 C1944.639900 1272.736449 1944.348763 1286.265990 1943.932503 1299.791502 C1943.828743 1303.160399 1943.166389 1306.509642 1942.999031 1309.879637 C1942.767708 1314.541625 1942.570686 1319.198241 1945.940681 1323.157103 C1949.551155 1327.398436 1944.899300 1329.781981 1943.381599 1332.727782 C1941.815681 1335.767210 1939.777840 1337.280516 1936.442146 1333.982176 C1934.974739 1332.531126 1932.175667 1331.971190 1929.932381 1331.840086 C1920.749397 1331.303832 1911.549812 1330.963866 1902.351814 1330.791258 C1893.521980 1330.625365 1884.684822 1330.648070 1875.853767 1330.778197 C1858.491219 1331.034056 1841.130501 1331.407103 1823.769539 1331.759886 C1808.407600 1332.071898 1793.046883 1332.433226 1777.685066 1332.752318 C1760.990730 1333.099120 1744.295174 1333.394408 1727.601326 1333.764281 C1714.572151 1334.052977 1701.545906 1334.479613 1688.516365 1334.741698 C1669.322762 1335.127806 1650.126717 1335.391356 1630.932991 1335.765257 C1616.403938 1336.048216 1601.876595 1336.426390 1587.348396 1336.754027 C1572.320442 1337.093016 1557.292244 1337.424925 1542.264046 1337.754637 C1526.902718 1338.091551 1511.541389 1338.429076 1496.179817 1338.753539 C1479.985237 1339.095458 1463.790535 1339.430174 1447.595711 1339.753417 C1430.401131 1340.096312 1413.206306 1340.420897 1396.011604 1340.755736 C1378.983528 1341.087523 1361.955574 1341.419554 1344.927498 1341.756224 C1328.232796 1342.086180 1311.537971 1342.415770 1294.843391 1342.757323 C1278.981819 1343.081908 1263.120369 1343.408446 1247.259285 1343.759398 C1233.063972 1344.073607 1218.869148 1344.403807 1204.674934 1344.760863 C1192.479500 1345.067503 1180.285530 1345.436156 1168.090218 1345.751585 C1154.562508 1346.101561 1141.033699 1346.407591 1127.505989 1346.759642 C1115.477303 1347.072630 1103.451180 1347.513670 1091.420906 1347.735594 C1069.561043 1348.139037 1047.698128 1348.380492 1025.837898 1348.769896 C1011.475105 1349.025511 997.114998 1349.431029 982.753304 1349.752806 C967.392159 1350.097167 952.030220 1350.407958 936.669258 1350.759642 C922.973946 1351.073119 909.279854 1351.434691 895.584663 1351.752074 C880.556892 1352.100340 865.527840 1352.395384 850.500618 1352.763915 C838.638069 1353.054930 826.778328 1353.462767 814.915596 1353.745482 C799.221809 1354.119627 783.525948 1354.404418 767.831734 1354.760863 C754.302986 1355.068114 740.775826 1355.444212 727.247078 1355.749632 C711.386238 1356.107787 695.523994 1356.405638 679.663094 1356.760252 C665.801094 1357.070189 651.940498 1357.440794 638.078499 1357.750487 C622.217598 1358.104979 606.355049 1358.390257 590.494637 1358.765624 C578.631905 1359.046385 566.772896 1359.504271 554.909431 1359.737059 C534.549446 1360.136839 514.187019 1360.402953 493.826180 1360.761107 C476.464302 1361.066405 459.103706 1361.440550 441.741920 1361.750487 C421.881020 1362.104857 402.019386 1362.417479 382.158241 1362.756590 C362.963509 1363.084105 343.768806 1363.414305 324.574379 1363.757811 C306.546211 1364.080321 288.517952 1364.401854 270.490486 1364.761595 C255.295113 1365.064696 240.101662 1365.464598 224.905907 1365.744872 C204.545448 1366.120604 184.182320 1366.727171 163.822823 1366.641966 C151.430138 1366.590086 139.041710 1365.430052 126.652245 1364.751708 C120.956001 1364.439818 115.265358 1364.002684 109.566078 1363.774291 C99.540543 1363.372923 89.476822 1362.419798 79.490311 1362.919920 C66.176331 1363.586913 52.920647 1365.419676 39.640442 1366.756835 C36.444141 1367.078734 33.251560 1367.437987 30.054523 1367.752196 C23.165276 1368.429442 16.271107 1369.058348 9.385918 1369.774046 C7.344797 1369.986327 5.328220 1370.651610 3.297863 1370.663207 C2.201370 1370.669432 1.099480 1369.733153 0.000000 1369.222167 C0.992683 1368.399901 1.866655 1367.182372 3.003742 1366.840819 C5.109150 1366.208495 7.358292 1365.971556 9.565788 1365.780150 C13.942123 1365.400755 16.838646 1362.506590 16.955254 1358.022704 C17.320038 1343.995238 17.710831 1329.968016 17.949394 1315.938231 C18.346600 1292.578124 18.636257 1269.216185 18.966038 1245.855101 C19.302864 1221.994017 19.635292 1198.132811 19.966301 1174.271727 C20.301933 1150.077269 20.609726 1125.882445 20.974239 1101.688475 C21.270973 1081.993285 21.656311 1062.299437 21.960865 1042.604369 C22.319530 1019.410277 22.623222 996.215331 22.969810 973.021117 C23.289013 951.659667 23.639553 930.298705 23.965134 908.937376 C24.305950 886.576231 24.628620 864.214964 24.968189 841.853819 C25.295109 820.325865 25.642513 798.798216 25.964344 777.270140 C26.308594 754.242491 26.641926 731.214659 26.964500 708.186644 C27.308083 683.659056 27.621159 659.130980 27.970451 634.603453 C28.286526 612.408690 28.641273 590.214476 28.964672 568.019774 C29.307499 544.492125 29.615242 520.963866 29.972363 497.436461 C30.278900 477.241454 30.661938 457.047637 30.959530 436.852507 C31.323418 412.158537 31.655182 387.464018 31.961140 362.769255 C32.318718 333.908598 32.599689 305.046904 32.978073 276.186553 C33.253773 255.157897 33.607296 234.130156 33.975121 213.102873 C34.267174 196.407439 34.633469 179.713301 34.966805 163.018599 C35.300133 146.323897 35.655296 129.629591 35.961109 112.934386 C36.318802 93.406889 36.579002 73.877440 36.997360 54.351317 C37.137321 47.818800 37.596554 41.291602 38.004395 34.767886 C38.069744 33.722575 38.420010 32.554724 39.021553 31.719290 C39.751453 30.705599 40.887947 29.984675 41.848518 29.137080 C42.221275 30.315966 42.928131 31.497706 42.918083 32.673323 C42.645790 64.534712 42.314339 96.395636 41.962555 128.256300 C41.649422 156.617507 41.307495 184.978407 40.964664 213.339262 C40.641285 240.090941 40.339127 266.842955 39.953259 293.593779 C39.690796 311.789427 39.275467 329.982878 38.973186 348.178008 C38.612774 369.872130 38.306126 391.567076 37.965080 413.261504 C37.639751 433.956206 37.310574 454.650847 36.963737 475.345183 C36.644821 494.373381 36.276516 513.400816 35.972927 532.429259 C35.613518 554.956664 35.298218 577.484801 34.967342 600.012633 C34.631573 622.873839 34.292549 645.734862 33.968864 668.596190 C33.626308 692.790526 33.309074 716.985167 32.964199 741.179442 C32.643074 763.707457 32.305904 786.235289 31.965145 808.763060 C31.639507 830.291014 31.293095 851.818663 30.968731 873.346678 C30.626793 896.041075 30.297283 918.735655 29.967613 941.430235 C29.630684 964.624632 29.309464 987.819335 28.964085 1011.013670 C28.643520 1032.541625 28.286106 1054.069212 27.970554 1075.597289 C27.620811 1099.458128 27.301949 1123.319579 26.966290 1147.180663 C26.635315 1170.708495 26.314793 1194.236571 25.962429 1217.764037 C25.649994 1238.625609 25.277554 1259.486327 24.972687 1280.348021 C24.614258 1304.875365 24.275402 1329.403197 23.981312 1353.931273 C23.888447 1361.676268 24.598915 1362.051268 32.279690 1361.803465 C47.635872 1361.307982 62.999794 1361.013793 78.362648 1360.772337 C103.556091 1360.376341 128.751991 1360.137084 153.945366 1359.736693 C168.475090 1359.505858 183.001579 1359.075316 197.530052 1358.759032 C213.557777 1358.409911 229.586143 1358.091551 245.614113 1357.754637 C261.308937 1357.424803 277.003883 1357.099486 292.698311 1356.751952 C307.060097 1356.433959 321.421730 1356.106688 335.782600 1355.749876 C348.144753 1355.442748 360.505379 1355.074828 372.867348 1354.759154 C386.561714 1354.409422 400.256783 1354.085448 413.951698 1353.756224 C427.979744 1353.418944 442.007637 1353.076415 456.036110 1352.758666 C471.397224 1352.410765 486.759010 1352.094481 502.120247 1351.753783 C516.815193 1351.427855 531.509529 1351.075438 546.204659 1350.758910 C562.399055 1350.409911 578.594185 1350.093871 594.788704 1349.753783 C610.316963 1349.427611 625.844490 1349.066527 641.373116 1348.761107 C659.567268 1348.403197 677.762337 1348.090086 695.956978 1347.755126 C713.984993 1347.423338 732.013008 1347.090941 750.040962 1346.754515 C767.735664 1346.424437 785.430428 1346.095946 803.124886 1345.753172 C819.819771 1345.429686 836.513985 1345.069457 853.209175 1344.760375 C872.403389 1344.405272 891.598518 1344.102171 910.792854 1343.751341 C927.987862 1343.437132 945.182625 1343.103758 962.376900 1342.750853 C977.572151 1342.438963 992.766365 1342.080199 1007.961311 1341.757689 C1024.155891 1341.414183 1040.350716 1341.087401 1056.545418 1340.755736 C1072.906746 1340.420653 1089.267952 1340.078124 1105.629524 1339.758299 C1123.323982 1339.412230 1141.018684 1339.077635 1158.713631 1338.758299 C1177.907967 1338.411742 1197.103279 1338.106566 1216.297371 1337.749754 C1232.825935 1337.442748 1249.353767 1337.098998 1265.881477 1336.752074 C1281.076546 1336.433348 1296.271004 1336.083128 1311.465828 1335.757079 C1327.327156 1335.416625 1343.188850 1335.098265 1359.049934 1334.752562 C1373.745003 1334.432250 1388.439583 1334.088744 1403.134285 1333.755370 C1417.829109 1333.421996 1432.523811 1333.088744 1447.218636 1332.755370 C1461.913460 1332.421996 1476.607674 1332.066893 1491.303108 1331.761107 C1508.497322 1331.403319 1525.692268 1331.086058 1542.886971 1330.756102 C1560.415047 1330.419554 1577.943245 1330.101073 1595.470955 1329.751708 C1611.332771 1329.435668 1627.193977 1329.092894 1643.055305 1328.754149 C1658.416878 1328.426268 1673.777840 1328.077635 1689.139656 1327.758421 C1705.833992 1327.411742 1722.529305 1327.104002 1739.223518 1326.750609 C1753.918709 1326.439452 1768.612923 1326.079833 1783.307869 1325.757811 C1799.002449 1325.413695 1814.698006 1325.116698 1830.391853 1324.746214 C1842.587776 1324.458251 1854.781136 1324.055907 1866.976936 1323.763793 C1882.337532 1323.395995 1897.711067 1323.342040 1913.055550 1322.639037 C1919.839363 1322.328368 1926.654671 1321.124144 1933.261726 1319.524657 C1935.175423 1319.061278 1937.704109 1315.862425 1937.768074 1313.848265 C1938.425423 1293.164061 1938.616829 1272.465209 1938.971809 1251.770995 C1939.281013 1233.742552 1939.598030 1215.714110 1939.978767 1197.687132 C1940.250374 1184.824339 1940.641853 1171.964110 1940.964485 1159.102416 C1941.307991 1145.407835 1941.639900 1131.713011 1941.964973 1118.018065 C1942.306160 1103.656737 1942.630379 1089.295043 1942.967659 1074.933714 C1943.297127 1060.905394 1943.650398 1046.877806 1943.962410 1032.849120 C1944.315193 1016.988158 1944.622566 1001.126219 1944.969978 985.265135 C1945.288338 970.736754 1945.637947 956.208983 1945.965584 941.680785 C1946.304451 926.652831 1946.630745 911.624510 1946.967659 896.596495 C1947.297249 881.901671 1947.613167 867.206481 1947.973152 852.512389 C1948.276009 840.150084 1948.662605 827.789793 1948.959358 815.427428 C1949.323982 800.233397 1949.629280 785.038023 1949.968025 769.843382 C1950.295662 755.148497 1950.632088 740.453795 1950.967293 725.759032 C1951.298714 711.230895 1951.568001 696.700926 1951.985237 682.175292 C1952.401131 667.699706 1952.966805 653.228514 1953.716805 638.505370 z"/><path class="selected"  fill="#000000" opacity="1.000000" stroke="none" 
 	d="
M1638.216805 748.505370 C1627.953499 740.242003 1618.022224 732.123412 1607.904793 724.243651 C1596.850594 715.634276 1585.634285 707.232726 1574.470222 698.764708 C1559.382820 687.320799 1544.301643 675.868529 1529.169075 664.484557 C1523.047127 659.879027 1523.085091 660.097289 1516.739143 664.440001 C1495.068367 679.270079 1473.230476 693.857420 1451.630745 708.789671 C1424.781502 727.350890 1398.047371 746.080138 1371.373299 764.892455 C1349.160896 780.558104 1327.018562 796.326842 1305.010139 812.277342 C1286.892586 825.407835 1268.984383 838.828246 1251.051643 852.211607 C1244.776253 856.895018 1238.892708 862.120238 1232.486824 866.607604 C1225.958504 871.180663 1227.057137 878.149291 1226.010506 884.466307 C1225.432869 887.954161 1225.396492 891.529295 1224.905647 895.035643 C1224.765755 896.034728 1224.107430 897.246275 1223.301765 897.806395 C1221.734016 898.896422 1219.893929 899.594725 1218.166756 900.455321 C1217.955940 898.532897 1217.463020 896.591368 1217.590828 894.691649 C1217.892220 890.211180 1218.635872 885.759032 1218.891853 881.277770 C1218.988899 879.577696 1218.493050 878.035521 1216.113289 880.011534 C1209.962166 885.119383 1203.664070 890.059935 1197.263069 894.851256 C1195.457893 896.202452 1193.142464 896.955016 1190.958382 897.667296 C1190.287849 897.885924 1189.276009 897.057860 1188.420540 896.709166 C1188.825081 896.002135 1189.067757 895.093810 1189.658577 894.618346 C1197.770393 888.091979 1205.788216 881.434386 1214.134407 875.219298 C1218.749763 871.782530 1219.326912 866.859984 1219.858040 862.071837 C1220.895149 852.723021 1221.102058 843.284667 1222.017342 833.919005 C1223.138191 822.451231 1224.670174 811.024168 1225.955330 799.571715 C1227.011482 790.159483 1227.768929 780.709532 1229.018684 771.324278 C1230.462044 760.485594 1232.410774 749.714964 1233.931160 738.885497 C1235.109627 730.492003 1235.828621 722.033873 1237.006233 713.640257 C1238.148811 705.497130 1239.708626 697.413329 1240.908577 689.277403 C1241.748543 683.581786 1242.180916 677.826720 1242.992561 672.126219 C1244.221199 663.495848 1245.715218 654.902892 1246.916389 646.269042 C1247.755623 640.237853 1248.146736 634.144103 1248.998909 628.115111 C1250.552620 617.123534 1252.393562 606.172484 1253.936287 595.179442 C1255.091438 586.949278 1255.879280 578.668028 1256.990120 570.431029 C1258.221199 561.303343 1259.674202 552.205931 1260.945564 543.083434 C1261.411385 539.740233 1261.726448 536.369078 1261.946541 532.999938 C1262.350838 526.809691 1262.728401 520.614867 1262.946297 514.415892 C1263.351204 502.890501 1263.665535 491.361601 1263.949959 479.832457 C1264.054207 475.611449 1263.504158 471.323607 1264.061287 467.174803 C1265.294319 457.991911 1258.847054 453.820220 1252.966927 449.337401 C1247.578499 445.229491 1241.867073 441.547057 1236.367439 437.580901 C1235.695198 437.096190 1234.949837 435.850493 1235.144905 435.253996 C1235.365608 434.579741 1236.755257 433.686491 1237.383553 433.851561 C1240.057991 434.554289 1242.971565 435.127196 1245.185921 436.641905 C1250.058113 439.974608 1254.521370 443.900115 1259.247200 447.456816 C1260.148689 448.135405 1261.489265 448.230498 1262.627327 448.594847 C1262.735847 447.477049 1263.071663 446.325499 1262.911751 445.247557 C1262.356453 441.506163 1261.403328 437.812834 1261.029182 434.058592 C1260.643318 430.185729 1258.429817 427.512541 1255.111824 426.917540 C1249.859383 425.975585 1244.419930 425.953459 1239.054207 425.859282 C1237.850838 425.838164 1236.650276 427.179778 1235.400032 427.795775 C1234.501961 428.238280 1233.523201 428.517180 1232.580452 428.869048 C1232.524788 427.515563 1231.885384 425.481810 1232.522224 424.935179 C1234.499031 423.238402 1236.936775 421.004332 1239.238411 420.954558 C1247.310310 420.779906 1255.411385 421.273894 1263.478889 421.835051 C1267.896004 422.142333 1272.265633 423.646483 1276.661140 423.667479 C1310.158455 423.827818 1343.656868 423.755370 1377.154915 423.755370 C1377.988167 423.755370 1378.843880 423.869536 1379.646492 423.712645 C1380.129158 423.618224 1380.529427 423.101531 1380.966805 422.774657 C1380.542366 422.434905 1380.163460 421.929167 1379.682014 421.796843 C1379.062141 421.626433 1378.359505 421.775053 1377.693611 421.752440 C1367.998787 421.423399 1358.302864 421.116362 1348.611336 420.709319 C1347.715950 420.671690 1346.847664 419.988646 1345.966805 419.605284 C1346.809700 418.655333 1347.662849 416.870512 1348.493782 416.880797 C1360.690559 417.031828 1372.884407 417.423338 1385.078987 417.752409 C1385.911629 417.774870 1386.745857 417.738860 1387.578743 417.757781 C1402.106453 418.087737 1416.639778 418.271178 1431.160286 418.802519 C1443.058479 419.237914 1454.938362 420.156126 1466.832283 420.738402 C1481.885139 421.475279 1496.940559 422.565428 1512.000862 422.674162 C1583.357185 423.189299 1654.715462 423.499419 1726.073494 423.698851 C1743.100105 423.746428 1760.128914 423.105101 1777.156013 422.750395 C1792.017586 422.440825 1806.884163 421.688933 1821.736946 421.912596 C1830.002083 422.037047 1838.249275 423.709868 1846.486214 424.821043 C1847.375984 424.941039 1848.142952 425.969298 1848.966805 426.576354 C1848.095589 426.969389 1847.135384 427.826567 1846.367683 427.679442 C1841.667000 426.778655 1840.384285 429.777525 1840.025276 433.338774 C1839.470222 438.844695 1839.075081 444.386504 1839.004036 449.918150 C1838.594490 481.777220 1838.318245 513.637938 1837.961311 545.497740 C1837.654671 572.858336 1837.577644 600.225707 1836.860725 627.575926 C1836.443123 643.509398 1835.210579 659.435423 1833.880501 675.325987 C1833.002937 685.811217 1831.483040 696.254759 1829.922493 706.667784 C1827.765755 721.060240 1825.157356 735.385069 1823.014168 749.779234 C1821.439217 760.356993 1820.166389 770.985045 1819.000496 781.617125 C1817.527473 795.048705 1816.275276 808.504698 1814.974861 821.954833 C1813.935677 832.702879 1813.222054 843.489256 1811.895638 854.200682 C1810.552132 865.049620 1808.380379 875.798399 1807.136848 886.655821 C1806.807747 889.529967 1808.448860 892.678099 1809.391731 895.634642 C1810.170906 898.078307 1813.385994 900.923155 1807.873665 901.808409 C1807.508919 901.866942 1807.323250 902.736937 1806.956184 903.140135 C1805.837410 904.368773 1804.611702 906.647765 1803.531380 906.589659 C1789.599739 905.840270 1775.687141 904.737792 1761.767097 903.764098 C1756.242439 903.377684 1750.713631 903.040221 1745.182259 902.767088 C1737.489754 902.387267 1729.790291 902.145995 1722.099251 901.742064 C1710.373421 901.126280 1698.653938 900.389098 1686.928596 899.764098 C1673.707649 899.059447 1660.489021 898.231444 1647.258308 897.803587 C1630.737190 897.269408 1614.203499 897.135497 1597.677376 896.737792 C1587.813850 896.500487 1577.951668 896.152403 1568.093636 895.740294 C1553.534920 895.131773 1538.982307 894.375914 1524.423470 893.771239 C1514.398933 893.354918 1504.368172 893.084410 1494.340096 892.756590 C1483.978889 892.417906 1473.616463 892.115172 1463.256355 891.746947 C1455.060066 891.455565 1446.864998 891.123839 1438.672127 890.747496 C1424.781136 890.109435 1410.819099 890.102416 1397.017586 888.617186 C1365.981575 885.277403 1334.893684 887.215697 1303.835335 886.885802 C1291.620613 886.756102 1279.341560 887.621214 1267.182014 888.895140 C1256.367439 890.028136 1245.272102 889.924376 1234.915901 894.178282 C1234.205208 894.470213 1232.962288 893.466185 1231.966805 893.064757 C1232.656502 891.628294 1233.077034 889.188048 1234.079720 888.919432 C1240.272835 887.259642 1246.543953 885.694335 1252.889046 884.840147 C1264.963387 883.214720 1277.096077 881.999388 1289.222542 880.794737 C1294.894661 880.231200 1300.604866 879.894957 1306.303963 879.789549 C1328.829720 879.372984 1351.359138 878.778563 1373.884651 878.868834 C1387.943489 878.925169 1401.998543 880.074828 1416.053841 880.761839 C1422.083992 881.056578 1428.107185 881.521239 1434.139656 881.734068 C1445.665047 882.140563 1457.195930 882.386290 1468.722298 882.767455 C1476.919075 883.038451 1485.110115 883.487547 1493.307381 883.740050 C1506.000008 884.131041 1518.699471 884.323119 1531.389534 884.780577 C1546.949593 885.341368 1562.500496 886.154662 1578.060066 886.733885 C1589.917244 887.175292 1601.781868 887.414488 1613.642830 887.757323 C1624.837654 888.080870 1636.036385 888.318968 1647.225594 888.781920 C1660.620003 889.335936 1674.014412 889.956297 1687.393562 890.792662 C1700.655769 891.621703 1713.905891 892.674559 1727.148567 893.781249 C1737.577766 894.652770 1747.984993 895.786437 1758.406990 896.747191 C1769.655281 897.784056 1780.909676 898.756102 1792.161873 899.751647 C1792.492561 899.780943 1792.828499 899.764891 1793.161507 899.753844 C1795.682869 899.670348 1798.204109 899.582945 1800.725471 899.496703 C1799.707893 896.985045 1799.332893 893.833189 1797.570198 892.064024 C1784.700447 879.146788 1771.744270 866.302001 1758.435799 853.839659 C1745.932014 842.130797 1732.960945 830.921080 1720.199715 819.486876 C1707.314705 807.941588 1694.558479 796.248717 1681.518074 784.881590 C1668.600349 773.621336 1655.403816 762.680663 1642.312386 751.620116 C1641.093636 750.590514 1639.751595 749.706847 1638.216805 748.505370 M1478.966805 434.255370 C1478.700325 434.088713 1478.438850 433.784880 1478.166634 433.774962 C1459.279427 433.086760 1440.391121 432.428343 1421.503426 431.752562 C1412.642097 431.435545 1403.784065 430.893034 1394.920662 430.789702 C1359.231087 430.373412 1323.539436 430.124693 1287.849739 429.717558 C1282.318733 429.654448 1276.793953 428.898924 1271.265266 428.885283 C1269.834602 428.881743 1267.129402 430.536925 1267.167976 431.324584 C1267.473274 437.565276 1268.029915 443.827422 1269.099983 449.980254 C1269.527840 452.441649 1270.928474 455.242064 1272.788216 456.835783 C1276.206306 459.764891 1280.313118 461.883299 1284.096077 464.395018 C1293.118294 470.385161 1302.270271 476.194701 1311.092049 482.467894 C1323.624641 491.379912 1336.034676 500.476744 1348.256721 509.809386 C1357.570808 516.921507 1366.599983 524.416625 1375.593758 531.935545 C1385.165169 539.937315 1394.434456 548.302001 1404.040535 556.260985 C1413.914070 564.441527 1424.007942 572.357481 1434.054939 580.326964 C1445.207039 589.173094 1456.186653 598.259581 1467.650887 606.684142 C1485.854622 620.061339 1504.348152 633.047850 1522.885872 645.960082 C1524.498055 647.083006 1527.998055 647.427306 1529.523323 646.438963 C1542.187386 638.233458 1554.637581 629.693541 1567.067024 621.130858 C1588.470222 606.386107 1609.749275 591.460509 1631.198860 576.783934 C1648.698250 564.810179 1666.563118 553.363219 1683.914070 541.181578 C1702.577888 528.077940 1720.635262 514.109557 1739.313972 501.027953 C1763.146614 484.336791 1787.437019 468.300108 1811.300179 451.651549 C1817.085213 447.615508 1823.513069 443.661070 1825.063484 435.634734 C1825.364754 434.075469 1826.839607 432.695342 1827.919930 431.350462 C1828.672127 430.414244 1829.675056 429.679350 1830.565926 428.854521 C1829.217903 428.488158 1827.863655 427.782958 1826.522835 427.807768 C1813.161018 428.054686 1799.800545 428.387938 1786.441658 428.766783 C1776.745979 429.041777 1767.054451 429.458891 1757.359138 429.746153 C1744.833260 430.117278 1732.307137 430.529540 1719.777962 430.722228 C1709.281746 430.883666 1698.779549 430.636382 1688.282967 430.782713 C1671.755013 431.013152 1655.220467 431.181303 1638.705696 431.818999 C1619.945076 432.543486 1601.211678 434.367003 1582.451546 434.622405 C1548.129036 435.089690 1513.795662 434.755370 1478.966805 434.255370 M1776.466805 858.755431 C1781.062141 863.684142 1785.681526 868.590758 1790.244026 873.549803 C1793.002205 876.547789 1795.642952 879.653929 1798.408089 882.645262 C1798.903328 883.180907 1799.747810 883.393553 1800.430916 883.755370 C1800.609505 883.003356 1800.993050 882.233763 1800.930672 881.502379 C1800.685799 878.633971 1799.882088 875.752989 1800.049202 872.921690 C1800.466072 865.852477 1801.400887 858.815611 1801.945686 851.751769 C1803.018196 837.843565 1803.885384 823.919371 1804.992928 810.014098 C1805.863045 799.088866 1806.588264 788.130858 1808.060188 777.279906 C1810.015266 762.867491 1812.735970 748.560729 1814.939461 734.179686 C1817.392220 718.170775 1819.898079 702.162230 1821.886604 686.092345 C1823.605965 672.197814 1824.953499 658.238646 1825.870125 644.268981 C1826.667854 632.108763 1826.713875 619.895445 1826.948860 607.702879 C1827.347420 587.016661 1827.609016 566.327757 1827.974617 545.640807 C1828.269539 528.951109 1828.704597 512.263609 1828.940315 495.573271 C1829.083748 485.412383 1828.740364 475.240843 1829.054939 465.087676 C1829.232674 459.350920 1830.347908 453.646483 1830.922493 447.915617 C1831.025154 446.891966 1830.548836 445.810271 1830.339973 444.755339 C1829.214607 445.256316 1827.939949 445.561339 1826.986458 446.287840 C1814.057869 456.138854 1801.394783 466.354491 1788.219612 475.861357 C1773.682137 486.351073 1758.575691 496.048491 1743.914803 506.371764 C1723.888191 520.473448 1704.155769 534.993529 1684.095100 549.045836 C1667.617683 560.588194 1650.818367 571.669798 1634.212288 583.029784 C1619.141609 593.339598 1604.123299 603.726439 1589.111092 614.121520 C1571.626961 626.228270 1554.291512 638.556151 1536.605232 650.358885 C1533.254036 652.595274 1533.729500 653.510008 1536.118660 655.392577 C1548.548836 665.187376 1560.911751 675.070616 1573.468269 684.701231 C1586.706429 694.854674 1600.317024 704.528258 1613.434334 714.832213 C1628.090828 726.345152 1642.499397 738.183348 1656.789925 750.150084 C1673.047493 763.764037 1689.183479 777.530150 1705.123787 791.513548 C1714.998543 800.176085 1724.466316 809.307189 1734.017586 818.333067 C1748.047249 831.591185 1761.988045 844.943297 1776.466805 858.755431 M1461.966805 614.255370 C1461.043953 613.665892 1460.055061 613.158263 1459.208626 612.474303 C1450.338753 605.307982 1441.509285 598.091795 1432.633675 590.932616 C1422.524666 582.778502 1412.266243 574.804991 1402.286140 566.496825 C1394.044197 559.635619 1386.227180 552.265257 1378.015755 545.365782 C1367.057747 536.158629 1355.997688 527.066710 1344.801277 518.151549 C1333.569344 509.208128 1322.235115 500.383238 1310.727425 491.798979 C1298.556770 482.720122 1286.137703 473.973845 1273.791512 465.131957 C1273.035774 464.590727 1271.968391 464.484648 1271.046028 464.176116 C1270.686287 465.360075 1269.985115 466.558836 1270.035652 467.725005 C1270.152840 470.428862 1270.956306 473.122374 1270.911507 475.810576 C1270.702766 488.337859 1270.461433 500.869017 1269.910408 513.384642 C1269.540413 521.785887 1268.859383 530.189147 1267.914558 538.545836 C1266.445320 551.540831 1264.644661 564.498534 1262.963753 577.469298 C1260.976326 592.804869 1258.966927 608.137572 1256.966805 623.471495 C1254.966927 638.805418 1252.983528 654.141478 1250.962166 669.472594 C1248.984016 684.476195 1246.959846 699.473692 1244.968880 714.475585 C1243.291634 727.113585 1241.633430 739.754088 1239.966805 752.393492 C1238.300056 765.032897 1236.439827 777.650572 1235.018806 790.317564 C1233.457283 804.235777 1232.357796 818.205321 1230.933113 832.139830 C1230.482063 836.551146 1229.488045 840.905943 1229.006599 845.315428 C1228.496223 849.990111 1228.223396 854.695860 1228.028694 859.395567 C1227.987801 860.384459 1228.738289 861.406126 1229.124153 862.412657 C1229.948860 861.816405 1230.836311 861.289732 1231.587654 860.612059 C1235.478279 857.102660 1239.102303 853.251952 1243.248055 850.080504 C1253.194099 842.471861 1263.458504 835.280577 1273.451180 827.731261 C1291.746712 813.909117 1309.765022 799.713927 1328.231087 786.125792 C1342.053474 775.954588 1356.400276 766.496459 1370.508064 756.712645 C1394.454964 740.105101 1418.400398 723.495055 1442.341072 706.878417 C1454.378792 698.523253 1466.371956 690.103697 1478.445076 681.800108 C1489.843147 673.960875 1501.255745 666.138854 1512.797005 658.513487 C1516.786507 655.877623 1517.238289 654.822997 1513.546516 651.904967 C1509.074348 648.370055 1504.385628 645.107359 1499.767464 641.758910 C1487.340462 632.748656 1474.901253 623.755370 1461.966805 614.255370 z"/><path class="selected"  fill="#000000" opacity="1.000000" stroke="none" 
 	d="
M1564.966805 1015.755370 C1552.637337 1015.755370 1540.806648 1015.861693 1528.978523 1015.732909 C1505.290169 1015.475218 1481.602425 1015.139525 1457.916145 1014.735106 C1445.056526 1014.515501 1432.196419 1014.195189 1419.343636 1013.727538 C1404.287117 1013.179808 1389.228401 1012.589476 1374.189095 1011.704100 C1361.426277 1010.952635 1348.669563 1009.959593 1335.946907 1008.701354 C1321.452400 1007.268004 1306.975105 1005.599913 1292.538338 1003.673399 C1286.194466 1002.826842 1279.912727 1001.296874 1273.731453 999.606566 C1272.217049 999.192442 1269.939705 996.571349 1270.217659 995.587950 C1270.902107 993.166075 1272.959480 992.439085 1275.994026 993.105040 C1282.038216 994.431456 1288.243782 995.199217 1294.423103 995.694212 C1305.459236 996.578185 1316.525520 997.084837 1327.578621 997.756529 C1338.465828 998.418028 1349.346199 999.226561 1360.240852 999.723753 C1377.453499 1000.509276 1394.670784 1001.310362 1411.895149 1001.701842 C1435.911018 1002.247740 1459.936409 1002.369322 1483.955574 1002.787535 C1491.152107 1002.912779 1498.342049 1003.687071 1505.534798 1003.682189 C1513.008553 1003.677123 1520.481331 1002.823424 1527.955940 1002.800841 C1562.168343 1002.697386 1596.381599 1002.649840 1630.593513 1002.800353 C1647.451180 1002.874510 1664.351814 1002.771056 1681.150276 1003.938841 C1697.874275 1005.101439 1714.578621 1007.234801 1731.137093 1009.901854 C1747.691292 1012.567992 1764.076912 1016.316771 1780.483284 1019.838377 C1784.051521 1020.604247 1787.413216 1022.375487 1790.825325 1023.791625 C1791.577522 1024.103758 1792.139656 1024.873778 1792.789192 1025.432982 C1791.972054 1025.873778 1791.111824 1026.761473 1790.344490 1026.687132 C1781.406136 1025.822630 1772.485237 1024.778807 1763.552010 1023.856932 C1759.212410 1023.409178 1754.839363 1023.259032 1750.511726 1022.727049 C1740.389778 1021.482420 1730.294807 1020.019164 1720.171516 1018.787840 C1715.834602 1018.260252 1711.458382 1018.020751 1707.093147 1017.770995 C1700.236824 1017.378661 1693.376961 1016.862181 1686.514656 1016.792601 C1646.166023 1016.383543 1605.816170 1016.088744 1564.966805 1015.755370 z"/><path class="selected"  fill="#000000" opacity="1.000000" stroke="none" 
 	d="
M405.966805 715.755370 C405.966805 732.584715 406.061409 748.914732 405.948006 765.243285 C405.672371 804.929137 405.308876 844.614501 404.964272 884.299925 C404.642830 921.319518 404.304787 958.338988 403.965462 995.358458 C403.638344 1031.044920 403.308052 1066.731566 402.964516 1102.417967 C402.641853 1135.938475 402.324837 1169.458861 401.959023 1202.978880 C401.664131 1230.001341 401.188911 1257.022460 401.106392 1284.045165 C401.095955 1287.456053 403.280556 1290.820311 403.902382 1294.303587 C404.373940 1296.944945 404.747932 1300.094603 403.713173 1302.352538 C402.940956 1304.037596 399.912453 1305.425658 397.778236 1305.600829 C392.859596 1306.004881 389.210365 1299.649291 392.452553 1295.125365 C396.618111 1289.312987 395.901344 1283.236815 395.955055 1277.022948 C396.311043 1235.838011 396.583809 1194.652342 397.000679 1153.468016 C397.108925 1142.773070 397.713875 1132.084105 397.938484 1121.389159 C398.087807 1114.279784 397.966805 1107.164793 397.966805 1100.052245 C397.966805 1079.833373 397.837593 1059.613524 398.005501 1039.396117 C398.154305 1021.479857 398.731392 1003.567564 398.935219 985.651488 C399.093208 971.766234 398.857521 957.876708 398.990242 943.990904 C399.242714 917.577574 399.668373 891.165892 399.958076 864.752867 C400.327492 831.066344 400.644386 797.379149 400.963875 763.692076 C401.310249 727.172545 401.634651 690.652831 401.966469 654.133177 C402.301308 617.280333 402.616035 580.427245 402.972115 543.574645 C403.279915 511.720274 403.639961 479.866423 403.959938 448.012206 C404.009071 443.123442 403.894081 438.232451 403.979988 433.344725 C404.279274 416.319731 404.587563 399.294402 405.065407 382.274077 C405.098885 381.080931 406.541176 379.927367 407.328346 378.755370 C407.874519 379.973113 408.892738 381.189085 408.897194 382.408812 C408.989693 407.568999 409.096809 432.730437 408.930977 457.889861 C408.758339 484.079741 408.269844 510.267333 407.974495 536.456603 C407.609016 568.867308 407.320839 601.278990 406.960426 633.689757 C406.658119 660.878600 406.300117 688.066832 405.966805 715.755370 z"/><path class="selected"  fill="#000000" opacity="1.000000" stroke="none" 
 	d="
M746.966805 354.755370 C732.470406 354.755370 718.472603 354.883452 704.478035 354.722380 C687.618904 354.528349 670.757759 354.240965 653.906563 353.707366 C640.345467 353.277922 626.798409 352.409270 613.244026 351.758849 C599.024727 351.076506 584.797615 350.529906 570.587532 349.693144 C566.008186 349.423491 561.413399 348.666380 556.954048 347.596709 C555.721016 347.300993 554.474251 345.179289 554.163948 343.700194 C554.004524 342.940428 555.735237 341.206297 556.891121 340.868559 C559.309883 340.161803 561.904732 339.932707 564.443428 339.785033 C571.631905 339.366942 578.839424 338.662352 586.019539 338.846648 C599.747810 339.199004 613.462288 340.089446 627.182686 340.752257 C627.681404 340.776366 628.182503 340.745940 628.682198 340.756743 C644.040108 341.088408 659.396553 341.554900 674.756294 341.728850 C711.441109 342.144347 748.127815 342.684905 784.813118 342.643309 C802.866280 342.622832 820.914619 341.251372 838.973091 340.875182 C843.495552 340.781004 848.070930 342.060606 852.569954 342.967070 C853.488594 343.152190 854.173958 344.495299 854.966805 345.304625 C854.186409 345.788207 853.462349 346.529173 852.616585 346.714446 C846.187080 348.122588 839.789436 349.901854 833.276436 350.657042 C819.036079 352.308226 804.757637 353.942015 790.449348 354.609068 C776.150642 355.275664 761.796577 354.755370 746.966805 354.755370 z"/><path class="selected"  fill="#000000" opacity="1.000000" stroke="none" 
 	d="
M647.966805 559.755370 C662.492805 560.088744 676.522163 560.318419 690.543831 560.782164 C707.268318 561.335204 723.984871 562.124571 740.707405 562.742552 C751.564766 563.143858 762.425789 563.457030 773.286812 563.746581 C787.145210 564.116148 801.003609 564.555968 814.864937 564.728697 C848.219673 565.144347 881.576057 565.426207 914.931892 565.749999 C918.987923 565.789427 923.045906 565.822203 927.100777 565.743590 C942.793648 565.439330 958.490791 565.238341 974.176460 564.709105 C987.238777 564.268370 1000.294441 563.534361 1013.340218 562.724791 C1027.265144 561.860594 1041.176155 560.769408 1055.091316 559.750243 C1063.815437 559.111144 1072.529915 558.323790 1081.259529 557.776244 C1098.337532 556.705138 1115.419075 555.671935 1132.507576 554.787352 C1142.358528 554.277464 1152.228157 554.139342 1162.085335 553.735167 C1167.450813 553.515135 1172.805183 553.013548 1178.170906 552.811339 C1179.422615 552.764220 1180.700813 553.418089 1181.966805 553.749510 C1180.842903 554.418150 1179.793221 555.428771 1178.581184 555.692259 C1174.728523 556.529662 1170.838020 557.413512 1166.920784 557.687376 C1158.909554 558.247618 1150.872688 558.461241 1142.843880 558.745665 C1132.318733 559.118590 1121.777962 559.198729 1111.267708 559.812010 C1098.170662 560.576231 1085.098152 561.760008 1072.014412 562.753783 C1063.126228 563.428954 1054.240242 564.137999 1045.347298 564.744383 C1030.100471 565.784117 1014.858284 566.942259 999.596931 567.706297 C982.053596 568.584654 964.496590 569.426390 946.936653 569.685912 C909.085091 570.245299 871.228340 570.561827 833.372688 570.690123 C817.015144 570.745604 800.654305 570.125121 784.296577 569.742980 C772.768623 569.473692 761.242378 569.119566 749.717232 568.745238 C741.021980 568.462889 732.327522 568.136229 723.636543 567.744505 C709.746834 567.118529 695.860054 566.425719 681.972420 565.753722 C675.277962 565.429808 668.587044 565.015685 661.889717 564.772032 C651.032051 564.377013 640.169930 564.106444 629.310799 563.749938 C619.949776 563.442687 610.556587 563.476927 601.237679 562.667906 C585.736519 561.322081 570.276436 559.483946 554.813179 557.728514 C547.377815 556.884276 539.969246 555.793517 532.562813 554.716490 C531.375740 554.543822 530.263680 553.855467 529.116951 553.405516 C530.317268 552.522093 531.531013 550.870177 532.715584 550.890807 C537.383125 550.972350 542.069832 551.379820 546.696785 552.036864 C554.365791 553.125792 561.952583 554.991881 569.649117 555.644469 C582.335884 556.719969 595.081612 557.109862 607.804512 557.747374 C615.329475 558.124449 622.859993 558.391478 630.385139 558.765379 C636.081367 559.048399 641.773079 559.422057 647.966805 559.755370 z"/><path class="selected"  fill="#000000" opacity="1.000000" stroke="none" 
 	d="
M574.966805 645.755370 C577.133369 645.755370 578.800484 645.727599 580.466438 645.759459 C615.021553 646.420653 649.577461 647.047850 684.131416 647.767943 C713.188057 648.373473 742.241646 649.127440 771.298103 649.741637 C790.490669 650.147460 809.685493 650.646239 828.880135 650.683104 C843.740486 650.711668 858.602669 650.115599 873.462837 649.746703 C885.158394 649.456297 896.850105 648.950377 908.547005 648.782652 C937.572639 648.366271 966.600166 648.084837 995.627022 647.756346 C1025.487068 647.418395 1055.350349 646.706419 1085.205574 646.955565 C1096.162971 647.047057 1107.104988 649.393126 1118.042122 650.803282 C1119.052010 650.933470 1119.975105 651.736510 1120.938484 652.227049 C1119.835091 652.736510 1118.701302 653.742552 1117.633308 653.676878 C1109.068001 653.150633 1100.515877 652.411864 1091.957649 651.767394 C1090.797493 651.680052 1089.625374 651.755370 1088.458748 651.755370 C1077.292732 651.755370 1066.126228 651.685912 1054.960823 651.767760 C1013.767952 652.069823 972.574776 652.366881 931.382881 652.780577 C913.020638 652.964903 894.662300 653.578612 876.299995 653.725707 C824.108650 654.143797 771.916328 654.582335 719.724007 654.651122 C705.335274 654.670043 690.862801 654.166808 676.573311 652.591673 C651.191353 649.793883 625.784187 651.064757 600.387947 650.804259 C577.725044 650.571776 555.057747 650.782591 532.392830 650.692503 C530.926888 650.686644 529.464424 649.777709 528.000374 649.288939 C529.233833 648.699706 530.445747 648.058104 531.708321 647.539610 C532.563179 647.188597 533.483589 646.810790 534.384224 646.785399 C547.744148 646.408629 561.105659 646.088744 574.966805 645.755370 z"/><path class="selected"  fill="#000000" opacity="1.000000" stroke="none" 
 	d="
M608.966805 489.755370 C590.634834 489.755370 572.802193 489.837889 554.971138 489.709441 C548.940926 489.666045 542.907784 489.171538 536.893135 488.675047 C535.872932 488.590880 534.940010 487.449584 533.966805 486.796690 C534.912544 486.116271 535.864754 484.834258 536.802925 484.844450 C554.672737 485.037993 572.540596 485.401274 590.409554 485.687438 C595.847786 485.774535 601.288033 485.752043 606.727364 485.752776 C643.224617 485.757720 679.722237 485.857695 716.218880 485.710143 C733.247261 485.641325 750.278389 485.240813 767.299385 484.707518 C781.029610 484.277281 794.745735 483.405455 808.469612 482.761748 C816.329292 482.393095 824.194649 482.141814 832.052681 481.743102 C844.277901 481.122801 856.499519 480.429137 868.721931 479.753386 C880.612068 479.095976 892.497139 478.334593 904.391792 477.776732 C920.443733 477.023894 936.497322 476.073943 952.559761 475.826048 C988.748787 475.267577 1024.943489 475.051451 1061.136360 474.773680 C1075.634407 474.662413 1090.134041 474.755370 1104.632942 474.755370 C1105.299568 474.755370 1106.021126 474.588652 1106.622566 474.786620 C1108.429085 475.381255 1110.188850 476.118102 1111.966805 476.799498 C1110.159309 477.451476 1108.353889 478.665862 1106.544197 478.671996 C1073.047127 478.785765 1039.549080 478.641875 1006.052376 478.799437 C987.024055 478.888915 967.996651 479.367735 948.971138 479.779051 C939.940254 479.974333 930.911018 480.341490 921.887947 480.775084 C909.661201 481.362578 897.440926 482.085143 885.218269 482.756346 C873.161751 483.418395 861.109444 484.168517 849.048531 484.735655 C833.163033 485.482604 817.268135 486.030577 801.382454 486.774199 C789.155159 487.346556 776.939034 488.159300 764.711800 488.732726 C755.189278 489.179289 745.659248 489.614958 736.128914 489.721251 C698.770760 490.137846 661.411324 490.463011 624.051704 490.705321 C619.192268 490.736876 614.328560 490.088683 608.966805 489.755370 z"/><path class="selected"  fill="#000000" opacity="1.000000" stroke="none" 
 	d="
M121.216805 227.005370 C124.300133 216.763381 127.135399 206.771941 129.965385 196.779021 C130.641548 194.391432 130.844963 191.709380 132.119377 189.705641 C133.040688 188.257048 135.373863 187.706435 137.077400 186.755370 C137.592018 188.370558 138.710899 190.068709 138.502785 191.584670 C137.974449 195.433363 136.671593 199.172637 136.077446 203.017317 C135.901146 204.158186 136.705620 206.144209 137.647057 206.648695 C142.754219 209.385405 143.812935 213.993117 143.947960 219.099303 C144.044853 222.763045 143.855049 226.437239 144.045433 230.093642 C144.092979 231.006911 145.113945 231.869490 145.687508 232.755370 C146.447273 232.222334 147.422905 231.843291 147.931160 231.130843 C150.855705 227.031294 153.915047 222.996336 156.450996 218.660124 C158.912712 214.450865 162.288826 211.763594 167.053703 211.883208 C170.585762 211.971892 175.245338 218.489775 175.949699 223.239867 C176.070610 224.055190 175.730614 224.996535 176.013985 225.718565 C176.688011 227.436003 177.308449 229.387801 178.585396 230.543349 C179.053001 230.966490 181.411720 229.566115 182.738533 228.729292 C190.008965 224.143675 197.374535 222.146346 206.396843 223.451888 C217.146812 225.007445 228.110329 225.736296 239.182167 223.067152 C244.927895 221.681975 251.464790 223.397398 257.619545 223.975371 C260.232918 224.220793 262.807503 225.056670 265.350960 225.792632 C266.551094 226.139876 267.636360 226.884139 268.773659 227.448515 C267.592323 228.217482 266.503273 229.396056 265.214088 229.686491 C258.634010 231.168974 252.043617 232.702727 245.378242 233.685698 C236.668648 234.970168 227.903893 236.262999 219.127541 236.582793 C212.936821 236.808363 206.662117 235.597945 200.470802 234.709074 C193.363426 233.688704 188.214897 238.281935 182.525658 240.916853 C173.940712 244.892821 170.118477 242.379912 167.068291 234.307890 C166.466393 232.715086 166.380699 230.934187 165.949379 229.267897 C165.562767 227.774382 165.028008 226.319243 164.558601 224.847167 C163.380196 225.964354 161.992256 226.931136 161.062187 228.226622 C158.128914 232.312483 155.668999 236.776534 152.439293 240.598509 C150.057167 243.417510 146.884377 245.347106 142.568001 243.947630 C137.902977 242.435088 135.249489 239.589018 134.993706 234.708067 C134.845634 231.882765 135.066994 229.037611 134.905418 226.213805 C134.857277 225.372740 134.075050 224.573683 133.629173 223.755370 C132.926521 224.403899 131.849648 224.927504 131.584373 225.722060 C130.261360 229.684721 129.190376 233.730681 127.946480 237.721068 C127.489952 239.185561 126.716911 240.549925 126.237144 242.008940 C125.290031 244.889037 123.232124 246.791869 120.459740 245.529479 C117.726509 244.284941 116.014091 241.536177 117.103447 238.153365 C118.284355 234.486281 119.670296 230.885222 121.216805 227.005370 z"/><path class="selected"  fill="#000000" opacity="1.000000" stroke="none" 
 	d="
M220.966805 787.755370 C209.686638 789.088683 198.931969 790.719115 188.117027 791.647032 C181.334145 792.228941 174.444923 792.054381 167.631111 791.694579 C152.369637 790.888915 137.112206 789.916136 121.882011 788.661009 C117.080162 788.265257 112.296761 787.003233 107.655373 785.629332 C105.876167 785.102721 104.517227 783.156371 102.966805 781.856871 C104.616211 780.489745 106.215019 778.053221 107.925255 777.972289 C111.796730 777.789183 116.078423 774.432189 119.709068 778.723448 C119.917625 778.969969 120.671837 778.739439 121.171120 778.757750 C130.199120 779.087828 139.224556 779.563963 148.255486 779.717162 C158.142387 779.885008 168.068779 780.272948 177.914864 779.617369 C188.901741 778.885802 199.809547 777.016844 210.766914 775.776793 C220.506996 774.674498 230.248665 773.461424 240.023994 772.824767 C254.395821 771.888793 268.797218 771.007872 283.188148 770.972350 C288.465431 770.959349 293.754890 773.399046 299.017342 774.800597 C299.421486 774.908263 299.966743 775.717955 299.895058 776.097167 C299.781807 776.696288 299.296669 777.570494 298.804146 777.699645 C293.380196 779.121703 287.989082 781.058470 282.463356 781.620787 C271.453255 782.741393 260.336067 782.792174 249.316811 783.846312 C239.994148 784.738219 230.747246 786.422057 220.966805 787.755370 z"/><path class="selected"  fill="#000000" opacity="1.000000" stroke="none" 
 	d="
M122.966805 402.755370 C146.347816 402.088713 169.225426 401.207793 192.111244 400.845366 C203.626884 400.662993 215.158318 401.394591 226.680962 401.764159 C235.707191 402.053710 244.729378 402.615477 253.756264 402.685057 C259.446236 402.728911 265.140999 402.080382 270.834755 401.763274 C271.831245 401.707732 272.993019 401.424437 273.804115 401.815459 C276.590340 403.158598 279.254707 404.754515 281.965523 406.254088 C279.646156 407.087859 277.325417 407.917815 275.007668 408.756072 C265.017036 412.369322 254.727364 414.034758 244.091347 413.785399 C237.264565 413.625334 230.426949 413.907958 223.601219 413.727385 C201.218025 413.135222 178.838676 412.399596 156.456581 411.763854 C143.101509 411.384428 129.741234 411.162718 116.391624 410.652373 C114.888893 410.594969 113.440437 409.118498 111.966805 408.300047 C113.077324 407.118498 113.980873 405.495635 115.345406 404.855681 C117.560341 403.816863 120.077324 403.422057 122.966805 402.755370 z"/><path class="selected"  fill="#000000" opacity="1.000000" stroke="none" 
 	d="
M125.716805 522.005370 C121.390602 520.345824 117.222282 519.139830 113.309715 517.368773 C112.443977 516.976866 112.482475 514.587279 112.104607 513.117552 C113.276329 512.996825 114.499138 512.595763 115.611900 512.798522 C127.467216 514.958800 139.309456 517.062071 151.415047 514.783629 C152.540215 514.571898 153.739769 514.755370 154.904778 514.755370 C175.209282 514.755370 195.517189 514.977782 215.816933 514.666564 C226.865669 514.497191 237.894325 513.171385 248.945198 512.897887 C252.579536 512.807982 256.338692 514.137999 259.867958 515.330382 C261.158699 515.766417 261.948463 517.685423 262.966805 518.927916 C261.395607 520.203734 259.993233 522.199461 258.220345 522.615172 C253.601234 523.698363 248.838051 524.312987 244.098488 524.701415 C237.430397 525.247984 230.728371 525.366942 224.047722 525.780028 C221.014595 525.967528 217.993767 526.742003 214.974571 526.702269 C197.968864 526.478880 180.949287 526.433714 163.966393 525.641966 C151.274834 525.050231 138.631569 523.421996 125.716805 522.005370 z"/><path class="selected"  fill="#000000" opacity="1.000000" stroke="none" 
 	d="
M1388.966805 1102.755370 C1381.473518 1102.755370 1374.477791 1102.641356 1367.487312 1102.780638 C1355.302010 1103.023436 1343.121223 1103.497191 1330.935921 1103.738402 C1310.927742 1104.134398 1290.917366 1104.408568 1270.908699 1104.784422 C1269.508919 1104.810668 1267.594856 1104.762572 1266.817513 1105.591185 C1264.315315 1108.258421 1262.564705 1105.566283 1262.417366 1104.448363 C1262.180672 1102.652464 1262.902718 1100.129637 1264.175179 1098.914183 C1265.314217 1097.826170 1267.735115 1097.873778 1269.605232 1097.800414 C1273.429085 1097.650389 1277.263802 1097.812865 1281.092415 1097.745482 C1298.771004 1097.434447 1316.450447 1097.147826 1334.126961 1096.741576 C1360.826302 1096.127684 1387.522469 1095.003417 1414.222176 1094.934325 C1427.292366 1094.900511 1440.374763 1096.674803 1453.432381 1097.845213 C1455.316536 1098.014037 1457.092537 1099.389891 1458.918587 1100.207152 C1457.245003 1100.912840 1455.592537 1102.166747 1453.894173 1102.232543 C1445.079475 1102.573607 1436.253426 1102.644652 1427.430672 1102.743407 C1421.770149 1102.806761 1416.108284 1102.755370 1410.447029 1102.755370 C1403.453621 1102.755370 1396.460213 1102.755370 1388.966805 1102.755370 z"/><path class="selected"  fill="#000000" opacity="1.000000" stroke="none" 
 	d="
M158.966805 656.755370 C166.856194 655.699339 174.264641 654.759642 181.629402 653.553221 C188.453712 652.435484 195.184807 650.372008 202.038933 649.889342 C217.552986 648.796813 233.114021 648.294310 248.664558 647.860228 C251.879219 647.770506 255.187691 648.828490 258.338875 649.748229 C259.629097 650.124815 260.616676 651.538390 261.741951 652.480223 C260.557350 653.238585 259.464027 654.377806 258.171883 654.687621 C253.297615 655.856322 248.400246 657.197814 243.435402 657.663451 C233.082283 658.634215 222.623100 658.617613 212.314079 659.878233 C200.255577 661.352660 188.372063 664.365782 176.298851 665.581969 C164.471947 666.773375 152.683144 669.268065 140.554482 666.938719 C133.559319 665.595274 126.196541 666.258543 119.032784 665.633971 C117.276604 665.480772 115.651939 663.819579 113.966805 662.851683 C115.316582 661.636412 116.550514 660.239256 118.061363 659.276915 C118.914421 658.733519 120.220024 658.805296 121.327126 658.770873 C132.845238 658.412352 144.365120 658.108641 155.881981 657.715453 C156.753517 657.685668 157.605675 657.088744 158.966805 656.755370 z"/><path class="selected"  fill="#000000" opacity="1.000000" stroke="none" 
 	d="
M777.716805 744.505370 C764.918404 745.421996 752.360542 745.949400 739.824226 746.795226 C727.734566 747.610899 715.671516 748.813719 703.588692 749.740050 C689.684456 750.806029 675.775398 751.817931 661.860664 752.735960 C650.317818 753.497496 638.771492 754.338927 627.212837 754.697386 C609.370003 755.250853 591.514290 755.711791 573.666206 755.642272 C563.613655 755.603148 553.563362 754.450804 543.519295 753.702879 C542.680794 753.640440 541.897408 752.836485 541.088448 752.377013 C541.713997 751.670409 542.232552 750.515929 542.983955 750.336363 C545.894539 749.640929 548.905525 748.724242 551.830940 748.868346 C557.569649 749.151061 563.269600 750.590270 568.996956 750.663634 C587.980843 750.906676 606.980049 751.142027 625.953682 750.638182 C642.376228 750.202025 658.775032 748.802672 675.178291 747.735960 C683.736641 747.179381 692.280342 746.401305 700.833382 745.760008 C714.408272 744.742308 727.985725 743.759764 741.561531 742.753722 C750.446419 742.095397 759.322884 741.296141 768.216133 740.784728 C781.757393 740.005980 795.309090 739.403929 808.859261 738.791136 C809.883247 738.744872 810.930428 739.209593 811.966805 739.436705 C811.114388 740.209593 810.382942 741.333006 809.382881 741.678038 C807.617500 742.287230 805.700264 742.600829 803.825874 742.724730 C795.210091 743.294310 786.587166 743.755370 777.716805 744.505370 z"/><path class="selected"  fill="#000000" opacity="1.000000" stroke="none" 
 	d="
M269.216805 76.505370 C273.283272 86.616995 270.864204 95.935912 264.453560 103.227210 C260.372749 107.868636 253.816780 110.894087 247.811012 113.162100 C236.539803 117.418562 226.161079 112.063307 221.068443 105.193968 C213.569725 95.079123 216.978172 85.123686 223.509895 76.717322 C225.627693 73.991705 228.945351 72.405730 229.475639 68.118666 C229.684761 66.427977 233.471870 64.276640 235.858589 63.935240 C241.960823 63.062407 248.397530 61.964636 254.317451 63.048598 C261.241737 64.316466 266.284065 69.395751 269.216805 76.505370 M222.966805 88.255370 C220.208763 94.187109 222.466087 99.228392 226.342583 103.485137 C230.316917 107.849333 235.816292 110.604590 241.574959 109.359526 C247.033028 108.179442 252.541786 105.738295 257.181862 102.600234 C265.319771 97.096549 270.378365 82.457175 260.469154 72.739211 C256.276314 68.627287 242.741341 65.590399 237.554848 67.799384 C236.894722 68.080542 236.489906 68.961096 235.966805 69.563956 C236.667000 69.961096 237.393471 70.319029 238.059944 70.766432 C238.721901 71.210822 239.323494 71.745207 239.951546 72.240119 C239.337868 72.745200 238.766060 73.624411 238.104103 73.698561 C229.805824 74.628180 225.880318 80.361121 222.966805 88.255370 z"/><path class="selected"  fill="#000000" opacity="1.000000" stroke="none" 
 	d="
M123.966805 95.755370 C120.591896 106.652564 112.776863 111.846495 102.605759 113.684531 C90.520332 115.868529 76.550278 103.304755 75.815971 91.001410 C75.224113 81.084715 78.675797 73.306632 86.497879 68.046721 C91.234047 64.861899 96.394814 60.406477 102.758293 61.949744 C106.675804 62.899825 110.250694 65.566367 113.770851 67.792098 C122.979469 73.614546 127.319847 84.494315 123.966805 95.755370 M104.466805 107.755370 C117.532051 105.076354 121.770775 93.437644 119.520042 82.816123 C118.443748 77.737013 115.181648 73.421401 110.783104 72.056708 C105.190041 70.321372 98.362579 68.998312 93.056305 70.658507 C82.501648 73.960761 78.773735 84.033988 81.658081 93.851195 C84.762917 104.418890 90.391762 107.755377 104.466805 107.755370 z"/><path class="selected"  fill="#000000" opacity="1.000000" stroke="none" 
 	d="
M174.966805 111.755370 C165.903465 116.542632 158.710075 112.048590 151.787086 107.953398 C139.014046 100.397719 139.462563 86.524756 148.968987 76.152892 C158.375435 65.890120 178.001244 61.829337 187.577385 67.457716 C196.380257 72.631613 198.629677 81.917700 195.136086 90.251524 C191.084328 99.916892 184.701790 107.036383 174.966805 111.755370 M147.466805 96.755370 C148.995613 98.617514 150.229851 100.877898 152.108330 102.267340 C157.805763 106.481558 163.510887 110.731696 171.467979 107.826254 C181.856346 104.033080 188.026878 96.798155 191.032845 86.278754 C193.506798 77.621108 188.356056 69.959204 179.538536 69.732062 C172.763954 69.557555 166.521660 70.437445 160.121315 73.523200 C151.164192 77.841643 145.078941 86.911597 147.466805 96.755370 z"/><path class="selected"  fill="#000000" opacity="1.000000" stroke="none" 
 	d="
M654.716805 877.005370 C654.481697 878.088744 653.985420 879.655699 653.513130 879.648436 C640.342598 879.448302 627.175117 879.063963 614.005867 878.769835 C609.849678 878.677001 605.685188 878.877928 601.532417 878.726317 C595.512093 878.506590 589.473396 878.308287 583.499825 877.610350 C581.882759 877.421568 580.472176 875.465147 578.966805 874.320067 C580.655769 873.987425 582.334358 873.569518 584.038643 873.361693 C584.781868 873.271117 585.574409 873.716307 586.349983 873.739623 C598.187080 874.095580 610.025520 874.403990 621.862556 874.760863 C632.037788 875.067687 642.212349 875.403563 652.384529 875.795409 C653.089912 875.822508 653.773201 876.421996 654.716805 877.005370 z"/><path class="selected"  fill="#000000" opacity="1.000000" stroke="none" 
 	d="
M58.716805 520.505370 C61.178543 518.155516 69.002487 516.453490 70.713715 518.140929 C73.624443 521.011229 73.680496 524.468504 72.044449 528.269530 C70.100487 532.785887 68.663460 537.519103 66.911957 542.122313 C66.789536 542.444029 65.724365 542.758605 65.374382 542.568114 C64.673363 542.186461 63.923645 541.557494 63.614014 540.847472 C61.339935 535.632811 59.005852 530.431212 57.098511 525.080199 C56.694008 523.945311 57.966805 522.212645 58.716805 520.505370 z"/><path class="selected"  fill="#000000" opacity="1.000000" stroke="none" 
 	d="
M74.966805 657.755370 C76.756927 651.842528 82.133545 651.001402 84.872147 655.316344 C85.481766 656.276854 85.398911 658.321776 84.769547 659.323973 C78.515221 669.283507 78.481766 669.021483 76.489967 668.865843 C75.167023 668.762450 73.797783 669.539244 72.422707 669.719725 C71.410919 669.852538 70.356148 669.657835 69.320518 669.609068 C69.437401 668.589720 69.257088 667.400450 69.725014 666.581725 C71.350868 663.736876 73.201599 661.020567 74.966805 657.755370 z"/><path class="selected"  fill="#000000" opacity="1.000000" stroke="none" 
 	d="
M70.966805 403.755370 C70.618454 405.603728 70.527718 407.096312 69.869911 408.271422 C68.342957 410.999205 63.094154 412.711333 61.069069 411.357604 C58.555511 409.677367 58.060890 404.363036 60.834068 401.630461 C62.446381 400.041808 65.249641 399.059813 67.538986 399.018401 C68.655647 398.998168 69.822609 401.755370 70.966805 403.755370 z"/><path class="selected"  fill="#000000" opacity="1.000000" stroke="none" 
 	d="
M62.716805 784.505370 C59.993118 784.614989 57.303101 784.979491 55.162315 784.062193 C54.406235 783.738158 54.412964 780.037047 55.137833 778.330809 C55.782433 776.813475 57.988457 774.889464 59.349556 775.003539 C61.271484 775.164610 63.976959 776.667967 64.621445 778.285277 C65.230156 779.812987 63.607803 782.229674 62.716805 784.505370 z"/><path class="selected"  fill="#000000" opacity="1.000000" stroke="none" 
 	d="
M1307.716805 1010.005370 C1303.785652 1013.780638 1298.766853 1016.697142 1298.866463 1023.274535 C1298.873665 1023.759032 1297.727547 1024.615355 1297.079720 1024.653197 C1296.463142 1024.689452 1295.400032 1024.004759 1295.215828 1023.421507 C1293.775520 1018.859740 1296.194099 1015.176146 1299.093391 1012.447508 C1301.078865 1010.578978 1303.522591 1006.882018 1307.716805 1010.005370 z"/><path class="selected"  fill="#000000" opacity="1.000000" stroke="none" 
 	d="
M1800.216805 910.005370 C1800.943367 910.945433 1801.419930 912.135497 1801.896492 913.325560 C1801.154793 913.468810 1800.412971 913.612059 1799.671272 913.755370 C1799.769783 912.588683 1799.868294 911.422057 1800.216805 910.005370 z"/></svg>