<svg width="721" height="652" viewBox="0 0 721 652" fill="none" xmlns="http://www.w3.org/2000/svg">
<g clip-path="url(#clip0)">
<path d="M720.823 46.2848C716.747 50.0449 711.554 51.4123 706.558 53.0782C697.708 56.0294 688.778 58.7447 679.881 61.5539C674.908 63.124 669.879 64.5351 664.97 66.2845C657.653 68.8919 650.415 71.7193 643.155 74.4829C637.685 76.5648 632.189 78.587 626.787 80.8345C622.344 82.6832 618.015 84.8065 613.65 86.8394C607.844 89.5431 602.01 92.1896 596.27 95.0285C592.281 97.0018 588.419 99.234 584.524 101.393C579.659 104.089 574.753 106.719 569.989 109.584C565.843 112.078 561.851 114.831 557.827 117.523C554.25 119.915 550.672 122.31 547.187 124.832C543.796 127.286 540.515 129.893 537.198 132.448C534.01 134.904 530.824 137.364 527.663 139.856C526.179 141.026 524.741 142.257 523.309 143.492C521.342 145.189 519.418 146.938 517.442 148.626C515.309 150.45 513.066 152.152 511.006 154.052C509.425 155.509 508.126 157.269 506.571 158.756C504.223 161 501.66 163.023 499.374 165.324C496.546 168.172 494.15 171.489 491.131 174.1C486.291 178.287 482.61 183.455 478.622 188.314C472.341 195.967 466.855 204.232 462.433 213.159C459.025 220.038 455.601 226.92 451.855 233.617C448.507 239.602 444.816 245.406 441.067 251.153C439.003 254.318 436.758 257.446 434.135 260.145C431.342 263.02 428.163 265.784 424.106 266.655C420.782 267.369 417.434 266.853 414.523 264.707C411.188 262.249 408.867 259.031 407.864 255.08C407.467 253.516 408.078 251.687 408.303 249.988C408.333 249.76 408.795 249.589 409.056 249.391C409.268 249.698 409.645 249.993 409.667 250.312C409.998 255.116 416.104 259.72 420.211 260.341C422.192 260.64 424.082 259.757 425.615 258.474C430.472 254.409 434.665 249.785 437.819 244.228C439.517 241.236 441.761 238.546 443.39 235.522C446.847 229.103 450.122 222.585 453.363 216.053C457.313 208.094 461.547 200.298 466.548 192.95C468.771 189.685 471.319 186.642 473.693 183.477C478.778 176.697 484.46 170.445 490.535 164.55C492.95 162.207 495.525 160.03 498.007 157.755C498.871 156.962 499.719 156.142 500.476 155.251C500.74 154.941 500.709 154.381 500.813 153.935C500.332 154.048 499.738 154.02 499.391 154.299C498.174 155.279 497.037 156.36 495.877 157.411C493.252 159.792 490.643 162.192 488.005 164.558C486.114 166.254 484.141 167.859 482.285 169.591C477.8 173.778 473.357 178.01 468.907 182.235C463.934 186.954 458.824 191.541 454.055 196.459C450.381 200.246 447.33 204.635 443.663 208.43C439.085 213.168 435.35 218.545 431.37 223.73C428.074 228.022 425.204 232.64 422.111 237.09C421.492 237.981 420.804 238.861 419.99 239.564C419.536 239.957 418.653 240.262 418.155 240.08C417.688 239.91 417.314 239.082 417.18 238.481C416.738 236.498 417.371 234.6 418.256 232.916C420.305 229.018 422.466 225.171 424.767 221.416C427.207 217.434 429.764 213.514 432.452 209.695C434.859 206.274 437.445 202.972 440.075 199.717C443.564 195.397 447.171 191.172 450.734 186.911C450.999 186.595 451.317 186.323 451.61 186.03C458.013 179.631 464.327 173.138 470.847 166.86C476.804 161.125 482.915 155.545 489.093 150.047C492.887 146.67 496.858 143.479 500.887 140.384C505.075 137.167 509.39 134.112 513.718 131.084C521.371 125.729 529.038 120.392 536.775 115.159C540.77 112.457 544.901 109.952 549.017 107.432C553.73 104.546 558.547 101.826 563.225 98.8846C572.09 93.3108 581.398 88.5633 590.815 84.0331C595.589 81.736 600.546 79.8137 605.434 77.7543C607.147 77.0326 608.885 76.3594 610.646 75.7692C611.143 75.6027 611.765 75.8087 612.329 75.8439C612.053 76.3133 611.892 76.9874 611.482 77.22C607.941 79.225 604.331 81.1071 600.789 83.1095C594.934 86.4194 589.11 89.7836 583.283 93.1418C581.224 94.3278 579.178 95.5361 577.167 96.7994C576.771 97.0485 576.563 97.5967 576.268 98.007C576.677 97.8373 577.096 97.6869 577.494 97.4944C579.122 96.7079 580.766 95.9504 582.364 95.1063C587.998 92.1296 593.531 88.9453 599.262 86.1703C606.252 82.7865 613.382 79.6892 620.49 76.5571C626.295 73.9997 632.121 71.4851 638.003 69.1131C644.14 66.6381 650.333 64.2951 656.544 62.0093C661.683 60.1178 666.859 58.3158 672.066 56.6194C676.351 55.2231 680.719 54.0808 685.027 52.7525C691.479 50.7634 697.925 48.7509 704.347 46.6678C708.045 45.4685 711.693 44.1157 715.357 42.8151C715.663 42.7065 715.924 42.4696 716.205 42.2923C715.924 42.1147 715.658 41.9032 715.358 41.7683C715.009 41.6119 714.626 41.4089 714.267 41.4236C712.361 41.5013 710.459 41.6928 708.553 41.7485C704.814 41.8578 701.206 42.5853 697.657 43.7402C697.106 43.9198 696.388 43.5914 695.747 43.4978C695.988 43.0449 696.141 42.5078 696.483 42.1523C699.437 39.0806 703.327 38.1077 707.335 37.5237C709.823 37.1612 712.347 36.8232 714.85 36.8562C716.785 36.8818 718.714 37.5003 720.734 37.8553C720.823 40.6355 720.823 43.4158 720.823 46.2848Z" fill="#111111"/>
<path d="M410.136 580.094C411.835 581.438 413.561 582.575 415.019 583.987C416.069 585.005 417.018 584.975 418.082 584.38C422.747 581.772 427.382 579.111 432.039 576.491C435.349 574.628 438.637 572.722 442.006 570.973C446.98 568.391 452.064 565.743 457.624 565.039C464.347 564.187 471.047 564.935 476.843 569.058C479.557 570.99 482.35 572.899 484.703 575.227C487.29 577.785 489.421 580.806 491.73 583.642C492.296 584.337 492.851 585.058 493.287 585.837C494.314 587.667 493.787 588.546 491.667 588.301C490.382 588.152 489.069 587.716 487.903 587.138C481.171 583.804 474.505 580.336 467.753 577.045C466.393 576.382 464.775 576.156 463.246 575.945C455.856 574.926 449.515 578.034 443.271 581.272C436.636 584.713 430.096 588.339 423.525 591.902C422.142 592.651 421.544 594.231 422.179 595.996C423.124 598.626 422.599 601.109 422.27 603.791C421.634 608.956 419.469 613.458 417.06 617.81C414.855 621.791 412.122 625.516 408.145 628.132C405.506 629.869 403.171 632.065 400.543 633.82C396.008 636.847 391.239 639.444 386.059 641.277C380.335 643.303 374.708 645.605 368.981 647.621C365.304 648.915 361.575 650.153 357.775 650.978C353.103 651.991 348.291 652.572 343.566 651.432C342.097 651.078 340.62 649.861 339.633 648.646C338.445 647.184 337.616 645.364 336.916 643.587C335.644 640.358 337.337 637.75 339.302 635.509C343.153 631.119 347.603 627.357 352.448 624.082C357.485 620.677 362.469 617.186 367.6 613.927C374.657 609.445 381.795 605.087 388.968 600.792C392.837 598.476 396.855 596.408 400.793 594.204C401.201 593.976 401.518 593.587 401.878 593.273C401.513 592.932 401.198 592.503 400.775 592.265C398.617 591.055 396.49 589.768 394.244 588.745C390.613 587.091 386.952 585.472 383.206 584.108C377.029 581.858 370.822 579.666 364.538 577.741C357.745 575.66 350.858 573.88 343.994 572.033C340.31 571.042 336.6 570.14 332.882 569.28C328.445 568.254 323.967 567.397 319.543 566.318C315.043 565.221 310.564 564.021 306.119 562.718C302.861 561.763 299.51 560.898 296.491 559.406C291.719 557.048 286.885 554.767 282.894 551.001C279.353 547.66 276.656 543.861 275.118 539.315C273.321 534.004 274.445 529.079 277.421 524.373C280.475 519.543 284.416 515.477 288.699 511.889C295.6 506.11 303.151 501.215 311.754 498.189C314.076 497.372 316.315 496.247 318.692 495.67C323.348 494.541 328.088 493.681 332.741 495.733C333.996 496.286 335.159 497.068 336.304 497.835C336.696 498.097 337.154 498.631 337.158 499.045C337.182 501.494 337.118 503.945 337.004 506.393C336.965 507.217 336.593 508.026 336.549 508.851C336.479 510.18 336.348 511.445 334.723 511.658C333.802 511.778 332.4 509.942 332.251 508.741C332.072 507.293 331.881 505.835 331.51 504.43C331.406 504.038 330.671 503.602 330.187 503.551C323.093 502.815 316.777 505.103 310.881 508.764C306.16 511.696 301.393 514.586 296.91 517.855C294.359 519.715 292.296 522.261 290.093 524.574C288.84 525.89 287.662 527.299 286.608 528.778C285.618 530.167 284.317 531.63 284.091 533.195C283.803 535.186 284.712 537.201 286.103 538.858C290.22 543.762 295.804 546.139 301.728 547.864C306.546 549.267 311.382 550.64 316.274 551.742C320.428 552.678 324.685 553.14 328.873 553.941C331.975 554.534 335.022 555.414 338.123 556.019C341.102 556.6 344.123 556.961 347.114 557.482C348.476 557.719 349.812 558.107 351.159 558.426C355.31 559.408 359.472 560.346 363.608 561.387C366.598 562.139 369.573 562.968 372.522 563.871C376.981 565.236 381.46 566.563 385.842 568.15C390.94 569.997 396.02 571.898 400.662 574.824C403.68 576.726 406.911 578.29 410.136 580.094ZM367.604 625.614C367.158 625.823 366.668 625.969 366.274 626.251C363.668 628.111 361.011 629.909 358.51 631.903C355.335 634.433 352.282 637.119 349.207 639.773C348.943 640.001 348.907 640.492 348.766 640.861C349.128 640.982 349.532 641.273 349.845 641.195C351.498 640.785 353.146 640.338 354.762 639.801C360.372 637.934 366.074 636.283 371.541 634.058C376.902 631.876 382.072 629.196 387.227 626.544C391.953 624.113 396.104 620.795 400.04 617.263C401.871 615.619 403.438 613.647 404.942 611.684C407.181 608.762 408.573 605.41 409.284 601.801C409.321 601.612 408.5 600.977 408.23 601.057C407.297 601.336 406.391 601.771 405.546 602.267C399.17 606.011 392.761 609.702 386.461 613.569C380.175 617.428 374.003 621.473 367.604 625.614Z" fill="#111111"/>
<path d="M60.2021 410.883C62.2765 402.235 61.6425 393.604 61.5492 385.03C61.5056 381.022 60.7267 377.015 60.1848 373.02C59.8005 370.187 59.3429 367.358 58.757 364.561C58.157 361.696 57.2809 358.89 56.6703 356.028C55.8785 352.317 55.2798 348.565 54.5022 344.851C53.9586 342.254 53.2398 339.695 52.6251 337.114C51.4708 332.266 50.3279 327.415 49.1946 322.562C48.5642 319.863 47.9294 317.163 47.3573 314.451C46.7476 311.56 46.2316 308.649 45.6322 305.756C45.2387 303.857 44.7459 301.979 44.3424 300.082C44.0287 298.607 43.7191 297.126 43.5242 295.632C43.2292 293.372 43.0725 291.093 42.7901 288.831C42.3488 285.296 41.8447 281.769 41.3862 278.237C41.3259 277.771 41.378 277.291 41.378 276.818C41.378 270.075 41.2534 263.328 41.4378 256.589C41.5141 253.803 42.2128 251.027 42.7016 248.26C43.157 245.681 43.5836 243.086 44.2524 240.559C45.0234 237.646 45.9539 234.766 46.9795 231.931C48.783 226.947 51.7644 222.707 55.7707 219.261C58.4544 216.953 61.5598 215.379 65.1639 214.947C66.2623 214.816 67.3268 214.375 68.4251 214.273C74.2138 213.735 79.3633 215.726 84.1981 218.594C86.51 219.966 88.7472 221.558 90.7328 223.364C94.4049 226.703 98.0714 230.088 100.546 234.508C103.316 239.454 105.771 244.475 107.171 250.059C108.6 255.759 109.471 261.466 109.163 267.297C108.979 270.783 108.168 274.232 107.819 277.716C107.305 282.844 105.593 287.638 103.851 292.41C102.466 296.205 100.917 299.96 99.141 303.587C96.7519 308.467 94.2585 313.315 91.4664 317.972C89.0555 321.992 86.1677 325.727 83.4789 329.58C83.2789 329.867 83.0166 330.142 82.7216 330.321C82.4885 330.461 82.1605 330.446 81.8747 330.499C81.8723 330.243 81.7988 329.962 81.8784 329.735C82.9277 326.74 83.8725 323.699 85.0885 320.772C88.4011 312.797 92.0382 304.95 95.1368 296.895C97.0253 291.985 98.2762 286.815 99.5705 281.701C100.138 279.457 99.6363 276.883 100.443 274.774C101.705 271.477 101.428 268.18 101.343 264.883C101.268 261.947 100.97 258.955 100.274 256.109C99.0913 251.27 97.903 246.401 95.3779 241.996C92.5496 237.061 88.8837 232.913 84.3311 229.501C81.1862 227.144 77.6212 225.57 73.904 224.699C70.1099 223.811 66.3381 224.736 63.1291 227.14C58.0103 230.975 55.205 236.27 53.8256 242.384C53.1383 245.43 52.6978 248.531 52.0183 251.58C50.5071 258.358 50.3968 265.238 50.6694 272.11C50.8333 276.245 51.5606 280.357 52.0327 284.479C52.272 286.569 52.5246 288.659 52.7393 290.751C53.0596 293.873 53.2718 296.989 54.4569 299.979C55.0027 301.355 54.9398 302.963 55.2384 304.449C56.4009 310.234 57.5596 316.02 58.7942 321.789C59.6754 325.907 60.6953 329.995 61.6179 334.104C62.8217 339.465 63.9892 344.835 65.175 350.201C66.0013 353.94 66.9528 357.657 67.6258 361.423C68.262 364.984 68.5679 368.602 69.0946 372.184C69.4856 374.844 70.2029 377.469 70.4117 380.139C70.8143 385.287 71.3424 390.479 71.0352 395.605C70.9015 397.837 70.7473 400.154 70.4817 402.418C70.0871 405.78 69.6537 409.145 69.0535 412.475C68.4732 415.694 67.7633 418.899 66.918 422.059C66.2399 424.594 65.2467 427.044 64.4686 429.555C64.3662 429.886 64.6223 430.644 64.8599 430.716C69.7593 432.193 74.654 433.699 79.6072 434.978C82.3125 435.676 85.1271 435.947 87.8837 436.458C88.2717 436.53 88.6099 436.87 88.9711 437.086C88.6405 437.462 88.3673 438.08 87.9702 438.173C85.1546 438.838 82.3366 439.591 79.4737 439.927C77.0214 440.215 74.4995 440.12 72.0244 439.954C68.6703 439.73 65.3088 439.416 61.994 438.874C59.7278 438.504 59.3284 440.152 58.4111 441.436C56.315 444.368 54.3314 447.414 51.9509 450.104C47.8538 454.732 42.6747 458.036 36.6562 459.262C32.9968 460.008 29.2178 460.766 25.1857 459.707C22.1271 458.903 19.0638 458.244 16.2094 456.878C9.83391 453.824 5.44364 448.87 2.26458 442.615C0.145523 438.446 -0.425494 434.025 0.29787 429.653C1.0539 425.083 3.61565 421.351 8.16969 419.395C13.0388 417.304 18.2218 417.623 23.1956 418.133C27.8097 418.606 32.3182 420.261 36.8279 421.554C41.8428 422.991 46.8064 424.607 51.793 426.143C51.8471 426.16 51.9159 426.129 51.9693 426.147C55.7426 427.397 55.8188 427.421 56.983 423.577C58.037 420.097 58.9082 416.562 59.8393 413.046C60.011 412.397 60.0837 411.723 60.2021 410.883ZM8.70209 434.841C8.82049 435.146 9.02624 435.447 9.04422 435.759C9.3326 440.758 12.8532 443.763 16.1908 446.657C18.7267 448.856 22.1043 449.666 25.3931 450.517C30.0066 451.71 34.1497 450.574 38.2343 448.629C42.3781 446.656 45.1187 443.046 48.2893 439.949C48.9418 439.311 49.2596 438.332 49.7317 437.51C48.8046 437.034 47.9261 436.376 46.9421 436.114C42.3505 434.89 37.7045 433.866 33.1254 432.6C26.665 430.812 20.444 427.86 13.4404 428.97C10.6341 429.415 8.38013 431.599 8.70209 434.841Z" fill="#111111"/>
<path d="M376.394 120.997C380.583 118.231 384.622 115.455 388.8 112.907C392.463 110.673 396.242 108.617 400.041 106.62C406.841 103.046 413.619 99.4174 420.547 96.1088C426.96 93.0469 433.55 90.3564 440.077 87.535C445.598 85.1479 451.113 82.7422 456.68 80.4651C462.096 78.2498 467.566 76.165 473.028 74.0633C480.329 71.2537 487.633 68.4525 494.958 65.705C501.209 63.36 507.492 61.0974 513.76 58.7954C518.537 57.0407 523.291 55.2193 528.096 53.5408C533.219 51.7509 538.395 50.1127 543.537 48.3748C551.064 45.8304 558.571 43.2276 566.105 40.7032C572.813 38.4557 579.527 36.2229 586.273 34.0929C591.567 32.421 596.923 30.942 602.237 29.3287C606.386 28.0688 610.495 26.673 614.654 25.4469C621.253 23.5013 627.882 21.6567 634.493 19.751C639.938 18.1815 645.364 16.548 650.818 15.0116C656.283 13.472 661.754 11.9456 667.257 10.5493C671.452 9.48495 675.701 8.63429 679.925 7.68096C680.07 7.64809 680.197 7.53352 680.333 7.45703C680.195 7.21831 680.086 6.95656 679.914 6.74509C679.307 5.99587 678.603 5.31368 678.073 4.51527C676.805 2.60767 677.56 1.75394 679.439 1.0339C683.996 -0.71149 688.4 0.164921 692.489 2.64899C694.283 3.73895 695.976 4.03252 698.058 3.36102C700.532 2.56284 703.142 2.17464 705.708 1.68462C706.07 1.61535 706.515 1.97497 706.922 2.13607C706.627 2.46351 706.394 2.94569 706.027 3.09238C704.147 3.84317 702.233 4.50938 700.33 5.20096C699.661 5.44407 698.883 5.54417 698.356 5.96198C698.049 6.20496 697.873 7.14613 698.09 7.43765C701.244 11.678 702.634 16.4746 702.698 21.6878C702.744 25.4543 702.716 29.1438 701.39 32.8484C700.099 36.4527 697.33 38.6061 694.913 41.1631C694.732 41.3547 693.944 41.3382 693.898 41.2269C693.733 40.8328 693.598 40.2808 693.755 39.9221C694.679 37.8187 696.157 35.839 696.559 33.6543C697.122 30.5908 697.484 27.2696 696.886 24.267C696.068 20.1675 694.718 16.0589 692.036 12.6471C691.098 11.4548 690.001 10.3702 688.863 9.36537C688.58 9.1157 687.818 9.25484 687.336 9.40687C682.104 11.0593 676.885 12.7501 671.662 14.43C664.14 16.8491 656.594 19.1939 649.104 21.7055C639.858 24.8057 630.658 28.0408 621.441 31.2243C610.256 35.0872 599.055 38.9048 587.897 42.8423C580.156 45.5739 572.505 48.5611 564.758 51.2772C556.328 54.2329 547.815 56.9495 539.375 59.8789C532.549 62.248 525.785 64.7926 518.983 67.2323C512.747 69.4694 506.487 71.6423 500.257 73.8949C493.875 76.2022 487.511 78.56 481.148 80.9183C476.838 82.5154 472.537 84.1339 468.244 85.7749C463.032 87.767 457.824 89.7697 452.632 91.8109C447.899 93.6716 443.171 95.5479 438.475 97.4994C435.849 98.5907 433.286 99.8348 430.706 101.035C423.857 104.221 416.879 107.164 410.206 110.682C402.309 114.844 394.587 119.359 386.962 124.005C381.628 127.256 376.536 130.914 371.434 134.529C369.42 135.956 367.67 137.755 365.803 139.39C361.938 142.776 357.803 145.907 354.274 149.613C348.79 155.371 343.722 161.553 340.314 168.825C338.034 173.689 336.549 178.768 336.448 184.29C336.337 190.324 337.971 195.744 340.523 201.095C343.399 207.127 346.996 212.731 351.344 217.683C355.301 222.188 358.798 227.246 364.175 230.446C366.743 231.974 368.937 234.135 371.278 236.037C372.614 237.122 373.296 239.425 372.754 240.807C372.185 242.257 371.156 242.76 369.766 241.92C366.957 240.224 364.119 238.525 361.543 236.508C358.759 234.329 356.025 231.995 353.691 229.356C349.691 224.831 345.871 220.126 342.26 215.284C339.747 211.916 337.377 208.355 335.546 204.587C333.317 200.002 331.01 195.348 330.817 190.037C330.743 187.999 330.135 185.968 330.178 183.942C330.298 178.31 331.589 172.916 333.58 167.624C335.979 161.246 339.464 155.577 343.797 150.379C346.219 147.474 348.397 144.309 351.136 141.74C355.913 137.259 360.98 133.075 366.04 128.906C369.357 126.173 372.877 123.684 376.394 120.997Z" fill="#111111"/>
<path d="M181.937 418.603C179.54 422.414 176.466 425.308 172.541 427.284C168.303 429.418 161.906 428.253 158.057 425.595C153.626 422.534 151.483 418.102 149.41 413.554C148.576 411.725 148.385 409.6 147.938 407.602C147.743 406.727 147.647 405.83 147.489 404.946C147.422 404.566 147.186 404.175 147.239 403.82C147.656 401.045 148.029 398.258 148.604 395.513C149.145 392.925 149.58 390.233 150.656 387.854C152.71 383.313 155.012 378.86 157.551 374.571C159.183 371.816 161.189 369.188 163.446 366.919C166.534 363.814 169.822 360.745 174.134 359.388C176.735 358.569 179.421 357.961 182.275 358.665C185.588 359.483 188.381 360.929 190.192 363.886C190.786 364.856 191.208 365.952 191.555 367.04C191.684 367.444 191.372 367.988 191.262 368.468C190.85 368.295 190.438 368.122 190.028 367.947C189.692 367.803 189.358 367.656 189.023 367.511C189.059 367.901 188.969 368.364 189.149 368.669C191.607 372.861 193.983 377.108 196.62 381.186C199.577 385.76 203.528 389.359 208.36 391.938C209.52 392.557 210.678 393.207 211.901 393.674C213.229 394.183 214.282 393.936 214.719 392.298C215.603 388.989 215.441 385.794 214.817 382.392C213.942 377.626 212.824 372.982 211.159 368.444C209.035 362.655 206.269 357.195 203.139 351.885C201.419 348.967 199.923 345.889 198.635 342.756C197.612 340.269 198.631 337.614 201.057 336.391C205.33 334.236 209.787 332.724 214.678 332.339C217.536 332.114 220.28 331.993 223.001 332.815C227.187 334.078 230.326 338.213 230.717 342.54C230.877 344.303 231.381 346.037 231.754 347.779C232.334 350.493 233.019 353.188 233.508 355.919C234.421 361.012 236.47 365.572 239.438 369.798C242.562 374.247 246.321 378.147 250.551 381.427C255.155 384.996 260.285 387.829 265.944 389.631C270.252 391.003 274.563 391.952 279.103 391.748C279.647 391.723 280.21 392.119 280.764 392.319C280.336 392.724 279.977 393.312 279.469 393.499C277.668 394.162 275.841 394.786 273.978 395.236C272.395 395.618 270.716 396.069 269.137 395.913C264.872 395.492 260.583 395.012 256.403 394.101C249.741 392.649 244.056 389.114 238.695 385.01C234.689 381.943 231.596 378.196 229.152 373.763C226.792 369.483 224.864 365.102 223.938 360.3C223.22 356.574 222.45 352.856 221.835 349.113C221.546 347.357 221.595 345.547 221.442 343.765C221.331 342.485 220.697 341.884 219.293 341.998C217.705 342.126 216.075 341.853 214.507 342.069C212.254 342.379 210.008 342.861 207.824 343.493C206.699 343.819 207.046 344.794 207.474 345.643C209.128 348.919 210.685 352.245 212.392 355.492C215.462 361.335 217.719 367.509 219.582 373.8C220.501 376.902 220.639 380.238 221.087 383.474C221.368 385.5 221.933 387.574 221.725 389.558C221.359 393.063 220.617 396.484 218.76 399.675C217.22 402.323 214.175 402.603 211.479 401.694C206.619 400.056 202.366 397.221 198.679 393.618C196.239 391.235 193.831 388.818 191.448 386.378C190.863 385.779 190.431 385.032 189.929 384.352C189.781 385.296 189.533 386.238 189.505 387.185C189.441 389.372 189.483 391.561 189.485 393.75C189.492 400.289 187.629 406.412 185.191 412.377C184.324 414.499 183.092 416.472 181.937 418.603ZM155.388 399.348C155.14 402.005 155.823 404.533 156.364 407.1C157.152 410.842 159.553 413.404 162.261 415.815C163.423 416.85 166.721 417.271 168.04 416.53C171.863 414.385 174.372 411.047 176.318 407.267C177.883 404.23 179.112 401.045 179.547 397.606C179.988 394.131 180.807 390.671 180.881 387.192C180.974 382.744 180.506 378.282 180.236 373.829C180.175 372.824 179.914 371.833 179.778 370.832C179.565 369.259 179.117 367.651 179.305 366.124C179.389 365.439 180.783 364.929 181.557 364.307C181.763 364.14 181.872 363.853 182.026 363.621C181.736 363.521 181.399 363.273 181.162 363.346C179.017 364.013 176.748 364.468 174.783 365.495C169.876 368.06 166.716 372.499 163.591 376.853C160.826 380.706 158.589 384.898 157.418 389.54C156.63 392.663 156.057 395.84 155.388 399.348Z" fill="#111111"/>
<path d="M555.579 518.869C556.42 521.603 557.201 524.241 557.918 526.895C558.968 530.781 559.954 534.684 561.001 538.571C561.831 541.653 562.748 544.712 563.562 547.798C564.982 553.187 566.363 558.586 567.72 563.991C567.817 564.378 567.588 564.846 567.511 565.276C567.112 565.096 566.569 565.024 566.339 564.717C565.198 563.197 563.953 561.712 563.084 560.038C559.83 553.766 556.571 547.489 553.579 541.089C551.105 535.798 548.998 530.334 546.744 524.939C546.365 524.032 546.093 523.08 545.716 522.172C545.631 521.967 545.316 521.857 545.107 521.703C544.957 521.937 544.667 522.179 544.681 522.403C544.748 523.539 544.981 524.67 544.996 525.805C545.041 529.234 545.021 532.664 545.006 536.094C545.003 536.972 545.1 537.57 546.028 538.168C548.268 539.611 548.495 542.242 546.757 543.836C546.626 543.956 546.507 544.193 546.379 544.196C543.796 544.252 544.312 546.132 544.303 547.695C544.284 551.162 543.684 554.523 542.711 557.854C541.921 560.56 541.619 563.421 540.703 566.076C538.865 571.401 536.948 576.732 533.973 581.554C531.606 585.39 528.807 588.899 524.695 591.078C518.183 594.53 512.769 591.471 509.776 586.247C508.455 583.941 507.42 581.408 506.673 578.856C506.211 577.278 506.262 575.422 506.555 573.774C507.547 568.192 510.529 563.452 513.441 558.727C514.392 557.183 515.656 555.798 516.938 554.5C521.391 549.991 525.681 545.305 531.3 542.097C532.096 541.643 532.506 539.934 532.526 538.796C532.64 532.293 533.083 525.737 532.43 519.298C531.86 513.691 532.128 508.125 531.86 502.547C531.68 498.799 531.76 494.984 531.038 491.334C530.522 488.731 530.953 486.105 530.364 483.642C529.459 479.861 529.898 475.953 528.537 472.179C526.97 467.835 525.994 463.236 525.197 458.672C524.585 455.169 524.58 451.551 524.436 447.98C524.339 445.572 525.243 444.377 527.612 443.743C529.89 443.133 532.142 442.131 534.584 443.529C536.661 444.719 537.115 446.672 537.54 448.686C538.058 451.144 538.495 453.621 538.926 456.096C539.215 457.76 539.486 459.43 539.672 461.107C539.956 463.665 540.045 466.248 540.418 468.791C541.295 474.78 542.276 480.723 544.398 486.472C547.77 495.61 550.811 504.871 553.98 514.084C554.515 515.639 554.988 517.215 555.579 518.869ZM524.945 558.887C522.859 561.8 520.659 564.639 518.721 567.646C516.891 570.485 515.513 573.518 516.581 577.091C517.099 578.827 518.249 579.669 519.222 578.783C520.26 577.837 521.415 576.935 522.18 575.788C524.709 571.997 527.075 568.097 528.317 563.647C529.158 560.63 529.991 557.611 530.788 554.583C530.891 554.193 530.759 553.741 530.736 553.317C530.368 553.495 529.911 553.588 529.645 553.864C528.113 555.455 526.625 557.09 524.945 558.887Z" fill="#111111"/>
<path d="M587.722 259.596C586.336 254.307 584.985 249.119 583.756 243.903C582.04 236.619 580.467 229.302 578.734 222.023C577.79 218.056 576.533 214.164 575.616 210.192C574.751 206.443 574.18 202.626 573.416 198.852C572.755 195.588 571.806 192.369 571.35 189.079C570.869 185.603 570.803 182.068 570.612 178.555C570.59 178.165 570.853 177.689 571.119 177.364C572.555 175.613 574.585 176.224 576.336 176.354C577.923 176.471 578.392 178.126 578.725 179.452C579.524 182.626 580.183 185.834 580.883 189.032C582.31 195.54 583.585 202.085 585.187 208.55C586.802 215.067 588.676 221.522 590.55 227.972C592.588 234.986 594.785 241.953 596.855 248.957C597.791 252.127 598.528 255.356 599.457 258.529C601.4 265.172 603.414 271.795 605.385 278.43C605.558 279.015 605.584 279.645 605.766 280.226C605.855 280.51 606.146 280.731 606.346 280.98C606.62 280.677 607.084 280.404 607.139 280.065C607.809 275.941 610.16 272.532 612.041 268.967C612.974 267.197 614.906 266.154 617.164 266.043C618.967 265.954 620.754 265.569 622.554 265.371C624.888 265.114 626.976 266.125 628.561 267.51C633.007 271.395 637.347 275.426 641.453 279.667C644.3 282.607 646.481 286.193 649.338 289.122C653.031 292.908 657.088 296.476 662.475 297.577C664.917 298.076 667.548 297.629 670.092 297.686C670.668 297.699 671.237 298.027 671.809 298.209C671.436 298.577 671.025 298.914 670.696 299.317C668.058 302.546 664.194 303.814 660.481 304.576C657.764 305.134 654.635 305.435 651.734 304.104C649.454 303.059 646.835 302.693 644.66 301.495C641.593 299.805 638.711 297.738 635.913 295.618C633.969 294.145 632.16 292.434 630.539 290.609C628.081 287.841 625.879 284.848 623.479 282.025C622.858 281.296 621.964 280.59 621.08 280.395C620.718 280.315 619.808 281.545 619.564 282.311C618.431 285.873 617.529 289.508 616.376 293.063C615.365 296.182 614.217 299.265 612.96 302.293C612.331 303.807 611.516 305.333 610.443 306.555C608.436 308.841 606.58 308.687 604.239 306.658C600.584 303.491 598.442 299.289 596.972 294.935C594.685 288.163 593.045 281.17 591.198 274.253C590.087 270.089 589.093 265.894 588.072 261.707C587.912 261.05 587.895 260.359 587.722 259.596Z" fill="#111111"/>
<path d="M493.868 302.631C493.633 296.639 495.522 291.384 497.975 286.231C499.126 283.814 501.304 282.843 503.395 283.1C505.659 283.379 506.038 285.278 506.627 286.891C507.624 289.621 508.561 292.353 508.485 295.373C508.433 297.456 509.39 299.635 509.05 301.627C507.985 307.858 508.997 314.141 508.288 320.317C507.936 323.374 508.168 326.452 507.645 329.429C506.912 333.604 506.643 337.917 504.555 341.798C503.315 344.102 502.639 346.734 501.245 348.922C500.214 350.539 498.645 352.262 496.933 352.883C494.783 353.661 492.298 353.127 490.353 351.471C488.779 350.131 487.066 348.923 485.652 347.431C481.654 343.212 478.577 338.314 475.78 333.253C474.673 331.249 473.868 329.08 472.9 326.998C472.798 326.78 472.517 326.645 472.32 326.471C472.044 326.889 471.441 327.43 471.545 327.705C472.221 329.493 471.173 331.114 471.188 332.784C471.235 337.829 469.668 342.487 467.869 347.046C467.009 349.225 465.584 351.266 464.067 353.079C462.429 355.036 458.907 354.754 456.731 353.445C450.836 349.898 447.931 344.018 444.493 338.517C440.761 332.545 436.977 326.606 433.23 320.644C432.32 319.194 431.431 317.728 430.598 316.233C429.276 313.858 429.108 311.87 430.217 311.074C431.91 309.859 435.331 309.301 437.147 311.154C439.968 314.034 442.614 317.096 445.187 320.203C447.713 323.254 450.071 326.447 452.474 329.599C453.804 331.344 455.055 333.148 456.388 334.89C456.64 335.22 457.111 335.382 457.48 335.621C457.652 335.16 457.897 334.712 457.983 334.236C458.464 331.59 458.937 328.942 459.352 326.286C459.658 324.329 459.848 322.355 460.132 320.395C460.623 316.991 461.236 313.542 463.109 310.653C463.823 309.553 465.715 309.115 467.152 308.609C468.959 307.973 470.815 306.962 472.796 307.967C475.366 309.27 477.839 310.651 479.482 313.232C482.533 318.023 485.747 322.71 488.897 327.438C489.547 328.413 490.191 329.395 490.893 330.333C491.117 330.632 491.519 330.798 491.839 331.025C492.042 330.65 492.404 330.284 492.423 329.9C492.695 324.5 492.892 319.095 493.167 313.695C493.352 310.064 493.631 306.437 493.868 302.631Z" fill="#111111"/>
<path d="M556.378 300.856C554.602 295.677 552.754 290.7 551.096 285.66C550.618 284.207 550.165 284.084 548.879 284.711C542.334 287.899 535.712 290.933 529.197 294.18C526.826 295.362 524.602 296.885 522.463 298.458C521.68 299.033 521.393 300.245 520.77 301.085C520.413 301.567 519.815 302.219 519.362 302.192C518.777 302.157 517.878 301.627 517.722 301.123C516.85 298.295 516.225 295.211 518.255 292.781C520.018 290.67 522.337 288.938 524.642 287.379C531.153 282.978 538.436 280.208 545.861 277.773C547.992 277.074 548.21 276.488 547.498 274.225C545.573 268.103 543.584 262 541.733 255.856C539.103 247.121 536.586 238.353 533.997 229.606C532.844 225.711 531.568 221.851 530.472 217.94C529.652 215.012 529.075 212.017 528.282 209.081C528.121 208.485 527.575 207.878 527.042 207.519C525.32 206.36 525.029 204.54 524.794 202.762C524.347 199.373 524.076 195.961 523.694 192.562C523.508 190.899 524.207 189.808 525.827 189.636C527.472 189.46 529.202 189.34 530.803 189.659C532.964 190.089 533.785 192.016 534.346 193.927C536.035 199.678 537.582 205.471 539.35 211.197C542.151 220.26 544.956 229.326 547.999 238.309C551.316 248.102 554.91 257.8 558.376 267.542C558.817 268.78 559.17 270.051 559.648 271.274C560.098 272.428 560.841 272.849 562.202 272.5C565.428 271.672 568.709 271.06 571.96 270.324C573.358 270.007 574.725 269.548 576.128 269.26C576.703 269.142 577.335 269.307 577.941 269.343C577.673 269.909 577.557 270.753 577.111 270.997C573.938 272.737 570.704 274.367 567.475 276.004C566.451 276.523 565.407 277.018 564.334 277.417C562.425 278.128 562.344 278.43 562.93 280.28C564.589 285.513 566.218 290.758 567.719 296.038C568.791 299.809 569.747 303.621 570.55 307.458C571.195 310.538 571.488 313.69 572.017 316.796C572.674 320.652 573.413 324.494 574.115 328.343C574.136 328.456 574.128 328.574 574.137 328.689C574.373 331.844 574.707 334.996 574.799 338.154C574.835 339.399 574.346 340.663 574.056 341.909C574.015 342.084 573.617 342.35 573.59 342.327C573.275 342.066 572.903 341.805 572.732 341.454C571.752 339.437 570.756 337.424 569.888 335.358C568.067 331.026 566.278 326.68 564.56 322.307C562.96 318.237 561.487 314.117 559.924 310.033C558.771 307.022 557.562 304.032 556.378 300.856Z" fill="#111111"/>
<path d="M322.586 339.986C322.674 340.253 322.617 340.456 322.683 340.604C324.471 344.595 325.981 348.75 328.18 352.503C329.505 354.765 331.737 356.617 333.866 358.26C336.525 360.312 339.546 361.986 342.944 362.4C346.185 362.796 349.288 363.441 352.794 362.821C358.925 361.736 364.555 359.481 370.328 357.47C371.086 357.205 372.067 357.579 372.944 357.657C372.677 358.506 372.654 359.584 372.105 360.169C368.119 364.413 363.369 367.712 358.272 370.44C355.103 372.136 351.766 373.674 348.328 374.681C341.963 376.545 335.329 376.707 329.328 373.825C324.997 371.744 321.462 368.299 318.958 363.829C316.654 359.719 314.685 355.548 313.404 351.036C313.148 350.133 312.952 349.212 312.73 348.299C312.653 347.983 312.582 347.667 312.509 347.351C312.151 347.487 311.652 347.517 311.458 347.775C310.282 349.343 309.099 350.915 308.06 352.574C305.331 356.931 303.653 361.743 302.146 366.622C301.062 370.134 300.053 373.674 298.829 377.137C298.433 378.256 297.559 379.262 296.726 380.154C295.724 381.225 293.969 380.771 292.372 379.382C289.139 376.57 287.252 372.822 285.43 369.116C281.785 361.708 278.409 354.168 274.943 346.672C274.003 344.638 273.24 342.517 272.205 340.536C271.486 339.158 270.405 337.974 269.557 336.657C269.177 336.068 268.889 335.388 268.704 334.71C268.212 332.905 268.786 331.976 270.68 331.342C273.559 330.377 276.185 331.596 277.925 334.677C282.418 342.634 286.919 350.588 291.425 358.538C291.605 358.856 291.87 359.126 292.096 359.419C292.344 359.208 292.817 358.984 292.806 358.788C292.657 356.149 294.371 354.181 295.4 352.045C297.662 347.347 300.198 342.767 302.874 338.289C304.448 335.652 307.292 334.526 310.211 334.297C312.583 334.111 315.078 334.335 317.394 334.893C319.919 335.503 321.301 337.706 322.586 339.986Z" fill="#111111"/>
<path d="M96.6959 369.268C98.9205 364.324 101.963 360.171 106.524 357.357C110.681 354.793 115.226 353.954 119.675 356.316C122.969 358.065 125.197 361.108 125.842 364.835C126.4 368.052 126.817 371.411 126.499 374.628C126.168 377.988 125.093 381.326 123.971 384.544C121.674 391.132 118.505 397.312 114.207 402.841C112.198 405.425 110.001 407.867 107.802 410.296C107.171 410.993 106.877 411.5 107.432 412.352C110.94 417.725 114.889 422.769 119.814 426.879C123.596 430.035 128.058 432.238 132.831 433.508C135.229 434.146 137.818 434.056 140.319 434.317C140.731 434.36 141.131 434.513 141.536 434.615C141.339 435.006 141.243 435.541 140.927 435.766C138.675 437.365 136.2 438.393 133.398 438.574C126.809 439 120.614 437.66 114.947 434.276C112.548 432.844 110.25 431.192 108.096 429.41C104.28 426.253 100.908 422.653 98.176 418.489C95.1921 413.942 93.1855 408.971 91.8352 403.734C91.3479 401.844 90.5489 399.775 90.8983 397.983C91.6192 394.286 90.1923 390.5 91.7491 386.858C92.37 385.405 92.3544 383.658 92.5095 382.034C92.9425 377.5 94.7828 373.434 96.6959 369.268ZM103.355 374.326C103.23 374.688 103.089 375.045 102.982 375.412C101.525 380.386 100.023 385.36 100.358 390.632C100.454 392.139 100.995 393.628 101.01 395.128C101.048 398.84 102.688 402.131 103.564 405.618C103.633 405.892 104.116 406.151 104.452 406.237C104.699 406.3 105.153 406.155 105.289 405.952C107.022 403.367 108.654 400.713 110.43 398.157C113.524 393.703 116.101 388.957 117.882 383.862C119.188 380.127 120.18 376.239 120.853 372.339C121.311 369.682 120.326 367.021 119.134 364.589C118.483 363.261 115.353 362.212 113.965 362.657C110.576 363.743 108.258 366.289 106.111 368.86C104.89 370.321 104.369 372.366 103.355 374.326Z" fill="#111111"/>
<path d="M538.974 342.027C538.974 342.677 538.968 343.15 538.976 343.622C538.983 344.037 539.007 344.452 539.023 344.867C538.548 344.586 537.873 344.422 537.632 344.006C536.147 341.442 534.704 338.851 533.359 336.212C532.194 333.927 531.145 331.581 530.102 329.236C528.418 325.446 526.744 321.651 525.139 317.827C524.443 316.167 523.91 314.437 523.335 312.728C522.495 310.23 522.814 309.199 524.651 308.309C526.368 307.478 528.173 308.124 529.395 309.851C532.997 314.943 534.884 320.71 536.125 326.73C536.878 330.384 537.562 334.051 538.26 337.716C538.522 339.089 538.738 340.472 538.974 342.027Z" fill="#111111"/>
<path d="M623.772 548.506C622.562 549.738 621.588 549.514 620.381 548.544C617.935 546.582 616.942 543.705 615.583 541.114C613.985 538.066 615.155 535.971 618.489 534.971C620.929 534.239 623.356 533.852 625.592 535.486C626.076 535.84 626.59 536.465 626.662 537.021C627.199 541.163 625.938 544.898 623.772 548.506Z" fill="#111111"/>
<path d="M504.168 261.814C504.762 261.104 505.282 260.278 505.968 260.102C507.279 259.767 508.715 259.572 510.043 259.746C511.529 259.94 512.681 261.024 512.646 262.609C512.598 264.737 512.146 266.82 510.522 268.436C510.171 268.786 509.763 269.212 509.667 269.663C509.209 271.819 508.373 270.797 507.534 269.969C505.311 267.774 503.834 265.264 504.168 261.814Z" fill="#111111"/>
<path d="M480.105 537.503C479.187 535.876 478.245 534.384 477.602 532.772C477.42 532.316 477.943 531.193 478.434 530.938C479.302 530.489 480.499 530.098 481.372 530.343C483.783 531.019 484.73 533.701 483.603 535.965C483.41 536.353 483.295 536.78 483.099 537.166C482.344 538.65 481.585 538.756 480.105 537.503Z" fill="#111111"/>
</g>
<defs>
<clipPath id="clip0">
<rect width="721" height="652" fill="white"/>
</clipPath>
</defs>
</svg>
